%TF.GenerationSoftware,KiCad,Pcbnew,(5.1.6)-1*%
%TF.CreationDate,2020-08-24T13:49:57+03:00*%
%TF.ProjectId,PC1600SIO,50433136-3030-4534-994f-2e6b69636164,rev?*%
%TF.SameCoordinates,Original*%
%TF.FileFunction,Paste,Top*%
%TF.FilePolarity,Positive*%
%FSLAX46Y46*%
G04 Gerber Fmt 4.6, Leading zero omitted, Abs format (unit mm)*
G04 Created by KiCad (PCBNEW (5.1.6)-1) date 2020-08-24 13:49:57*
%MOMM*%
%LPD*%
G01*
G04 APERTURE LIST*
%ADD10R,0.450000X1.750000*%
%ADD11R,1.900000X1.500000*%
%ADD12R,1.350000X0.400000*%
G04 APERTURE END LIST*
D10*
%TO.C,U1*%
X120235000Y-120860000D03*
X120885000Y-120860000D03*
X121535000Y-120860000D03*
X122185000Y-120860000D03*
X122835000Y-120860000D03*
X123485000Y-120860000D03*
X124135000Y-120860000D03*
X124785000Y-120860000D03*
X125435000Y-120860000D03*
X126085000Y-120860000D03*
X126735000Y-120860000D03*
X127385000Y-120860000D03*
X128035000Y-120860000D03*
X128685000Y-120860000D03*
X128685000Y-128060000D03*
X128035000Y-128060000D03*
X127385000Y-128060000D03*
X126735000Y-128060000D03*
X126085000Y-128060000D03*
X125435000Y-128060000D03*
X124785000Y-128060000D03*
X124135000Y-128060000D03*
X123485000Y-128060000D03*
X122835000Y-128060000D03*
X122185000Y-128060000D03*
X121535000Y-128060000D03*
X120885000Y-128060000D03*
X120235000Y-128060000D03*
%TD*%
%TO.C,R13*%
G36*
G01*
X116635000Y-113849999D02*
X116635000Y-114750001D01*
G75*
G02*
X116385001Y-115000000I-249999J0D01*
G01*
X115734999Y-115000000D01*
G75*
G02*
X115485000Y-114750001I0J249999D01*
G01*
X115485000Y-113849999D01*
G75*
G02*
X115734999Y-113600000I249999J0D01*
G01*
X116385001Y-113600000D01*
G75*
G02*
X116635000Y-113849999I0J-249999D01*
G01*
G37*
G36*
G01*
X118685000Y-113849999D02*
X118685000Y-114750001D01*
G75*
G02*
X118435001Y-115000000I-249999J0D01*
G01*
X117784999Y-115000000D01*
G75*
G02*
X117535000Y-114750001I0J249999D01*
G01*
X117535000Y-113849999D01*
G75*
G02*
X117784999Y-113600000I249999J0D01*
G01*
X118435001Y-113600000D01*
G75*
G02*
X118685000Y-113849999I0J-249999D01*
G01*
G37*
%TD*%
%TO.C,R12*%
G36*
G01*
X116635000Y-116389999D02*
X116635000Y-117290001D01*
G75*
G02*
X116385001Y-117540000I-249999J0D01*
G01*
X115734999Y-117540000D01*
G75*
G02*
X115485000Y-117290001I0J249999D01*
G01*
X115485000Y-116389999D01*
G75*
G02*
X115734999Y-116140000I249999J0D01*
G01*
X116385001Y-116140000D01*
G75*
G02*
X116635000Y-116389999I0J-249999D01*
G01*
G37*
G36*
G01*
X118685000Y-116389999D02*
X118685000Y-117290001D01*
G75*
G02*
X118435001Y-117540000I-249999J0D01*
G01*
X117784999Y-117540000D01*
G75*
G02*
X117535000Y-117290001I0J249999D01*
G01*
X117535000Y-116389999D01*
G75*
G02*
X117784999Y-116140000I249999J0D01*
G01*
X118435001Y-116140000D01*
G75*
G02*
X118685000Y-116389999I0J-249999D01*
G01*
G37*
%TD*%
%TO.C,R11*%
G36*
G01*
X132948000Y-140142001D02*
X132948000Y-139241999D01*
G75*
G02*
X133197999Y-138992000I249999J0D01*
G01*
X133848001Y-138992000D01*
G75*
G02*
X134098000Y-139241999I0J-249999D01*
G01*
X134098000Y-140142001D01*
G75*
G02*
X133848001Y-140392000I-249999J0D01*
G01*
X133197999Y-140392000D01*
G75*
G02*
X132948000Y-140142001I0J249999D01*
G01*
G37*
G36*
G01*
X130898000Y-140142001D02*
X130898000Y-139241999D01*
G75*
G02*
X131147999Y-138992000I249999J0D01*
G01*
X131798001Y-138992000D01*
G75*
G02*
X132048000Y-139241999I0J-249999D01*
G01*
X132048000Y-140142001D01*
G75*
G02*
X131798001Y-140392000I-249999J0D01*
G01*
X131147999Y-140392000D01*
G75*
G02*
X130898000Y-140142001I0J249999D01*
G01*
G37*
%TD*%
%TO.C,R10*%
G36*
G01*
X133555000Y-126180001D02*
X133555000Y-125279999D01*
G75*
G02*
X133804999Y-125030000I249999J0D01*
G01*
X134455001Y-125030000D01*
G75*
G02*
X134705000Y-125279999I0J-249999D01*
G01*
X134705000Y-126180001D01*
G75*
G02*
X134455001Y-126430000I-249999J0D01*
G01*
X133804999Y-126430000D01*
G75*
G02*
X133555000Y-126180001I0J249999D01*
G01*
G37*
G36*
G01*
X131505000Y-126180001D02*
X131505000Y-125279999D01*
G75*
G02*
X131754999Y-125030000I249999J0D01*
G01*
X132405001Y-125030000D01*
G75*
G02*
X132655000Y-125279999I0J-249999D01*
G01*
X132655000Y-126180001D01*
G75*
G02*
X132405001Y-126430000I-249999J0D01*
G01*
X131754999Y-126430000D01*
G75*
G02*
X131505000Y-126180001I0J249999D01*
G01*
G37*
%TD*%
%TO.C,R9*%
G36*
G01*
X133555000Y-123640001D02*
X133555000Y-122739999D01*
G75*
G02*
X133804999Y-122490000I249999J0D01*
G01*
X134455001Y-122490000D01*
G75*
G02*
X134705000Y-122739999I0J-249999D01*
G01*
X134705000Y-123640001D01*
G75*
G02*
X134455001Y-123890000I-249999J0D01*
G01*
X133804999Y-123890000D01*
G75*
G02*
X133555000Y-123640001I0J249999D01*
G01*
G37*
G36*
G01*
X131505000Y-123640001D02*
X131505000Y-122739999D01*
G75*
G02*
X131754999Y-122490000I249999J0D01*
G01*
X132405001Y-122490000D01*
G75*
G02*
X132655000Y-122739999I0J-249999D01*
G01*
X132655000Y-123640001D01*
G75*
G02*
X132405001Y-123890000I-249999J0D01*
G01*
X131754999Y-123890000D01*
G75*
G02*
X131505000Y-123640001I0J249999D01*
G01*
G37*
%TD*%
%TO.C,R8*%
G36*
G01*
X117659999Y-134825000D02*
X118560001Y-134825000D01*
G75*
G02*
X118810000Y-135074999I0J-249999D01*
G01*
X118810000Y-135725001D01*
G75*
G02*
X118560001Y-135975000I-249999J0D01*
G01*
X117659999Y-135975000D01*
G75*
G02*
X117410000Y-135725001I0J249999D01*
G01*
X117410000Y-135074999D01*
G75*
G02*
X117659999Y-134825000I249999J0D01*
G01*
G37*
G36*
G01*
X117659999Y-132775000D02*
X118560001Y-132775000D01*
G75*
G02*
X118810000Y-133024999I0J-249999D01*
G01*
X118810000Y-133675001D01*
G75*
G02*
X118560001Y-133925000I-249999J0D01*
G01*
X117659999Y-133925000D01*
G75*
G02*
X117410000Y-133675001I0J249999D01*
G01*
X117410000Y-133024999D01*
G75*
G02*
X117659999Y-132775000I249999J0D01*
G01*
G37*
%TD*%
%TO.C,R7*%
G36*
G01*
X116389999Y-140150000D02*
X117290001Y-140150000D01*
G75*
G02*
X117540000Y-140399999I0J-249999D01*
G01*
X117540000Y-141050001D01*
G75*
G02*
X117290001Y-141300000I-249999J0D01*
G01*
X116389999Y-141300000D01*
G75*
G02*
X116140000Y-141050001I0J249999D01*
G01*
X116140000Y-140399999D01*
G75*
G02*
X116389999Y-140150000I249999J0D01*
G01*
G37*
G36*
G01*
X116389999Y-138100000D02*
X117290001Y-138100000D01*
G75*
G02*
X117540000Y-138349999I0J-249999D01*
G01*
X117540000Y-139000001D01*
G75*
G02*
X117290001Y-139250000I-249999J0D01*
G01*
X116389999Y-139250000D01*
G75*
G02*
X116140000Y-139000001I0J249999D01*
G01*
X116140000Y-138349999D01*
G75*
G02*
X116389999Y-138100000I249999J0D01*
G01*
G37*
%TD*%
%TO.C,R6*%
G36*
G01*
X110039999Y-128475000D02*
X110940001Y-128475000D01*
G75*
G02*
X111190000Y-128724999I0J-249999D01*
G01*
X111190000Y-129375001D01*
G75*
G02*
X110940001Y-129625000I-249999J0D01*
G01*
X110039999Y-129625000D01*
G75*
G02*
X109790000Y-129375001I0J249999D01*
G01*
X109790000Y-128724999D01*
G75*
G02*
X110039999Y-128475000I249999J0D01*
G01*
G37*
G36*
G01*
X110039999Y-126425000D02*
X110940001Y-126425000D01*
G75*
G02*
X111190000Y-126674999I0J-249999D01*
G01*
X111190000Y-127325001D01*
G75*
G02*
X110940001Y-127575000I-249999J0D01*
G01*
X110039999Y-127575000D01*
G75*
G02*
X109790000Y-127325001I0J249999D01*
G01*
X109790000Y-126674999D01*
G75*
G02*
X110039999Y-126425000I249999J0D01*
G01*
G37*
%TD*%
%TO.C,R5*%
G36*
G01*
X110039999Y-123386000D02*
X110940001Y-123386000D01*
G75*
G02*
X111190000Y-123635999I0J-249999D01*
G01*
X111190000Y-124286001D01*
G75*
G02*
X110940001Y-124536000I-249999J0D01*
G01*
X110039999Y-124536000D01*
G75*
G02*
X109790000Y-124286001I0J249999D01*
G01*
X109790000Y-123635999D01*
G75*
G02*
X110039999Y-123386000I249999J0D01*
G01*
G37*
G36*
G01*
X110039999Y-121336000D02*
X110940001Y-121336000D01*
G75*
G02*
X111190000Y-121585999I0J-249999D01*
G01*
X111190000Y-122236001D01*
G75*
G02*
X110940001Y-122486000I-249999J0D01*
G01*
X110039999Y-122486000D01*
G75*
G02*
X109790000Y-122236001I0J249999D01*
G01*
X109790000Y-121585999D01*
G75*
G02*
X110039999Y-121336000I249999J0D01*
G01*
G37*
%TD*%
%TO.C,R4*%
G36*
G01*
X121225000Y-132899999D02*
X121225000Y-133800001D01*
G75*
G02*
X120975001Y-134050000I-249999J0D01*
G01*
X120324999Y-134050000D01*
G75*
G02*
X120075000Y-133800001I0J249999D01*
G01*
X120075000Y-132899999D01*
G75*
G02*
X120324999Y-132650000I249999J0D01*
G01*
X120975001Y-132650000D01*
G75*
G02*
X121225000Y-132899999I0J-249999D01*
G01*
G37*
G36*
G01*
X123275000Y-132899999D02*
X123275000Y-133800001D01*
G75*
G02*
X123025001Y-134050000I-249999J0D01*
G01*
X122374999Y-134050000D01*
G75*
G02*
X122125000Y-133800001I0J249999D01*
G01*
X122125000Y-132899999D01*
G75*
G02*
X122374999Y-132650000I249999J0D01*
G01*
X123025001Y-132650000D01*
G75*
G02*
X123275000Y-132899999I0J-249999D01*
G01*
G37*
%TD*%
%TO.C,R3*%
G36*
G01*
X119955000Y-138233999D02*
X119955000Y-139134001D01*
G75*
G02*
X119705001Y-139384000I-249999J0D01*
G01*
X119054999Y-139384000D01*
G75*
G02*
X118805000Y-139134001I0J249999D01*
G01*
X118805000Y-138233999D01*
G75*
G02*
X119054999Y-137984000I249999J0D01*
G01*
X119705001Y-137984000D01*
G75*
G02*
X119955000Y-138233999I0J-249999D01*
G01*
G37*
G36*
G01*
X122005000Y-138233999D02*
X122005000Y-139134001D01*
G75*
G02*
X121755001Y-139384000I-249999J0D01*
G01*
X121104999Y-139384000D01*
G75*
G02*
X120855000Y-139134001I0J249999D01*
G01*
X120855000Y-138233999D01*
G75*
G02*
X121104999Y-137984000I249999J0D01*
G01*
X121755001Y-137984000D01*
G75*
G02*
X122005000Y-138233999I0J-249999D01*
G01*
G37*
%TD*%
%TO.C,R2*%
G36*
G01*
X113605000Y-126549999D02*
X113605000Y-127450001D01*
G75*
G02*
X113355001Y-127700000I-249999J0D01*
G01*
X112704999Y-127700000D01*
G75*
G02*
X112455000Y-127450001I0J249999D01*
G01*
X112455000Y-126549999D01*
G75*
G02*
X112704999Y-126300000I249999J0D01*
G01*
X113355001Y-126300000D01*
G75*
G02*
X113605000Y-126549999I0J-249999D01*
G01*
G37*
G36*
G01*
X115655000Y-126549999D02*
X115655000Y-127450001D01*
G75*
G02*
X115405001Y-127700000I-249999J0D01*
G01*
X114754999Y-127700000D01*
G75*
G02*
X114505000Y-127450001I0J249999D01*
G01*
X114505000Y-126549999D01*
G75*
G02*
X114754999Y-126300000I249999J0D01*
G01*
X115405001Y-126300000D01*
G75*
G02*
X115655000Y-126549999I0J-249999D01*
G01*
G37*
%TD*%
%TO.C,R1*%
G36*
G01*
X113605000Y-121469999D02*
X113605000Y-122370001D01*
G75*
G02*
X113355001Y-122620000I-249999J0D01*
G01*
X112704999Y-122620000D01*
G75*
G02*
X112455000Y-122370001I0J249999D01*
G01*
X112455000Y-121469999D01*
G75*
G02*
X112704999Y-121220000I249999J0D01*
G01*
X113355001Y-121220000D01*
G75*
G02*
X113605000Y-121469999I0J-249999D01*
G01*
G37*
G36*
G01*
X115655000Y-121469999D02*
X115655000Y-122370001D01*
G75*
G02*
X115405001Y-122620000I-249999J0D01*
G01*
X114754999Y-122620000D01*
G75*
G02*
X114505000Y-122370001I0J249999D01*
G01*
X114505000Y-121469999D01*
G75*
G02*
X114754999Y-121220000I249999J0D01*
G01*
X115405001Y-121220000D01*
G75*
G02*
X115655000Y-121469999I0J-249999D01*
G01*
G37*
%TD*%
D11*
%TO.C,J8*%
X140969500Y-125770000D03*
D12*
X138269500Y-124770000D03*
X138269500Y-124120000D03*
X138269500Y-123470000D03*
X138269500Y-126070000D03*
X138269500Y-125420000D03*
D11*
X140969500Y-123770000D03*
%TD*%
%TO.C,F1*%
G36*
G01*
X138235000Y-133837000D02*
X136085000Y-133837000D01*
G75*
G02*
X135835000Y-133587000I0J250000D01*
G01*
X135835000Y-132662000D01*
G75*
G02*
X136085000Y-132412000I250000J0D01*
G01*
X138235000Y-132412000D01*
G75*
G02*
X138485000Y-132662000I0J-250000D01*
G01*
X138485000Y-133587000D01*
G75*
G02*
X138235000Y-133837000I-250000J0D01*
G01*
G37*
G36*
G01*
X138235000Y-136812000D02*
X136085000Y-136812000D01*
G75*
G02*
X135835000Y-136562000I0J250000D01*
G01*
X135835000Y-135637000D01*
G75*
G02*
X136085000Y-135387000I250000J0D01*
G01*
X138235000Y-135387000D01*
G75*
G02*
X138485000Y-135637000I0J-250000D01*
G01*
X138485000Y-136562000D01*
G75*
G02*
X138235000Y-136812000I-250000J0D01*
G01*
G37*
%TD*%
%TO.C,D3*%
G36*
G01*
X111555000Y-113849999D02*
X111555000Y-114750001D01*
G75*
G02*
X111305001Y-115000000I-249999J0D01*
G01*
X110654999Y-115000000D01*
G75*
G02*
X110405000Y-114750001I0J249999D01*
G01*
X110405000Y-113849999D01*
G75*
G02*
X110654999Y-113600000I249999J0D01*
G01*
X111305001Y-113600000D01*
G75*
G02*
X111555000Y-113849999I0J-249999D01*
G01*
G37*
G36*
G01*
X113605000Y-113849999D02*
X113605000Y-114750001D01*
G75*
G02*
X113355001Y-115000000I-249999J0D01*
G01*
X112704999Y-115000000D01*
G75*
G02*
X112455000Y-114750001I0J249999D01*
G01*
X112455000Y-113849999D01*
G75*
G02*
X112704999Y-113600000I249999J0D01*
G01*
X113355001Y-113600000D01*
G75*
G02*
X113605000Y-113849999I0J-249999D01*
G01*
G37*
%TD*%
%TO.C,D2*%
G36*
G01*
X111555000Y-116389999D02*
X111555000Y-117290001D01*
G75*
G02*
X111305001Y-117540000I-249999J0D01*
G01*
X110654999Y-117540000D01*
G75*
G02*
X110405000Y-117290001I0J249999D01*
G01*
X110405000Y-116389999D01*
G75*
G02*
X110654999Y-116140000I249999J0D01*
G01*
X111305001Y-116140000D01*
G75*
G02*
X111555000Y-116389999I0J-249999D01*
G01*
G37*
G36*
G01*
X113605000Y-116389999D02*
X113605000Y-117290001D01*
G75*
G02*
X113355001Y-117540000I-249999J0D01*
G01*
X112704999Y-117540000D01*
G75*
G02*
X112455000Y-117290001I0J249999D01*
G01*
X112455000Y-116389999D01*
G75*
G02*
X112704999Y-116140000I249999J0D01*
G01*
X113355001Y-116140000D01*
G75*
G02*
X113605000Y-116389999I0J-249999D01*
G01*
G37*
%TD*%
%TO.C,D1*%
G36*
G01*
X138028000Y-140142001D02*
X138028000Y-139241999D01*
G75*
G02*
X138277999Y-138992000I249999J0D01*
G01*
X138928001Y-138992000D01*
G75*
G02*
X139178000Y-139241999I0J-249999D01*
G01*
X139178000Y-140142001D01*
G75*
G02*
X138928001Y-140392000I-249999J0D01*
G01*
X138277999Y-140392000D01*
G75*
G02*
X138028000Y-140142001I0J249999D01*
G01*
G37*
G36*
G01*
X135978000Y-140142001D02*
X135978000Y-139241999D01*
G75*
G02*
X136227999Y-138992000I249999J0D01*
G01*
X136878001Y-138992000D01*
G75*
G02*
X137128000Y-139241999I0J-249999D01*
G01*
X137128000Y-140142001D01*
G75*
G02*
X136878001Y-140392000I-249999J0D01*
G01*
X136227999Y-140392000D01*
G75*
G02*
X135978000Y-140142001I0J249999D01*
G01*
G37*
%TD*%
%TO.C,C5*%
G36*
G01*
X124010000Y-117659999D02*
X124010000Y-118560001D01*
G75*
G02*
X123760001Y-118810000I-249999J0D01*
G01*
X123109999Y-118810000D01*
G75*
G02*
X122860000Y-118560001I0J249999D01*
G01*
X122860000Y-117659999D01*
G75*
G02*
X123109999Y-117410000I249999J0D01*
G01*
X123760001Y-117410000D01*
G75*
G02*
X124010000Y-117659999I0J-249999D01*
G01*
G37*
G36*
G01*
X126060000Y-117659999D02*
X126060000Y-118560001D01*
G75*
G02*
X125810001Y-118810000I-249999J0D01*
G01*
X125159999Y-118810000D01*
G75*
G02*
X124910000Y-118560001I0J249999D01*
G01*
X124910000Y-117659999D01*
G75*
G02*
X125159999Y-117410000I249999J0D01*
G01*
X125810001Y-117410000D01*
G75*
G02*
X126060000Y-117659999I0J-249999D01*
G01*
G37*
%TD*%
%TO.C,C4*%
G36*
G01*
X126353001Y-134407000D02*
X125452999Y-134407000D01*
G75*
G02*
X125203000Y-134157001I0J249999D01*
G01*
X125203000Y-133506999D01*
G75*
G02*
X125452999Y-133257000I249999J0D01*
G01*
X126353001Y-133257000D01*
G75*
G02*
X126603000Y-133506999I0J-249999D01*
G01*
X126603000Y-134157001D01*
G75*
G02*
X126353001Y-134407000I-249999J0D01*
G01*
G37*
G36*
G01*
X126353001Y-136457000D02*
X125452999Y-136457000D01*
G75*
G02*
X125203000Y-136207001I0J249999D01*
G01*
X125203000Y-135556999D01*
G75*
G02*
X125452999Y-135307000I249999J0D01*
G01*
X126353001Y-135307000D01*
G75*
G02*
X126603000Y-135556999I0J-249999D01*
G01*
X126603000Y-136207001D01*
G75*
G02*
X126353001Y-136457000I-249999J0D01*
G01*
G37*
%TD*%
%TO.C,C3*%
G36*
G01*
X130163001Y-134407000D02*
X129262999Y-134407000D01*
G75*
G02*
X129013000Y-134157001I0J249999D01*
G01*
X129013000Y-133506999D01*
G75*
G02*
X129262999Y-133257000I249999J0D01*
G01*
X130163001Y-133257000D01*
G75*
G02*
X130413000Y-133506999I0J-249999D01*
G01*
X130413000Y-134157001D01*
G75*
G02*
X130163001Y-134407000I-249999J0D01*
G01*
G37*
G36*
G01*
X130163001Y-136457000D02*
X129262999Y-136457000D01*
G75*
G02*
X129013000Y-136207001I0J249999D01*
G01*
X129013000Y-135556999D01*
G75*
G02*
X129262999Y-135307000I249999J0D01*
G01*
X130163001Y-135307000D01*
G75*
G02*
X130413000Y-135556999I0J-249999D01*
G01*
X130413000Y-136207001D01*
G75*
G02*
X130163001Y-136457000I-249999J0D01*
G01*
G37*
%TD*%
%TO.C,C2*%
G36*
G01*
X133973001Y-134407000D02*
X133072999Y-134407000D01*
G75*
G02*
X132823000Y-134157001I0J249999D01*
G01*
X132823000Y-133506999D01*
G75*
G02*
X133072999Y-133257000I249999J0D01*
G01*
X133973001Y-133257000D01*
G75*
G02*
X134223000Y-133506999I0J-249999D01*
G01*
X134223000Y-134157001D01*
G75*
G02*
X133973001Y-134407000I-249999J0D01*
G01*
G37*
G36*
G01*
X133973001Y-136457000D02*
X133072999Y-136457000D01*
G75*
G02*
X132823000Y-136207001I0J249999D01*
G01*
X132823000Y-135556999D01*
G75*
G02*
X133072999Y-135307000I249999J0D01*
G01*
X133973001Y-135307000D01*
G75*
G02*
X134223000Y-135556999I0J-249999D01*
G01*
X134223000Y-136207001D01*
G75*
G02*
X133973001Y-136457000I-249999J0D01*
G01*
G37*
%TD*%
%TO.C,C1*%
G36*
G01*
X127938000Y-117659999D02*
X127938000Y-118560001D01*
G75*
G02*
X127688001Y-118810000I-249999J0D01*
G01*
X127037999Y-118810000D01*
G75*
G02*
X126788000Y-118560001I0J249999D01*
G01*
X126788000Y-117659999D01*
G75*
G02*
X127037999Y-117410000I249999J0D01*
G01*
X127688001Y-117410000D01*
G75*
G02*
X127938000Y-117659999I0J-249999D01*
G01*
G37*
G36*
G01*
X129988000Y-117659999D02*
X129988000Y-118560001D01*
G75*
G02*
X129738001Y-118810000I-249999J0D01*
G01*
X129087999Y-118810000D01*
G75*
G02*
X128838000Y-118560001I0J249999D01*
G01*
X128838000Y-117659999D01*
G75*
G02*
X129087999Y-117410000I249999J0D01*
G01*
X129738001Y-117410000D01*
G75*
G02*
X129988000Y-117659999I0J-249999D01*
G01*
G37*
%TD*%
M02*
