%TF.GenerationSoftware,KiCad,Pcbnew,(5.1.6)-1*%
%TF.CreationDate,2020-08-24T13:49:57+03:00*%
%TF.ProjectId,PC1600SIO,50433136-3030-4534-994f-2e6b69636164,rev?*%
%TF.SameCoordinates,Original*%
%TF.FileFunction,Soldermask,Top*%
%TF.FilePolarity,Negative*%
%FSLAX46Y46*%
G04 Gerber Fmt 4.6, Leading zero omitted, Abs format (unit mm)*
G04 Created by KiCad (PCBNEW (5.1.6)-1) date 2020-08-24 13:49:57*
%MOMM*%
%LPD*%
G01*
G04 APERTURE LIST*
%ADD10C,0.010000*%
%ADD11C,0.100000*%
%ADD12O,1.100000X1.100000*%
%ADD13R,1.100000X1.100000*%
%ADD14R,0.550000X1.850000*%
%ADD15R,2.000000X1.300000*%
%ADD16O,2.000000X1.300000*%
%ADD17R,2.000000X1.600000*%
%ADD18C,1.550000*%
%ADD19R,1.450000X0.500000*%
%ADD20C,5.100000*%
G04 APERTURE END LIST*
D10*
%TO.C,G\u002A\u002A\u002A*%
G36*
X112281027Y-146828998D02*
G01*
X112368785Y-146852516D01*
X112448012Y-146893533D01*
X112516763Y-146950471D01*
X112573090Y-147021747D01*
X112615048Y-147105781D01*
X112639085Y-147191926D01*
X112643988Y-147273425D01*
X112630568Y-147356984D01*
X112600761Y-147438508D01*
X112556505Y-147513902D01*
X112499737Y-147579069D01*
X112432394Y-147629916D01*
X112431727Y-147630306D01*
X112349899Y-147666498D01*
X112260096Y-147685773D01*
X112167825Y-147687540D01*
X112078596Y-147671209D01*
X112071249Y-147668942D01*
X111986721Y-147631510D01*
X111913469Y-147578219D01*
X111853342Y-147511772D01*
X111808190Y-147434871D01*
X111779864Y-147350220D01*
X111770213Y-147260521D01*
X111770510Y-147253069D01*
X111906111Y-147253069D01*
X111910799Y-147321400D01*
X111926399Y-147377778D01*
X111955217Y-147429600D01*
X111965528Y-147443724D01*
X112017377Y-147495047D01*
X112081117Y-147531791D01*
X112152388Y-147552957D01*
X112226833Y-147557544D01*
X112300091Y-147544551D01*
X112338708Y-147529353D01*
X112403801Y-147487462D01*
X112453297Y-147434230D01*
X112487203Y-147372630D01*
X112505527Y-147305635D01*
X112508277Y-147236219D01*
X112495461Y-147167353D01*
X112467086Y-147102012D01*
X112423160Y-147043168D01*
X112363691Y-146993793D01*
X112337280Y-146978271D01*
X112287838Y-146961088D01*
X112227646Y-146953380D01*
X112164890Y-146955146D01*
X112107754Y-146966386D01*
X112078456Y-146978264D01*
X112007565Y-147025226D01*
X111955713Y-147081171D01*
X111922428Y-147146851D01*
X111907240Y-147223018D01*
X111906111Y-147253069D01*
X111770510Y-147253069D01*
X111771400Y-147230812D01*
X111782824Y-147149739D01*
X111805309Y-147081450D01*
X111841791Y-147019597D01*
X111895205Y-146957832D01*
X111899812Y-146953189D01*
X111960581Y-146899069D01*
X112020134Y-146861811D01*
X112084861Y-146838552D01*
X112161151Y-146826425D01*
X112186686Y-146824562D01*
X112281027Y-146828998D01*
G37*
X112281027Y-146828998D02*
X112368785Y-146852516D01*
X112448012Y-146893533D01*
X112516763Y-146950471D01*
X112573090Y-147021747D01*
X112615048Y-147105781D01*
X112639085Y-147191926D01*
X112643988Y-147273425D01*
X112630568Y-147356984D01*
X112600761Y-147438508D01*
X112556505Y-147513902D01*
X112499737Y-147579069D01*
X112432394Y-147629916D01*
X112431727Y-147630306D01*
X112349899Y-147666498D01*
X112260096Y-147685773D01*
X112167825Y-147687540D01*
X112078596Y-147671209D01*
X112071249Y-147668942D01*
X111986721Y-147631510D01*
X111913469Y-147578219D01*
X111853342Y-147511772D01*
X111808190Y-147434871D01*
X111779864Y-147350220D01*
X111770213Y-147260521D01*
X111770510Y-147253069D01*
X111906111Y-147253069D01*
X111910799Y-147321400D01*
X111926399Y-147377778D01*
X111955217Y-147429600D01*
X111965528Y-147443724D01*
X112017377Y-147495047D01*
X112081117Y-147531791D01*
X112152388Y-147552957D01*
X112226833Y-147557544D01*
X112300091Y-147544551D01*
X112338708Y-147529353D01*
X112403801Y-147487462D01*
X112453297Y-147434230D01*
X112487203Y-147372630D01*
X112505527Y-147305635D01*
X112508277Y-147236219D01*
X112495461Y-147167353D01*
X112467086Y-147102012D01*
X112423160Y-147043168D01*
X112363691Y-146993793D01*
X112337280Y-146978271D01*
X112287838Y-146961088D01*
X112227646Y-146953380D01*
X112164890Y-146955146D01*
X112107754Y-146966386D01*
X112078456Y-146978264D01*
X112007565Y-147025226D01*
X111955713Y-147081171D01*
X111922428Y-147146851D01*
X111907240Y-147223018D01*
X111906111Y-147253069D01*
X111770510Y-147253069D01*
X111771400Y-147230812D01*
X111782824Y-147149739D01*
X111805309Y-147081450D01*
X111841791Y-147019597D01*
X111895205Y-146957832D01*
X111899812Y-146953189D01*
X111960581Y-146899069D01*
X112020134Y-146861811D01*
X112084861Y-146838552D01*
X112161151Y-146826425D01*
X112186686Y-146824562D01*
X112281027Y-146828998D01*
G36*
X121363605Y-147399577D02*
G01*
X121390437Y-147404260D01*
X121537744Y-147435409D01*
X121680113Y-147474622D01*
X121815103Y-147520821D01*
X121940273Y-147572923D01*
X122053184Y-147629850D01*
X122151395Y-147690521D01*
X122232465Y-147753855D01*
X122274566Y-147795663D01*
X122321479Y-147854314D01*
X122351756Y-147909405D01*
X122367811Y-147966622D01*
X122372097Y-148025350D01*
X122371145Y-148067153D01*
X122367165Y-148094481D01*
X122358474Y-148113993D01*
X122345627Y-148129945D01*
X122313187Y-148156838D01*
X122274541Y-148177364D01*
X122238594Y-148187025D01*
X122232149Y-148187251D01*
X122209249Y-148182814D01*
X122181517Y-148172961D01*
X122141599Y-148150106D01*
X122099883Y-148114747D01*
X122053717Y-148064398D01*
X122017717Y-148019404D01*
X121909922Y-147895048D01*
X121784732Y-147778955D01*
X121645052Y-147673359D01*
X121493787Y-147580493D01*
X121360967Y-147514435D01*
X121315743Y-147493801D01*
X121286660Y-147478842D01*
X121270331Y-147467041D01*
X121263371Y-147455879D01*
X121262393Y-147442839D01*
X121262504Y-147441204D01*
X121265973Y-147416396D01*
X121274277Y-147400851D01*
X121290957Y-147393548D01*
X121319553Y-147393464D01*
X121363605Y-147399577D01*
G37*
X121363605Y-147399577D02*
X121390437Y-147404260D01*
X121537744Y-147435409D01*
X121680113Y-147474622D01*
X121815103Y-147520821D01*
X121940273Y-147572923D01*
X122053184Y-147629850D01*
X122151395Y-147690521D01*
X122232465Y-147753855D01*
X122274566Y-147795663D01*
X122321479Y-147854314D01*
X122351756Y-147909405D01*
X122367811Y-147966622D01*
X122372097Y-148025350D01*
X122371145Y-148067153D01*
X122367165Y-148094481D01*
X122358474Y-148113993D01*
X122345627Y-148129945D01*
X122313187Y-148156838D01*
X122274541Y-148177364D01*
X122238594Y-148187025D01*
X122232149Y-148187251D01*
X122209249Y-148182814D01*
X122181517Y-148172961D01*
X122141599Y-148150106D01*
X122099883Y-148114747D01*
X122053717Y-148064398D01*
X122017717Y-148019404D01*
X121909922Y-147895048D01*
X121784732Y-147778955D01*
X121645052Y-147673359D01*
X121493787Y-147580493D01*
X121360967Y-147514435D01*
X121315743Y-147493801D01*
X121286660Y-147478842D01*
X121270331Y-147467041D01*
X121263371Y-147455879D01*
X121262393Y-147442839D01*
X121262504Y-147441204D01*
X121265973Y-147416396D01*
X121274277Y-147400851D01*
X121290957Y-147393548D01*
X121319553Y-147393464D01*
X121363605Y-147399577D01*
G36*
X111774173Y-148665250D02*
G01*
X111925979Y-148756050D01*
X112062574Y-148852154D01*
X112189909Y-148958120D01*
X112313935Y-149078507D01*
X112314516Y-149079111D01*
X112407084Y-149183840D01*
X112479076Y-149284385D01*
X112530622Y-149380990D01*
X112561850Y-149473902D01*
X112572893Y-149563365D01*
X112572915Y-149566505D01*
X112567768Y-149633889D01*
X112552426Y-149687547D01*
X112527727Y-149725219D01*
X112508826Y-149739177D01*
X112465287Y-149751983D01*
X112416144Y-149752091D01*
X112372338Y-149739581D01*
X112369683Y-149738196D01*
X112344704Y-149717940D01*
X112319197Y-149683141D01*
X112292066Y-149631921D01*
X112262213Y-149562399D01*
X112252251Y-149536881D01*
X112184227Y-149382320D01*
X112100181Y-149233156D01*
X111998001Y-149085776D01*
X111959341Y-149036166D01*
X111908250Y-148975674D01*
X111849876Y-148912047D01*
X111788457Y-148849500D01*
X111728235Y-148792244D01*
X111673450Y-148744492D01*
X111638770Y-148717658D01*
X111611761Y-148697289D01*
X111593506Y-148681497D01*
X111588478Y-148674984D01*
X111595427Y-148664236D01*
X111612998Y-148644804D01*
X111623298Y-148634520D01*
X111658117Y-148600772D01*
X111774173Y-148665250D01*
G37*
X111774173Y-148665250D02*
X111925979Y-148756050D01*
X112062574Y-148852154D01*
X112189909Y-148958120D01*
X112313935Y-149078507D01*
X112314516Y-149079111D01*
X112407084Y-149183840D01*
X112479076Y-149284385D01*
X112530622Y-149380990D01*
X112561850Y-149473902D01*
X112572893Y-149563365D01*
X112572915Y-149566505D01*
X112567768Y-149633889D01*
X112552426Y-149687547D01*
X112527727Y-149725219D01*
X112508826Y-149739177D01*
X112465287Y-149751983D01*
X112416144Y-149752091D01*
X112372338Y-149739581D01*
X112369683Y-149738196D01*
X112344704Y-149717940D01*
X112319197Y-149683141D01*
X112292066Y-149631921D01*
X112262213Y-149562399D01*
X112252251Y-149536881D01*
X112184227Y-149382320D01*
X112100181Y-149233156D01*
X111998001Y-149085776D01*
X111959341Y-149036166D01*
X111908250Y-148975674D01*
X111849876Y-148912047D01*
X111788457Y-148849500D01*
X111728235Y-148792244D01*
X111673450Y-148744492D01*
X111638770Y-148717658D01*
X111611761Y-148697289D01*
X111593506Y-148681497D01*
X111588478Y-148674984D01*
X111595427Y-148664236D01*
X111612998Y-148644804D01*
X111623298Y-148634520D01*
X111658117Y-148600772D01*
X111774173Y-148665250D01*
G36*
X110233247Y-148794092D02*
G01*
X110225810Y-148959848D01*
X110203348Y-149110968D01*
X110165631Y-149247963D01*
X110112431Y-149371346D01*
X110043519Y-149481628D01*
X109958665Y-149579320D01*
X109857643Y-149664935D01*
X109837417Y-149679314D01*
X109764803Y-149721612D01*
X109688345Y-149752022D01*
X109612632Y-149769417D01*
X109542251Y-149772671D01*
X109492105Y-149764107D01*
X109458443Y-149748728D01*
X109426849Y-149726428D01*
X109424968Y-149724702D01*
X109406807Y-149704988D01*
X109398985Y-149685480D01*
X109398688Y-149657170D01*
X109399786Y-149644110D01*
X109411350Y-149598147D01*
X109437894Y-149561750D01*
X109481669Y-149532525D01*
X109519801Y-149516467D01*
X109649579Y-149461335D01*
X109761730Y-149395545D01*
X109857606Y-149317836D01*
X109938555Y-149226948D01*
X110005927Y-149121622D01*
X110054584Y-149017168D01*
X110072140Y-148967695D01*
X110089460Y-148909183D01*
X110105075Y-148847757D01*
X110117516Y-148789540D01*
X110125314Y-148740654D01*
X110127231Y-148714406D01*
X110128720Y-148697155D01*
X110136613Y-148688551D01*
X110156374Y-148685599D01*
X110180308Y-148685290D01*
X110233247Y-148685290D01*
X110233247Y-148794092D01*
G37*
X110233247Y-148794092D02*
X110225810Y-148959848D01*
X110203348Y-149110968D01*
X110165631Y-149247963D01*
X110112431Y-149371346D01*
X110043519Y-149481628D01*
X109958665Y-149579320D01*
X109857643Y-149664935D01*
X109837417Y-149679314D01*
X109764803Y-149721612D01*
X109688345Y-149752022D01*
X109612632Y-149769417D01*
X109542251Y-149772671D01*
X109492105Y-149764107D01*
X109458443Y-149748728D01*
X109426849Y-149726428D01*
X109424968Y-149724702D01*
X109406807Y-149704988D01*
X109398985Y-149685480D01*
X109398688Y-149657170D01*
X109399786Y-149644110D01*
X109411350Y-149598147D01*
X109437894Y-149561750D01*
X109481669Y-149532525D01*
X109519801Y-149516467D01*
X109649579Y-149461335D01*
X109761730Y-149395545D01*
X109857606Y-149317836D01*
X109938555Y-149226948D01*
X110005927Y-149121622D01*
X110054584Y-149017168D01*
X110072140Y-148967695D01*
X110089460Y-148909183D01*
X110105075Y-148847757D01*
X110117516Y-148789540D01*
X110125314Y-148740654D01*
X110127231Y-148714406D01*
X110128720Y-148697155D01*
X110136613Y-148688551D01*
X110156374Y-148685599D01*
X110180308Y-148685290D01*
X110233247Y-148685290D01*
X110233247Y-148794092D01*
G36*
X117493539Y-147529440D02*
G01*
X117506333Y-147550749D01*
X117506861Y-147551997D01*
X117525681Y-147581935D01*
X117557371Y-147617322D01*
X117596459Y-147653023D01*
X117637475Y-147683901D01*
X117664355Y-147699870D01*
X117695989Y-147715128D01*
X117726583Y-147727363D01*
X117758816Y-147736843D01*
X117795366Y-147743834D01*
X117838910Y-147748604D01*
X117892127Y-147751421D01*
X117957695Y-147752552D01*
X118038291Y-147752263D01*
X118136593Y-147750824D01*
X118168762Y-147750229D01*
X118392593Y-147744341D01*
X118630828Y-147735057D01*
X118877025Y-147722699D01*
X119124741Y-147707589D01*
X119360736Y-147690582D01*
X119447515Y-147683534D01*
X119516231Y-147676981D01*
X119569962Y-147670171D01*
X119611784Y-147662349D01*
X119644773Y-147652765D01*
X119672005Y-147640665D01*
X119696559Y-147625296D01*
X119721509Y-147605907D01*
X119727568Y-147600850D01*
X119766183Y-147572514D01*
X119799483Y-147560272D01*
X119834599Y-147563088D01*
X119876937Y-147579133D01*
X119929466Y-147607046D01*
X119982553Y-147641994D01*
X120032968Y-147681069D01*
X120077481Y-147721368D01*
X120112864Y-147759984D01*
X120135888Y-147794013D01*
X120143376Y-147818839D01*
X120133239Y-147853806D01*
X120104599Y-147884964D01*
X120065472Y-147907145D01*
X120026611Y-147929778D01*
X120001234Y-147962056D01*
X119985330Y-148007674D01*
X119981951Y-148028171D01*
X119976947Y-148067318D01*
X119970578Y-148122675D01*
X119963106Y-148191799D01*
X119954789Y-148272250D01*
X119945887Y-148361588D01*
X119936662Y-148457370D01*
X119931175Y-148515886D01*
X119917584Y-148661453D01*
X119905564Y-148788134D01*
X119894881Y-148898142D01*
X119885298Y-148993687D01*
X119876582Y-149076984D01*
X119868496Y-149150243D01*
X119860806Y-149215677D01*
X119853277Y-149275499D01*
X119845673Y-149331920D01*
X119840764Y-149366542D01*
X119834370Y-149413124D01*
X119829769Y-149451201D01*
X119827449Y-149476391D01*
X119827615Y-149484380D01*
X119838162Y-149490377D01*
X119862045Y-149502851D01*
X119887579Y-149515816D01*
X119943415Y-149549397D01*
X119991827Y-149589018D01*
X120028568Y-149630619D01*
X120049390Y-149670135D01*
X120049590Y-149670792D01*
X120055174Y-149710740D01*
X120043842Y-149740605D01*
X120014382Y-149761977D01*
X119969651Y-149775626D01*
X119944653Y-149780309D01*
X119921896Y-149782693D01*
X119897277Y-149782395D01*
X119866690Y-149779032D01*
X119826033Y-149772222D01*
X119771200Y-149761583D01*
X119730454Y-149753337D01*
X119647786Y-149740529D01*
X119546016Y-149731651D01*
X119426846Y-149726693D01*
X119291980Y-149725644D01*
X119143120Y-149728491D01*
X118981970Y-149735223D01*
X118810232Y-149745829D01*
X118629610Y-149760297D01*
X118624035Y-149760794D01*
X118446238Y-149778101D01*
X118289399Y-149796360D01*
X118153551Y-149815566D01*
X118038730Y-149835712D01*
X117944972Y-149856793D01*
X117872313Y-149878802D01*
X117837867Y-149892915D01*
X117765790Y-149918214D01*
X117697864Y-149923550D01*
X117631387Y-149908995D01*
X117607611Y-149899051D01*
X117546767Y-149862373D01*
X117487180Y-149811852D01*
X117432979Y-149752299D01*
X117388293Y-149688529D01*
X117357250Y-149625353D01*
X117348490Y-149596995D01*
X117341784Y-149559985D01*
X117342762Y-149527821D01*
X117351866Y-149488756D01*
X117352678Y-149485943D01*
X117366607Y-149449204D01*
X117385485Y-149413424D01*
X117405870Y-149383902D01*
X117424318Y-149365940D01*
X117432612Y-149362906D01*
X117441289Y-149371666D01*
X117455491Y-149394477D01*
X117469915Y-149421972D01*
X117512248Y-149491042D01*
X117564545Y-149543317D01*
X117629352Y-149580631D01*
X117709214Y-149604817D01*
X117728975Y-149608545D01*
X117744953Y-149610797D01*
X117764268Y-149612439D01*
X117788380Y-149613414D01*
X117818750Y-149613661D01*
X117856837Y-149613122D01*
X117904103Y-149611739D01*
X117962006Y-149609452D01*
X118032008Y-149606202D01*
X118115569Y-149601932D01*
X118214149Y-149596581D01*
X118329208Y-149590092D01*
X118462206Y-149582406D01*
X118614604Y-149573462D01*
X118645463Y-149571641D01*
X118814934Y-149561520D01*
X118964066Y-149552376D01*
X119093670Y-149544150D01*
X119204556Y-149536782D01*
X119297536Y-149530212D01*
X119373421Y-149524380D01*
X119433021Y-149519226D01*
X119477148Y-149514691D01*
X119506613Y-149510714D01*
X119522226Y-149507236D01*
X119523049Y-149506917D01*
X119552292Y-149488077D01*
X119564986Y-149461824D01*
X119570199Y-149428656D01*
X119576479Y-149376651D01*
X119583644Y-149308108D01*
X119591515Y-149225328D01*
X119599912Y-149130611D01*
X119608653Y-149026260D01*
X119617560Y-148914573D01*
X119626450Y-148797852D01*
X119635144Y-148678397D01*
X119643462Y-148558509D01*
X119651223Y-148440489D01*
X119658247Y-148326637D01*
X119664353Y-148219254D01*
X119668130Y-148146228D01*
X119680837Y-147887741D01*
X119655810Y-147867475D01*
X119641260Y-147857814D01*
X119623756Y-147852426D01*
X119598065Y-147850707D01*
X119558952Y-147852054D01*
X119535038Y-147853534D01*
X119312682Y-147868509D01*
X119110485Y-147882755D01*
X118927444Y-147896379D01*
X118762560Y-147909488D01*
X118614830Y-147922186D01*
X118483254Y-147934580D01*
X118366831Y-147946776D01*
X118264559Y-147958880D01*
X118175437Y-147970998D01*
X118098466Y-147983237D01*
X118032642Y-147995701D01*
X117976966Y-148008498D01*
X117930436Y-148021733D01*
X117922439Y-148024342D01*
X117874614Y-148039407D01*
X117831389Y-148051414D01*
X117798415Y-148058881D01*
X117784230Y-148060613D01*
X117739470Y-148051648D01*
X117688403Y-148026867D01*
X117634093Y-147989445D01*
X117579607Y-147942554D01*
X117528009Y-147889366D01*
X117482365Y-147833056D01*
X117445741Y-147776795D01*
X117421203Y-147723757D01*
X117411814Y-147677115D01*
X117411797Y-147675116D01*
X117416228Y-147629593D01*
X117427898Y-147586528D01*
X117444621Y-147550811D01*
X117464208Y-147527331D01*
X117480915Y-147520638D01*
X117493539Y-147529440D01*
G37*
X117493539Y-147529440D02*
X117506333Y-147550749D01*
X117506861Y-147551997D01*
X117525681Y-147581935D01*
X117557371Y-147617322D01*
X117596459Y-147653023D01*
X117637475Y-147683901D01*
X117664355Y-147699870D01*
X117695989Y-147715128D01*
X117726583Y-147727363D01*
X117758816Y-147736843D01*
X117795366Y-147743834D01*
X117838910Y-147748604D01*
X117892127Y-147751421D01*
X117957695Y-147752552D01*
X118038291Y-147752263D01*
X118136593Y-147750824D01*
X118168762Y-147750229D01*
X118392593Y-147744341D01*
X118630828Y-147735057D01*
X118877025Y-147722699D01*
X119124741Y-147707589D01*
X119360736Y-147690582D01*
X119447515Y-147683534D01*
X119516231Y-147676981D01*
X119569962Y-147670171D01*
X119611784Y-147662349D01*
X119644773Y-147652765D01*
X119672005Y-147640665D01*
X119696559Y-147625296D01*
X119721509Y-147605907D01*
X119727568Y-147600850D01*
X119766183Y-147572514D01*
X119799483Y-147560272D01*
X119834599Y-147563088D01*
X119876937Y-147579133D01*
X119929466Y-147607046D01*
X119982553Y-147641994D01*
X120032968Y-147681069D01*
X120077481Y-147721368D01*
X120112864Y-147759984D01*
X120135888Y-147794013D01*
X120143376Y-147818839D01*
X120133239Y-147853806D01*
X120104599Y-147884964D01*
X120065472Y-147907145D01*
X120026611Y-147929778D01*
X120001234Y-147962056D01*
X119985330Y-148007674D01*
X119981951Y-148028171D01*
X119976947Y-148067318D01*
X119970578Y-148122675D01*
X119963106Y-148191799D01*
X119954789Y-148272250D01*
X119945887Y-148361588D01*
X119936662Y-148457370D01*
X119931175Y-148515886D01*
X119917584Y-148661453D01*
X119905564Y-148788134D01*
X119894881Y-148898142D01*
X119885298Y-148993687D01*
X119876582Y-149076984D01*
X119868496Y-149150243D01*
X119860806Y-149215677D01*
X119853277Y-149275499D01*
X119845673Y-149331920D01*
X119840764Y-149366542D01*
X119834370Y-149413124D01*
X119829769Y-149451201D01*
X119827449Y-149476391D01*
X119827615Y-149484380D01*
X119838162Y-149490377D01*
X119862045Y-149502851D01*
X119887579Y-149515816D01*
X119943415Y-149549397D01*
X119991827Y-149589018D01*
X120028568Y-149630619D01*
X120049390Y-149670135D01*
X120049590Y-149670792D01*
X120055174Y-149710740D01*
X120043842Y-149740605D01*
X120014382Y-149761977D01*
X119969651Y-149775626D01*
X119944653Y-149780309D01*
X119921896Y-149782693D01*
X119897277Y-149782395D01*
X119866690Y-149779032D01*
X119826033Y-149772222D01*
X119771200Y-149761583D01*
X119730454Y-149753337D01*
X119647786Y-149740529D01*
X119546016Y-149731651D01*
X119426846Y-149726693D01*
X119291980Y-149725644D01*
X119143120Y-149728491D01*
X118981970Y-149735223D01*
X118810232Y-149745829D01*
X118629610Y-149760297D01*
X118624035Y-149760794D01*
X118446238Y-149778101D01*
X118289399Y-149796360D01*
X118153551Y-149815566D01*
X118038730Y-149835712D01*
X117944972Y-149856793D01*
X117872313Y-149878802D01*
X117837867Y-149892915D01*
X117765790Y-149918214D01*
X117697864Y-149923550D01*
X117631387Y-149908995D01*
X117607611Y-149899051D01*
X117546767Y-149862373D01*
X117487180Y-149811852D01*
X117432979Y-149752299D01*
X117388293Y-149688529D01*
X117357250Y-149625353D01*
X117348490Y-149596995D01*
X117341784Y-149559985D01*
X117342762Y-149527821D01*
X117351866Y-149488756D01*
X117352678Y-149485943D01*
X117366607Y-149449204D01*
X117385485Y-149413424D01*
X117405870Y-149383902D01*
X117424318Y-149365940D01*
X117432612Y-149362906D01*
X117441289Y-149371666D01*
X117455491Y-149394477D01*
X117469915Y-149421972D01*
X117512248Y-149491042D01*
X117564545Y-149543317D01*
X117629352Y-149580631D01*
X117709214Y-149604817D01*
X117728975Y-149608545D01*
X117744953Y-149610797D01*
X117764268Y-149612439D01*
X117788380Y-149613414D01*
X117818750Y-149613661D01*
X117856837Y-149613122D01*
X117904103Y-149611739D01*
X117962006Y-149609452D01*
X118032008Y-149606202D01*
X118115569Y-149601932D01*
X118214149Y-149596581D01*
X118329208Y-149590092D01*
X118462206Y-149582406D01*
X118614604Y-149573462D01*
X118645463Y-149571641D01*
X118814934Y-149561520D01*
X118964066Y-149552376D01*
X119093670Y-149544150D01*
X119204556Y-149536782D01*
X119297536Y-149530212D01*
X119373421Y-149524380D01*
X119433021Y-149519226D01*
X119477148Y-149514691D01*
X119506613Y-149510714D01*
X119522226Y-149507236D01*
X119523049Y-149506917D01*
X119552292Y-149488077D01*
X119564986Y-149461824D01*
X119570199Y-149428656D01*
X119576479Y-149376651D01*
X119583644Y-149308108D01*
X119591515Y-149225328D01*
X119599912Y-149130611D01*
X119608653Y-149026260D01*
X119617560Y-148914573D01*
X119626450Y-148797852D01*
X119635144Y-148678397D01*
X119643462Y-148558509D01*
X119651223Y-148440489D01*
X119658247Y-148326637D01*
X119664353Y-148219254D01*
X119668130Y-148146228D01*
X119680837Y-147887741D01*
X119655810Y-147867475D01*
X119641260Y-147857814D01*
X119623756Y-147852426D01*
X119598065Y-147850707D01*
X119558952Y-147852054D01*
X119535038Y-147853534D01*
X119312682Y-147868509D01*
X119110485Y-147882755D01*
X118927444Y-147896379D01*
X118762560Y-147909488D01*
X118614830Y-147922186D01*
X118483254Y-147934580D01*
X118366831Y-147946776D01*
X118264559Y-147958880D01*
X118175437Y-147970998D01*
X118098466Y-147983237D01*
X118032642Y-147995701D01*
X117976966Y-148008498D01*
X117930436Y-148021733D01*
X117922439Y-148024342D01*
X117874614Y-148039407D01*
X117831389Y-148051414D01*
X117798415Y-148058881D01*
X117784230Y-148060613D01*
X117739470Y-148051648D01*
X117688403Y-148026867D01*
X117634093Y-147989445D01*
X117579607Y-147942554D01*
X117528009Y-147889366D01*
X117482365Y-147833056D01*
X117445741Y-147776795D01*
X117421203Y-147723757D01*
X117411814Y-147677115D01*
X117411797Y-147675116D01*
X117416228Y-147629593D01*
X117427898Y-147586528D01*
X117444621Y-147550811D01*
X117464208Y-147527331D01*
X117480915Y-147520638D01*
X117493539Y-147529440D01*
G36*
X124259995Y-147654198D02*
G01*
X124285710Y-147670559D01*
X124301722Y-147682721D01*
X124304360Y-147686160D01*
X124299860Y-147697027D01*
X124287431Y-147723468D01*
X124268683Y-147762147D01*
X124245225Y-147809731D01*
X124229279Y-147841729D01*
X124083891Y-148108777D01*
X123920679Y-148364614D01*
X123739992Y-148608900D01*
X123542177Y-148841296D01*
X123327581Y-149061464D01*
X123096551Y-149269064D01*
X122849436Y-149463758D01*
X122586583Y-149645206D01*
X122308339Y-149813070D01*
X122086257Y-149931625D01*
X122014697Y-149968529D01*
X121958928Y-149999177D01*
X121915349Y-150025808D01*
X121880354Y-150050665D01*
X121850340Y-150075989D01*
X121842738Y-150083088D01*
X121799176Y-150122988D01*
X121765452Y-150148928D01*
X121737290Y-150162734D01*
X121710414Y-150166231D01*
X121680546Y-150161242D01*
X121668012Y-150157652D01*
X121602037Y-150129630D01*
X121532015Y-150085847D01*
X121463139Y-150029597D01*
X121456988Y-150023860D01*
X121386610Y-149949306D01*
X121335798Y-149877183D01*
X121304707Y-149808090D01*
X121293496Y-149742626D01*
X121302320Y-149681389D01*
X121331338Y-149624979D01*
X121347306Y-149605360D01*
X121385445Y-149563145D01*
X121415685Y-149626151D01*
X121457698Y-149693962D01*
X121509590Y-149743613D01*
X121570598Y-149774574D01*
X121639958Y-149786318D01*
X121647258Y-149786415D01*
X121700582Y-149780314D01*
X121769000Y-149762646D01*
X121850524Y-149734360D01*
X121943169Y-149696408D01*
X122044949Y-149649741D01*
X122153879Y-149595309D01*
X122267971Y-149534064D01*
X122385240Y-149466956D01*
X122503701Y-149394936D01*
X122615615Y-149322779D01*
X122783340Y-149206795D01*
X122943249Y-149086252D01*
X123099487Y-148957714D01*
X123256198Y-148817747D01*
X123417525Y-148662913D01*
X123447417Y-148633156D01*
X123592907Y-148483022D01*
X123722739Y-148338899D01*
X123839973Y-148196900D01*
X123947670Y-148053138D01*
X124048891Y-147903726D01*
X124145835Y-147746241D01*
X124215630Y-147627742D01*
X124259995Y-147654198D01*
G37*
X124259995Y-147654198D02*
X124285710Y-147670559D01*
X124301722Y-147682721D01*
X124304360Y-147686160D01*
X124299860Y-147697027D01*
X124287431Y-147723468D01*
X124268683Y-147762147D01*
X124245225Y-147809731D01*
X124229279Y-147841729D01*
X124083891Y-148108777D01*
X123920679Y-148364614D01*
X123739992Y-148608900D01*
X123542177Y-148841296D01*
X123327581Y-149061464D01*
X123096551Y-149269064D01*
X122849436Y-149463758D01*
X122586583Y-149645206D01*
X122308339Y-149813070D01*
X122086257Y-149931625D01*
X122014697Y-149968529D01*
X121958928Y-149999177D01*
X121915349Y-150025808D01*
X121880354Y-150050665D01*
X121850340Y-150075989D01*
X121842738Y-150083088D01*
X121799176Y-150122988D01*
X121765452Y-150148928D01*
X121737290Y-150162734D01*
X121710414Y-150166231D01*
X121680546Y-150161242D01*
X121668012Y-150157652D01*
X121602037Y-150129630D01*
X121532015Y-150085847D01*
X121463139Y-150029597D01*
X121456988Y-150023860D01*
X121386610Y-149949306D01*
X121335798Y-149877183D01*
X121304707Y-149808090D01*
X121293496Y-149742626D01*
X121302320Y-149681389D01*
X121331338Y-149624979D01*
X121347306Y-149605360D01*
X121385445Y-149563145D01*
X121415685Y-149626151D01*
X121457698Y-149693962D01*
X121509590Y-149743613D01*
X121570598Y-149774574D01*
X121639958Y-149786318D01*
X121647258Y-149786415D01*
X121700582Y-149780314D01*
X121769000Y-149762646D01*
X121850524Y-149734360D01*
X121943169Y-149696408D01*
X122044949Y-149649741D01*
X122153879Y-149595309D01*
X122267971Y-149534064D01*
X122385240Y-149466956D01*
X122503701Y-149394936D01*
X122615615Y-149322779D01*
X122783340Y-149206795D01*
X122943249Y-149086252D01*
X123099487Y-148957714D01*
X123256198Y-148817747D01*
X123417525Y-148662913D01*
X123447417Y-148633156D01*
X123592907Y-148483022D01*
X123722739Y-148338899D01*
X123839973Y-148196900D01*
X123947670Y-148053138D01*
X124048891Y-147903726D01*
X124145835Y-147746241D01*
X124215630Y-147627742D01*
X124259995Y-147654198D01*
G36*
X110824239Y-147101249D02*
G01*
X110902909Y-147116883D01*
X110979897Y-147140883D01*
X111050518Y-147172204D01*
X111110086Y-147209800D01*
X111131462Y-147227942D01*
X111170288Y-147270532D01*
X111190912Y-147310498D01*
X111193902Y-147352238D01*
X111179828Y-147400147D01*
X111159103Y-147441549D01*
X111121474Y-147508836D01*
X111109921Y-147742601D01*
X111106749Y-147810595D01*
X111104284Y-147871110D01*
X111102623Y-147921078D01*
X111101860Y-147957431D01*
X111102092Y-147977102D01*
X111102552Y-147979699D01*
X111114271Y-147980168D01*
X111143764Y-147978996D01*
X111187714Y-147976441D01*
X111242804Y-147972763D01*
X111305718Y-147968219D01*
X111373138Y-147963069D01*
X111441749Y-147957570D01*
X111508233Y-147951983D01*
X111569274Y-147946564D01*
X111621555Y-147941574D01*
X111661761Y-147937270D01*
X111683768Y-147934375D01*
X111766649Y-147918075D01*
X111831424Y-147897759D01*
X111880956Y-147872385D01*
X111905378Y-147853554D01*
X111929151Y-147834271D01*
X111952047Y-147822701D01*
X111978540Y-147818603D01*
X112013104Y-147821734D01*
X112060213Y-147831853D01*
X112102696Y-147842868D01*
X112193770Y-147870979D01*
X112270676Y-147902260D01*
X112332501Y-147935784D01*
X112378334Y-147970624D01*
X112407262Y-148005851D01*
X112418373Y-148040540D01*
X112410755Y-148073762D01*
X112383496Y-148104591D01*
X112369691Y-148114300D01*
X112353492Y-148123487D01*
X112336509Y-148129392D01*
X112314280Y-148132435D01*
X112282342Y-148133041D01*
X112236232Y-148131631D01*
X112202568Y-148130119D01*
X112134608Y-148126536D01*
X112058053Y-148121908D01*
X111984153Y-148116938D01*
X111943168Y-148113881D01*
X111897849Y-148111653D01*
X111835292Y-148110485D01*
X111759404Y-148110293D01*
X111674092Y-148110991D01*
X111583262Y-148112495D01*
X111490821Y-148114722D01*
X111400676Y-148117585D01*
X111316733Y-148121002D01*
X111242899Y-148124887D01*
X111183081Y-148129156D01*
X111166745Y-148130668D01*
X111099701Y-148137380D01*
X111104670Y-148922194D01*
X111105705Y-149075785D01*
X111106760Y-149209727D01*
X111107872Y-149325544D01*
X111109078Y-149424762D01*
X111110416Y-149508906D01*
X111111924Y-149579502D01*
X111113640Y-149638075D01*
X111115600Y-149686151D01*
X111117843Y-149725255D01*
X111120406Y-149756913D01*
X111123326Y-149782650D01*
X111126341Y-149802297D01*
X111137993Y-149880410D01*
X111142365Y-149944383D01*
X111139385Y-149999986D01*
X111128977Y-150052991D01*
X111122871Y-150074265D01*
X111093173Y-150148381D01*
X111054585Y-150210060D01*
X111009532Y-150255739D01*
X110990840Y-150268384D01*
X110944568Y-150289479D01*
X110906264Y-150292542D01*
X110872677Y-150277498D01*
X110858812Y-150265381D01*
X110839117Y-150239264D01*
X110818647Y-150202200D01*
X110805953Y-150172738D01*
X110785373Y-150126171D01*
X110759520Y-150087245D01*
X110723843Y-150050385D01*
X110673792Y-150010018D01*
X110672116Y-150008766D01*
X110627319Y-149977917D01*
X110568269Y-149941006D01*
X110499928Y-149900871D01*
X110427260Y-149860347D01*
X110355225Y-149822271D01*
X110288788Y-149789480D01*
X110287180Y-149788724D01*
X110245201Y-149768901D01*
X110210996Y-149752558D01*
X110188690Y-149741676D01*
X110182221Y-149738271D01*
X110181393Y-149726396D01*
X110187431Y-149704360D01*
X110197286Y-149679741D01*
X110207905Y-149660118D01*
X110216239Y-149653073D01*
X110216483Y-149653160D01*
X110231983Y-149658759D01*
X110264033Y-149669562D01*
X110308986Y-149684396D01*
X110363200Y-149702085D01*
X110423030Y-149721459D01*
X110484832Y-149741343D01*
X110544961Y-149760564D01*
X110599774Y-149777949D01*
X110645627Y-149792325D01*
X110678875Y-149802518D01*
X110693814Y-149806837D01*
X110734080Y-149814411D01*
X110776418Y-149818062D01*
X110780919Y-149818119D01*
X110803535Y-149817250D01*
X110821327Y-149813016D01*
X110835015Y-149803085D01*
X110845319Y-149785121D01*
X110852960Y-149756788D01*
X110858659Y-149715753D01*
X110863136Y-149659679D01*
X110867112Y-149586233D01*
X110869658Y-149530570D01*
X110871527Y-149477418D01*
X110873110Y-149410172D01*
X110874414Y-149330969D01*
X110875446Y-149241948D01*
X110876210Y-149145246D01*
X110876714Y-149043001D01*
X110876963Y-148937350D01*
X110876963Y-148830431D01*
X110876722Y-148724383D01*
X110876243Y-148621342D01*
X110875535Y-148523446D01*
X110874602Y-148432834D01*
X110873452Y-148351642D01*
X110872090Y-148282009D01*
X110870521Y-148226073D01*
X110868753Y-148185970D01*
X110866792Y-148163839D01*
X110865744Y-148160185D01*
X110852412Y-148158153D01*
X110821050Y-148158509D01*
X110774636Y-148160965D01*
X110716145Y-148165232D01*
X110648554Y-148171023D01*
X110574839Y-148178049D01*
X110497977Y-148186022D01*
X110420945Y-148194653D01*
X110346718Y-148203655D01*
X110278273Y-148212738D01*
X110218586Y-148221616D01*
X110200246Y-148224633D01*
X110144096Y-148236689D01*
X110082669Y-148253757D01*
X110028764Y-148272259D01*
X110026195Y-148273279D01*
X109976365Y-148291492D01*
X109938167Y-148300738D01*
X109904807Y-148302485D01*
X109894589Y-148301753D01*
X109830341Y-148287594D01*
X109766576Y-148259273D01*
X109706272Y-148219720D01*
X109652403Y-148171866D01*
X109607945Y-148118641D01*
X109575874Y-148062974D01*
X109559164Y-148007797D01*
X109558256Y-147970546D01*
X109565586Y-147934601D01*
X109577291Y-147903211D01*
X109581027Y-147896656D01*
X109598618Y-147879165D01*
X109618806Y-147870595D01*
X109634891Y-147872432D01*
X109640333Y-147883503D01*
X109648277Y-147904084D01*
X109668856Y-147931421D01*
X109697195Y-147960368D01*
X109728414Y-147985775D01*
X109749580Y-147998805D01*
X109782966Y-148014445D01*
X109817625Y-148027349D01*
X109855432Y-148037574D01*
X109898261Y-148045174D01*
X109947989Y-148050208D01*
X110006489Y-148052730D01*
X110075638Y-148052796D01*
X110157310Y-148050464D01*
X110253381Y-148045788D01*
X110365725Y-148038826D01*
X110496218Y-148029632D01*
X110577349Y-148023574D01*
X110644898Y-148018299D01*
X110707685Y-148013108D01*
X110761715Y-148008354D01*
X110802990Y-148004390D01*
X110827515Y-148001568D01*
X110828808Y-148001375D01*
X110868512Y-147995225D01*
X110868285Y-147898219D01*
X110867178Y-147833056D01*
X110864359Y-147759592D01*
X110860168Y-147682716D01*
X110854945Y-147607318D01*
X110849030Y-147538288D01*
X110842763Y-147480514D01*
X110836483Y-147438886D01*
X110836309Y-147437996D01*
X110816804Y-147367515D01*
X110788297Y-147314838D01*
X110748600Y-147278215D01*
X110695528Y-147255899D01*
X110626895Y-147246138D01*
X110595567Y-147245357D01*
X110552533Y-147245112D01*
X110526799Y-147243622D01*
X110514493Y-147239750D01*
X110511740Y-147232361D01*
X110514298Y-147221534D01*
X110534123Y-147185539D01*
X110569072Y-147150109D01*
X110613631Y-147120553D01*
X110624994Y-147114991D01*
X110680597Y-147099258D01*
X110748574Y-147095026D01*
X110824239Y-147101249D01*
G37*
X110824239Y-147101249D02*
X110902909Y-147116883D01*
X110979897Y-147140883D01*
X111050518Y-147172204D01*
X111110086Y-147209800D01*
X111131462Y-147227942D01*
X111170288Y-147270532D01*
X111190912Y-147310498D01*
X111193902Y-147352238D01*
X111179828Y-147400147D01*
X111159103Y-147441549D01*
X111121474Y-147508836D01*
X111109921Y-147742601D01*
X111106749Y-147810595D01*
X111104284Y-147871110D01*
X111102623Y-147921078D01*
X111101860Y-147957431D01*
X111102092Y-147977102D01*
X111102552Y-147979699D01*
X111114271Y-147980168D01*
X111143764Y-147978996D01*
X111187714Y-147976441D01*
X111242804Y-147972763D01*
X111305718Y-147968219D01*
X111373138Y-147963069D01*
X111441749Y-147957570D01*
X111508233Y-147951983D01*
X111569274Y-147946564D01*
X111621555Y-147941574D01*
X111661761Y-147937270D01*
X111683768Y-147934375D01*
X111766649Y-147918075D01*
X111831424Y-147897759D01*
X111880956Y-147872385D01*
X111905378Y-147853554D01*
X111929151Y-147834271D01*
X111952047Y-147822701D01*
X111978540Y-147818603D01*
X112013104Y-147821734D01*
X112060213Y-147831853D01*
X112102696Y-147842868D01*
X112193770Y-147870979D01*
X112270676Y-147902260D01*
X112332501Y-147935784D01*
X112378334Y-147970624D01*
X112407262Y-148005851D01*
X112418373Y-148040540D01*
X112410755Y-148073762D01*
X112383496Y-148104591D01*
X112369691Y-148114300D01*
X112353492Y-148123487D01*
X112336509Y-148129392D01*
X112314280Y-148132435D01*
X112282342Y-148133041D01*
X112236232Y-148131631D01*
X112202568Y-148130119D01*
X112134608Y-148126536D01*
X112058053Y-148121908D01*
X111984153Y-148116938D01*
X111943168Y-148113881D01*
X111897849Y-148111653D01*
X111835292Y-148110485D01*
X111759404Y-148110293D01*
X111674092Y-148110991D01*
X111583262Y-148112495D01*
X111490821Y-148114722D01*
X111400676Y-148117585D01*
X111316733Y-148121002D01*
X111242899Y-148124887D01*
X111183081Y-148129156D01*
X111166745Y-148130668D01*
X111099701Y-148137380D01*
X111104670Y-148922194D01*
X111105705Y-149075785D01*
X111106760Y-149209727D01*
X111107872Y-149325544D01*
X111109078Y-149424762D01*
X111110416Y-149508906D01*
X111111924Y-149579502D01*
X111113640Y-149638075D01*
X111115600Y-149686151D01*
X111117843Y-149725255D01*
X111120406Y-149756913D01*
X111123326Y-149782650D01*
X111126341Y-149802297D01*
X111137993Y-149880410D01*
X111142365Y-149944383D01*
X111139385Y-149999986D01*
X111128977Y-150052991D01*
X111122871Y-150074265D01*
X111093173Y-150148381D01*
X111054585Y-150210060D01*
X111009532Y-150255739D01*
X110990840Y-150268384D01*
X110944568Y-150289479D01*
X110906264Y-150292542D01*
X110872677Y-150277498D01*
X110858812Y-150265381D01*
X110839117Y-150239264D01*
X110818647Y-150202200D01*
X110805953Y-150172738D01*
X110785373Y-150126171D01*
X110759520Y-150087245D01*
X110723843Y-150050385D01*
X110673792Y-150010018D01*
X110672116Y-150008766D01*
X110627319Y-149977917D01*
X110568269Y-149941006D01*
X110499928Y-149900871D01*
X110427260Y-149860347D01*
X110355225Y-149822271D01*
X110288788Y-149789480D01*
X110287180Y-149788724D01*
X110245201Y-149768901D01*
X110210996Y-149752558D01*
X110188690Y-149741676D01*
X110182221Y-149738271D01*
X110181393Y-149726396D01*
X110187431Y-149704360D01*
X110197286Y-149679741D01*
X110207905Y-149660118D01*
X110216239Y-149653073D01*
X110216483Y-149653160D01*
X110231983Y-149658759D01*
X110264033Y-149669562D01*
X110308986Y-149684396D01*
X110363200Y-149702085D01*
X110423030Y-149721459D01*
X110484832Y-149741343D01*
X110544961Y-149760564D01*
X110599774Y-149777949D01*
X110645627Y-149792325D01*
X110678875Y-149802518D01*
X110693814Y-149806837D01*
X110734080Y-149814411D01*
X110776418Y-149818062D01*
X110780919Y-149818119D01*
X110803535Y-149817250D01*
X110821327Y-149813016D01*
X110835015Y-149803085D01*
X110845319Y-149785121D01*
X110852960Y-149756788D01*
X110858659Y-149715753D01*
X110863136Y-149659679D01*
X110867112Y-149586233D01*
X110869658Y-149530570D01*
X110871527Y-149477418D01*
X110873110Y-149410172D01*
X110874414Y-149330969D01*
X110875446Y-149241948D01*
X110876210Y-149145246D01*
X110876714Y-149043001D01*
X110876963Y-148937350D01*
X110876963Y-148830431D01*
X110876722Y-148724383D01*
X110876243Y-148621342D01*
X110875535Y-148523446D01*
X110874602Y-148432834D01*
X110873452Y-148351642D01*
X110872090Y-148282009D01*
X110870521Y-148226073D01*
X110868753Y-148185970D01*
X110866792Y-148163839D01*
X110865744Y-148160185D01*
X110852412Y-148158153D01*
X110821050Y-148158509D01*
X110774636Y-148160965D01*
X110716145Y-148165232D01*
X110648554Y-148171023D01*
X110574839Y-148178049D01*
X110497977Y-148186022D01*
X110420945Y-148194653D01*
X110346718Y-148203655D01*
X110278273Y-148212738D01*
X110218586Y-148221616D01*
X110200246Y-148224633D01*
X110144096Y-148236689D01*
X110082669Y-148253757D01*
X110028764Y-148272259D01*
X110026195Y-148273279D01*
X109976365Y-148291492D01*
X109938167Y-148300738D01*
X109904807Y-148302485D01*
X109894589Y-148301753D01*
X109830341Y-148287594D01*
X109766576Y-148259273D01*
X109706272Y-148219720D01*
X109652403Y-148171866D01*
X109607945Y-148118641D01*
X109575874Y-148062974D01*
X109559164Y-148007797D01*
X109558256Y-147970546D01*
X109565586Y-147934601D01*
X109577291Y-147903211D01*
X109581027Y-147896656D01*
X109598618Y-147879165D01*
X109618806Y-147870595D01*
X109634891Y-147872432D01*
X109640333Y-147883503D01*
X109648277Y-147904084D01*
X109668856Y-147931421D01*
X109697195Y-147960368D01*
X109728414Y-147985775D01*
X109749580Y-147998805D01*
X109782966Y-148014445D01*
X109817625Y-148027349D01*
X109855432Y-148037574D01*
X109898261Y-148045174D01*
X109947989Y-148050208D01*
X110006489Y-148052730D01*
X110075638Y-148052796D01*
X110157310Y-148050464D01*
X110253381Y-148045788D01*
X110365725Y-148038826D01*
X110496218Y-148029632D01*
X110577349Y-148023574D01*
X110644898Y-148018299D01*
X110707685Y-148013108D01*
X110761715Y-148008354D01*
X110802990Y-148004390D01*
X110827515Y-148001568D01*
X110828808Y-148001375D01*
X110868512Y-147995225D01*
X110868285Y-147898219D01*
X110867178Y-147833056D01*
X110864359Y-147759592D01*
X110860168Y-147682716D01*
X110854945Y-147607318D01*
X110849030Y-147538288D01*
X110842763Y-147480514D01*
X110836483Y-147438886D01*
X110836309Y-147437996D01*
X110816804Y-147367515D01*
X110788297Y-147314838D01*
X110748600Y-147278215D01*
X110695528Y-147255899D01*
X110626895Y-147246138D01*
X110595567Y-147245357D01*
X110552533Y-147245112D01*
X110526799Y-147243622D01*
X110514493Y-147239750D01*
X110511740Y-147232361D01*
X110514298Y-147221534D01*
X110534123Y-147185539D01*
X110569072Y-147150109D01*
X110613631Y-147120553D01*
X110624994Y-147114991D01*
X110680597Y-147099258D01*
X110748574Y-147095026D01*
X110824239Y-147101249D01*
G36*
X114196050Y-147004313D02*
G01*
X114275866Y-147013336D01*
X114352387Y-147030661D01*
X114423140Y-147054873D01*
X114485652Y-147084556D01*
X114537450Y-147118296D01*
X114576061Y-147154677D01*
X114599011Y-147192283D01*
X114603828Y-147229700D01*
X114602433Y-147236893D01*
X114589987Y-147258497D01*
X114566060Y-147282923D01*
X114552437Y-147293424D01*
X114535081Y-147306198D01*
X114520216Y-147319857D01*
X114506264Y-147337172D01*
X114491647Y-147360916D01*
X114474787Y-147393861D01*
X114454105Y-147438779D01*
X114428023Y-147498441D01*
X114404542Y-147553188D01*
X114374166Y-147622232D01*
X114338652Y-147699780D01*
X114302253Y-147776706D01*
X114269225Y-147843881D01*
X114266821Y-147848629D01*
X114241874Y-147898356D01*
X114221064Y-147940967D01*
X114205975Y-147973129D01*
X114198188Y-147991510D01*
X114197543Y-147994507D01*
X114208785Y-147997077D01*
X114235952Y-148001153D01*
X114273912Y-148005990D01*
X114288125Y-148007648D01*
X114343987Y-148011157D01*
X114419275Y-148011345D01*
X114512516Y-148008324D01*
X114622241Y-148002208D01*
X114746979Y-147993110D01*
X114885259Y-147981144D01*
X115035612Y-147966421D01*
X115196565Y-147949057D01*
X115366650Y-147929162D01*
X115463593Y-147917179D01*
X115574469Y-147902345D01*
X115667204Y-147887793D01*
X115744807Y-147872760D01*
X115810287Y-147856480D01*
X115866651Y-147838189D01*
X115916909Y-147817123D01*
X115964069Y-147792516D01*
X115971805Y-147788038D01*
X115999993Y-147773694D01*
X116027969Y-147765577D01*
X116060035Y-147763746D01*
X116100491Y-147768262D01*
X116153640Y-147779187D01*
X116203197Y-147791313D01*
X116287053Y-147816601D01*
X116351337Y-147845338D01*
X116397503Y-147878461D01*
X116427006Y-147916911D01*
X116437145Y-147942331D01*
X116440927Y-147971313D01*
X116430269Y-147995662D01*
X116426023Y-148001316D01*
X116411945Y-148014824D01*
X116391635Y-148025700D01*
X116362700Y-148034322D01*
X116322749Y-148041067D01*
X116269390Y-148046311D01*
X116200231Y-148050432D01*
X116112880Y-148053807D01*
X116088270Y-148054568D01*
X116025818Y-148056753D01*
X115953906Y-148059812D01*
X115875463Y-148063569D01*
X115793417Y-148067845D01*
X115710695Y-148072466D01*
X115630226Y-148077254D01*
X115554937Y-148082031D01*
X115487756Y-148086623D01*
X115431612Y-148090852D01*
X115389433Y-148094540D01*
X115364146Y-148097513D01*
X115359024Y-148098580D01*
X115356846Y-148106845D01*
X115373069Y-148123534D01*
X115385905Y-148133356D01*
X115434672Y-148178024D01*
X115463403Y-148227279D01*
X115470810Y-148255699D01*
X115471318Y-148282496D01*
X115460511Y-148306693D01*
X115445005Y-148326311D01*
X115411132Y-148371045D01*
X115388235Y-148417575D01*
X115372536Y-148474237D01*
X115368541Y-148495160D01*
X115361322Y-148531301D01*
X115350130Y-148581728D01*
X115336391Y-148640249D01*
X115321527Y-148700673D01*
X115318719Y-148711759D01*
X115251243Y-148939245D01*
X115168268Y-149152374D01*
X115069660Y-149351361D01*
X114955287Y-149536421D01*
X114825014Y-149707766D01*
X114678709Y-149865613D01*
X114516237Y-150010173D01*
X114503381Y-150020498D01*
X114456054Y-150056566D01*
X114400106Y-150096505D01*
X114338341Y-150138579D01*
X114273563Y-150181053D01*
X114208575Y-150222190D01*
X114146183Y-150260257D01*
X114089190Y-150293516D01*
X114040401Y-150320233D01*
X114002619Y-150338671D01*
X113978649Y-150347097D01*
X113975134Y-150347435D01*
X113963886Y-150339232D01*
X113947268Y-150318811D01*
X113940847Y-150309371D01*
X113926562Y-150285719D01*
X113919651Y-150271015D01*
X113919672Y-150269012D01*
X113929237Y-150262330D01*
X113952381Y-150246197D01*
X113985306Y-150223261D01*
X114013072Y-150203925D01*
X114198629Y-150062143D01*
X114368469Y-149906453D01*
X114522082Y-149737683D01*
X114658959Y-149556664D01*
X114778588Y-149364223D01*
X114880461Y-149161190D01*
X114964065Y-148948394D01*
X115028892Y-148726663D01*
X115074430Y-148496826D01*
X115077782Y-148474276D01*
X115088601Y-148381893D01*
X115091399Y-148307243D01*
X115085805Y-148248316D01*
X115071453Y-148203101D01*
X115047973Y-148169588D01*
X115017887Y-148147305D01*
X114995330Y-148140902D01*
X114956758Y-148137930D01*
X114901281Y-148138426D01*
X114828010Y-148142432D01*
X114736052Y-148149986D01*
X114624518Y-148161127D01*
X114568929Y-148167185D01*
X114478055Y-148176603D01*
X114404706Y-148182308D01*
X114345529Y-148184123D01*
X114297171Y-148181870D01*
X114256277Y-148175371D01*
X114219495Y-148164449D01*
X114183471Y-148148925D01*
X114178534Y-148146492D01*
X114113656Y-148114133D01*
X114092480Y-148142819D01*
X113980343Y-148288675D01*
X113865425Y-148426641D01*
X113750737Y-148553315D01*
X113639290Y-148665297D01*
X113587783Y-148712874D01*
X113531863Y-148761995D01*
X113475990Y-148809386D01*
X113422731Y-148853029D01*
X113374658Y-148890905D01*
X113334340Y-148920996D01*
X113304345Y-148941283D01*
X113287244Y-148949747D01*
X113286106Y-148949873D01*
X113271968Y-148942468D01*
X113252122Y-148923931D01*
X113246665Y-148917721D01*
X113219519Y-148885459D01*
X113333976Y-148771002D01*
X113509758Y-148582157D01*
X113669582Y-148383522D01*
X113811956Y-148177152D01*
X113935390Y-147965104D01*
X113975816Y-147885915D01*
X114027903Y-147774770D01*
X114073271Y-147667574D01*
X114111392Y-147566228D01*
X114141739Y-147472631D01*
X114163782Y-147388683D01*
X114176995Y-147316285D01*
X114180848Y-147257335D01*
X114174814Y-147213733D01*
X114167268Y-147197255D01*
X114137001Y-147167822D01*
X114092147Y-147145086D01*
X114038895Y-147131646D01*
X114005131Y-147129124D01*
X113969200Y-147126728D01*
X113952350Y-147118723D01*
X113954142Y-147103313D01*
X113974140Y-147078701D01*
X113989250Y-147063871D01*
X114024097Y-147034550D01*
X114058232Y-147015676D01*
X114097353Y-147005610D01*
X114147156Y-147002711D01*
X114196050Y-147004313D01*
G37*
X114196050Y-147004313D02*
X114275866Y-147013336D01*
X114352387Y-147030661D01*
X114423140Y-147054873D01*
X114485652Y-147084556D01*
X114537450Y-147118296D01*
X114576061Y-147154677D01*
X114599011Y-147192283D01*
X114603828Y-147229700D01*
X114602433Y-147236893D01*
X114589987Y-147258497D01*
X114566060Y-147282923D01*
X114552437Y-147293424D01*
X114535081Y-147306198D01*
X114520216Y-147319857D01*
X114506264Y-147337172D01*
X114491647Y-147360916D01*
X114474787Y-147393861D01*
X114454105Y-147438779D01*
X114428023Y-147498441D01*
X114404542Y-147553188D01*
X114374166Y-147622232D01*
X114338652Y-147699780D01*
X114302253Y-147776706D01*
X114269225Y-147843881D01*
X114266821Y-147848629D01*
X114241874Y-147898356D01*
X114221064Y-147940967D01*
X114205975Y-147973129D01*
X114198188Y-147991510D01*
X114197543Y-147994507D01*
X114208785Y-147997077D01*
X114235952Y-148001153D01*
X114273912Y-148005990D01*
X114288125Y-148007648D01*
X114343987Y-148011157D01*
X114419275Y-148011345D01*
X114512516Y-148008324D01*
X114622241Y-148002208D01*
X114746979Y-147993110D01*
X114885259Y-147981144D01*
X115035612Y-147966421D01*
X115196565Y-147949057D01*
X115366650Y-147929162D01*
X115463593Y-147917179D01*
X115574469Y-147902345D01*
X115667204Y-147887793D01*
X115744807Y-147872760D01*
X115810287Y-147856480D01*
X115866651Y-147838189D01*
X115916909Y-147817123D01*
X115964069Y-147792516D01*
X115971805Y-147788038D01*
X115999993Y-147773694D01*
X116027969Y-147765577D01*
X116060035Y-147763746D01*
X116100491Y-147768262D01*
X116153640Y-147779187D01*
X116203197Y-147791313D01*
X116287053Y-147816601D01*
X116351337Y-147845338D01*
X116397503Y-147878461D01*
X116427006Y-147916911D01*
X116437145Y-147942331D01*
X116440927Y-147971313D01*
X116430269Y-147995662D01*
X116426023Y-148001316D01*
X116411945Y-148014824D01*
X116391635Y-148025700D01*
X116362700Y-148034322D01*
X116322749Y-148041067D01*
X116269390Y-148046311D01*
X116200231Y-148050432D01*
X116112880Y-148053807D01*
X116088270Y-148054568D01*
X116025818Y-148056753D01*
X115953906Y-148059812D01*
X115875463Y-148063569D01*
X115793417Y-148067845D01*
X115710695Y-148072466D01*
X115630226Y-148077254D01*
X115554937Y-148082031D01*
X115487756Y-148086623D01*
X115431612Y-148090852D01*
X115389433Y-148094540D01*
X115364146Y-148097513D01*
X115359024Y-148098580D01*
X115356846Y-148106845D01*
X115373069Y-148123534D01*
X115385905Y-148133356D01*
X115434672Y-148178024D01*
X115463403Y-148227279D01*
X115470810Y-148255699D01*
X115471318Y-148282496D01*
X115460511Y-148306693D01*
X115445005Y-148326311D01*
X115411132Y-148371045D01*
X115388235Y-148417575D01*
X115372536Y-148474237D01*
X115368541Y-148495160D01*
X115361322Y-148531301D01*
X115350130Y-148581728D01*
X115336391Y-148640249D01*
X115321527Y-148700673D01*
X115318719Y-148711759D01*
X115251243Y-148939245D01*
X115168268Y-149152374D01*
X115069660Y-149351361D01*
X114955287Y-149536421D01*
X114825014Y-149707766D01*
X114678709Y-149865613D01*
X114516237Y-150010173D01*
X114503381Y-150020498D01*
X114456054Y-150056566D01*
X114400106Y-150096505D01*
X114338341Y-150138579D01*
X114273563Y-150181053D01*
X114208575Y-150222190D01*
X114146183Y-150260257D01*
X114089190Y-150293516D01*
X114040401Y-150320233D01*
X114002619Y-150338671D01*
X113978649Y-150347097D01*
X113975134Y-150347435D01*
X113963886Y-150339232D01*
X113947268Y-150318811D01*
X113940847Y-150309371D01*
X113926562Y-150285719D01*
X113919651Y-150271015D01*
X113919672Y-150269012D01*
X113929237Y-150262330D01*
X113952381Y-150246197D01*
X113985306Y-150223261D01*
X114013072Y-150203925D01*
X114198629Y-150062143D01*
X114368469Y-149906453D01*
X114522082Y-149737683D01*
X114658959Y-149556664D01*
X114778588Y-149364223D01*
X114880461Y-149161190D01*
X114964065Y-148948394D01*
X115028892Y-148726663D01*
X115074430Y-148496826D01*
X115077782Y-148474276D01*
X115088601Y-148381893D01*
X115091399Y-148307243D01*
X115085805Y-148248316D01*
X115071453Y-148203101D01*
X115047973Y-148169588D01*
X115017887Y-148147305D01*
X114995330Y-148140902D01*
X114956758Y-148137930D01*
X114901281Y-148138426D01*
X114828010Y-148142432D01*
X114736052Y-148149986D01*
X114624518Y-148161127D01*
X114568929Y-148167185D01*
X114478055Y-148176603D01*
X114404706Y-148182308D01*
X114345529Y-148184123D01*
X114297171Y-148181870D01*
X114256277Y-148175371D01*
X114219495Y-148164449D01*
X114183471Y-148148925D01*
X114178534Y-148146492D01*
X114113656Y-148114133D01*
X114092480Y-148142819D01*
X113980343Y-148288675D01*
X113865425Y-148426641D01*
X113750737Y-148553315D01*
X113639290Y-148665297D01*
X113587783Y-148712874D01*
X113531863Y-148761995D01*
X113475990Y-148809386D01*
X113422731Y-148853029D01*
X113374658Y-148890905D01*
X113334340Y-148920996D01*
X113304345Y-148941283D01*
X113287244Y-148949747D01*
X113286106Y-148949873D01*
X113271968Y-148942468D01*
X113252122Y-148923931D01*
X113246665Y-148917721D01*
X113219519Y-148885459D01*
X113333976Y-148771002D01*
X113509758Y-148582157D01*
X113669582Y-148383522D01*
X113811956Y-148177152D01*
X113935390Y-147965104D01*
X113975816Y-147885915D01*
X114027903Y-147774770D01*
X114073271Y-147667574D01*
X114111392Y-147566228D01*
X114141739Y-147472631D01*
X114163782Y-147388683D01*
X114176995Y-147316285D01*
X114180848Y-147257335D01*
X114174814Y-147213733D01*
X114167268Y-147197255D01*
X114137001Y-147167822D01*
X114092147Y-147145086D01*
X114038895Y-147131646D01*
X114005131Y-147129124D01*
X113969200Y-147126728D01*
X113952350Y-147118723D01*
X113954142Y-147103313D01*
X113974140Y-147078701D01*
X113989250Y-147063871D01*
X114024097Y-147034550D01*
X114058232Y-147015676D01*
X114097353Y-147005610D01*
X114147156Y-147002711D01*
X114196050Y-147004313D01*
D11*
%TO.C,J15*%
G36*
X126381000Y-112284000D02*
G01*
X128381000Y-112284000D01*
X128381000Y-114284000D01*
X126381000Y-114284000D01*
X126381000Y-114184000D01*
X126381000Y-112284000D01*
G37*
X126381000Y-112284000D02*
X128381000Y-112284000D01*
X128381000Y-114284000D01*
X126381000Y-114284000D01*
X126381000Y-114184000D01*
X126381000Y-112284000D01*
%TO.C,J14*%
G36*
X126173000Y-147582000D02*
G01*
X128173000Y-147582000D01*
X128173000Y-149582000D01*
X126173000Y-149582000D01*
X126173000Y-149482000D01*
X126173000Y-147582000D01*
G37*
X126173000Y-147582000D02*
X128173000Y-147582000D01*
X128173000Y-149582000D01*
X126173000Y-149582000D01*
X126173000Y-149482000D01*
X126173000Y-147582000D01*
%TO.C,J13*%
G36*
X130953000Y-112284000D02*
G01*
X132953000Y-112284000D01*
X132953000Y-114284000D01*
X130953000Y-114284000D01*
X130953000Y-114184000D01*
X130953000Y-112284000D01*
G37*
X130953000Y-112284000D02*
X132953000Y-112284000D01*
X132953000Y-114284000D01*
X130953000Y-114284000D01*
X130953000Y-114184000D01*
X130953000Y-112284000D01*
%TO.C,J12*%
G36*
X131080000Y-147590000D02*
G01*
X133080000Y-147590000D01*
X133080000Y-149590000D01*
X131080000Y-149590000D01*
X131080000Y-149490000D01*
X131080000Y-147590000D01*
G37*
X131080000Y-147590000D02*
X133080000Y-147590000D01*
X133080000Y-149590000D01*
X131080000Y-149590000D01*
X131080000Y-149490000D01*
X131080000Y-147590000D01*
%TO.C,J11*%
G36*
X105680000Y-147590000D02*
G01*
X107680000Y-147590000D01*
X107680000Y-149590000D01*
X105680000Y-149590000D01*
X105680000Y-149490000D01*
X105680000Y-147590000D01*
G37*
X105680000Y-147590000D02*
X107680000Y-147590000D01*
X107680000Y-149590000D01*
X105680000Y-149590000D01*
X105680000Y-149490000D01*
X105680000Y-147590000D01*
%TO.C,J10*%
G36*
X100600000Y-143780000D02*
G01*
X102600000Y-143780000D01*
X102600000Y-145780000D01*
X100600000Y-145780000D01*
X100600000Y-145680000D01*
X100600000Y-143780000D01*
G37*
X100600000Y-143780000D02*
X102600000Y-143780000D01*
X102600000Y-145780000D01*
X100600000Y-145780000D01*
X100600000Y-145680000D01*
X100600000Y-143780000D01*
%TO.C,J9*%
G36*
X105680000Y-139970000D02*
G01*
X107680000Y-139970000D01*
X107680000Y-141970000D01*
X105680000Y-141970000D01*
X105680000Y-141870000D01*
X105680000Y-139970000D01*
G37*
X105680000Y-139970000D02*
X107680000Y-139970000D01*
X107680000Y-141970000D01*
X105680000Y-141970000D01*
X105680000Y-141870000D01*
X105680000Y-139970000D01*
%TO.C,J7*%
G36*
X100600000Y-136160000D02*
G01*
X102600000Y-136160000D01*
X102600000Y-138160000D01*
X100600000Y-138160000D01*
X100600000Y-138060000D01*
X100600000Y-136160000D01*
G37*
X100600000Y-136160000D02*
X102600000Y-136160000D01*
X102600000Y-138160000D01*
X100600000Y-138160000D01*
X100600000Y-138060000D01*
X100600000Y-136160000D01*
%TO.C,J6*%
G36*
X105680000Y-132350000D02*
G01*
X107680000Y-132350000D01*
X107680000Y-134350000D01*
X105680000Y-134350000D01*
X105680000Y-134250000D01*
X105680000Y-132350000D01*
G37*
X105680000Y-132350000D02*
X107680000Y-132350000D01*
X107680000Y-134350000D01*
X105680000Y-134350000D01*
X105680000Y-134250000D01*
X105680000Y-132350000D01*
%TO.C,J5*%
G36*
X100600000Y-128540000D02*
G01*
X102600000Y-128540000D01*
X102600000Y-130540000D01*
X100600000Y-130540000D01*
X100600000Y-130440000D01*
X100600000Y-128540000D01*
G37*
X100600000Y-128540000D02*
X102600000Y-128540000D01*
X102600000Y-130540000D01*
X100600000Y-130540000D01*
X100600000Y-130440000D01*
X100600000Y-128540000D01*
%TO.C,J4*%
G36*
X105680000Y-124730000D02*
G01*
X107680000Y-124730000D01*
X107680000Y-126730000D01*
X105680000Y-126730000D01*
X105680000Y-126630000D01*
X105680000Y-124730000D01*
G37*
X105680000Y-124730000D02*
X107680000Y-124730000D01*
X107680000Y-126730000D01*
X105680000Y-126730000D01*
X105680000Y-126630000D01*
X105680000Y-124730000D01*
%TO.C,J3*%
G36*
X100600000Y-120920000D02*
G01*
X102600000Y-120920000D01*
X102600000Y-122920000D01*
X100600000Y-122920000D01*
X100600000Y-122820000D01*
X100600000Y-120920000D01*
G37*
X100600000Y-120920000D02*
X102600000Y-120920000D01*
X102600000Y-122920000D01*
X100600000Y-122920000D01*
X100600000Y-122820000D01*
X100600000Y-120920000D01*
%TO.C,J2*%
G36*
X105680000Y-117110000D02*
G01*
X107680000Y-117110000D01*
X107680000Y-119110000D01*
X105680000Y-119110000D01*
X105680000Y-119010000D01*
X105680000Y-117110000D01*
G37*
X105680000Y-117110000D02*
X107680000Y-117110000D01*
X107680000Y-119110000D01*
X105680000Y-119110000D01*
X105680000Y-119010000D01*
X105680000Y-117110000D01*
%TD*%
D12*
%TO.C,J1*%
X93980000Y-143510000D03*
X93980000Y-142240000D03*
X93980000Y-140970000D03*
X93980000Y-139700000D03*
X93980000Y-138430000D03*
X93980000Y-137160000D03*
X93980000Y-135890000D03*
X93980000Y-134620000D03*
X93980000Y-133350000D03*
X93980000Y-132080000D03*
X93980000Y-130810000D03*
X93980000Y-129540000D03*
X93980000Y-128270000D03*
X93980000Y-127000000D03*
D13*
X93980000Y-125730000D03*
%TD*%
D14*
%TO.C,U1*%
X120235000Y-120860000D03*
X120885000Y-120860000D03*
X121535000Y-120860000D03*
X122185000Y-120860000D03*
X122835000Y-120860000D03*
X123485000Y-120860000D03*
X124135000Y-120860000D03*
X124785000Y-120860000D03*
X125435000Y-120860000D03*
X126085000Y-120860000D03*
X126735000Y-120860000D03*
X127385000Y-120860000D03*
X128035000Y-120860000D03*
X128685000Y-120860000D03*
X128685000Y-128060000D03*
X128035000Y-128060000D03*
X127385000Y-128060000D03*
X126735000Y-128060000D03*
X126085000Y-128060000D03*
X125435000Y-128060000D03*
X124785000Y-128060000D03*
X124135000Y-128060000D03*
X123485000Y-128060000D03*
X122835000Y-128060000D03*
X122185000Y-128060000D03*
X121535000Y-128060000D03*
X120885000Y-128060000D03*
X120235000Y-128060000D03*
%TD*%
%TO.C,R13*%
G36*
G01*
X116685000Y-113821738D02*
X116685000Y-114778262D01*
G75*
G02*
X116413262Y-115050000I-271738J0D01*
G01*
X115706738Y-115050000D01*
G75*
G02*
X115435000Y-114778262I0J271738D01*
G01*
X115435000Y-113821738D01*
G75*
G02*
X115706738Y-113550000I271738J0D01*
G01*
X116413262Y-113550000D01*
G75*
G02*
X116685000Y-113821738I0J-271738D01*
G01*
G37*
G36*
G01*
X118735000Y-113821738D02*
X118735000Y-114778262D01*
G75*
G02*
X118463262Y-115050000I-271738J0D01*
G01*
X117756738Y-115050000D01*
G75*
G02*
X117485000Y-114778262I0J271738D01*
G01*
X117485000Y-113821738D01*
G75*
G02*
X117756738Y-113550000I271738J0D01*
G01*
X118463262Y-113550000D01*
G75*
G02*
X118735000Y-113821738I0J-271738D01*
G01*
G37*
%TD*%
%TO.C,R12*%
G36*
G01*
X116685000Y-116361738D02*
X116685000Y-117318262D01*
G75*
G02*
X116413262Y-117590000I-271738J0D01*
G01*
X115706738Y-117590000D01*
G75*
G02*
X115435000Y-117318262I0J271738D01*
G01*
X115435000Y-116361738D01*
G75*
G02*
X115706738Y-116090000I271738J0D01*
G01*
X116413262Y-116090000D01*
G75*
G02*
X116685000Y-116361738I0J-271738D01*
G01*
G37*
G36*
G01*
X118735000Y-116361738D02*
X118735000Y-117318262D01*
G75*
G02*
X118463262Y-117590000I-271738J0D01*
G01*
X117756738Y-117590000D01*
G75*
G02*
X117485000Y-117318262I0J271738D01*
G01*
X117485000Y-116361738D01*
G75*
G02*
X117756738Y-116090000I271738J0D01*
G01*
X118463262Y-116090000D01*
G75*
G02*
X118735000Y-116361738I0J-271738D01*
G01*
G37*
%TD*%
%TO.C,R11*%
G36*
G01*
X132898000Y-140170262D02*
X132898000Y-139213738D01*
G75*
G02*
X133169738Y-138942000I271738J0D01*
G01*
X133876262Y-138942000D01*
G75*
G02*
X134148000Y-139213738I0J-271738D01*
G01*
X134148000Y-140170262D01*
G75*
G02*
X133876262Y-140442000I-271738J0D01*
G01*
X133169738Y-140442000D01*
G75*
G02*
X132898000Y-140170262I0J271738D01*
G01*
G37*
G36*
G01*
X130848000Y-140170262D02*
X130848000Y-139213738D01*
G75*
G02*
X131119738Y-138942000I271738J0D01*
G01*
X131826262Y-138942000D01*
G75*
G02*
X132098000Y-139213738I0J-271738D01*
G01*
X132098000Y-140170262D01*
G75*
G02*
X131826262Y-140442000I-271738J0D01*
G01*
X131119738Y-140442000D01*
G75*
G02*
X130848000Y-140170262I0J271738D01*
G01*
G37*
%TD*%
%TO.C,R10*%
G36*
G01*
X133505000Y-126208262D02*
X133505000Y-125251738D01*
G75*
G02*
X133776738Y-124980000I271738J0D01*
G01*
X134483262Y-124980000D01*
G75*
G02*
X134755000Y-125251738I0J-271738D01*
G01*
X134755000Y-126208262D01*
G75*
G02*
X134483262Y-126480000I-271738J0D01*
G01*
X133776738Y-126480000D01*
G75*
G02*
X133505000Y-126208262I0J271738D01*
G01*
G37*
G36*
G01*
X131455000Y-126208262D02*
X131455000Y-125251738D01*
G75*
G02*
X131726738Y-124980000I271738J0D01*
G01*
X132433262Y-124980000D01*
G75*
G02*
X132705000Y-125251738I0J-271738D01*
G01*
X132705000Y-126208262D01*
G75*
G02*
X132433262Y-126480000I-271738J0D01*
G01*
X131726738Y-126480000D01*
G75*
G02*
X131455000Y-126208262I0J271738D01*
G01*
G37*
%TD*%
%TO.C,R9*%
G36*
G01*
X133505000Y-123668262D02*
X133505000Y-122711738D01*
G75*
G02*
X133776738Y-122440000I271738J0D01*
G01*
X134483262Y-122440000D01*
G75*
G02*
X134755000Y-122711738I0J-271738D01*
G01*
X134755000Y-123668262D01*
G75*
G02*
X134483262Y-123940000I-271738J0D01*
G01*
X133776738Y-123940000D01*
G75*
G02*
X133505000Y-123668262I0J271738D01*
G01*
G37*
G36*
G01*
X131455000Y-123668262D02*
X131455000Y-122711738D01*
G75*
G02*
X131726738Y-122440000I271738J0D01*
G01*
X132433262Y-122440000D01*
G75*
G02*
X132705000Y-122711738I0J-271738D01*
G01*
X132705000Y-123668262D01*
G75*
G02*
X132433262Y-123940000I-271738J0D01*
G01*
X131726738Y-123940000D01*
G75*
G02*
X131455000Y-123668262I0J271738D01*
G01*
G37*
%TD*%
%TO.C,R8*%
G36*
G01*
X117631738Y-134775000D02*
X118588262Y-134775000D01*
G75*
G02*
X118860000Y-135046738I0J-271738D01*
G01*
X118860000Y-135753262D01*
G75*
G02*
X118588262Y-136025000I-271738J0D01*
G01*
X117631738Y-136025000D01*
G75*
G02*
X117360000Y-135753262I0J271738D01*
G01*
X117360000Y-135046738D01*
G75*
G02*
X117631738Y-134775000I271738J0D01*
G01*
G37*
G36*
G01*
X117631738Y-132725000D02*
X118588262Y-132725000D01*
G75*
G02*
X118860000Y-132996738I0J-271738D01*
G01*
X118860000Y-133703262D01*
G75*
G02*
X118588262Y-133975000I-271738J0D01*
G01*
X117631738Y-133975000D01*
G75*
G02*
X117360000Y-133703262I0J271738D01*
G01*
X117360000Y-132996738D01*
G75*
G02*
X117631738Y-132725000I271738J0D01*
G01*
G37*
%TD*%
%TO.C,R7*%
G36*
G01*
X116361738Y-140100000D02*
X117318262Y-140100000D01*
G75*
G02*
X117590000Y-140371738I0J-271738D01*
G01*
X117590000Y-141078262D01*
G75*
G02*
X117318262Y-141350000I-271738J0D01*
G01*
X116361738Y-141350000D01*
G75*
G02*
X116090000Y-141078262I0J271738D01*
G01*
X116090000Y-140371738D01*
G75*
G02*
X116361738Y-140100000I271738J0D01*
G01*
G37*
G36*
G01*
X116361738Y-138050000D02*
X117318262Y-138050000D01*
G75*
G02*
X117590000Y-138321738I0J-271738D01*
G01*
X117590000Y-139028262D01*
G75*
G02*
X117318262Y-139300000I-271738J0D01*
G01*
X116361738Y-139300000D01*
G75*
G02*
X116090000Y-139028262I0J271738D01*
G01*
X116090000Y-138321738D01*
G75*
G02*
X116361738Y-138050000I271738J0D01*
G01*
G37*
%TD*%
%TO.C,R6*%
G36*
G01*
X110011738Y-128425000D02*
X110968262Y-128425000D01*
G75*
G02*
X111240000Y-128696738I0J-271738D01*
G01*
X111240000Y-129403262D01*
G75*
G02*
X110968262Y-129675000I-271738J0D01*
G01*
X110011738Y-129675000D01*
G75*
G02*
X109740000Y-129403262I0J271738D01*
G01*
X109740000Y-128696738D01*
G75*
G02*
X110011738Y-128425000I271738J0D01*
G01*
G37*
G36*
G01*
X110011738Y-126375000D02*
X110968262Y-126375000D01*
G75*
G02*
X111240000Y-126646738I0J-271738D01*
G01*
X111240000Y-127353262D01*
G75*
G02*
X110968262Y-127625000I-271738J0D01*
G01*
X110011738Y-127625000D01*
G75*
G02*
X109740000Y-127353262I0J271738D01*
G01*
X109740000Y-126646738D01*
G75*
G02*
X110011738Y-126375000I271738J0D01*
G01*
G37*
%TD*%
%TO.C,R5*%
G36*
G01*
X110011738Y-123336000D02*
X110968262Y-123336000D01*
G75*
G02*
X111240000Y-123607738I0J-271738D01*
G01*
X111240000Y-124314262D01*
G75*
G02*
X110968262Y-124586000I-271738J0D01*
G01*
X110011738Y-124586000D01*
G75*
G02*
X109740000Y-124314262I0J271738D01*
G01*
X109740000Y-123607738D01*
G75*
G02*
X110011738Y-123336000I271738J0D01*
G01*
G37*
G36*
G01*
X110011738Y-121286000D02*
X110968262Y-121286000D01*
G75*
G02*
X111240000Y-121557738I0J-271738D01*
G01*
X111240000Y-122264262D01*
G75*
G02*
X110968262Y-122536000I-271738J0D01*
G01*
X110011738Y-122536000D01*
G75*
G02*
X109740000Y-122264262I0J271738D01*
G01*
X109740000Y-121557738D01*
G75*
G02*
X110011738Y-121286000I271738J0D01*
G01*
G37*
%TD*%
%TO.C,R4*%
G36*
G01*
X121275000Y-132871738D02*
X121275000Y-133828262D01*
G75*
G02*
X121003262Y-134100000I-271738J0D01*
G01*
X120296738Y-134100000D01*
G75*
G02*
X120025000Y-133828262I0J271738D01*
G01*
X120025000Y-132871738D01*
G75*
G02*
X120296738Y-132600000I271738J0D01*
G01*
X121003262Y-132600000D01*
G75*
G02*
X121275000Y-132871738I0J-271738D01*
G01*
G37*
G36*
G01*
X123325000Y-132871738D02*
X123325000Y-133828262D01*
G75*
G02*
X123053262Y-134100000I-271738J0D01*
G01*
X122346738Y-134100000D01*
G75*
G02*
X122075000Y-133828262I0J271738D01*
G01*
X122075000Y-132871738D01*
G75*
G02*
X122346738Y-132600000I271738J0D01*
G01*
X123053262Y-132600000D01*
G75*
G02*
X123325000Y-132871738I0J-271738D01*
G01*
G37*
%TD*%
%TO.C,R3*%
G36*
G01*
X120005000Y-138205738D02*
X120005000Y-139162262D01*
G75*
G02*
X119733262Y-139434000I-271738J0D01*
G01*
X119026738Y-139434000D01*
G75*
G02*
X118755000Y-139162262I0J271738D01*
G01*
X118755000Y-138205738D01*
G75*
G02*
X119026738Y-137934000I271738J0D01*
G01*
X119733262Y-137934000D01*
G75*
G02*
X120005000Y-138205738I0J-271738D01*
G01*
G37*
G36*
G01*
X122055000Y-138205738D02*
X122055000Y-139162262D01*
G75*
G02*
X121783262Y-139434000I-271738J0D01*
G01*
X121076738Y-139434000D01*
G75*
G02*
X120805000Y-139162262I0J271738D01*
G01*
X120805000Y-138205738D01*
G75*
G02*
X121076738Y-137934000I271738J0D01*
G01*
X121783262Y-137934000D01*
G75*
G02*
X122055000Y-138205738I0J-271738D01*
G01*
G37*
%TD*%
%TO.C,R2*%
G36*
G01*
X113655000Y-126521738D02*
X113655000Y-127478262D01*
G75*
G02*
X113383262Y-127750000I-271738J0D01*
G01*
X112676738Y-127750000D01*
G75*
G02*
X112405000Y-127478262I0J271738D01*
G01*
X112405000Y-126521738D01*
G75*
G02*
X112676738Y-126250000I271738J0D01*
G01*
X113383262Y-126250000D01*
G75*
G02*
X113655000Y-126521738I0J-271738D01*
G01*
G37*
G36*
G01*
X115705000Y-126521738D02*
X115705000Y-127478262D01*
G75*
G02*
X115433262Y-127750000I-271738J0D01*
G01*
X114726738Y-127750000D01*
G75*
G02*
X114455000Y-127478262I0J271738D01*
G01*
X114455000Y-126521738D01*
G75*
G02*
X114726738Y-126250000I271738J0D01*
G01*
X115433262Y-126250000D01*
G75*
G02*
X115705000Y-126521738I0J-271738D01*
G01*
G37*
%TD*%
%TO.C,R1*%
G36*
G01*
X113655000Y-121441738D02*
X113655000Y-122398262D01*
G75*
G02*
X113383262Y-122670000I-271738J0D01*
G01*
X112676738Y-122670000D01*
G75*
G02*
X112405000Y-122398262I0J271738D01*
G01*
X112405000Y-121441738D01*
G75*
G02*
X112676738Y-121170000I271738J0D01*
G01*
X113383262Y-121170000D01*
G75*
G02*
X113655000Y-121441738I0J-271738D01*
G01*
G37*
G36*
G01*
X115705000Y-121441738D02*
X115705000Y-122398262D01*
G75*
G02*
X115433262Y-122670000I-271738J0D01*
G01*
X114726738Y-122670000D01*
G75*
G02*
X114455000Y-122398262I0J271738D01*
G01*
X114455000Y-121441738D01*
G75*
G02*
X114726738Y-121170000I271738J0D01*
G01*
X115433262Y-121170000D01*
G75*
G02*
X115705000Y-121441738I0J-271738D01*
G01*
G37*
%TD*%
D11*
%TO.C,JP2*%
G36*
X111865889Y-133133398D02*
G01*
X111847466Y-133133398D01*
X111842565Y-133133157D01*
X111793734Y-133128347D01*
X111788881Y-133127627D01*
X111740756Y-133118055D01*
X111735995Y-133116863D01*
X111689040Y-133102619D01*
X111684421Y-133100966D01*
X111639088Y-133082189D01*
X111634651Y-133080091D01*
X111591378Y-133056960D01*
X111587171Y-133054438D01*
X111546372Y-133027178D01*
X111542430Y-133024254D01*
X111504501Y-132993126D01*
X111500866Y-132989831D01*
X111466169Y-132955134D01*
X111462874Y-132951499D01*
X111431746Y-132913570D01*
X111428822Y-132909628D01*
X111401562Y-132868829D01*
X111399040Y-132864622D01*
X111375909Y-132821349D01*
X111373811Y-132816912D01*
X111355034Y-132771579D01*
X111353381Y-132766960D01*
X111339137Y-132720005D01*
X111337945Y-132715244D01*
X111328373Y-132667119D01*
X111327653Y-132662266D01*
X111322843Y-132613435D01*
X111322602Y-132608534D01*
X111322602Y-132590111D01*
X111322000Y-132584000D01*
X111322000Y-132084000D01*
X111322602Y-132077889D01*
X111322602Y-132059466D01*
X111322843Y-132054565D01*
X111327653Y-132005734D01*
X111328373Y-132000881D01*
X111337945Y-131952756D01*
X111339137Y-131947995D01*
X111353381Y-131901040D01*
X111355034Y-131896421D01*
X111373811Y-131851088D01*
X111375909Y-131846651D01*
X111399040Y-131803378D01*
X111401562Y-131799171D01*
X111428822Y-131758372D01*
X111431746Y-131754430D01*
X111462874Y-131716501D01*
X111466169Y-131712866D01*
X111500866Y-131678169D01*
X111504501Y-131674874D01*
X111542430Y-131643746D01*
X111546372Y-131640822D01*
X111587171Y-131613562D01*
X111591378Y-131611040D01*
X111634651Y-131587909D01*
X111639088Y-131585811D01*
X111684421Y-131567034D01*
X111689040Y-131565381D01*
X111735995Y-131551137D01*
X111740756Y-131549945D01*
X111788881Y-131540373D01*
X111793734Y-131539653D01*
X111842565Y-131534843D01*
X111847466Y-131534602D01*
X111865889Y-131534602D01*
X111872000Y-131534000D01*
X112372000Y-131534000D01*
X112381755Y-131534961D01*
X112391134Y-131537806D01*
X112399779Y-131542427D01*
X112407355Y-131548645D01*
X112413573Y-131556221D01*
X112418194Y-131564866D01*
X112421039Y-131574245D01*
X112422000Y-131584000D01*
X112422000Y-133084000D01*
X112421039Y-133093755D01*
X112418194Y-133103134D01*
X112413573Y-133111779D01*
X112407355Y-133119355D01*
X112399779Y-133125573D01*
X112391134Y-133130194D01*
X112381755Y-133133039D01*
X112372000Y-133134000D01*
X111872000Y-133134000D01*
X111865889Y-133133398D01*
G37*
G36*
X112662245Y-133133039D02*
G01*
X112652866Y-133130194D01*
X112644221Y-133125573D01*
X112636645Y-133119355D01*
X112630427Y-133111779D01*
X112625806Y-133103134D01*
X112622961Y-133093755D01*
X112622000Y-133084000D01*
X112622000Y-131584000D01*
X112622961Y-131574245D01*
X112625806Y-131564866D01*
X112630427Y-131556221D01*
X112636645Y-131548645D01*
X112644221Y-131542427D01*
X112652866Y-131537806D01*
X112662245Y-131534961D01*
X112672000Y-131534000D01*
X113172000Y-131534000D01*
X113178111Y-131534602D01*
X113196534Y-131534602D01*
X113201435Y-131534843D01*
X113250266Y-131539653D01*
X113255119Y-131540373D01*
X113303244Y-131549945D01*
X113308005Y-131551137D01*
X113354960Y-131565381D01*
X113359579Y-131567034D01*
X113404912Y-131585811D01*
X113409349Y-131587909D01*
X113452622Y-131611040D01*
X113456829Y-131613562D01*
X113497628Y-131640822D01*
X113501570Y-131643746D01*
X113539499Y-131674874D01*
X113543134Y-131678169D01*
X113577831Y-131712866D01*
X113581126Y-131716501D01*
X113612254Y-131754430D01*
X113615178Y-131758372D01*
X113642438Y-131799171D01*
X113644960Y-131803378D01*
X113668091Y-131846651D01*
X113670189Y-131851088D01*
X113688966Y-131896421D01*
X113690619Y-131901040D01*
X113704863Y-131947995D01*
X113706055Y-131952756D01*
X113715627Y-132000881D01*
X113716347Y-132005734D01*
X113721157Y-132054565D01*
X113721398Y-132059466D01*
X113721398Y-132077889D01*
X113722000Y-132084000D01*
X113722000Y-132584000D01*
X113721398Y-132590111D01*
X113721398Y-132608534D01*
X113721157Y-132613435D01*
X113716347Y-132662266D01*
X113715627Y-132667119D01*
X113706055Y-132715244D01*
X113704863Y-132720005D01*
X113690619Y-132766960D01*
X113688966Y-132771579D01*
X113670189Y-132816912D01*
X113668091Y-132821349D01*
X113644960Y-132864622D01*
X113642438Y-132868829D01*
X113615178Y-132909628D01*
X113612254Y-132913570D01*
X113581126Y-132951499D01*
X113577831Y-132955134D01*
X113543134Y-132989831D01*
X113539499Y-132993126D01*
X113501570Y-133024254D01*
X113497628Y-133027178D01*
X113456829Y-133054438D01*
X113452622Y-133056960D01*
X113409349Y-133080091D01*
X113404912Y-133082189D01*
X113359579Y-133100966D01*
X113354960Y-133102619D01*
X113308005Y-133116863D01*
X113303244Y-133118055D01*
X113255119Y-133127627D01*
X113250266Y-133128347D01*
X113201435Y-133133157D01*
X113196534Y-133133398D01*
X113178111Y-133133398D01*
X113172000Y-133134000D01*
X112672000Y-133134000D01*
X112662245Y-133133039D01*
G37*
%TD*%
%TO.C,JP1*%
G36*
X113178111Y-136614602D02*
G01*
X113196534Y-136614602D01*
X113201435Y-136614843D01*
X113250266Y-136619653D01*
X113255119Y-136620373D01*
X113303244Y-136629945D01*
X113308005Y-136631137D01*
X113354960Y-136645381D01*
X113359579Y-136647034D01*
X113404912Y-136665811D01*
X113409349Y-136667909D01*
X113452622Y-136691040D01*
X113456829Y-136693562D01*
X113497628Y-136720822D01*
X113501570Y-136723746D01*
X113539499Y-136754874D01*
X113543134Y-136758169D01*
X113577831Y-136792866D01*
X113581126Y-136796501D01*
X113612254Y-136834430D01*
X113615178Y-136838372D01*
X113642438Y-136879171D01*
X113644960Y-136883378D01*
X113668091Y-136926651D01*
X113670189Y-136931088D01*
X113688966Y-136976421D01*
X113690619Y-136981040D01*
X113704863Y-137027995D01*
X113706055Y-137032756D01*
X113715627Y-137080881D01*
X113716347Y-137085734D01*
X113721157Y-137134565D01*
X113721398Y-137139466D01*
X113721398Y-137157889D01*
X113722000Y-137164000D01*
X113722000Y-137664000D01*
X113721398Y-137670111D01*
X113721398Y-137688534D01*
X113721157Y-137693435D01*
X113716347Y-137742266D01*
X113715627Y-137747119D01*
X113706055Y-137795244D01*
X113704863Y-137800005D01*
X113690619Y-137846960D01*
X113688966Y-137851579D01*
X113670189Y-137896912D01*
X113668091Y-137901349D01*
X113644960Y-137944622D01*
X113642438Y-137948829D01*
X113615178Y-137989628D01*
X113612254Y-137993570D01*
X113581126Y-138031499D01*
X113577831Y-138035134D01*
X113543134Y-138069831D01*
X113539499Y-138073126D01*
X113501570Y-138104254D01*
X113497628Y-138107178D01*
X113456829Y-138134438D01*
X113452622Y-138136960D01*
X113409349Y-138160091D01*
X113404912Y-138162189D01*
X113359579Y-138180966D01*
X113354960Y-138182619D01*
X113308005Y-138196863D01*
X113303244Y-138198055D01*
X113255119Y-138207627D01*
X113250266Y-138208347D01*
X113201435Y-138213157D01*
X113196534Y-138213398D01*
X113178111Y-138213398D01*
X113172000Y-138214000D01*
X112672000Y-138214000D01*
X112662245Y-138213039D01*
X112652866Y-138210194D01*
X112644221Y-138205573D01*
X112636645Y-138199355D01*
X112630427Y-138191779D01*
X112625806Y-138183134D01*
X112622961Y-138173755D01*
X112622000Y-138164000D01*
X112622000Y-136664000D01*
X112622961Y-136654245D01*
X112625806Y-136644866D01*
X112630427Y-136636221D01*
X112636645Y-136628645D01*
X112644221Y-136622427D01*
X112652866Y-136617806D01*
X112662245Y-136614961D01*
X112672000Y-136614000D01*
X113172000Y-136614000D01*
X113178111Y-136614602D01*
G37*
G36*
X112381755Y-136614961D02*
G01*
X112391134Y-136617806D01*
X112399779Y-136622427D01*
X112407355Y-136628645D01*
X112413573Y-136636221D01*
X112418194Y-136644866D01*
X112421039Y-136654245D01*
X112422000Y-136664000D01*
X112422000Y-138164000D01*
X112421039Y-138173755D01*
X112418194Y-138183134D01*
X112413573Y-138191779D01*
X112407355Y-138199355D01*
X112399779Y-138205573D01*
X112391134Y-138210194D01*
X112381755Y-138213039D01*
X112372000Y-138214000D01*
X111872000Y-138214000D01*
X111865889Y-138213398D01*
X111847466Y-138213398D01*
X111842565Y-138213157D01*
X111793734Y-138208347D01*
X111788881Y-138207627D01*
X111740756Y-138198055D01*
X111735995Y-138196863D01*
X111689040Y-138182619D01*
X111684421Y-138180966D01*
X111639088Y-138162189D01*
X111634651Y-138160091D01*
X111591378Y-138136960D01*
X111587171Y-138134438D01*
X111546372Y-138107178D01*
X111542430Y-138104254D01*
X111504501Y-138073126D01*
X111500866Y-138069831D01*
X111466169Y-138035134D01*
X111462874Y-138031499D01*
X111431746Y-137993570D01*
X111428822Y-137989628D01*
X111401562Y-137948829D01*
X111399040Y-137944622D01*
X111375909Y-137901349D01*
X111373811Y-137896912D01*
X111355034Y-137851579D01*
X111353381Y-137846960D01*
X111339137Y-137800005D01*
X111337945Y-137795244D01*
X111328373Y-137747119D01*
X111327653Y-137742266D01*
X111322843Y-137693435D01*
X111322602Y-137688534D01*
X111322602Y-137670111D01*
X111322000Y-137664000D01*
X111322000Y-137164000D01*
X111322602Y-137157889D01*
X111322602Y-137139466D01*
X111322843Y-137134565D01*
X111327653Y-137085734D01*
X111328373Y-137080881D01*
X111337945Y-137032756D01*
X111339137Y-137027995D01*
X111353381Y-136981040D01*
X111355034Y-136976421D01*
X111373811Y-136931088D01*
X111375909Y-136926651D01*
X111399040Y-136883378D01*
X111401562Y-136879171D01*
X111428822Y-136838372D01*
X111431746Y-136834430D01*
X111462874Y-136796501D01*
X111466169Y-136792866D01*
X111500866Y-136758169D01*
X111504501Y-136754874D01*
X111542430Y-136723746D01*
X111546372Y-136720822D01*
X111587171Y-136693562D01*
X111591378Y-136691040D01*
X111634651Y-136667909D01*
X111639088Y-136665811D01*
X111684421Y-136647034D01*
X111689040Y-136645381D01*
X111735995Y-136631137D01*
X111740756Y-136629945D01*
X111788881Y-136620373D01*
X111793734Y-136619653D01*
X111842565Y-136614843D01*
X111847466Y-136614602D01*
X111865889Y-136614602D01*
X111872000Y-136614000D01*
X112372000Y-136614000D01*
X112381755Y-136614961D01*
G37*
%TD*%
D15*
%TO.C,J8*%
X140969500Y-127670000D03*
X140969500Y-121870000D03*
D16*
X140969500Y-121270000D03*
X140969500Y-128270000D03*
D17*
X140969500Y-125770000D03*
D18*
X138269500Y-122270000D03*
D19*
X138269500Y-124770000D03*
X138269500Y-124120000D03*
X138269500Y-123470000D03*
X138269500Y-126070000D03*
X138269500Y-125420000D03*
D18*
X138269500Y-127270000D03*
D17*
X140969500Y-123770000D03*
%TD*%
D20*
%TO.C,H4*%
X138430000Y-114300000D03*
%TD*%
%TO.C,H3*%
X138430000Y-148590000D03*
%TD*%
%TO.C,H2*%
X96520000Y-148590000D03*
%TD*%
%TO.C,H1*%
X96520000Y-114300000D03*
%TD*%
%TO.C,F1*%
G36*
G01*
X138267456Y-133887000D02*
X136052544Y-133887000D01*
G75*
G02*
X135785000Y-133619456I0J267544D01*
G01*
X135785000Y-132629544D01*
G75*
G02*
X136052544Y-132362000I267544J0D01*
G01*
X138267456Y-132362000D01*
G75*
G02*
X138535000Y-132629544I0J-267544D01*
G01*
X138535000Y-133619456D01*
G75*
G02*
X138267456Y-133887000I-267544J0D01*
G01*
G37*
G36*
G01*
X138267456Y-136862000D02*
X136052544Y-136862000D01*
G75*
G02*
X135785000Y-136594456I0J267544D01*
G01*
X135785000Y-135604544D01*
G75*
G02*
X136052544Y-135337000I267544J0D01*
G01*
X138267456Y-135337000D01*
G75*
G02*
X138535000Y-135604544I0J-267544D01*
G01*
X138535000Y-136594456D01*
G75*
G02*
X138267456Y-136862000I-267544J0D01*
G01*
G37*
%TD*%
%TO.C,D3*%
G36*
G01*
X111605000Y-113821738D02*
X111605000Y-114778262D01*
G75*
G02*
X111333262Y-115050000I-271738J0D01*
G01*
X110626738Y-115050000D01*
G75*
G02*
X110355000Y-114778262I0J271738D01*
G01*
X110355000Y-113821738D01*
G75*
G02*
X110626738Y-113550000I271738J0D01*
G01*
X111333262Y-113550000D01*
G75*
G02*
X111605000Y-113821738I0J-271738D01*
G01*
G37*
G36*
G01*
X113655000Y-113821738D02*
X113655000Y-114778262D01*
G75*
G02*
X113383262Y-115050000I-271738J0D01*
G01*
X112676738Y-115050000D01*
G75*
G02*
X112405000Y-114778262I0J271738D01*
G01*
X112405000Y-113821738D01*
G75*
G02*
X112676738Y-113550000I271738J0D01*
G01*
X113383262Y-113550000D01*
G75*
G02*
X113655000Y-113821738I0J-271738D01*
G01*
G37*
%TD*%
%TO.C,D2*%
G36*
G01*
X111605000Y-116361738D02*
X111605000Y-117318262D01*
G75*
G02*
X111333262Y-117590000I-271738J0D01*
G01*
X110626738Y-117590000D01*
G75*
G02*
X110355000Y-117318262I0J271738D01*
G01*
X110355000Y-116361738D01*
G75*
G02*
X110626738Y-116090000I271738J0D01*
G01*
X111333262Y-116090000D01*
G75*
G02*
X111605000Y-116361738I0J-271738D01*
G01*
G37*
G36*
G01*
X113655000Y-116361738D02*
X113655000Y-117318262D01*
G75*
G02*
X113383262Y-117590000I-271738J0D01*
G01*
X112676738Y-117590000D01*
G75*
G02*
X112405000Y-117318262I0J271738D01*
G01*
X112405000Y-116361738D01*
G75*
G02*
X112676738Y-116090000I271738J0D01*
G01*
X113383262Y-116090000D01*
G75*
G02*
X113655000Y-116361738I0J-271738D01*
G01*
G37*
%TD*%
%TO.C,D1*%
G36*
G01*
X137978000Y-140170262D02*
X137978000Y-139213738D01*
G75*
G02*
X138249738Y-138942000I271738J0D01*
G01*
X138956262Y-138942000D01*
G75*
G02*
X139228000Y-139213738I0J-271738D01*
G01*
X139228000Y-140170262D01*
G75*
G02*
X138956262Y-140442000I-271738J0D01*
G01*
X138249738Y-140442000D01*
G75*
G02*
X137978000Y-140170262I0J271738D01*
G01*
G37*
G36*
G01*
X135928000Y-140170262D02*
X135928000Y-139213738D01*
G75*
G02*
X136199738Y-138942000I271738J0D01*
G01*
X136906262Y-138942000D01*
G75*
G02*
X137178000Y-139213738I0J-271738D01*
G01*
X137178000Y-140170262D01*
G75*
G02*
X136906262Y-140442000I-271738J0D01*
G01*
X136199738Y-140442000D01*
G75*
G02*
X135928000Y-140170262I0J271738D01*
G01*
G37*
%TD*%
%TO.C,C5*%
G36*
G01*
X124060000Y-117631738D02*
X124060000Y-118588262D01*
G75*
G02*
X123788262Y-118860000I-271738J0D01*
G01*
X123081738Y-118860000D01*
G75*
G02*
X122810000Y-118588262I0J271738D01*
G01*
X122810000Y-117631738D01*
G75*
G02*
X123081738Y-117360000I271738J0D01*
G01*
X123788262Y-117360000D01*
G75*
G02*
X124060000Y-117631738I0J-271738D01*
G01*
G37*
G36*
G01*
X126110000Y-117631738D02*
X126110000Y-118588262D01*
G75*
G02*
X125838262Y-118860000I-271738J0D01*
G01*
X125131738Y-118860000D01*
G75*
G02*
X124860000Y-118588262I0J271738D01*
G01*
X124860000Y-117631738D01*
G75*
G02*
X125131738Y-117360000I271738J0D01*
G01*
X125838262Y-117360000D01*
G75*
G02*
X126110000Y-117631738I0J-271738D01*
G01*
G37*
%TD*%
%TO.C,C4*%
G36*
G01*
X126381262Y-134457000D02*
X125424738Y-134457000D01*
G75*
G02*
X125153000Y-134185262I0J271738D01*
G01*
X125153000Y-133478738D01*
G75*
G02*
X125424738Y-133207000I271738J0D01*
G01*
X126381262Y-133207000D01*
G75*
G02*
X126653000Y-133478738I0J-271738D01*
G01*
X126653000Y-134185262D01*
G75*
G02*
X126381262Y-134457000I-271738J0D01*
G01*
G37*
G36*
G01*
X126381262Y-136507000D02*
X125424738Y-136507000D01*
G75*
G02*
X125153000Y-136235262I0J271738D01*
G01*
X125153000Y-135528738D01*
G75*
G02*
X125424738Y-135257000I271738J0D01*
G01*
X126381262Y-135257000D01*
G75*
G02*
X126653000Y-135528738I0J-271738D01*
G01*
X126653000Y-136235262D01*
G75*
G02*
X126381262Y-136507000I-271738J0D01*
G01*
G37*
%TD*%
%TO.C,C3*%
G36*
G01*
X130191262Y-134457000D02*
X129234738Y-134457000D01*
G75*
G02*
X128963000Y-134185262I0J271738D01*
G01*
X128963000Y-133478738D01*
G75*
G02*
X129234738Y-133207000I271738J0D01*
G01*
X130191262Y-133207000D01*
G75*
G02*
X130463000Y-133478738I0J-271738D01*
G01*
X130463000Y-134185262D01*
G75*
G02*
X130191262Y-134457000I-271738J0D01*
G01*
G37*
G36*
G01*
X130191262Y-136507000D02*
X129234738Y-136507000D01*
G75*
G02*
X128963000Y-136235262I0J271738D01*
G01*
X128963000Y-135528738D01*
G75*
G02*
X129234738Y-135257000I271738J0D01*
G01*
X130191262Y-135257000D01*
G75*
G02*
X130463000Y-135528738I0J-271738D01*
G01*
X130463000Y-136235262D01*
G75*
G02*
X130191262Y-136507000I-271738J0D01*
G01*
G37*
%TD*%
%TO.C,C2*%
G36*
G01*
X134001262Y-134457000D02*
X133044738Y-134457000D01*
G75*
G02*
X132773000Y-134185262I0J271738D01*
G01*
X132773000Y-133478738D01*
G75*
G02*
X133044738Y-133207000I271738J0D01*
G01*
X134001262Y-133207000D01*
G75*
G02*
X134273000Y-133478738I0J-271738D01*
G01*
X134273000Y-134185262D01*
G75*
G02*
X134001262Y-134457000I-271738J0D01*
G01*
G37*
G36*
G01*
X134001262Y-136507000D02*
X133044738Y-136507000D01*
G75*
G02*
X132773000Y-136235262I0J271738D01*
G01*
X132773000Y-135528738D01*
G75*
G02*
X133044738Y-135257000I271738J0D01*
G01*
X134001262Y-135257000D01*
G75*
G02*
X134273000Y-135528738I0J-271738D01*
G01*
X134273000Y-136235262D01*
G75*
G02*
X134001262Y-136507000I-271738J0D01*
G01*
G37*
%TD*%
%TO.C,C1*%
G36*
G01*
X127988000Y-117631738D02*
X127988000Y-118588262D01*
G75*
G02*
X127716262Y-118860000I-271738J0D01*
G01*
X127009738Y-118860000D01*
G75*
G02*
X126738000Y-118588262I0J271738D01*
G01*
X126738000Y-117631738D01*
G75*
G02*
X127009738Y-117360000I271738J0D01*
G01*
X127716262Y-117360000D01*
G75*
G02*
X127988000Y-117631738I0J-271738D01*
G01*
G37*
G36*
G01*
X130038000Y-117631738D02*
X130038000Y-118588262D01*
G75*
G02*
X129766262Y-118860000I-271738J0D01*
G01*
X129059738Y-118860000D01*
G75*
G02*
X128788000Y-118588262I0J271738D01*
G01*
X128788000Y-117631738D01*
G75*
G02*
X129059738Y-117360000I271738J0D01*
G01*
X129766262Y-117360000D01*
G75*
G02*
X130038000Y-117631738I0J-271738D01*
G01*
G37*
%TD*%
M02*
