M48
; DRILL file {KiCad (5.1.6)-1} date 08/24/20 13:50:01
; FORMAT={-:-/ absolute / metric / decimal}
; #@! TF.CreationDate,2020-08-24T13:50:01+03:00
; #@! TF.GenerationSoftware,Kicad,Pcbnew,(5.1.6)-1
; #@! TF.FileFunction,Plated,1,2,PTH
FMAT,2
METRIC
T1C0.300
T2C0.600
T3C0.650
T4C0.850
T5C2.500
%
G90
G05
T1
X95.885Y-141.414
X98.044Y-130.746
X99.949Y-120.269
X99.949Y-121.92
X99.949Y-123.571
X99.949Y-127.889
X99.949Y-129.54
X99.949Y-131.191
X99.949Y-135.509
X99.949Y-137.16
X99.949Y-138.811
X99.949Y-143.129
X99.949Y-144.78
X99.949Y-146.431
X101.6Y-120.269
X101.6Y-123.571
X101.6Y-127.889
X101.6Y-131.191
X101.6Y-135.509
X101.6Y-138.811
X101.6Y-143.129
X101.6Y-146.431
X103.251Y-120.269
X103.251Y-121.92
X103.251Y-123.571
X103.251Y-127.889
X103.251Y-129.54
X103.251Y-131.191
X103.251Y-135.509
X103.251Y-137.16
X103.251Y-138.811
X103.251Y-143.129
X103.251Y-144.78
X103.251Y-146.431
X105.029Y-116.459
X105.029Y-118.11
X105.029Y-119.761
X105.029Y-124.079
X105.029Y-125.73
X105.029Y-127.381
X105.029Y-131.699
X105.029Y-133.35
X105.029Y-135.001
X105.029Y-139.319
X105.029Y-140.97
X105.029Y-142.621
X105.029Y-146.939
X105.029Y-148.59
X105.029Y-150.241
X106.68Y-116.459
X106.68Y-119.761
X106.68Y-124.079
X106.68Y-127.381
X106.68Y-131.699
X106.68Y-135.001
X106.68Y-139.319
X106.68Y-142.621
X106.68Y-146.939
X106.68Y-150.241
X108.331Y-116.459
X108.331Y-118.11
X108.331Y-119.761
X108.331Y-124.079
X108.331Y-125.73
X108.331Y-127.381
X108.331Y-131.699
X108.331Y-133.35
X108.331Y-135.001
X108.331Y-139.319
X108.331Y-140.97
X108.331Y-142.621
X108.331Y-146.939
X108.331Y-148.59
X108.331Y-150.241
X109.474Y-130.556
X116.07Y-129.578
X117.61Y-124.414
X122.319Y-129.606
X124.158Y-130.134
X125.476Y-146.939
X125.476Y-148.59
X125.476Y-150.241
X125.73Y-111.633
X125.73Y-113.284
X125.73Y-114.935
X125.915Y-132.171
X127.173Y-146.893
X127.191Y-150.241
X127.363Y-114.953
X127.381Y-111.633
X128.778Y-146.939
X128.778Y-148.59
X128.778Y-150.241
X129.032Y-111.633
X129.032Y-113.284
X129.032Y-114.935
X130.302Y-111.633
X130.302Y-113.284
X130.302Y-114.935
X130.429Y-146.939
X130.429Y-148.59
X130.429Y-150.241
X131.953Y-111.633
X131.953Y-114.935
X132.08Y-146.939
X132.08Y-150.241
X133.604Y-111.633
X133.604Y-113.284
X133.604Y-114.935
X133.731Y-146.939
X133.731Y-148.59
X133.731Y-150.241
T3
X93.98Y-125.73
X93.98Y-127.0
X93.98Y-128.27
X93.98Y-129.54
X93.98Y-130.81
X93.98Y-132.08
X93.98Y-133.35
X93.98Y-134.62
X93.98Y-135.89
X93.98Y-137.16
X93.98Y-138.43
X93.98Y-139.7
X93.98Y-140.97
X93.98Y-142.24
X93.98Y-143.51
T4
X138.269Y-122.27
X138.269Y-127.27
T5
X138.43Y-148.59
X138.43Y-114.3
X96.52Y-114.3
X96.52Y-148.59
T2
G00X140.619Y-121.27
M15
G01X141.32Y-121.27
M16
G05
G00X141.32Y-128.27
M15
G01X140.619Y-128.27
M16
G05
T0
M30
