M48
; DRILL file {KiCad (5.1.6)-1} date 08/10/20 17:54:03
; FORMAT={-:-/ absolute / metric / decimal}
; #@! TF.CreationDate,2020-08-10T17:54:03+03:00
; #@! TF.GenerationSoftware,Kicad,Pcbnew,(5.1.6)-1
; #@! TF.FileFunction,Plated,1,2,PTH
FMAT,2
METRIC
T1C0.300
T2C0.400
T3C0.650
T4C1.000
%
G90
G05
T1
X129.032Y-107.315
X129.286Y-116.84
X130.683Y-113.03
X133.939Y-112.695
X133.985Y-114.3
X134.95Y-111.938
X135.509Y-109.728
X135.763Y-112.268
X136.017Y-106.045
X136.017Y-108.575
X143.256Y-102.743
T2
X127.889Y-100.076
X127.889Y-124.587
X127.889Y-127.889
X130.81Y-127.889
X131.318Y-100.076
X133.985Y-127.889
X134.747Y-100.076
X137.16Y-127.889
X138.049Y-100.076
X140.208Y-100.076
X140.462Y-127.889
T3
X127.88Y-105.41
X127.88Y-106.68
X127.88Y-107.95
X127.88Y-109.22
X127.88Y-110.49
X127.88Y-111.76
X127.88Y-113.03
X127.88Y-114.3
X127.88Y-115.57
X127.88Y-116.84
X127.88Y-118.11
X127.88Y-119.38
X127.88Y-120.65
X127.88Y-121.92
X127.88Y-123.19
T4
X144.78Y-101.6
X144.78Y-104.14
X144.78Y-106.68
X144.78Y-109.22
X144.78Y-111.76
X144.78Y-114.3
X144.78Y-116.84
X144.78Y-119.38
X144.78Y-121.92
X144.78Y-124.46
X144.78Y-127.0
T0
M30
