G04 #@! TF.GenerationSoftware,KiCad,Pcbnew,(5.1.6)-1*
G04 #@! TF.CreationDate,2020-08-10T17:54:01+03:00*
G04 #@! TF.ProjectId,Sharp_11pin_to_15pin_Adapter,53686172-705f-4313-9170-696e5f746f5f,rev?*
G04 #@! TF.SameCoordinates,Original*
G04 #@! TF.FileFunction,Copper,L1,Top*
G04 #@! TF.FilePolarity,Positive*
%FSLAX46Y46*%
G04 Gerber Fmt 4.6, Leading zero omitted, Abs format (unit mm)*
G04 Created by KiCad (PCBNEW (5.1.6)-1) date 2020-08-10 17:54:01*
%MOMM*%
%LPD*%
G01*
G04 APERTURE LIST*
G04 #@! TA.AperFunction,ComponentPad*
%ADD10O,1.700000X1.700000*%
G04 #@! TD*
G04 #@! TA.AperFunction,ComponentPad*
%ADD11R,1.700000X1.700000*%
G04 #@! TD*
G04 #@! TA.AperFunction,SMDPad,CuDef*
%ADD12C,0.100000*%
G04 #@! TD*
G04 #@! TA.AperFunction,SMDPad,CuDef*
%ADD13R,1.500000X1.000000*%
G04 #@! TD*
G04 #@! TA.AperFunction,ComponentPad*
%ADD14R,1.000000X1.000000*%
G04 #@! TD*
G04 #@! TA.AperFunction,ComponentPad*
%ADD15O,1.000000X1.000000*%
G04 #@! TD*
G04 #@! TA.AperFunction,ViaPad*
%ADD16C,0.800000*%
G04 #@! TD*
G04 #@! TA.AperFunction,ViaPad*
%ADD17C,0.600000*%
G04 #@! TD*
G04 #@! TA.AperFunction,Conductor*
%ADD18C,0.250000*%
G04 #@! TD*
G04 #@! TA.AperFunction,Conductor*
%ADD19C,0.150000*%
G04 #@! TD*
G04 APERTURE END LIST*
D10*
X144780000Y-101600000D03*
X144780000Y-104140000D03*
X144780000Y-106680000D03*
X144780000Y-109220000D03*
X144780000Y-111760000D03*
X144780000Y-114300000D03*
X144780000Y-116840000D03*
X144780000Y-119380000D03*
X144780000Y-121920000D03*
X144780000Y-124460000D03*
D11*
X144780000Y-127000000D03*
G04 #@! TA.AperFunction,SMDPad,CuDef*
D12*
G36*
X140858000Y-123710602D02*
G01*
X140882534Y-123710602D01*
X140931365Y-123715412D01*
X140979490Y-123724984D01*
X141026445Y-123739228D01*
X141071778Y-123758005D01*
X141115051Y-123781136D01*
X141155850Y-123808396D01*
X141193779Y-123839524D01*
X141228476Y-123874221D01*
X141259604Y-123912150D01*
X141286864Y-123952949D01*
X141309995Y-123996222D01*
X141328772Y-124041555D01*
X141343016Y-124088510D01*
X141352588Y-124136635D01*
X141357398Y-124185466D01*
X141357398Y-124210000D01*
X141358000Y-124210000D01*
X141358000Y-124710000D01*
X141357398Y-124710000D01*
X141357398Y-124734534D01*
X141352588Y-124783365D01*
X141343016Y-124831490D01*
X141328772Y-124878445D01*
X141309995Y-124923778D01*
X141286864Y-124967051D01*
X141259604Y-125007850D01*
X141228476Y-125045779D01*
X141193779Y-125080476D01*
X141155850Y-125111604D01*
X141115051Y-125138864D01*
X141071778Y-125161995D01*
X141026445Y-125180772D01*
X140979490Y-125195016D01*
X140931365Y-125204588D01*
X140882534Y-125209398D01*
X140858000Y-125209398D01*
X140858000Y-125210000D01*
X140358000Y-125210000D01*
X140358000Y-123710000D01*
X140858000Y-123710000D01*
X140858000Y-123710602D01*
G37*
G04 #@! TD.AperFunction*
G04 #@! TA.AperFunction,SMDPad,CuDef*
G36*
X140058000Y-125210000D02*
G01*
X139558000Y-125210000D01*
X139558000Y-125209398D01*
X139533466Y-125209398D01*
X139484635Y-125204588D01*
X139436510Y-125195016D01*
X139389555Y-125180772D01*
X139344222Y-125161995D01*
X139300949Y-125138864D01*
X139260150Y-125111604D01*
X139222221Y-125080476D01*
X139187524Y-125045779D01*
X139156396Y-125007850D01*
X139129136Y-124967051D01*
X139106005Y-124923778D01*
X139087228Y-124878445D01*
X139072984Y-124831490D01*
X139063412Y-124783365D01*
X139058602Y-124734534D01*
X139058602Y-124710000D01*
X139058000Y-124710000D01*
X139058000Y-124210000D01*
X139058602Y-124210000D01*
X139058602Y-124185466D01*
X139063412Y-124136635D01*
X139072984Y-124088510D01*
X139087228Y-124041555D01*
X139106005Y-123996222D01*
X139129136Y-123952949D01*
X139156396Y-123912150D01*
X139187524Y-123874221D01*
X139222221Y-123839524D01*
X139260150Y-123808396D01*
X139300949Y-123781136D01*
X139344222Y-123758005D01*
X139389555Y-123739228D01*
X139436510Y-123724984D01*
X139484635Y-123715412D01*
X139533466Y-123710602D01*
X139558000Y-123710602D01*
X139558000Y-123710000D01*
X140058000Y-123710000D01*
X140058000Y-125210000D01*
G37*
G04 #@! TD.AperFunction*
D13*
X135636000Y-114808000D03*
G04 #@! TA.AperFunction,SMDPad,CuDef*
D12*
G36*
X136385398Y-116108000D02*
G01*
X136385398Y-116132534D01*
X136380588Y-116181365D01*
X136371016Y-116229490D01*
X136356772Y-116276445D01*
X136337995Y-116321778D01*
X136314864Y-116365051D01*
X136287604Y-116405850D01*
X136256476Y-116443779D01*
X136221779Y-116478476D01*
X136183850Y-116509604D01*
X136143051Y-116536864D01*
X136099778Y-116559995D01*
X136054445Y-116578772D01*
X136007490Y-116593016D01*
X135959365Y-116602588D01*
X135910534Y-116607398D01*
X135886000Y-116607398D01*
X135886000Y-116608000D01*
X135386000Y-116608000D01*
X135386000Y-116607398D01*
X135361466Y-116607398D01*
X135312635Y-116602588D01*
X135264510Y-116593016D01*
X135217555Y-116578772D01*
X135172222Y-116559995D01*
X135128949Y-116536864D01*
X135088150Y-116509604D01*
X135050221Y-116478476D01*
X135015524Y-116443779D01*
X134984396Y-116405850D01*
X134957136Y-116365051D01*
X134934005Y-116321778D01*
X134915228Y-116276445D01*
X134900984Y-116229490D01*
X134891412Y-116181365D01*
X134886602Y-116132534D01*
X134886602Y-116108000D01*
X134886000Y-116108000D01*
X134886000Y-115558000D01*
X136386000Y-115558000D01*
X136386000Y-116108000D01*
X136385398Y-116108000D01*
G37*
G04 #@! TD.AperFunction*
G04 #@! TA.AperFunction,SMDPad,CuDef*
G36*
X134886000Y-114058000D02*
G01*
X134886000Y-113508000D01*
X134886602Y-113508000D01*
X134886602Y-113483466D01*
X134891412Y-113434635D01*
X134900984Y-113386510D01*
X134915228Y-113339555D01*
X134934005Y-113294222D01*
X134957136Y-113250949D01*
X134984396Y-113210150D01*
X135015524Y-113172221D01*
X135050221Y-113137524D01*
X135088150Y-113106396D01*
X135128949Y-113079136D01*
X135172222Y-113056005D01*
X135217555Y-113037228D01*
X135264510Y-113022984D01*
X135312635Y-113013412D01*
X135361466Y-113008602D01*
X135386000Y-113008602D01*
X135386000Y-113008000D01*
X135886000Y-113008000D01*
X135886000Y-113008602D01*
X135910534Y-113008602D01*
X135959365Y-113013412D01*
X136007490Y-113022984D01*
X136054445Y-113037228D01*
X136099778Y-113056005D01*
X136143051Y-113079136D01*
X136183850Y-113106396D01*
X136221779Y-113137524D01*
X136256476Y-113172221D01*
X136287604Y-113210150D01*
X136314864Y-113250949D01*
X136337995Y-113294222D01*
X136356772Y-113339555D01*
X136371016Y-113386510D01*
X136380588Y-113434635D01*
X136385398Y-113483466D01*
X136385398Y-113508000D01*
X136386000Y-113508000D01*
X136386000Y-114058000D01*
X134886000Y-114058000D01*
G37*
G04 #@! TD.AperFunction*
D14*
X127880000Y-105410000D03*
D15*
X127880000Y-106680000D03*
X127880000Y-107950000D03*
X127880000Y-109220000D03*
X127880000Y-110490000D03*
X127880000Y-111760000D03*
X127880000Y-113030000D03*
X127880000Y-114300000D03*
X127880000Y-115570000D03*
X127880000Y-116840000D03*
X127880000Y-118110000D03*
X127880000Y-119380000D03*
X127880000Y-120650000D03*
X127880000Y-121920000D03*
X127880000Y-123190000D03*
D16*
X127889000Y-100076000D03*
X140208000Y-100076000D03*
X127889000Y-124587000D03*
X127889000Y-127889000D03*
X130810000Y-127889000D03*
X133985000Y-127889000D03*
X137160000Y-127889000D03*
X140462000Y-127889000D03*
X131318000Y-100076000D03*
X134747000Y-100076000D03*
X138049000Y-100076000D03*
D17*
X130683000Y-113030000D03*
X143256000Y-102743000D03*
X129032000Y-107315000D03*
X135509000Y-109728000D03*
X135763000Y-112268000D03*
X133985000Y-114300000D03*
X129286000Y-116840000D03*
X136017000Y-106045000D03*
X136017000Y-108575000D03*
X134949942Y-111938058D03*
X133939058Y-112694942D03*
D18*
X140858000Y-124460000D02*
X144780000Y-124460000D01*
X139700000Y-106680000D02*
X144780000Y-111760000D01*
X127880000Y-106680000D02*
X139700000Y-106680000D01*
X138430000Y-107950000D02*
X144780000Y-114300000D01*
X127880000Y-107950000D02*
X138430000Y-107950000D01*
X131348000Y-109220000D02*
X135636000Y-113508000D01*
X127880000Y-109220000D02*
X131348000Y-109220000D01*
X128705001Y-113474999D02*
X128379999Y-113800001D01*
X128705001Y-112633999D02*
X128705001Y-113474999D01*
X128379999Y-113800001D02*
X127880000Y-114300000D01*
X127880000Y-111808998D02*
X128705001Y-112633999D01*
X127880000Y-111760000D02*
X127880000Y-111808998D01*
X144780000Y-101600000D02*
X140462000Y-101600000D01*
X140462000Y-101600000D02*
X136017000Y-106045000D01*
X136017000Y-108575000D02*
X136017000Y-110871000D01*
X136017000Y-110871000D02*
X134949942Y-111938058D01*
X131488264Y-115570000D02*
X128587106Y-115570000D01*
X133939058Y-113119206D02*
X131488264Y-115570000D01*
X128587106Y-115570000D02*
X127880000Y-115570000D01*
X133939058Y-112694942D02*
X133939058Y-113119206D01*
X127880000Y-120650000D02*
X132334000Y-120650000D01*
X136144000Y-124460000D02*
X139558000Y-124460000D01*
X132334000Y-120650000D02*
X136144000Y-124460000D01*
X133634000Y-118110000D02*
X135636000Y-116108000D01*
X127880000Y-118110000D02*
X133634000Y-118110000D01*
X140208000Y-114808000D02*
X144780000Y-119380000D01*
X135636000Y-114808000D02*
X140208000Y-114808000D01*
D19*
G36*
X145800000Y-101122732D02*
G01*
X145776962Y-101067113D01*
X145653844Y-100882855D01*
X145497145Y-100726156D01*
X145312887Y-100603038D01*
X145108150Y-100518233D01*
X144890803Y-100475000D01*
X144669197Y-100475000D01*
X144451850Y-100518233D01*
X144247113Y-100603038D01*
X144062855Y-100726156D01*
X143906156Y-100882855D01*
X143783038Y-101067113D01*
X143727994Y-101200000D01*
X140481635Y-101200000D01*
X140461999Y-101198066D01*
X140442363Y-101200000D01*
X140442353Y-101200000D01*
X140383586Y-101205788D01*
X140308186Y-101228660D01*
X140238697Y-101265803D01*
X140238695Y-101265804D01*
X140238696Y-101265804D01*
X140193049Y-101303265D01*
X140193047Y-101303267D01*
X140177789Y-101315789D01*
X140165267Y-101331047D01*
X136026315Y-105470000D01*
X135960367Y-105470000D01*
X135849279Y-105492097D01*
X135744635Y-105535442D01*
X135650459Y-105598368D01*
X135570368Y-105678459D01*
X135507442Y-105772635D01*
X135464097Y-105877279D01*
X135442000Y-105988367D01*
X135442000Y-106101633D01*
X135464097Y-106212721D01*
X135491965Y-106280000D01*
X128544813Y-106280000D01*
X128481982Y-106185966D01*
X128466999Y-106170983D01*
X128485747Y-106165296D01*
X128533521Y-106139760D01*
X128575395Y-106105395D01*
X128609760Y-106063521D01*
X128635296Y-106015747D01*
X128651020Y-105963909D01*
X128656330Y-105910000D01*
X128656330Y-104910000D01*
X128651020Y-104856091D01*
X128635296Y-104804253D01*
X128609760Y-104756479D01*
X128575395Y-104714605D01*
X128533521Y-104680240D01*
X128485747Y-104654704D01*
X128433909Y-104638980D01*
X128380000Y-104633670D01*
X127380000Y-104633670D01*
X127326091Y-104638980D01*
X127274253Y-104654704D01*
X127226479Y-104680240D01*
X127184605Y-104714605D01*
X127150240Y-104756479D01*
X127124704Y-104804253D01*
X127108980Y-104856091D01*
X127103670Y-104910000D01*
X127103670Y-105910000D01*
X127108980Y-105963909D01*
X127124704Y-106015747D01*
X127150240Y-106063521D01*
X127184605Y-106105395D01*
X127226479Y-106139760D01*
X127274253Y-106165296D01*
X127293001Y-106170983D01*
X127278018Y-106185966D01*
X127193204Y-106312900D01*
X127134783Y-106453941D01*
X127105000Y-106603669D01*
X127105000Y-106756331D01*
X127134783Y-106906059D01*
X127193204Y-107047100D01*
X127278018Y-107174034D01*
X127385966Y-107281982D01*
X127435381Y-107315000D01*
X127385966Y-107348018D01*
X127278018Y-107455966D01*
X127193204Y-107582900D01*
X127134783Y-107723941D01*
X127105000Y-107873669D01*
X127105000Y-108026331D01*
X127134783Y-108176059D01*
X127193204Y-108317100D01*
X127278018Y-108444034D01*
X127385966Y-108551982D01*
X127435381Y-108585000D01*
X127385966Y-108618018D01*
X127278018Y-108725966D01*
X127193204Y-108852900D01*
X127134783Y-108993941D01*
X127105000Y-109143669D01*
X127105000Y-109296331D01*
X127134783Y-109446059D01*
X127193204Y-109587100D01*
X127278018Y-109714034D01*
X127385966Y-109821982D01*
X127435381Y-109855000D01*
X127385966Y-109888018D01*
X127278018Y-109995966D01*
X127193204Y-110122900D01*
X127134783Y-110263941D01*
X127105000Y-110413669D01*
X127105000Y-110566331D01*
X127134783Y-110716059D01*
X127193204Y-110857100D01*
X127278018Y-110984034D01*
X127385966Y-111091982D01*
X127435381Y-111125000D01*
X127385966Y-111158018D01*
X127278018Y-111265966D01*
X127193204Y-111392900D01*
X127134783Y-111533941D01*
X127105000Y-111683669D01*
X127105000Y-111836331D01*
X127134783Y-111986059D01*
X127193204Y-112127100D01*
X127278018Y-112254034D01*
X127385966Y-112361982D01*
X127437166Y-112396193D01*
X127335844Y-112478164D01*
X127238642Y-112594927D01*
X127166087Y-112728410D01*
X127120967Y-112873482D01*
X127118850Y-112884134D01*
X127174193Y-113005000D01*
X127855000Y-113005000D01*
X127855000Y-112985000D01*
X127905000Y-112985000D01*
X127905000Y-113005000D01*
X127925000Y-113005000D01*
X127925000Y-113055000D01*
X127905000Y-113055000D01*
X127905000Y-113075000D01*
X127855000Y-113075000D01*
X127855000Y-113055000D01*
X127174193Y-113055000D01*
X127118850Y-113175866D01*
X127120967Y-113186518D01*
X127166087Y-113331590D01*
X127238642Y-113465073D01*
X127335844Y-113581836D01*
X127437166Y-113663807D01*
X127385966Y-113698018D01*
X127278018Y-113805966D01*
X127193204Y-113932900D01*
X127134783Y-114073941D01*
X127105000Y-114223669D01*
X127105000Y-114376331D01*
X127134783Y-114526059D01*
X127193204Y-114667100D01*
X127278018Y-114794034D01*
X127385966Y-114901982D01*
X127435381Y-114935000D01*
X127385966Y-114968018D01*
X127278018Y-115075966D01*
X127193204Y-115202900D01*
X127134783Y-115343941D01*
X127105000Y-115493669D01*
X127105000Y-115646331D01*
X127134783Y-115796059D01*
X127193204Y-115937100D01*
X127278018Y-116064034D01*
X127385966Y-116171982D01*
X127435381Y-116205000D01*
X127385966Y-116238018D01*
X127278018Y-116345966D01*
X127193204Y-116472900D01*
X127134783Y-116613941D01*
X127105000Y-116763669D01*
X127105000Y-116916331D01*
X127134783Y-117066059D01*
X127193204Y-117207100D01*
X127278018Y-117334034D01*
X127385966Y-117441982D01*
X127435381Y-117475000D01*
X127385966Y-117508018D01*
X127278018Y-117615966D01*
X127193204Y-117742900D01*
X127134783Y-117883941D01*
X127105000Y-118033669D01*
X127105000Y-118186331D01*
X127134783Y-118336059D01*
X127193204Y-118477100D01*
X127278018Y-118604034D01*
X127385966Y-118711982D01*
X127435381Y-118745000D01*
X127385966Y-118778018D01*
X127278018Y-118885966D01*
X127193204Y-119012900D01*
X127134783Y-119153941D01*
X127105000Y-119303669D01*
X127105000Y-119456331D01*
X127134783Y-119606059D01*
X127193204Y-119747100D01*
X127278018Y-119874034D01*
X127385966Y-119981982D01*
X127435381Y-120015000D01*
X127385966Y-120048018D01*
X127278018Y-120155966D01*
X127193204Y-120282900D01*
X127134783Y-120423941D01*
X127105000Y-120573669D01*
X127105000Y-120726331D01*
X127134783Y-120876059D01*
X127193204Y-121017100D01*
X127278018Y-121144034D01*
X127385966Y-121251982D01*
X127435381Y-121285000D01*
X127385966Y-121318018D01*
X127278018Y-121425966D01*
X127193204Y-121552900D01*
X127134783Y-121693941D01*
X127105000Y-121843669D01*
X127105000Y-121996331D01*
X127134783Y-122146059D01*
X127193204Y-122287100D01*
X127278018Y-122414034D01*
X127385966Y-122521982D01*
X127435381Y-122555000D01*
X127385966Y-122588018D01*
X127278018Y-122695966D01*
X127193204Y-122822900D01*
X127134783Y-122963941D01*
X127105000Y-123113669D01*
X127105000Y-123266331D01*
X127134783Y-123416059D01*
X127193204Y-123557100D01*
X127278018Y-123684034D01*
X127385966Y-123791982D01*
X127512900Y-123876796D01*
X127653941Y-123935217D01*
X127803669Y-123965000D01*
X127956331Y-123965000D01*
X128106059Y-123935217D01*
X128247100Y-123876796D01*
X128374034Y-123791982D01*
X128481982Y-123684034D01*
X128566796Y-123557100D01*
X128625217Y-123416059D01*
X128655000Y-123266331D01*
X128655000Y-123113669D01*
X128625217Y-122963941D01*
X128566796Y-122822900D01*
X128481982Y-122695966D01*
X128374034Y-122588018D01*
X128324619Y-122555000D01*
X128374034Y-122521982D01*
X128481982Y-122414034D01*
X128566796Y-122287100D01*
X128625217Y-122146059D01*
X128655000Y-121996331D01*
X128655000Y-121843669D01*
X128625217Y-121693941D01*
X128566796Y-121552900D01*
X128481982Y-121425966D01*
X128374034Y-121318018D01*
X128324619Y-121285000D01*
X128374034Y-121251982D01*
X128481982Y-121144034D01*
X128544813Y-121050000D01*
X132168315Y-121050000D01*
X135847263Y-124728948D01*
X135859789Y-124744211D01*
X135913329Y-124788150D01*
X135920697Y-124794197D01*
X135990186Y-124831340D01*
X136065586Y-124854212D01*
X136144000Y-124861935D01*
X136163647Y-124860000D01*
X138798752Y-124860000D01*
X138808509Y-124909051D01*
X138824233Y-124960888D01*
X138861742Y-125051444D01*
X138887278Y-125099219D01*
X138941734Y-125180718D01*
X138976099Y-125222593D01*
X139045407Y-125291901D01*
X139087282Y-125326266D01*
X139168781Y-125380722D01*
X139216556Y-125406258D01*
X139307112Y-125443767D01*
X139358949Y-125459491D01*
X139455082Y-125478613D01*
X139508991Y-125483923D01*
X139533553Y-125483923D01*
X139558000Y-125486331D01*
X140058000Y-125486331D01*
X140111910Y-125481021D01*
X140163747Y-125465297D01*
X140208000Y-125441643D01*
X140252253Y-125465297D01*
X140304090Y-125481021D01*
X140358000Y-125486331D01*
X140858000Y-125486331D01*
X140882447Y-125483923D01*
X140907009Y-125483923D01*
X140960918Y-125478613D01*
X141057051Y-125459491D01*
X141108888Y-125443767D01*
X141199444Y-125406258D01*
X141247219Y-125380722D01*
X141328718Y-125326266D01*
X141370593Y-125291901D01*
X141439901Y-125222593D01*
X141474266Y-125180718D01*
X141528722Y-125099219D01*
X141554258Y-125051444D01*
X141591767Y-124960888D01*
X141607491Y-124909051D01*
X141617248Y-124860000D01*
X143727994Y-124860000D01*
X143783038Y-124992887D01*
X143906156Y-125177145D01*
X144062855Y-125333844D01*
X144247113Y-125456962D01*
X144451850Y-125541767D01*
X144669197Y-125585000D01*
X144890803Y-125585000D01*
X145108150Y-125541767D01*
X145312887Y-125456962D01*
X145497145Y-125333844D01*
X145653844Y-125177145D01*
X145776962Y-124992887D01*
X145800001Y-124937266D01*
X145800001Y-125933765D01*
X145783521Y-125920240D01*
X145735747Y-125894704D01*
X145683909Y-125878980D01*
X145630000Y-125873670D01*
X143930000Y-125873670D01*
X143876091Y-125878980D01*
X143824253Y-125894704D01*
X143776479Y-125920240D01*
X143734605Y-125954605D01*
X143700240Y-125996479D01*
X143674704Y-126044253D01*
X143658980Y-126096091D01*
X143653670Y-126150000D01*
X143653670Y-127850000D01*
X143658980Y-127903909D01*
X143674704Y-127955747D01*
X143700240Y-128003521D01*
X143734605Y-128045395D01*
X143776479Y-128079760D01*
X143824253Y-128105296D01*
X143876091Y-128121020D01*
X143930000Y-128126330D01*
X145630000Y-128126330D01*
X145683909Y-128121020D01*
X145735747Y-128105296D01*
X145783521Y-128079760D01*
X145800001Y-128066235D01*
X145800001Y-128655000D01*
X126996000Y-128655000D01*
X126996000Y-99310000D01*
X145800000Y-99310000D01*
X145800000Y-101122732D01*
G37*
X145800000Y-101122732D02*
X145776962Y-101067113D01*
X145653844Y-100882855D01*
X145497145Y-100726156D01*
X145312887Y-100603038D01*
X145108150Y-100518233D01*
X144890803Y-100475000D01*
X144669197Y-100475000D01*
X144451850Y-100518233D01*
X144247113Y-100603038D01*
X144062855Y-100726156D01*
X143906156Y-100882855D01*
X143783038Y-101067113D01*
X143727994Y-101200000D01*
X140481635Y-101200000D01*
X140461999Y-101198066D01*
X140442363Y-101200000D01*
X140442353Y-101200000D01*
X140383586Y-101205788D01*
X140308186Y-101228660D01*
X140238697Y-101265803D01*
X140238695Y-101265804D01*
X140238696Y-101265804D01*
X140193049Y-101303265D01*
X140193047Y-101303267D01*
X140177789Y-101315789D01*
X140165267Y-101331047D01*
X136026315Y-105470000D01*
X135960367Y-105470000D01*
X135849279Y-105492097D01*
X135744635Y-105535442D01*
X135650459Y-105598368D01*
X135570368Y-105678459D01*
X135507442Y-105772635D01*
X135464097Y-105877279D01*
X135442000Y-105988367D01*
X135442000Y-106101633D01*
X135464097Y-106212721D01*
X135491965Y-106280000D01*
X128544813Y-106280000D01*
X128481982Y-106185966D01*
X128466999Y-106170983D01*
X128485747Y-106165296D01*
X128533521Y-106139760D01*
X128575395Y-106105395D01*
X128609760Y-106063521D01*
X128635296Y-106015747D01*
X128651020Y-105963909D01*
X128656330Y-105910000D01*
X128656330Y-104910000D01*
X128651020Y-104856091D01*
X128635296Y-104804253D01*
X128609760Y-104756479D01*
X128575395Y-104714605D01*
X128533521Y-104680240D01*
X128485747Y-104654704D01*
X128433909Y-104638980D01*
X128380000Y-104633670D01*
X127380000Y-104633670D01*
X127326091Y-104638980D01*
X127274253Y-104654704D01*
X127226479Y-104680240D01*
X127184605Y-104714605D01*
X127150240Y-104756479D01*
X127124704Y-104804253D01*
X127108980Y-104856091D01*
X127103670Y-104910000D01*
X127103670Y-105910000D01*
X127108980Y-105963909D01*
X127124704Y-106015747D01*
X127150240Y-106063521D01*
X127184605Y-106105395D01*
X127226479Y-106139760D01*
X127274253Y-106165296D01*
X127293001Y-106170983D01*
X127278018Y-106185966D01*
X127193204Y-106312900D01*
X127134783Y-106453941D01*
X127105000Y-106603669D01*
X127105000Y-106756331D01*
X127134783Y-106906059D01*
X127193204Y-107047100D01*
X127278018Y-107174034D01*
X127385966Y-107281982D01*
X127435381Y-107315000D01*
X127385966Y-107348018D01*
X127278018Y-107455966D01*
X127193204Y-107582900D01*
X127134783Y-107723941D01*
X127105000Y-107873669D01*
X127105000Y-108026331D01*
X127134783Y-108176059D01*
X127193204Y-108317100D01*
X127278018Y-108444034D01*
X127385966Y-108551982D01*
X127435381Y-108585000D01*
X127385966Y-108618018D01*
X127278018Y-108725966D01*
X127193204Y-108852900D01*
X127134783Y-108993941D01*
X127105000Y-109143669D01*
X127105000Y-109296331D01*
X127134783Y-109446059D01*
X127193204Y-109587100D01*
X127278018Y-109714034D01*
X127385966Y-109821982D01*
X127435381Y-109855000D01*
X127385966Y-109888018D01*
X127278018Y-109995966D01*
X127193204Y-110122900D01*
X127134783Y-110263941D01*
X127105000Y-110413669D01*
X127105000Y-110566331D01*
X127134783Y-110716059D01*
X127193204Y-110857100D01*
X127278018Y-110984034D01*
X127385966Y-111091982D01*
X127435381Y-111125000D01*
X127385966Y-111158018D01*
X127278018Y-111265966D01*
X127193204Y-111392900D01*
X127134783Y-111533941D01*
X127105000Y-111683669D01*
X127105000Y-111836331D01*
X127134783Y-111986059D01*
X127193204Y-112127100D01*
X127278018Y-112254034D01*
X127385966Y-112361982D01*
X127437166Y-112396193D01*
X127335844Y-112478164D01*
X127238642Y-112594927D01*
X127166087Y-112728410D01*
X127120967Y-112873482D01*
X127118850Y-112884134D01*
X127174193Y-113005000D01*
X127855000Y-113005000D01*
X127855000Y-112985000D01*
X127905000Y-112985000D01*
X127905000Y-113005000D01*
X127925000Y-113005000D01*
X127925000Y-113055000D01*
X127905000Y-113055000D01*
X127905000Y-113075000D01*
X127855000Y-113075000D01*
X127855000Y-113055000D01*
X127174193Y-113055000D01*
X127118850Y-113175866D01*
X127120967Y-113186518D01*
X127166087Y-113331590D01*
X127238642Y-113465073D01*
X127335844Y-113581836D01*
X127437166Y-113663807D01*
X127385966Y-113698018D01*
X127278018Y-113805966D01*
X127193204Y-113932900D01*
X127134783Y-114073941D01*
X127105000Y-114223669D01*
X127105000Y-114376331D01*
X127134783Y-114526059D01*
X127193204Y-114667100D01*
X127278018Y-114794034D01*
X127385966Y-114901982D01*
X127435381Y-114935000D01*
X127385966Y-114968018D01*
X127278018Y-115075966D01*
X127193204Y-115202900D01*
X127134783Y-115343941D01*
X127105000Y-115493669D01*
X127105000Y-115646331D01*
X127134783Y-115796059D01*
X127193204Y-115937100D01*
X127278018Y-116064034D01*
X127385966Y-116171982D01*
X127435381Y-116205000D01*
X127385966Y-116238018D01*
X127278018Y-116345966D01*
X127193204Y-116472900D01*
X127134783Y-116613941D01*
X127105000Y-116763669D01*
X127105000Y-116916331D01*
X127134783Y-117066059D01*
X127193204Y-117207100D01*
X127278018Y-117334034D01*
X127385966Y-117441982D01*
X127435381Y-117475000D01*
X127385966Y-117508018D01*
X127278018Y-117615966D01*
X127193204Y-117742900D01*
X127134783Y-117883941D01*
X127105000Y-118033669D01*
X127105000Y-118186331D01*
X127134783Y-118336059D01*
X127193204Y-118477100D01*
X127278018Y-118604034D01*
X127385966Y-118711982D01*
X127435381Y-118745000D01*
X127385966Y-118778018D01*
X127278018Y-118885966D01*
X127193204Y-119012900D01*
X127134783Y-119153941D01*
X127105000Y-119303669D01*
X127105000Y-119456331D01*
X127134783Y-119606059D01*
X127193204Y-119747100D01*
X127278018Y-119874034D01*
X127385966Y-119981982D01*
X127435381Y-120015000D01*
X127385966Y-120048018D01*
X127278018Y-120155966D01*
X127193204Y-120282900D01*
X127134783Y-120423941D01*
X127105000Y-120573669D01*
X127105000Y-120726331D01*
X127134783Y-120876059D01*
X127193204Y-121017100D01*
X127278018Y-121144034D01*
X127385966Y-121251982D01*
X127435381Y-121285000D01*
X127385966Y-121318018D01*
X127278018Y-121425966D01*
X127193204Y-121552900D01*
X127134783Y-121693941D01*
X127105000Y-121843669D01*
X127105000Y-121996331D01*
X127134783Y-122146059D01*
X127193204Y-122287100D01*
X127278018Y-122414034D01*
X127385966Y-122521982D01*
X127435381Y-122555000D01*
X127385966Y-122588018D01*
X127278018Y-122695966D01*
X127193204Y-122822900D01*
X127134783Y-122963941D01*
X127105000Y-123113669D01*
X127105000Y-123266331D01*
X127134783Y-123416059D01*
X127193204Y-123557100D01*
X127278018Y-123684034D01*
X127385966Y-123791982D01*
X127512900Y-123876796D01*
X127653941Y-123935217D01*
X127803669Y-123965000D01*
X127956331Y-123965000D01*
X128106059Y-123935217D01*
X128247100Y-123876796D01*
X128374034Y-123791982D01*
X128481982Y-123684034D01*
X128566796Y-123557100D01*
X128625217Y-123416059D01*
X128655000Y-123266331D01*
X128655000Y-123113669D01*
X128625217Y-122963941D01*
X128566796Y-122822900D01*
X128481982Y-122695966D01*
X128374034Y-122588018D01*
X128324619Y-122555000D01*
X128374034Y-122521982D01*
X128481982Y-122414034D01*
X128566796Y-122287100D01*
X128625217Y-122146059D01*
X128655000Y-121996331D01*
X128655000Y-121843669D01*
X128625217Y-121693941D01*
X128566796Y-121552900D01*
X128481982Y-121425966D01*
X128374034Y-121318018D01*
X128324619Y-121285000D01*
X128374034Y-121251982D01*
X128481982Y-121144034D01*
X128544813Y-121050000D01*
X132168315Y-121050000D01*
X135847263Y-124728948D01*
X135859789Y-124744211D01*
X135913329Y-124788150D01*
X135920697Y-124794197D01*
X135990186Y-124831340D01*
X136065586Y-124854212D01*
X136144000Y-124861935D01*
X136163647Y-124860000D01*
X138798752Y-124860000D01*
X138808509Y-124909051D01*
X138824233Y-124960888D01*
X138861742Y-125051444D01*
X138887278Y-125099219D01*
X138941734Y-125180718D01*
X138976099Y-125222593D01*
X139045407Y-125291901D01*
X139087282Y-125326266D01*
X139168781Y-125380722D01*
X139216556Y-125406258D01*
X139307112Y-125443767D01*
X139358949Y-125459491D01*
X139455082Y-125478613D01*
X139508991Y-125483923D01*
X139533553Y-125483923D01*
X139558000Y-125486331D01*
X140058000Y-125486331D01*
X140111910Y-125481021D01*
X140163747Y-125465297D01*
X140208000Y-125441643D01*
X140252253Y-125465297D01*
X140304090Y-125481021D01*
X140358000Y-125486331D01*
X140858000Y-125486331D01*
X140882447Y-125483923D01*
X140907009Y-125483923D01*
X140960918Y-125478613D01*
X141057051Y-125459491D01*
X141108888Y-125443767D01*
X141199444Y-125406258D01*
X141247219Y-125380722D01*
X141328718Y-125326266D01*
X141370593Y-125291901D01*
X141439901Y-125222593D01*
X141474266Y-125180718D01*
X141528722Y-125099219D01*
X141554258Y-125051444D01*
X141591767Y-124960888D01*
X141607491Y-124909051D01*
X141617248Y-124860000D01*
X143727994Y-124860000D01*
X143783038Y-124992887D01*
X143906156Y-125177145D01*
X144062855Y-125333844D01*
X144247113Y-125456962D01*
X144451850Y-125541767D01*
X144669197Y-125585000D01*
X144890803Y-125585000D01*
X145108150Y-125541767D01*
X145312887Y-125456962D01*
X145497145Y-125333844D01*
X145653844Y-125177145D01*
X145776962Y-124992887D01*
X145800001Y-124937266D01*
X145800001Y-125933765D01*
X145783521Y-125920240D01*
X145735747Y-125894704D01*
X145683909Y-125878980D01*
X145630000Y-125873670D01*
X143930000Y-125873670D01*
X143876091Y-125878980D01*
X143824253Y-125894704D01*
X143776479Y-125920240D01*
X143734605Y-125954605D01*
X143700240Y-125996479D01*
X143674704Y-126044253D01*
X143658980Y-126096091D01*
X143653670Y-126150000D01*
X143653670Y-127850000D01*
X143658980Y-127903909D01*
X143674704Y-127955747D01*
X143700240Y-128003521D01*
X143734605Y-128045395D01*
X143776479Y-128079760D01*
X143824253Y-128105296D01*
X143876091Y-128121020D01*
X143930000Y-128126330D01*
X145630000Y-128126330D01*
X145683909Y-128121020D01*
X145735747Y-128105296D01*
X145783521Y-128079760D01*
X145800001Y-128066235D01*
X145800001Y-128655000D01*
X126996000Y-128655000D01*
X126996000Y-99310000D01*
X145800000Y-99310000D01*
X145800000Y-101122732D01*
G36*
X143753277Y-118918962D02*
G01*
X143698233Y-119051850D01*
X143655000Y-119269197D01*
X143655000Y-119490803D01*
X143698233Y-119708150D01*
X143783038Y-119912887D01*
X143906156Y-120097145D01*
X144062855Y-120253844D01*
X144247113Y-120376962D01*
X144451850Y-120461767D01*
X144669197Y-120505000D01*
X144890803Y-120505000D01*
X145108150Y-120461767D01*
X145312887Y-120376962D01*
X145497145Y-120253844D01*
X145653844Y-120097145D01*
X145776962Y-119912887D01*
X145800001Y-119857267D01*
X145800001Y-121450494D01*
X145704615Y-121279130D01*
X145561821Y-121111061D01*
X145388982Y-120974079D01*
X145192741Y-120873448D01*
X144980638Y-120813035D01*
X144805000Y-120864027D01*
X144805000Y-121895000D01*
X144825000Y-121895000D01*
X144825000Y-121945000D01*
X144805000Y-121945000D01*
X144805000Y-122975973D01*
X144980638Y-123026965D01*
X145192741Y-122966552D01*
X145388982Y-122865921D01*
X145561821Y-122728939D01*
X145704615Y-122560870D01*
X145800001Y-122389506D01*
X145800001Y-123982734D01*
X145776962Y-123927113D01*
X145653844Y-123742855D01*
X145497145Y-123586156D01*
X145312887Y-123463038D01*
X145108150Y-123378233D01*
X144890803Y-123335000D01*
X144669197Y-123335000D01*
X144451850Y-123378233D01*
X144247113Y-123463038D01*
X144062855Y-123586156D01*
X143906156Y-123742855D01*
X143783038Y-123927113D01*
X143727994Y-124060000D01*
X141617248Y-124060000D01*
X141607491Y-124010949D01*
X141591767Y-123959112D01*
X141554258Y-123868556D01*
X141528722Y-123820781D01*
X141474266Y-123739282D01*
X141439901Y-123697407D01*
X141370593Y-123628099D01*
X141328718Y-123593734D01*
X141247219Y-123539278D01*
X141199444Y-123513742D01*
X141108888Y-123476233D01*
X141057051Y-123460509D01*
X140960918Y-123441387D01*
X140907009Y-123436077D01*
X140882447Y-123436077D01*
X140858000Y-123433669D01*
X140358000Y-123433669D01*
X140304090Y-123438979D01*
X140252253Y-123454703D01*
X140208000Y-123478357D01*
X140163747Y-123454703D01*
X140111910Y-123438979D01*
X140058000Y-123433669D01*
X139558000Y-123433669D01*
X139533553Y-123436077D01*
X139508991Y-123436077D01*
X139455082Y-123441387D01*
X139358949Y-123460509D01*
X139307112Y-123476233D01*
X139216556Y-123513742D01*
X139168781Y-123539278D01*
X139087282Y-123593734D01*
X139045407Y-123628099D01*
X138976099Y-123697407D01*
X138941734Y-123739282D01*
X138887278Y-123820781D01*
X138861742Y-123868556D01*
X138824233Y-123959112D01*
X138808509Y-124010949D01*
X138798752Y-124060000D01*
X136309685Y-124060000D01*
X134370322Y-122120637D01*
X143673036Y-122120637D01*
X143680517Y-122158251D01*
X143748124Y-122368172D01*
X143855385Y-122560870D01*
X143998179Y-122728939D01*
X144171018Y-122865921D01*
X144367259Y-122966552D01*
X144579362Y-123026965D01*
X144755000Y-122975973D01*
X144755000Y-121945000D01*
X143724046Y-121945000D01*
X143673036Y-122120637D01*
X134370322Y-122120637D01*
X133969048Y-121719363D01*
X143673036Y-121719363D01*
X143724046Y-121895000D01*
X144755000Y-121895000D01*
X144755000Y-120864027D01*
X144579362Y-120813035D01*
X144367259Y-120873448D01*
X144171018Y-120974079D01*
X143998179Y-121111061D01*
X143855385Y-121279130D01*
X143748124Y-121471828D01*
X143680517Y-121681749D01*
X143673036Y-121719363D01*
X133969048Y-121719363D01*
X132630737Y-120381052D01*
X132618211Y-120365789D01*
X132557303Y-120315803D01*
X132487814Y-120278660D01*
X132412414Y-120255788D01*
X132353647Y-120250000D01*
X132353646Y-120250000D01*
X132334000Y-120248065D01*
X132314354Y-120250000D01*
X128544813Y-120250000D01*
X128481982Y-120155966D01*
X128374034Y-120048018D01*
X128324619Y-120015000D01*
X128374034Y-119981982D01*
X128481982Y-119874034D01*
X128566796Y-119747100D01*
X128625217Y-119606059D01*
X128655000Y-119456331D01*
X128655000Y-119303669D01*
X128625217Y-119153941D01*
X128566796Y-119012900D01*
X128481982Y-118885966D01*
X128374034Y-118778018D01*
X128324619Y-118745000D01*
X128374034Y-118711982D01*
X128481982Y-118604034D01*
X128544813Y-118510000D01*
X133614354Y-118510000D01*
X133634000Y-118511935D01*
X133653646Y-118510000D01*
X133653647Y-118510000D01*
X133712414Y-118504212D01*
X133787814Y-118481340D01*
X133857303Y-118444197D01*
X133918211Y-118394211D01*
X133930737Y-118378948D01*
X135425354Y-116884331D01*
X135886000Y-116884331D01*
X135910447Y-116881923D01*
X135935009Y-116881923D01*
X135988918Y-116876613D01*
X136085051Y-116857491D01*
X136136888Y-116841767D01*
X136227444Y-116804258D01*
X136275219Y-116778722D01*
X136356718Y-116724266D01*
X136398593Y-116689901D01*
X136467901Y-116620593D01*
X136502266Y-116578718D01*
X136556722Y-116497219D01*
X136582258Y-116449444D01*
X136619767Y-116358888D01*
X136635491Y-116307051D01*
X136654613Y-116210918D01*
X136659923Y-116157009D01*
X136659923Y-116132447D01*
X136662331Y-116108000D01*
X136662331Y-115558000D01*
X136657021Y-115504090D01*
X136641297Y-115452253D01*
X136631005Y-115432999D01*
X136641296Y-115413747D01*
X136657020Y-115361909D01*
X136662330Y-115308000D01*
X136662330Y-115208000D01*
X140042315Y-115208000D01*
X143753277Y-118918962D01*
G37*
X143753277Y-118918962D02*
X143698233Y-119051850D01*
X143655000Y-119269197D01*
X143655000Y-119490803D01*
X143698233Y-119708150D01*
X143783038Y-119912887D01*
X143906156Y-120097145D01*
X144062855Y-120253844D01*
X144247113Y-120376962D01*
X144451850Y-120461767D01*
X144669197Y-120505000D01*
X144890803Y-120505000D01*
X145108150Y-120461767D01*
X145312887Y-120376962D01*
X145497145Y-120253844D01*
X145653844Y-120097145D01*
X145776962Y-119912887D01*
X145800001Y-119857267D01*
X145800001Y-121450494D01*
X145704615Y-121279130D01*
X145561821Y-121111061D01*
X145388982Y-120974079D01*
X145192741Y-120873448D01*
X144980638Y-120813035D01*
X144805000Y-120864027D01*
X144805000Y-121895000D01*
X144825000Y-121895000D01*
X144825000Y-121945000D01*
X144805000Y-121945000D01*
X144805000Y-122975973D01*
X144980638Y-123026965D01*
X145192741Y-122966552D01*
X145388982Y-122865921D01*
X145561821Y-122728939D01*
X145704615Y-122560870D01*
X145800001Y-122389506D01*
X145800001Y-123982734D01*
X145776962Y-123927113D01*
X145653844Y-123742855D01*
X145497145Y-123586156D01*
X145312887Y-123463038D01*
X145108150Y-123378233D01*
X144890803Y-123335000D01*
X144669197Y-123335000D01*
X144451850Y-123378233D01*
X144247113Y-123463038D01*
X144062855Y-123586156D01*
X143906156Y-123742855D01*
X143783038Y-123927113D01*
X143727994Y-124060000D01*
X141617248Y-124060000D01*
X141607491Y-124010949D01*
X141591767Y-123959112D01*
X141554258Y-123868556D01*
X141528722Y-123820781D01*
X141474266Y-123739282D01*
X141439901Y-123697407D01*
X141370593Y-123628099D01*
X141328718Y-123593734D01*
X141247219Y-123539278D01*
X141199444Y-123513742D01*
X141108888Y-123476233D01*
X141057051Y-123460509D01*
X140960918Y-123441387D01*
X140907009Y-123436077D01*
X140882447Y-123436077D01*
X140858000Y-123433669D01*
X140358000Y-123433669D01*
X140304090Y-123438979D01*
X140252253Y-123454703D01*
X140208000Y-123478357D01*
X140163747Y-123454703D01*
X140111910Y-123438979D01*
X140058000Y-123433669D01*
X139558000Y-123433669D01*
X139533553Y-123436077D01*
X139508991Y-123436077D01*
X139455082Y-123441387D01*
X139358949Y-123460509D01*
X139307112Y-123476233D01*
X139216556Y-123513742D01*
X139168781Y-123539278D01*
X139087282Y-123593734D01*
X139045407Y-123628099D01*
X138976099Y-123697407D01*
X138941734Y-123739282D01*
X138887278Y-123820781D01*
X138861742Y-123868556D01*
X138824233Y-123959112D01*
X138808509Y-124010949D01*
X138798752Y-124060000D01*
X136309685Y-124060000D01*
X134370322Y-122120637D01*
X143673036Y-122120637D01*
X143680517Y-122158251D01*
X143748124Y-122368172D01*
X143855385Y-122560870D01*
X143998179Y-122728939D01*
X144171018Y-122865921D01*
X144367259Y-122966552D01*
X144579362Y-123026965D01*
X144755000Y-122975973D01*
X144755000Y-121945000D01*
X143724046Y-121945000D01*
X143673036Y-122120637D01*
X134370322Y-122120637D01*
X133969048Y-121719363D01*
X143673036Y-121719363D01*
X143724046Y-121895000D01*
X144755000Y-121895000D01*
X144755000Y-120864027D01*
X144579362Y-120813035D01*
X144367259Y-120873448D01*
X144171018Y-120974079D01*
X143998179Y-121111061D01*
X143855385Y-121279130D01*
X143748124Y-121471828D01*
X143680517Y-121681749D01*
X143673036Y-121719363D01*
X133969048Y-121719363D01*
X132630737Y-120381052D01*
X132618211Y-120365789D01*
X132557303Y-120315803D01*
X132487814Y-120278660D01*
X132412414Y-120255788D01*
X132353647Y-120250000D01*
X132353646Y-120250000D01*
X132334000Y-120248065D01*
X132314354Y-120250000D01*
X128544813Y-120250000D01*
X128481982Y-120155966D01*
X128374034Y-120048018D01*
X128324619Y-120015000D01*
X128374034Y-119981982D01*
X128481982Y-119874034D01*
X128566796Y-119747100D01*
X128625217Y-119606059D01*
X128655000Y-119456331D01*
X128655000Y-119303669D01*
X128625217Y-119153941D01*
X128566796Y-119012900D01*
X128481982Y-118885966D01*
X128374034Y-118778018D01*
X128324619Y-118745000D01*
X128374034Y-118711982D01*
X128481982Y-118604034D01*
X128544813Y-118510000D01*
X133614354Y-118510000D01*
X133634000Y-118511935D01*
X133653646Y-118510000D01*
X133653647Y-118510000D01*
X133712414Y-118504212D01*
X133787814Y-118481340D01*
X133857303Y-118444197D01*
X133918211Y-118394211D01*
X133930737Y-118378948D01*
X135425354Y-116884331D01*
X135886000Y-116884331D01*
X135910447Y-116881923D01*
X135935009Y-116881923D01*
X135988918Y-116876613D01*
X136085051Y-116857491D01*
X136136888Y-116841767D01*
X136227444Y-116804258D01*
X136275219Y-116778722D01*
X136356718Y-116724266D01*
X136398593Y-116689901D01*
X136467901Y-116620593D01*
X136502266Y-116578718D01*
X136556722Y-116497219D01*
X136582258Y-116449444D01*
X136619767Y-116358888D01*
X136635491Y-116307051D01*
X136654613Y-116210918D01*
X136659923Y-116157009D01*
X136659923Y-116132447D01*
X136662331Y-116108000D01*
X136662331Y-115558000D01*
X136657021Y-115504090D01*
X136641297Y-115452253D01*
X136631005Y-115432999D01*
X136641296Y-115413747D01*
X136657020Y-115361909D01*
X136662330Y-115308000D01*
X136662330Y-115208000D01*
X140042315Y-115208000D01*
X143753277Y-118918962D01*
G36*
X143753277Y-113838963D02*
G01*
X143698233Y-113971850D01*
X143655000Y-114189197D01*
X143655000Y-114410803D01*
X143698233Y-114628150D01*
X143783038Y-114832887D01*
X143906156Y-115017145D01*
X144062855Y-115173844D01*
X144247113Y-115296962D01*
X144451850Y-115381767D01*
X144669197Y-115425000D01*
X144890803Y-115425000D01*
X145108150Y-115381767D01*
X145312887Y-115296962D01*
X145497145Y-115173844D01*
X145653844Y-115017145D01*
X145776962Y-114832887D01*
X145800001Y-114777267D01*
X145800001Y-116362733D01*
X145776962Y-116307113D01*
X145653844Y-116122855D01*
X145497145Y-115966156D01*
X145312887Y-115843038D01*
X145108150Y-115758233D01*
X144890803Y-115715000D01*
X144669197Y-115715000D01*
X144451850Y-115758233D01*
X144247113Y-115843038D01*
X144062855Y-115966156D01*
X143906156Y-116122855D01*
X143783038Y-116307113D01*
X143698233Y-116511850D01*
X143655000Y-116729197D01*
X143655000Y-116950803D01*
X143698233Y-117168150D01*
X143783038Y-117372887D01*
X143906156Y-117557145D01*
X144062855Y-117713844D01*
X144247113Y-117836962D01*
X144451850Y-117921767D01*
X144669197Y-117965000D01*
X144890803Y-117965000D01*
X145108150Y-117921767D01*
X145312887Y-117836962D01*
X145497145Y-117713844D01*
X145653844Y-117557145D01*
X145776962Y-117372887D01*
X145800001Y-117317267D01*
X145800001Y-118902733D01*
X145776962Y-118847113D01*
X145653844Y-118662855D01*
X145497145Y-118506156D01*
X145312887Y-118383038D01*
X145108150Y-118298233D01*
X144890803Y-118255000D01*
X144669197Y-118255000D01*
X144451850Y-118298233D01*
X144318962Y-118353277D01*
X140504737Y-114539052D01*
X140492211Y-114523789D01*
X140431303Y-114473803D01*
X140361814Y-114436660D01*
X140286414Y-114413788D01*
X140227647Y-114408000D01*
X140227646Y-114408000D01*
X140208000Y-114406065D01*
X140188354Y-114408000D01*
X136662330Y-114408000D01*
X136662330Y-114308000D01*
X136657020Y-114254091D01*
X136641296Y-114202253D01*
X136631005Y-114183001D01*
X136641297Y-114163747D01*
X136657021Y-114111910D01*
X136662331Y-114058000D01*
X136662331Y-113508000D01*
X136659923Y-113483553D01*
X136659923Y-113458991D01*
X136654613Y-113405082D01*
X136635491Y-113308949D01*
X136619767Y-113257112D01*
X136582258Y-113166556D01*
X136556722Y-113118781D01*
X136502266Y-113037282D01*
X136467901Y-112995407D01*
X136398593Y-112926099D01*
X136356718Y-112891734D01*
X136275219Y-112837278D01*
X136227444Y-112811742D01*
X136136888Y-112774233D01*
X136085051Y-112758509D01*
X135988918Y-112739387D01*
X135935009Y-112734077D01*
X135910447Y-112734077D01*
X135886000Y-112731669D01*
X135425355Y-112731669D01*
X135165028Y-112471342D01*
X135222307Y-112447616D01*
X135316483Y-112384690D01*
X135396574Y-112304599D01*
X135459500Y-112210423D01*
X135502845Y-112105779D01*
X135524942Y-111994691D01*
X135524942Y-111928743D01*
X136285953Y-111167733D01*
X136301211Y-111155211D01*
X136351197Y-111094303D01*
X136378697Y-111042855D01*
X136388340Y-111024815D01*
X136411212Y-110949414D01*
X136418935Y-110871000D01*
X136417000Y-110851354D01*
X136417000Y-108988173D01*
X136463632Y-108941541D01*
X136526558Y-108847365D01*
X136569903Y-108742721D01*
X136592000Y-108631633D01*
X136592000Y-108518367D01*
X136569903Y-108407279D01*
X136546177Y-108350000D01*
X138264315Y-108350000D01*
X143753277Y-113838963D01*
G37*
X143753277Y-113838963D02*
X143698233Y-113971850D01*
X143655000Y-114189197D01*
X143655000Y-114410803D01*
X143698233Y-114628150D01*
X143783038Y-114832887D01*
X143906156Y-115017145D01*
X144062855Y-115173844D01*
X144247113Y-115296962D01*
X144451850Y-115381767D01*
X144669197Y-115425000D01*
X144890803Y-115425000D01*
X145108150Y-115381767D01*
X145312887Y-115296962D01*
X145497145Y-115173844D01*
X145653844Y-115017145D01*
X145776962Y-114832887D01*
X145800001Y-114777267D01*
X145800001Y-116362733D01*
X145776962Y-116307113D01*
X145653844Y-116122855D01*
X145497145Y-115966156D01*
X145312887Y-115843038D01*
X145108150Y-115758233D01*
X144890803Y-115715000D01*
X144669197Y-115715000D01*
X144451850Y-115758233D01*
X144247113Y-115843038D01*
X144062855Y-115966156D01*
X143906156Y-116122855D01*
X143783038Y-116307113D01*
X143698233Y-116511850D01*
X143655000Y-116729197D01*
X143655000Y-116950803D01*
X143698233Y-117168150D01*
X143783038Y-117372887D01*
X143906156Y-117557145D01*
X144062855Y-117713844D01*
X144247113Y-117836962D01*
X144451850Y-117921767D01*
X144669197Y-117965000D01*
X144890803Y-117965000D01*
X145108150Y-117921767D01*
X145312887Y-117836962D01*
X145497145Y-117713844D01*
X145653844Y-117557145D01*
X145776962Y-117372887D01*
X145800001Y-117317267D01*
X145800001Y-118902733D01*
X145776962Y-118847113D01*
X145653844Y-118662855D01*
X145497145Y-118506156D01*
X145312887Y-118383038D01*
X145108150Y-118298233D01*
X144890803Y-118255000D01*
X144669197Y-118255000D01*
X144451850Y-118298233D01*
X144318962Y-118353277D01*
X140504737Y-114539052D01*
X140492211Y-114523789D01*
X140431303Y-114473803D01*
X140361814Y-114436660D01*
X140286414Y-114413788D01*
X140227647Y-114408000D01*
X140227646Y-114408000D01*
X140208000Y-114406065D01*
X140188354Y-114408000D01*
X136662330Y-114408000D01*
X136662330Y-114308000D01*
X136657020Y-114254091D01*
X136641296Y-114202253D01*
X136631005Y-114183001D01*
X136641297Y-114163747D01*
X136657021Y-114111910D01*
X136662331Y-114058000D01*
X136662331Y-113508000D01*
X136659923Y-113483553D01*
X136659923Y-113458991D01*
X136654613Y-113405082D01*
X136635491Y-113308949D01*
X136619767Y-113257112D01*
X136582258Y-113166556D01*
X136556722Y-113118781D01*
X136502266Y-113037282D01*
X136467901Y-112995407D01*
X136398593Y-112926099D01*
X136356718Y-112891734D01*
X136275219Y-112837278D01*
X136227444Y-112811742D01*
X136136888Y-112774233D01*
X136085051Y-112758509D01*
X135988918Y-112739387D01*
X135935009Y-112734077D01*
X135910447Y-112734077D01*
X135886000Y-112731669D01*
X135425355Y-112731669D01*
X135165028Y-112471342D01*
X135222307Y-112447616D01*
X135316483Y-112384690D01*
X135396574Y-112304599D01*
X135459500Y-112210423D01*
X135502845Y-112105779D01*
X135524942Y-111994691D01*
X135524942Y-111928743D01*
X136285953Y-111167733D01*
X136301211Y-111155211D01*
X136351197Y-111094303D01*
X136378697Y-111042855D01*
X136388340Y-111024815D01*
X136411212Y-110949414D01*
X136418935Y-110871000D01*
X136417000Y-110851354D01*
X136417000Y-108988173D01*
X136463632Y-108941541D01*
X136526558Y-108847365D01*
X136569903Y-108742721D01*
X136592000Y-108631633D01*
X136592000Y-108518367D01*
X136569903Y-108407279D01*
X136546177Y-108350000D01*
X138264315Y-108350000D01*
X143753277Y-113838963D01*
G36*
X134703371Y-113141057D02*
G01*
X134689742Y-113166556D01*
X134652233Y-113257112D01*
X134636509Y-113308949D01*
X134617387Y-113405082D01*
X134612077Y-113458991D01*
X134612077Y-113483553D01*
X134609669Y-113508000D01*
X134609669Y-114058000D01*
X134614979Y-114111910D01*
X134630703Y-114163747D01*
X134640995Y-114183001D01*
X134630704Y-114202253D01*
X134614980Y-114254091D01*
X134609670Y-114308000D01*
X134609670Y-115308000D01*
X134614980Y-115361909D01*
X134630704Y-115413747D01*
X134640995Y-115432999D01*
X134630703Y-115452253D01*
X134614979Y-115504090D01*
X134609669Y-115558000D01*
X134609669Y-116108000D01*
X134612077Y-116132447D01*
X134612077Y-116157009D01*
X134617387Y-116210918D01*
X134636509Y-116307051D01*
X134652233Y-116358888D01*
X134689742Y-116449444D01*
X134703372Y-116474943D01*
X133468315Y-117710000D01*
X128544813Y-117710000D01*
X128481982Y-117615966D01*
X128374034Y-117508018D01*
X128324619Y-117475000D01*
X128374034Y-117441982D01*
X128481982Y-117334034D01*
X128566796Y-117207100D01*
X128625217Y-117066059D01*
X128655000Y-116916331D01*
X128655000Y-116763669D01*
X128625217Y-116613941D01*
X128566796Y-116472900D01*
X128481982Y-116345966D01*
X128374034Y-116238018D01*
X128324619Y-116205000D01*
X128374034Y-116171982D01*
X128481982Y-116064034D01*
X128544813Y-115970000D01*
X131468618Y-115970000D01*
X131488264Y-115971935D01*
X131507910Y-115970000D01*
X131507911Y-115970000D01*
X131566678Y-115964212D01*
X131642078Y-115941340D01*
X131711567Y-115904197D01*
X131772475Y-115854211D01*
X131785001Y-115838948D01*
X134208011Y-113415939D01*
X134223269Y-113403417D01*
X134273255Y-113342509D01*
X134310398Y-113273020D01*
X134333270Y-113197620D01*
X134339058Y-113138853D01*
X134339058Y-113138843D01*
X134340992Y-113119207D01*
X134339824Y-113107349D01*
X134385690Y-113061483D01*
X134448616Y-112967307D01*
X134472342Y-112910028D01*
X134703371Y-113141057D01*
G37*
X134703371Y-113141057D02*
X134689742Y-113166556D01*
X134652233Y-113257112D01*
X134636509Y-113308949D01*
X134617387Y-113405082D01*
X134612077Y-113458991D01*
X134612077Y-113483553D01*
X134609669Y-113508000D01*
X134609669Y-114058000D01*
X134614979Y-114111910D01*
X134630703Y-114163747D01*
X134640995Y-114183001D01*
X134630704Y-114202253D01*
X134614980Y-114254091D01*
X134609670Y-114308000D01*
X134609670Y-115308000D01*
X134614980Y-115361909D01*
X134630704Y-115413747D01*
X134640995Y-115432999D01*
X134630703Y-115452253D01*
X134614979Y-115504090D01*
X134609669Y-115558000D01*
X134609669Y-116108000D01*
X134612077Y-116132447D01*
X134612077Y-116157009D01*
X134617387Y-116210918D01*
X134636509Y-116307051D01*
X134652233Y-116358888D01*
X134689742Y-116449444D01*
X134703372Y-116474943D01*
X133468315Y-117710000D01*
X128544813Y-117710000D01*
X128481982Y-117615966D01*
X128374034Y-117508018D01*
X128324619Y-117475000D01*
X128374034Y-117441982D01*
X128481982Y-117334034D01*
X128566796Y-117207100D01*
X128625217Y-117066059D01*
X128655000Y-116916331D01*
X128655000Y-116763669D01*
X128625217Y-116613941D01*
X128566796Y-116472900D01*
X128481982Y-116345966D01*
X128374034Y-116238018D01*
X128324619Y-116205000D01*
X128374034Y-116171982D01*
X128481982Y-116064034D01*
X128544813Y-115970000D01*
X131468618Y-115970000D01*
X131488264Y-115971935D01*
X131507910Y-115970000D01*
X131507911Y-115970000D01*
X131566678Y-115964212D01*
X131642078Y-115941340D01*
X131711567Y-115904197D01*
X131772475Y-115854211D01*
X131785001Y-115838948D01*
X134208011Y-113415939D01*
X134223269Y-113403417D01*
X134273255Y-113342509D01*
X134310398Y-113273020D01*
X134333270Y-113197620D01*
X134339058Y-113138853D01*
X134339058Y-113138843D01*
X134340992Y-113119207D01*
X134339824Y-113107349D01*
X134385690Y-113061483D01*
X134448616Y-112967307D01*
X134472342Y-112910028D01*
X134703371Y-113141057D01*
G36*
X133723972Y-112161658D02*
G01*
X133666693Y-112185384D01*
X133572517Y-112248310D01*
X133492426Y-112328401D01*
X133429500Y-112422577D01*
X133386155Y-112527221D01*
X133364058Y-112638309D01*
X133364058Y-112751575D01*
X133386155Y-112862663D01*
X133429500Y-112967307D01*
X133467860Y-113024718D01*
X131322579Y-115170000D01*
X128544813Y-115170000D01*
X128481982Y-115075966D01*
X128374034Y-114968018D01*
X128324619Y-114935000D01*
X128374034Y-114901982D01*
X128481982Y-114794034D01*
X128566796Y-114667100D01*
X128625217Y-114526059D01*
X128655000Y-114376331D01*
X128655000Y-114223669D01*
X128632936Y-114112749D01*
X128676733Y-114068952D01*
X128973954Y-113771732D01*
X128989212Y-113759210D01*
X129039198Y-113698302D01*
X129076341Y-113628813D01*
X129099213Y-113553413D01*
X129105001Y-113494646D01*
X129105001Y-113494636D01*
X129106935Y-113475000D01*
X129105001Y-113455364D01*
X129105001Y-112653646D01*
X129106936Y-112633999D01*
X129099213Y-112555585D01*
X129076341Y-112480185D01*
X129039198Y-112410696D01*
X129017855Y-112384690D01*
X128989212Y-112349788D01*
X128973950Y-112337263D01*
X128624493Y-111987806D01*
X128625217Y-111986059D01*
X128655000Y-111836331D01*
X128655000Y-111683669D01*
X128625217Y-111533941D01*
X128566796Y-111392900D01*
X128481982Y-111265966D01*
X128374034Y-111158018D01*
X128324619Y-111125000D01*
X128374034Y-111091982D01*
X128481982Y-110984034D01*
X128566796Y-110857100D01*
X128625217Y-110716059D01*
X128655000Y-110566331D01*
X128655000Y-110413669D01*
X128625217Y-110263941D01*
X128566796Y-110122900D01*
X128481982Y-109995966D01*
X128374034Y-109888018D01*
X128324619Y-109855000D01*
X128374034Y-109821982D01*
X128481982Y-109714034D01*
X128544813Y-109620000D01*
X131182315Y-109620000D01*
X133723972Y-112161658D01*
G37*
X133723972Y-112161658D02*
X133666693Y-112185384D01*
X133572517Y-112248310D01*
X133492426Y-112328401D01*
X133429500Y-112422577D01*
X133386155Y-112527221D01*
X133364058Y-112638309D01*
X133364058Y-112751575D01*
X133386155Y-112862663D01*
X133429500Y-112967307D01*
X133467860Y-113024718D01*
X131322579Y-115170000D01*
X128544813Y-115170000D01*
X128481982Y-115075966D01*
X128374034Y-114968018D01*
X128324619Y-114935000D01*
X128374034Y-114901982D01*
X128481982Y-114794034D01*
X128566796Y-114667100D01*
X128625217Y-114526059D01*
X128655000Y-114376331D01*
X128655000Y-114223669D01*
X128632936Y-114112749D01*
X128676733Y-114068952D01*
X128973954Y-113771732D01*
X128989212Y-113759210D01*
X129039198Y-113698302D01*
X129076341Y-113628813D01*
X129099213Y-113553413D01*
X129105001Y-113494646D01*
X129105001Y-113494636D01*
X129106935Y-113475000D01*
X129105001Y-113455364D01*
X129105001Y-112653646D01*
X129106936Y-112633999D01*
X129099213Y-112555585D01*
X129076341Y-112480185D01*
X129039198Y-112410696D01*
X129017855Y-112384690D01*
X128989212Y-112349788D01*
X128973950Y-112337263D01*
X128624493Y-111987806D01*
X128625217Y-111986059D01*
X128655000Y-111836331D01*
X128655000Y-111683669D01*
X128625217Y-111533941D01*
X128566796Y-111392900D01*
X128481982Y-111265966D01*
X128374034Y-111158018D01*
X128324619Y-111125000D01*
X128374034Y-111091982D01*
X128481982Y-110984034D01*
X128566796Y-110857100D01*
X128625217Y-110716059D01*
X128655000Y-110566331D01*
X128655000Y-110413669D01*
X128625217Y-110263941D01*
X128566796Y-110122900D01*
X128481982Y-109995966D01*
X128374034Y-109888018D01*
X128324619Y-109855000D01*
X128374034Y-109821982D01*
X128481982Y-109714034D01*
X128544813Y-109620000D01*
X131182315Y-109620000D01*
X133723972Y-112161658D01*
G36*
X143753277Y-111298963D02*
G01*
X143698233Y-111431850D01*
X143655000Y-111649197D01*
X143655000Y-111870803D01*
X143698233Y-112088150D01*
X143783038Y-112292887D01*
X143906156Y-112477145D01*
X144062855Y-112633844D01*
X144247113Y-112756962D01*
X144451850Y-112841767D01*
X144669197Y-112885000D01*
X144890803Y-112885000D01*
X145108150Y-112841767D01*
X145312887Y-112756962D01*
X145497145Y-112633844D01*
X145653844Y-112477145D01*
X145776962Y-112292887D01*
X145800000Y-112237267D01*
X145800000Y-113822733D01*
X145776962Y-113767113D01*
X145653844Y-113582855D01*
X145497145Y-113426156D01*
X145312887Y-113303038D01*
X145108150Y-113218233D01*
X144890803Y-113175000D01*
X144669197Y-113175000D01*
X144451850Y-113218233D01*
X144318963Y-113273277D01*
X138726737Y-107681052D01*
X138714211Y-107665789D01*
X138653303Y-107615803D01*
X138583814Y-107578660D01*
X138508414Y-107555788D01*
X138449647Y-107550000D01*
X138449646Y-107550000D01*
X138430000Y-107548065D01*
X138410354Y-107550000D01*
X128544813Y-107550000D01*
X128481982Y-107455966D01*
X128374034Y-107348018D01*
X128324619Y-107315000D01*
X128374034Y-107281982D01*
X128481982Y-107174034D01*
X128544813Y-107080000D01*
X139534315Y-107080000D01*
X143753277Y-111298963D01*
G37*
X143753277Y-111298963D02*
X143698233Y-111431850D01*
X143655000Y-111649197D01*
X143655000Y-111870803D01*
X143698233Y-112088150D01*
X143783038Y-112292887D01*
X143906156Y-112477145D01*
X144062855Y-112633844D01*
X144247113Y-112756962D01*
X144451850Y-112841767D01*
X144669197Y-112885000D01*
X144890803Y-112885000D01*
X145108150Y-112841767D01*
X145312887Y-112756962D01*
X145497145Y-112633844D01*
X145653844Y-112477145D01*
X145776962Y-112292887D01*
X145800000Y-112237267D01*
X145800000Y-113822733D01*
X145776962Y-113767113D01*
X145653844Y-113582855D01*
X145497145Y-113426156D01*
X145312887Y-113303038D01*
X145108150Y-113218233D01*
X144890803Y-113175000D01*
X144669197Y-113175000D01*
X144451850Y-113218233D01*
X144318963Y-113273277D01*
X138726737Y-107681052D01*
X138714211Y-107665789D01*
X138653303Y-107615803D01*
X138583814Y-107578660D01*
X138508414Y-107555788D01*
X138449647Y-107550000D01*
X138449646Y-107550000D01*
X138430000Y-107548065D01*
X138410354Y-107550000D01*
X128544813Y-107550000D01*
X128481982Y-107455966D01*
X128374034Y-107348018D01*
X128324619Y-107315000D01*
X128374034Y-107281982D01*
X128481982Y-107174034D01*
X128544813Y-107080000D01*
X139534315Y-107080000D01*
X143753277Y-111298963D01*
G36*
X135464097Y-108407279D02*
G01*
X135442000Y-108518367D01*
X135442000Y-108631633D01*
X135464097Y-108742721D01*
X135507442Y-108847365D01*
X135570368Y-108941541D01*
X135617000Y-108988173D01*
X135617001Y-110705313D01*
X134959257Y-111363058D01*
X134893309Y-111363058D01*
X134782221Y-111385155D01*
X134677577Y-111428500D01*
X134583401Y-111491426D01*
X134503310Y-111571517D01*
X134440384Y-111665693D01*
X134416658Y-111722972D01*
X131644737Y-108951052D01*
X131632211Y-108935789D01*
X131571303Y-108885803D01*
X131501814Y-108848660D01*
X131426414Y-108825788D01*
X131367647Y-108820000D01*
X131367646Y-108820000D01*
X131348000Y-108818065D01*
X131328354Y-108820000D01*
X128544813Y-108820000D01*
X128481982Y-108725966D01*
X128374034Y-108618018D01*
X128324619Y-108585000D01*
X128374034Y-108551982D01*
X128481982Y-108444034D01*
X128544813Y-108350000D01*
X135487823Y-108350000D01*
X135464097Y-108407279D01*
G37*
X135464097Y-108407279D02*
X135442000Y-108518367D01*
X135442000Y-108631633D01*
X135464097Y-108742721D01*
X135507442Y-108847365D01*
X135570368Y-108941541D01*
X135617000Y-108988173D01*
X135617001Y-110705313D01*
X134959257Y-111363058D01*
X134893309Y-111363058D01*
X134782221Y-111385155D01*
X134677577Y-111428500D01*
X134583401Y-111491426D01*
X134503310Y-111571517D01*
X134440384Y-111665693D01*
X134416658Y-111722972D01*
X131644737Y-108951052D01*
X131632211Y-108935789D01*
X131571303Y-108885803D01*
X131501814Y-108848660D01*
X131426414Y-108825788D01*
X131367647Y-108820000D01*
X131367646Y-108820000D01*
X131348000Y-108818065D01*
X131328354Y-108820000D01*
X128544813Y-108820000D01*
X128481982Y-108725966D01*
X128374034Y-108618018D01*
X128324619Y-108585000D01*
X128374034Y-108551982D01*
X128481982Y-108444034D01*
X128544813Y-108350000D01*
X135487823Y-108350000D01*
X135464097Y-108407279D01*
G36*
X143783038Y-102132887D02*
G01*
X143906156Y-102317145D01*
X144062855Y-102473844D01*
X144247113Y-102596962D01*
X144451850Y-102681767D01*
X144669197Y-102725000D01*
X144890803Y-102725000D01*
X145108150Y-102681767D01*
X145312887Y-102596962D01*
X145497145Y-102473844D01*
X145653844Y-102317145D01*
X145776962Y-102132887D01*
X145800000Y-102077268D01*
X145800000Y-103662732D01*
X145776962Y-103607113D01*
X145653844Y-103422855D01*
X145497145Y-103266156D01*
X145312887Y-103143038D01*
X145108150Y-103058233D01*
X144890803Y-103015000D01*
X144669197Y-103015000D01*
X144451850Y-103058233D01*
X144247113Y-103143038D01*
X144062855Y-103266156D01*
X143906156Y-103422855D01*
X143783038Y-103607113D01*
X143698233Y-103811850D01*
X143655000Y-104029197D01*
X143655000Y-104250803D01*
X143698233Y-104468150D01*
X143783038Y-104672887D01*
X143906156Y-104857145D01*
X144062855Y-105013844D01*
X144247113Y-105136962D01*
X144451850Y-105221767D01*
X144669197Y-105265000D01*
X144890803Y-105265000D01*
X145108150Y-105221767D01*
X145312887Y-105136962D01*
X145497145Y-105013844D01*
X145653844Y-104857145D01*
X145776962Y-104672887D01*
X145800000Y-104617268D01*
X145800000Y-106202732D01*
X145776962Y-106147113D01*
X145653844Y-105962855D01*
X145497145Y-105806156D01*
X145312887Y-105683038D01*
X145108150Y-105598233D01*
X144890803Y-105555000D01*
X144669197Y-105555000D01*
X144451850Y-105598233D01*
X144247113Y-105683038D01*
X144062855Y-105806156D01*
X143906156Y-105962855D01*
X143783038Y-106147113D01*
X143698233Y-106351850D01*
X143655000Y-106569197D01*
X143655000Y-106790803D01*
X143698233Y-107008150D01*
X143783038Y-107212887D01*
X143906156Y-107397145D01*
X144062855Y-107553844D01*
X144247113Y-107676962D01*
X144451850Y-107761767D01*
X144669197Y-107805000D01*
X144890803Y-107805000D01*
X145108150Y-107761767D01*
X145312887Y-107676962D01*
X145497145Y-107553844D01*
X145653844Y-107397145D01*
X145776962Y-107212887D01*
X145800000Y-107157268D01*
X145800000Y-108742732D01*
X145776962Y-108687113D01*
X145653844Y-108502855D01*
X145497145Y-108346156D01*
X145312887Y-108223038D01*
X145108150Y-108138233D01*
X144890803Y-108095000D01*
X144669197Y-108095000D01*
X144451850Y-108138233D01*
X144247113Y-108223038D01*
X144062855Y-108346156D01*
X143906156Y-108502855D01*
X143783038Y-108687113D01*
X143698233Y-108891850D01*
X143655000Y-109109197D01*
X143655000Y-109330803D01*
X143698233Y-109548150D01*
X143783038Y-109752887D01*
X143906156Y-109937145D01*
X144062855Y-110093844D01*
X144247113Y-110216962D01*
X144451850Y-110301767D01*
X144669197Y-110345000D01*
X144890803Y-110345000D01*
X145108150Y-110301767D01*
X145312887Y-110216962D01*
X145497145Y-110093844D01*
X145653844Y-109937145D01*
X145776962Y-109752887D01*
X145800000Y-109697268D01*
X145800000Y-111282733D01*
X145776962Y-111227113D01*
X145653844Y-111042855D01*
X145497145Y-110886156D01*
X145312887Y-110763038D01*
X145108150Y-110678233D01*
X144890803Y-110635000D01*
X144669197Y-110635000D01*
X144451850Y-110678233D01*
X144318963Y-110733277D01*
X139996737Y-106411052D01*
X139984211Y-106395789D01*
X139923303Y-106345803D01*
X139853814Y-106308660D01*
X139778414Y-106285788D01*
X139719647Y-106280000D01*
X139719646Y-106280000D01*
X139700000Y-106278065D01*
X139680354Y-106280000D01*
X136542035Y-106280000D01*
X136569903Y-106212721D01*
X136592000Y-106101633D01*
X136592000Y-106035685D01*
X140627686Y-102000000D01*
X143727994Y-102000000D01*
X143783038Y-102132887D01*
G37*
X143783038Y-102132887D02*
X143906156Y-102317145D01*
X144062855Y-102473844D01*
X144247113Y-102596962D01*
X144451850Y-102681767D01*
X144669197Y-102725000D01*
X144890803Y-102725000D01*
X145108150Y-102681767D01*
X145312887Y-102596962D01*
X145497145Y-102473844D01*
X145653844Y-102317145D01*
X145776962Y-102132887D01*
X145800000Y-102077268D01*
X145800000Y-103662732D01*
X145776962Y-103607113D01*
X145653844Y-103422855D01*
X145497145Y-103266156D01*
X145312887Y-103143038D01*
X145108150Y-103058233D01*
X144890803Y-103015000D01*
X144669197Y-103015000D01*
X144451850Y-103058233D01*
X144247113Y-103143038D01*
X144062855Y-103266156D01*
X143906156Y-103422855D01*
X143783038Y-103607113D01*
X143698233Y-103811850D01*
X143655000Y-104029197D01*
X143655000Y-104250803D01*
X143698233Y-104468150D01*
X143783038Y-104672887D01*
X143906156Y-104857145D01*
X144062855Y-105013844D01*
X144247113Y-105136962D01*
X144451850Y-105221767D01*
X144669197Y-105265000D01*
X144890803Y-105265000D01*
X145108150Y-105221767D01*
X145312887Y-105136962D01*
X145497145Y-105013844D01*
X145653844Y-104857145D01*
X145776962Y-104672887D01*
X145800000Y-104617268D01*
X145800000Y-106202732D01*
X145776962Y-106147113D01*
X145653844Y-105962855D01*
X145497145Y-105806156D01*
X145312887Y-105683038D01*
X145108150Y-105598233D01*
X144890803Y-105555000D01*
X144669197Y-105555000D01*
X144451850Y-105598233D01*
X144247113Y-105683038D01*
X144062855Y-105806156D01*
X143906156Y-105962855D01*
X143783038Y-106147113D01*
X143698233Y-106351850D01*
X143655000Y-106569197D01*
X143655000Y-106790803D01*
X143698233Y-107008150D01*
X143783038Y-107212887D01*
X143906156Y-107397145D01*
X144062855Y-107553844D01*
X144247113Y-107676962D01*
X144451850Y-107761767D01*
X144669197Y-107805000D01*
X144890803Y-107805000D01*
X145108150Y-107761767D01*
X145312887Y-107676962D01*
X145497145Y-107553844D01*
X145653844Y-107397145D01*
X145776962Y-107212887D01*
X145800000Y-107157268D01*
X145800000Y-108742732D01*
X145776962Y-108687113D01*
X145653844Y-108502855D01*
X145497145Y-108346156D01*
X145312887Y-108223038D01*
X145108150Y-108138233D01*
X144890803Y-108095000D01*
X144669197Y-108095000D01*
X144451850Y-108138233D01*
X144247113Y-108223038D01*
X144062855Y-108346156D01*
X143906156Y-108502855D01*
X143783038Y-108687113D01*
X143698233Y-108891850D01*
X143655000Y-109109197D01*
X143655000Y-109330803D01*
X143698233Y-109548150D01*
X143783038Y-109752887D01*
X143906156Y-109937145D01*
X144062855Y-110093844D01*
X144247113Y-110216962D01*
X144451850Y-110301767D01*
X144669197Y-110345000D01*
X144890803Y-110345000D01*
X145108150Y-110301767D01*
X145312887Y-110216962D01*
X145497145Y-110093844D01*
X145653844Y-109937145D01*
X145776962Y-109752887D01*
X145800000Y-109697268D01*
X145800000Y-111282733D01*
X145776962Y-111227113D01*
X145653844Y-111042855D01*
X145497145Y-110886156D01*
X145312887Y-110763038D01*
X145108150Y-110678233D01*
X144890803Y-110635000D01*
X144669197Y-110635000D01*
X144451850Y-110678233D01*
X144318963Y-110733277D01*
X139996737Y-106411052D01*
X139984211Y-106395789D01*
X139923303Y-106345803D01*
X139853814Y-106308660D01*
X139778414Y-106285788D01*
X139719647Y-106280000D01*
X139719646Y-106280000D01*
X139700000Y-106278065D01*
X139680354Y-106280000D01*
X136542035Y-106280000D01*
X136569903Y-106212721D01*
X136592000Y-106101633D01*
X136592000Y-106035685D01*
X140627686Y-102000000D01*
X143727994Y-102000000D01*
X143783038Y-102132887D01*
M02*
