G04 #@! TF.GenerationSoftware,KiCad,Pcbnew,(5.1.6)-1*
G04 #@! TF.CreationDate,2020-08-10T17:54:01+03:00*
G04 #@! TF.ProjectId,Sharp_11pin_to_15pin_Adapter,53686172-705f-4313-9170-696e5f746f5f,rev?*
G04 #@! TF.SameCoordinates,Original*
G04 #@! TF.FileFunction,Copper,L2,Bot*
G04 #@! TF.FilePolarity,Positive*
%FSLAX46Y46*%
G04 Gerber Fmt 4.6, Leading zero omitted, Abs format (unit mm)*
G04 Created by KiCad (PCBNEW (5.1.6)-1) date 2020-08-10 17:54:01*
%MOMM*%
%LPD*%
G01*
G04 APERTURE LIST*
G04 #@! TA.AperFunction,ComponentPad*
%ADD10O,1.700000X1.700000*%
G04 #@! TD*
G04 #@! TA.AperFunction,ComponentPad*
%ADD11R,1.700000X1.700000*%
G04 #@! TD*
G04 #@! TA.AperFunction,ComponentPad*
%ADD12R,1.000000X1.000000*%
G04 #@! TD*
G04 #@! TA.AperFunction,ComponentPad*
%ADD13O,1.000000X1.000000*%
G04 #@! TD*
G04 #@! TA.AperFunction,ViaPad*
%ADD14C,0.800000*%
G04 #@! TD*
G04 #@! TA.AperFunction,ViaPad*
%ADD15C,0.600000*%
G04 #@! TD*
G04 #@! TA.AperFunction,Conductor*
%ADD16C,0.250000*%
G04 #@! TD*
G04 #@! TA.AperFunction,Conductor*
%ADD17C,0.150000*%
G04 #@! TD*
G04 APERTURE END LIST*
D10*
X144780000Y-101600000D03*
X144780000Y-104140000D03*
X144780000Y-106680000D03*
X144780000Y-109220000D03*
X144780000Y-111760000D03*
X144780000Y-114300000D03*
X144780000Y-116840000D03*
X144780000Y-119380000D03*
X144780000Y-121920000D03*
X144780000Y-124460000D03*
D11*
X144780000Y-127000000D03*
D12*
X127880000Y-105410000D03*
D13*
X127880000Y-106680000D03*
X127880000Y-107950000D03*
X127880000Y-109220000D03*
X127880000Y-110490000D03*
X127880000Y-111760000D03*
X127880000Y-113030000D03*
X127880000Y-114300000D03*
X127880000Y-115570000D03*
X127880000Y-116840000D03*
X127880000Y-118110000D03*
X127880000Y-119380000D03*
X127880000Y-120650000D03*
X127880000Y-121920000D03*
X127880000Y-123190000D03*
D14*
X127889000Y-100076000D03*
X140208000Y-100076000D03*
X127889000Y-124587000D03*
X127889000Y-127889000D03*
X130810000Y-127889000D03*
X133985000Y-127889000D03*
X137160000Y-127889000D03*
X140462000Y-127889000D03*
X131318000Y-100076000D03*
X134747000Y-100076000D03*
X138049000Y-100076000D03*
D15*
X130683000Y-113030000D03*
X143256000Y-102743000D03*
X129032000Y-107315000D03*
X135509000Y-109728000D03*
X135763000Y-112268000D03*
X133985000Y-114300000D03*
X129286000Y-116840000D03*
X136017000Y-106045000D03*
X136017000Y-108575000D03*
X134949942Y-111938058D03*
X133939058Y-112694942D03*
D16*
X140970000Y-110490000D02*
X144780000Y-106680000D01*
X127880000Y-110490000D02*
X140970000Y-110490000D01*
X128379999Y-114799999D02*
X128388999Y-114799999D01*
X127880000Y-114300000D02*
X128379999Y-114799999D01*
X128388999Y-114799999D02*
X130429000Y-116840000D01*
X130429000Y-119371000D02*
X127880000Y-121920000D01*
X130429000Y-116840000D02*
X130429000Y-119371000D01*
X144780000Y-121920000D02*
X142748000Y-123952000D01*
X142748000Y-125603000D02*
X140462000Y-127889000D01*
X142748000Y-123952000D02*
X142748000Y-125603000D01*
X127880000Y-113030000D02*
X130683000Y-113030000D01*
X136017000Y-106045000D02*
X136017000Y-108575000D01*
X134949942Y-111938058D02*
X134695942Y-111938058D01*
X134695942Y-111938058D02*
X133939058Y-112694942D01*
X128379999Y-120150001D02*
X127880000Y-120650000D01*
X128705001Y-119824999D02*
X128379999Y-120150001D01*
X128705001Y-117665001D02*
X128705001Y-119824999D01*
X127880000Y-116840000D02*
X128705001Y-117665001D01*
D17*
G36*
X145800000Y-101122732D02*
G01*
X145776962Y-101067113D01*
X145653844Y-100882855D01*
X145497145Y-100726156D01*
X145312887Y-100603038D01*
X145108150Y-100518233D01*
X144890803Y-100475000D01*
X144669197Y-100475000D01*
X144451850Y-100518233D01*
X144247113Y-100603038D01*
X144062855Y-100726156D01*
X143906156Y-100882855D01*
X143783038Y-101067113D01*
X143698233Y-101271850D01*
X143655000Y-101489197D01*
X143655000Y-101710803D01*
X143698233Y-101928150D01*
X143783038Y-102132887D01*
X143906156Y-102317145D01*
X144062855Y-102473844D01*
X144247113Y-102596962D01*
X144451850Y-102681767D01*
X144669197Y-102725000D01*
X144890803Y-102725000D01*
X145108150Y-102681767D01*
X145312887Y-102596962D01*
X145497145Y-102473844D01*
X145653844Y-102317145D01*
X145776962Y-102132887D01*
X145800000Y-102077268D01*
X145800000Y-103662732D01*
X145776962Y-103607113D01*
X145653844Y-103422855D01*
X145497145Y-103266156D01*
X145312887Y-103143038D01*
X145108150Y-103058233D01*
X144890803Y-103015000D01*
X144669197Y-103015000D01*
X144451850Y-103058233D01*
X144247113Y-103143038D01*
X144062855Y-103266156D01*
X143906156Y-103422855D01*
X143783038Y-103607113D01*
X143698233Y-103811850D01*
X143655000Y-104029197D01*
X143655000Y-104250803D01*
X143698233Y-104468150D01*
X143783038Y-104672887D01*
X143906156Y-104857145D01*
X144062855Y-105013844D01*
X144247113Y-105136962D01*
X144451850Y-105221767D01*
X144669197Y-105265000D01*
X144890803Y-105265000D01*
X145108150Y-105221767D01*
X145312887Y-105136962D01*
X145497145Y-105013844D01*
X145653844Y-104857145D01*
X145776962Y-104672887D01*
X145800000Y-104617268D01*
X145800000Y-106202732D01*
X145776962Y-106147113D01*
X145653844Y-105962855D01*
X145497145Y-105806156D01*
X145312887Y-105683038D01*
X145108150Y-105598233D01*
X144890803Y-105555000D01*
X144669197Y-105555000D01*
X144451850Y-105598233D01*
X144247113Y-105683038D01*
X144062855Y-105806156D01*
X143906156Y-105962855D01*
X143783038Y-106147113D01*
X143698233Y-106351850D01*
X143655000Y-106569197D01*
X143655000Y-106790803D01*
X143698233Y-107008150D01*
X143753277Y-107141038D01*
X140804315Y-110090000D01*
X128544813Y-110090000D01*
X128481982Y-109995966D01*
X128374034Y-109888018D01*
X128324619Y-109855000D01*
X128374034Y-109821982D01*
X128481982Y-109714034D01*
X128566796Y-109587100D01*
X128625217Y-109446059D01*
X128655000Y-109296331D01*
X128655000Y-109143669D01*
X128625217Y-108993941D01*
X128566796Y-108852900D01*
X128481982Y-108725966D01*
X128374034Y-108618018D01*
X128324619Y-108585000D01*
X128374034Y-108551982D01*
X128481982Y-108444034D01*
X128566796Y-108317100D01*
X128625217Y-108176059D01*
X128655000Y-108026331D01*
X128655000Y-107873669D01*
X128625217Y-107723941D01*
X128566796Y-107582900D01*
X128481982Y-107455966D01*
X128374034Y-107348018D01*
X128324619Y-107315000D01*
X128374034Y-107281982D01*
X128481982Y-107174034D01*
X128566796Y-107047100D01*
X128625217Y-106906059D01*
X128655000Y-106756331D01*
X128655000Y-106603669D01*
X128625217Y-106453941D01*
X128566796Y-106312900D01*
X128481982Y-106185966D01*
X128466999Y-106170983D01*
X128485747Y-106165296D01*
X128533521Y-106139760D01*
X128575395Y-106105395D01*
X128609760Y-106063521D01*
X128635296Y-106015747D01*
X128643601Y-105988367D01*
X135442000Y-105988367D01*
X135442000Y-106101633D01*
X135464097Y-106212721D01*
X135507442Y-106317365D01*
X135570368Y-106411541D01*
X135617000Y-106458173D01*
X135617001Y-108161826D01*
X135570368Y-108208459D01*
X135507442Y-108302635D01*
X135464097Y-108407279D01*
X135442000Y-108518367D01*
X135442000Y-108631633D01*
X135464097Y-108742721D01*
X135507442Y-108847365D01*
X135570368Y-108941541D01*
X135650459Y-109021632D01*
X135744635Y-109084558D01*
X135849279Y-109127903D01*
X135960367Y-109150000D01*
X136073633Y-109150000D01*
X136184721Y-109127903D01*
X136289365Y-109084558D01*
X136383541Y-109021632D01*
X136463632Y-108941541D01*
X136526558Y-108847365D01*
X136569903Y-108742721D01*
X136592000Y-108631633D01*
X136592000Y-108518367D01*
X136569903Y-108407279D01*
X136526558Y-108302635D01*
X136463632Y-108208459D01*
X136417000Y-108161827D01*
X136417000Y-106458173D01*
X136463632Y-106411541D01*
X136526558Y-106317365D01*
X136569903Y-106212721D01*
X136592000Y-106101633D01*
X136592000Y-105988367D01*
X136569903Y-105877279D01*
X136526558Y-105772635D01*
X136463632Y-105678459D01*
X136383541Y-105598368D01*
X136289365Y-105535442D01*
X136184721Y-105492097D01*
X136073633Y-105470000D01*
X135960367Y-105470000D01*
X135849279Y-105492097D01*
X135744635Y-105535442D01*
X135650459Y-105598368D01*
X135570368Y-105678459D01*
X135507442Y-105772635D01*
X135464097Y-105877279D01*
X135442000Y-105988367D01*
X128643601Y-105988367D01*
X128651020Y-105963909D01*
X128656330Y-105910000D01*
X128656330Y-104910000D01*
X128651020Y-104856091D01*
X128635296Y-104804253D01*
X128609760Y-104756479D01*
X128575395Y-104714605D01*
X128533521Y-104680240D01*
X128485747Y-104654704D01*
X128433909Y-104638980D01*
X128380000Y-104633670D01*
X127380000Y-104633670D01*
X127326091Y-104638980D01*
X127274253Y-104654704D01*
X127226479Y-104680240D01*
X127184605Y-104714605D01*
X127150240Y-104756479D01*
X127124704Y-104804253D01*
X127108980Y-104856091D01*
X127103670Y-104910000D01*
X127103670Y-105910000D01*
X127108980Y-105963909D01*
X127124704Y-106015747D01*
X127150240Y-106063521D01*
X127184605Y-106105395D01*
X127226479Y-106139760D01*
X127274253Y-106165296D01*
X127293001Y-106170983D01*
X127278018Y-106185966D01*
X127193204Y-106312900D01*
X127134783Y-106453941D01*
X127105000Y-106603669D01*
X127105000Y-106756331D01*
X127134783Y-106906059D01*
X127193204Y-107047100D01*
X127278018Y-107174034D01*
X127385966Y-107281982D01*
X127435381Y-107315000D01*
X127385966Y-107348018D01*
X127278018Y-107455966D01*
X127193204Y-107582900D01*
X127134783Y-107723941D01*
X127105000Y-107873669D01*
X127105000Y-108026331D01*
X127134783Y-108176059D01*
X127193204Y-108317100D01*
X127278018Y-108444034D01*
X127385966Y-108551982D01*
X127435381Y-108585000D01*
X127385966Y-108618018D01*
X127278018Y-108725966D01*
X127193204Y-108852900D01*
X127134783Y-108993941D01*
X127105000Y-109143669D01*
X127105000Y-109296331D01*
X127134783Y-109446059D01*
X127193204Y-109587100D01*
X127278018Y-109714034D01*
X127385966Y-109821982D01*
X127435381Y-109855000D01*
X127385966Y-109888018D01*
X127278018Y-109995966D01*
X127193204Y-110122900D01*
X127134783Y-110263941D01*
X127105000Y-110413669D01*
X127105000Y-110566331D01*
X127134783Y-110716059D01*
X127193204Y-110857100D01*
X127278018Y-110984034D01*
X127385966Y-111091982D01*
X127435381Y-111125000D01*
X127385966Y-111158018D01*
X127278018Y-111265966D01*
X127193204Y-111392900D01*
X127134783Y-111533941D01*
X127105000Y-111683669D01*
X127105000Y-111836331D01*
X127134783Y-111986059D01*
X127193204Y-112127100D01*
X127278018Y-112254034D01*
X127385966Y-112361982D01*
X127437166Y-112396193D01*
X127335844Y-112478164D01*
X127238642Y-112594927D01*
X127166087Y-112728410D01*
X127120967Y-112873482D01*
X127118850Y-112884134D01*
X127174193Y-113005000D01*
X127855000Y-113005000D01*
X127855000Y-112985000D01*
X127905000Y-112985000D01*
X127905000Y-113005000D01*
X128585807Y-113005000D01*
X128641150Y-112884134D01*
X128639033Y-112873482D01*
X128593913Y-112728410D01*
X128544939Y-112638309D01*
X133364058Y-112638309D01*
X133364058Y-112751575D01*
X133386155Y-112862663D01*
X133429500Y-112967307D01*
X133492426Y-113061483D01*
X133572517Y-113141574D01*
X133666693Y-113204500D01*
X133771337Y-113247845D01*
X133882425Y-113269942D01*
X133995691Y-113269942D01*
X134106779Y-113247845D01*
X134211423Y-113204500D01*
X134305599Y-113141574D01*
X134385690Y-113061483D01*
X134448616Y-112967307D01*
X134491961Y-112862663D01*
X134514058Y-112751575D01*
X134514058Y-112685627D01*
X134730251Y-112469434D01*
X134782221Y-112490961D01*
X134893309Y-112513058D01*
X135006575Y-112513058D01*
X135117663Y-112490961D01*
X135222307Y-112447616D01*
X135316483Y-112384690D01*
X135396574Y-112304599D01*
X135459500Y-112210423D01*
X135502845Y-112105779D01*
X135524942Y-111994691D01*
X135524942Y-111881425D01*
X135502845Y-111770337D01*
X135459500Y-111665693D01*
X135396574Y-111571517D01*
X135316483Y-111491426D01*
X135222307Y-111428500D01*
X135117663Y-111385155D01*
X135006575Y-111363058D01*
X134893309Y-111363058D01*
X134782221Y-111385155D01*
X134677577Y-111428500D01*
X134583401Y-111491426D01*
X134503310Y-111571517D01*
X134486732Y-111596328D01*
X134472639Y-111603861D01*
X134411731Y-111653847D01*
X134399205Y-111669110D01*
X133948373Y-112119942D01*
X133882425Y-112119942D01*
X133771337Y-112142039D01*
X133666693Y-112185384D01*
X133572517Y-112248310D01*
X133492426Y-112328401D01*
X133429500Y-112422577D01*
X133386155Y-112527221D01*
X133364058Y-112638309D01*
X128544939Y-112638309D01*
X128521358Y-112594927D01*
X128424156Y-112478164D01*
X128322834Y-112396193D01*
X128374034Y-112361982D01*
X128481982Y-112254034D01*
X128566796Y-112127100D01*
X128625217Y-111986059D01*
X128655000Y-111836331D01*
X128655000Y-111683669D01*
X128625217Y-111533941D01*
X128566796Y-111392900D01*
X128481982Y-111265966D01*
X128374034Y-111158018D01*
X128324619Y-111125000D01*
X128374034Y-111091982D01*
X128481982Y-110984034D01*
X128544813Y-110890000D01*
X140950354Y-110890000D01*
X140970000Y-110891935D01*
X140989646Y-110890000D01*
X140989647Y-110890000D01*
X141048414Y-110884212D01*
X141123814Y-110861340D01*
X141193303Y-110824197D01*
X141254211Y-110774211D01*
X141266737Y-110758948D01*
X144318962Y-107706723D01*
X144451850Y-107761767D01*
X144669197Y-107805000D01*
X144890803Y-107805000D01*
X145108150Y-107761767D01*
X145312887Y-107676962D01*
X145497145Y-107553844D01*
X145653844Y-107397145D01*
X145776962Y-107212887D01*
X145800000Y-107157268D01*
X145800000Y-108742732D01*
X145776962Y-108687113D01*
X145653844Y-108502855D01*
X145497145Y-108346156D01*
X145312887Y-108223038D01*
X145108150Y-108138233D01*
X144890803Y-108095000D01*
X144669197Y-108095000D01*
X144451850Y-108138233D01*
X144247113Y-108223038D01*
X144062855Y-108346156D01*
X143906156Y-108502855D01*
X143783038Y-108687113D01*
X143698233Y-108891850D01*
X143655000Y-109109197D01*
X143655000Y-109330803D01*
X143698233Y-109548150D01*
X143783038Y-109752887D01*
X143906156Y-109937145D01*
X144062855Y-110093844D01*
X144247113Y-110216962D01*
X144451850Y-110301767D01*
X144669197Y-110345000D01*
X144890803Y-110345000D01*
X145108150Y-110301767D01*
X145312887Y-110216962D01*
X145497145Y-110093844D01*
X145653844Y-109937145D01*
X145776962Y-109752887D01*
X145800000Y-109697268D01*
X145800000Y-111282733D01*
X145776962Y-111227113D01*
X145653844Y-111042855D01*
X145497145Y-110886156D01*
X145312887Y-110763038D01*
X145108150Y-110678233D01*
X144890803Y-110635000D01*
X144669197Y-110635000D01*
X144451850Y-110678233D01*
X144247113Y-110763038D01*
X144062855Y-110886156D01*
X143906156Y-111042855D01*
X143783038Y-111227113D01*
X143698233Y-111431850D01*
X143655000Y-111649197D01*
X143655000Y-111870803D01*
X143698233Y-112088150D01*
X143783038Y-112292887D01*
X143906156Y-112477145D01*
X144062855Y-112633844D01*
X144247113Y-112756962D01*
X144451850Y-112841767D01*
X144669197Y-112885000D01*
X144890803Y-112885000D01*
X145108150Y-112841767D01*
X145312887Y-112756962D01*
X145497145Y-112633844D01*
X145653844Y-112477145D01*
X145776962Y-112292887D01*
X145800000Y-112237267D01*
X145800000Y-113822733D01*
X145776962Y-113767113D01*
X145653844Y-113582855D01*
X145497145Y-113426156D01*
X145312887Y-113303038D01*
X145108150Y-113218233D01*
X144890803Y-113175000D01*
X144669197Y-113175000D01*
X144451850Y-113218233D01*
X144247113Y-113303038D01*
X144062855Y-113426156D01*
X143906156Y-113582855D01*
X143783038Y-113767113D01*
X143698233Y-113971850D01*
X143655000Y-114189197D01*
X143655000Y-114410803D01*
X143698233Y-114628150D01*
X143783038Y-114832887D01*
X143906156Y-115017145D01*
X144062855Y-115173844D01*
X144247113Y-115296962D01*
X144451850Y-115381767D01*
X144669197Y-115425000D01*
X144890803Y-115425000D01*
X145108150Y-115381767D01*
X145312887Y-115296962D01*
X145497145Y-115173844D01*
X145653844Y-115017145D01*
X145776962Y-114832887D01*
X145800001Y-114777267D01*
X145800001Y-116362733D01*
X145776962Y-116307113D01*
X145653844Y-116122855D01*
X145497145Y-115966156D01*
X145312887Y-115843038D01*
X145108150Y-115758233D01*
X144890803Y-115715000D01*
X144669197Y-115715000D01*
X144451850Y-115758233D01*
X144247113Y-115843038D01*
X144062855Y-115966156D01*
X143906156Y-116122855D01*
X143783038Y-116307113D01*
X143698233Y-116511850D01*
X143655000Y-116729197D01*
X143655000Y-116950803D01*
X143698233Y-117168150D01*
X143783038Y-117372887D01*
X143906156Y-117557145D01*
X144062855Y-117713844D01*
X144247113Y-117836962D01*
X144451850Y-117921767D01*
X144669197Y-117965000D01*
X144890803Y-117965000D01*
X145108150Y-117921767D01*
X145312887Y-117836962D01*
X145497145Y-117713844D01*
X145653844Y-117557145D01*
X145776962Y-117372887D01*
X145800001Y-117317267D01*
X145800001Y-118902733D01*
X145776962Y-118847113D01*
X145653844Y-118662855D01*
X145497145Y-118506156D01*
X145312887Y-118383038D01*
X145108150Y-118298233D01*
X144890803Y-118255000D01*
X144669197Y-118255000D01*
X144451850Y-118298233D01*
X144247113Y-118383038D01*
X144062855Y-118506156D01*
X143906156Y-118662855D01*
X143783038Y-118847113D01*
X143698233Y-119051850D01*
X143655000Y-119269197D01*
X143655000Y-119490803D01*
X143698233Y-119708150D01*
X143783038Y-119912887D01*
X143906156Y-120097145D01*
X144062855Y-120253844D01*
X144247113Y-120376962D01*
X144451850Y-120461767D01*
X144669197Y-120505000D01*
X144890803Y-120505000D01*
X145108150Y-120461767D01*
X145312887Y-120376962D01*
X145497145Y-120253844D01*
X145653844Y-120097145D01*
X145776962Y-119912887D01*
X145800001Y-119857267D01*
X145800001Y-121450494D01*
X145704615Y-121279130D01*
X145561821Y-121111061D01*
X145388982Y-120974079D01*
X145192741Y-120873448D01*
X144980638Y-120813035D01*
X144805000Y-120864027D01*
X144805000Y-121895000D01*
X144825000Y-121895000D01*
X144825000Y-121945000D01*
X144805000Y-121945000D01*
X144805000Y-122975973D01*
X144980638Y-123026965D01*
X145192741Y-122966552D01*
X145388982Y-122865921D01*
X145561821Y-122728939D01*
X145704615Y-122560870D01*
X145800001Y-122389506D01*
X145800001Y-123982734D01*
X145776962Y-123927113D01*
X145653844Y-123742855D01*
X145497145Y-123586156D01*
X145312887Y-123463038D01*
X145108150Y-123378233D01*
X144890803Y-123335000D01*
X144669197Y-123335000D01*
X144451850Y-123378233D01*
X144247113Y-123463038D01*
X144062855Y-123586156D01*
X143906156Y-123742855D01*
X143783038Y-123927113D01*
X143698233Y-124131850D01*
X143655000Y-124349197D01*
X143655000Y-124570803D01*
X143698233Y-124788150D01*
X143783038Y-124992887D01*
X143906156Y-125177145D01*
X144062855Y-125333844D01*
X144247113Y-125456962D01*
X144451850Y-125541767D01*
X144669197Y-125585000D01*
X144890803Y-125585000D01*
X145108150Y-125541767D01*
X145312887Y-125456962D01*
X145497145Y-125333844D01*
X145653844Y-125177145D01*
X145776962Y-124992887D01*
X145800001Y-124937266D01*
X145800001Y-125933765D01*
X145783521Y-125920240D01*
X145735747Y-125894704D01*
X145683909Y-125878980D01*
X145630000Y-125873670D01*
X143930000Y-125873670D01*
X143876091Y-125878980D01*
X143824253Y-125894704D01*
X143776479Y-125920240D01*
X143734605Y-125954605D01*
X143700240Y-125996479D01*
X143674704Y-126044253D01*
X143658980Y-126096091D01*
X143653670Y-126150000D01*
X143653670Y-127850000D01*
X143658980Y-127903909D01*
X143674704Y-127955747D01*
X143700240Y-128003521D01*
X143734605Y-128045395D01*
X143776479Y-128079760D01*
X143824253Y-128105296D01*
X143876091Y-128121020D01*
X143930000Y-128126330D01*
X145630000Y-128126330D01*
X145683909Y-128121020D01*
X145735747Y-128105296D01*
X145783521Y-128079760D01*
X145800001Y-128066235D01*
X145800001Y-128655000D01*
X126996000Y-128655000D01*
X126996000Y-114223669D01*
X127105000Y-114223669D01*
X127105000Y-114376331D01*
X127134783Y-114526059D01*
X127193204Y-114667100D01*
X127278018Y-114794034D01*
X127385966Y-114901982D01*
X127435381Y-114935000D01*
X127385966Y-114968018D01*
X127278018Y-115075966D01*
X127193204Y-115202900D01*
X127134783Y-115343941D01*
X127105000Y-115493669D01*
X127105000Y-115646331D01*
X127134783Y-115796059D01*
X127193204Y-115937100D01*
X127278018Y-116064034D01*
X127385966Y-116171982D01*
X127435381Y-116205000D01*
X127385966Y-116238018D01*
X127278018Y-116345966D01*
X127193204Y-116472900D01*
X127134783Y-116613941D01*
X127105000Y-116763669D01*
X127105000Y-116916331D01*
X127134783Y-117066059D01*
X127193204Y-117207100D01*
X127278018Y-117334034D01*
X127385966Y-117441982D01*
X127435381Y-117475000D01*
X127385966Y-117508018D01*
X127278018Y-117615966D01*
X127193204Y-117742900D01*
X127134783Y-117883941D01*
X127105000Y-118033669D01*
X127105000Y-118186331D01*
X127134783Y-118336059D01*
X127193204Y-118477100D01*
X127278018Y-118604034D01*
X127385966Y-118711982D01*
X127435381Y-118745000D01*
X127385966Y-118778018D01*
X127278018Y-118885966D01*
X127193204Y-119012900D01*
X127134783Y-119153941D01*
X127105000Y-119303669D01*
X127105000Y-119456331D01*
X127134783Y-119606059D01*
X127193204Y-119747100D01*
X127278018Y-119874034D01*
X127385966Y-119981982D01*
X127435381Y-120015000D01*
X127385966Y-120048018D01*
X127278018Y-120155966D01*
X127193204Y-120282900D01*
X127134783Y-120423941D01*
X127105000Y-120573669D01*
X127105000Y-120726331D01*
X127134783Y-120876059D01*
X127193204Y-121017100D01*
X127278018Y-121144034D01*
X127385966Y-121251982D01*
X127435381Y-121285000D01*
X127385966Y-121318018D01*
X127278018Y-121425966D01*
X127193204Y-121552900D01*
X127134783Y-121693941D01*
X127105000Y-121843669D01*
X127105000Y-121996331D01*
X127134783Y-122146059D01*
X127193204Y-122287100D01*
X127278018Y-122414034D01*
X127385966Y-122521982D01*
X127435381Y-122555000D01*
X127385966Y-122588018D01*
X127278018Y-122695966D01*
X127193204Y-122822900D01*
X127134783Y-122963941D01*
X127105000Y-123113669D01*
X127105000Y-123266331D01*
X127134783Y-123416059D01*
X127193204Y-123557100D01*
X127278018Y-123684034D01*
X127385966Y-123791982D01*
X127512900Y-123876796D01*
X127653941Y-123935217D01*
X127803669Y-123965000D01*
X127956331Y-123965000D01*
X128106059Y-123935217D01*
X128247100Y-123876796D01*
X128374034Y-123791982D01*
X128481982Y-123684034D01*
X128566796Y-123557100D01*
X128625217Y-123416059D01*
X128655000Y-123266331D01*
X128655000Y-123113669D01*
X128625217Y-122963941D01*
X128566796Y-122822900D01*
X128481982Y-122695966D01*
X128374034Y-122588018D01*
X128324619Y-122555000D01*
X128374034Y-122521982D01*
X128481982Y-122414034D01*
X128566796Y-122287100D01*
X128625217Y-122146059D01*
X128630273Y-122120637D01*
X143673036Y-122120637D01*
X143680517Y-122158251D01*
X143748124Y-122368172D01*
X143855385Y-122560870D01*
X143998179Y-122728939D01*
X144171018Y-122865921D01*
X144367259Y-122966552D01*
X144579362Y-123026965D01*
X144755000Y-122975973D01*
X144755000Y-121945000D01*
X143724046Y-121945000D01*
X143673036Y-122120637D01*
X128630273Y-122120637D01*
X128655000Y-121996331D01*
X128655000Y-121843669D01*
X128632936Y-121732749D01*
X128646322Y-121719363D01*
X143673036Y-121719363D01*
X143724046Y-121895000D01*
X144755000Y-121895000D01*
X144755000Y-120864027D01*
X144579362Y-120813035D01*
X144367259Y-120873448D01*
X144171018Y-120974079D01*
X143998179Y-121111061D01*
X143855385Y-121279130D01*
X143748124Y-121471828D01*
X143680517Y-121681749D01*
X143673036Y-121719363D01*
X128646322Y-121719363D01*
X130697948Y-119667737D01*
X130713211Y-119655211D01*
X130763197Y-119594303D01*
X130800340Y-119524814D01*
X130823212Y-119449414D01*
X130829000Y-119390647D01*
X130829000Y-119390637D01*
X130830934Y-119371001D01*
X130829000Y-119351365D01*
X130829000Y-116859635D01*
X130830934Y-116839999D01*
X130829000Y-116820363D01*
X130829000Y-116820353D01*
X130823212Y-116761586D01*
X130800340Y-116686186D01*
X130763197Y-116616697D01*
X130713211Y-116555789D01*
X130697954Y-116543268D01*
X128685736Y-114531051D01*
X128673210Y-114515788D01*
X128633708Y-114483370D01*
X128655000Y-114376331D01*
X128655000Y-114223669D01*
X128625217Y-114073941D01*
X128566796Y-113932900D01*
X128481982Y-113805966D01*
X128374034Y-113698018D01*
X128322834Y-113663807D01*
X128424156Y-113581836D01*
X128521358Y-113465073D01*
X128593913Y-113331590D01*
X128639033Y-113186518D01*
X128641150Y-113175866D01*
X128585807Y-113055000D01*
X127905000Y-113055000D01*
X127905000Y-113075000D01*
X127855000Y-113075000D01*
X127855000Y-113055000D01*
X127174193Y-113055000D01*
X127118850Y-113175866D01*
X127120967Y-113186518D01*
X127166087Y-113331590D01*
X127238642Y-113465073D01*
X127335844Y-113581836D01*
X127437166Y-113663807D01*
X127385966Y-113698018D01*
X127278018Y-113805966D01*
X127193204Y-113932900D01*
X127134783Y-114073941D01*
X127105000Y-114223669D01*
X126996000Y-114223669D01*
X126996000Y-99310000D01*
X145800000Y-99310000D01*
X145800000Y-101122732D01*
G37*
X145800000Y-101122732D02*
X145776962Y-101067113D01*
X145653844Y-100882855D01*
X145497145Y-100726156D01*
X145312887Y-100603038D01*
X145108150Y-100518233D01*
X144890803Y-100475000D01*
X144669197Y-100475000D01*
X144451850Y-100518233D01*
X144247113Y-100603038D01*
X144062855Y-100726156D01*
X143906156Y-100882855D01*
X143783038Y-101067113D01*
X143698233Y-101271850D01*
X143655000Y-101489197D01*
X143655000Y-101710803D01*
X143698233Y-101928150D01*
X143783038Y-102132887D01*
X143906156Y-102317145D01*
X144062855Y-102473844D01*
X144247113Y-102596962D01*
X144451850Y-102681767D01*
X144669197Y-102725000D01*
X144890803Y-102725000D01*
X145108150Y-102681767D01*
X145312887Y-102596962D01*
X145497145Y-102473844D01*
X145653844Y-102317145D01*
X145776962Y-102132887D01*
X145800000Y-102077268D01*
X145800000Y-103662732D01*
X145776962Y-103607113D01*
X145653844Y-103422855D01*
X145497145Y-103266156D01*
X145312887Y-103143038D01*
X145108150Y-103058233D01*
X144890803Y-103015000D01*
X144669197Y-103015000D01*
X144451850Y-103058233D01*
X144247113Y-103143038D01*
X144062855Y-103266156D01*
X143906156Y-103422855D01*
X143783038Y-103607113D01*
X143698233Y-103811850D01*
X143655000Y-104029197D01*
X143655000Y-104250803D01*
X143698233Y-104468150D01*
X143783038Y-104672887D01*
X143906156Y-104857145D01*
X144062855Y-105013844D01*
X144247113Y-105136962D01*
X144451850Y-105221767D01*
X144669197Y-105265000D01*
X144890803Y-105265000D01*
X145108150Y-105221767D01*
X145312887Y-105136962D01*
X145497145Y-105013844D01*
X145653844Y-104857145D01*
X145776962Y-104672887D01*
X145800000Y-104617268D01*
X145800000Y-106202732D01*
X145776962Y-106147113D01*
X145653844Y-105962855D01*
X145497145Y-105806156D01*
X145312887Y-105683038D01*
X145108150Y-105598233D01*
X144890803Y-105555000D01*
X144669197Y-105555000D01*
X144451850Y-105598233D01*
X144247113Y-105683038D01*
X144062855Y-105806156D01*
X143906156Y-105962855D01*
X143783038Y-106147113D01*
X143698233Y-106351850D01*
X143655000Y-106569197D01*
X143655000Y-106790803D01*
X143698233Y-107008150D01*
X143753277Y-107141038D01*
X140804315Y-110090000D01*
X128544813Y-110090000D01*
X128481982Y-109995966D01*
X128374034Y-109888018D01*
X128324619Y-109855000D01*
X128374034Y-109821982D01*
X128481982Y-109714034D01*
X128566796Y-109587100D01*
X128625217Y-109446059D01*
X128655000Y-109296331D01*
X128655000Y-109143669D01*
X128625217Y-108993941D01*
X128566796Y-108852900D01*
X128481982Y-108725966D01*
X128374034Y-108618018D01*
X128324619Y-108585000D01*
X128374034Y-108551982D01*
X128481982Y-108444034D01*
X128566796Y-108317100D01*
X128625217Y-108176059D01*
X128655000Y-108026331D01*
X128655000Y-107873669D01*
X128625217Y-107723941D01*
X128566796Y-107582900D01*
X128481982Y-107455966D01*
X128374034Y-107348018D01*
X128324619Y-107315000D01*
X128374034Y-107281982D01*
X128481982Y-107174034D01*
X128566796Y-107047100D01*
X128625217Y-106906059D01*
X128655000Y-106756331D01*
X128655000Y-106603669D01*
X128625217Y-106453941D01*
X128566796Y-106312900D01*
X128481982Y-106185966D01*
X128466999Y-106170983D01*
X128485747Y-106165296D01*
X128533521Y-106139760D01*
X128575395Y-106105395D01*
X128609760Y-106063521D01*
X128635296Y-106015747D01*
X128643601Y-105988367D01*
X135442000Y-105988367D01*
X135442000Y-106101633D01*
X135464097Y-106212721D01*
X135507442Y-106317365D01*
X135570368Y-106411541D01*
X135617000Y-106458173D01*
X135617001Y-108161826D01*
X135570368Y-108208459D01*
X135507442Y-108302635D01*
X135464097Y-108407279D01*
X135442000Y-108518367D01*
X135442000Y-108631633D01*
X135464097Y-108742721D01*
X135507442Y-108847365D01*
X135570368Y-108941541D01*
X135650459Y-109021632D01*
X135744635Y-109084558D01*
X135849279Y-109127903D01*
X135960367Y-109150000D01*
X136073633Y-109150000D01*
X136184721Y-109127903D01*
X136289365Y-109084558D01*
X136383541Y-109021632D01*
X136463632Y-108941541D01*
X136526558Y-108847365D01*
X136569903Y-108742721D01*
X136592000Y-108631633D01*
X136592000Y-108518367D01*
X136569903Y-108407279D01*
X136526558Y-108302635D01*
X136463632Y-108208459D01*
X136417000Y-108161827D01*
X136417000Y-106458173D01*
X136463632Y-106411541D01*
X136526558Y-106317365D01*
X136569903Y-106212721D01*
X136592000Y-106101633D01*
X136592000Y-105988367D01*
X136569903Y-105877279D01*
X136526558Y-105772635D01*
X136463632Y-105678459D01*
X136383541Y-105598368D01*
X136289365Y-105535442D01*
X136184721Y-105492097D01*
X136073633Y-105470000D01*
X135960367Y-105470000D01*
X135849279Y-105492097D01*
X135744635Y-105535442D01*
X135650459Y-105598368D01*
X135570368Y-105678459D01*
X135507442Y-105772635D01*
X135464097Y-105877279D01*
X135442000Y-105988367D01*
X128643601Y-105988367D01*
X128651020Y-105963909D01*
X128656330Y-105910000D01*
X128656330Y-104910000D01*
X128651020Y-104856091D01*
X128635296Y-104804253D01*
X128609760Y-104756479D01*
X128575395Y-104714605D01*
X128533521Y-104680240D01*
X128485747Y-104654704D01*
X128433909Y-104638980D01*
X128380000Y-104633670D01*
X127380000Y-104633670D01*
X127326091Y-104638980D01*
X127274253Y-104654704D01*
X127226479Y-104680240D01*
X127184605Y-104714605D01*
X127150240Y-104756479D01*
X127124704Y-104804253D01*
X127108980Y-104856091D01*
X127103670Y-104910000D01*
X127103670Y-105910000D01*
X127108980Y-105963909D01*
X127124704Y-106015747D01*
X127150240Y-106063521D01*
X127184605Y-106105395D01*
X127226479Y-106139760D01*
X127274253Y-106165296D01*
X127293001Y-106170983D01*
X127278018Y-106185966D01*
X127193204Y-106312900D01*
X127134783Y-106453941D01*
X127105000Y-106603669D01*
X127105000Y-106756331D01*
X127134783Y-106906059D01*
X127193204Y-107047100D01*
X127278018Y-107174034D01*
X127385966Y-107281982D01*
X127435381Y-107315000D01*
X127385966Y-107348018D01*
X127278018Y-107455966D01*
X127193204Y-107582900D01*
X127134783Y-107723941D01*
X127105000Y-107873669D01*
X127105000Y-108026331D01*
X127134783Y-108176059D01*
X127193204Y-108317100D01*
X127278018Y-108444034D01*
X127385966Y-108551982D01*
X127435381Y-108585000D01*
X127385966Y-108618018D01*
X127278018Y-108725966D01*
X127193204Y-108852900D01*
X127134783Y-108993941D01*
X127105000Y-109143669D01*
X127105000Y-109296331D01*
X127134783Y-109446059D01*
X127193204Y-109587100D01*
X127278018Y-109714034D01*
X127385966Y-109821982D01*
X127435381Y-109855000D01*
X127385966Y-109888018D01*
X127278018Y-109995966D01*
X127193204Y-110122900D01*
X127134783Y-110263941D01*
X127105000Y-110413669D01*
X127105000Y-110566331D01*
X127134783Y-110716059D01*
X127193204Y-110857100D01*
X127278018Y-110984034D01*
X127385966Y-111091982D01*
X127435381Y-111125000D01*
X127385966Y-111158018D01*
X127278018Y-111265966D01*
X127193204Y-111392900D01*
X127134783Y-111533941D01*
X127105000Y-111683669D01*
X127105000Y-111836331D01*
X127134783Y-111986059D01*
X127193204Y-112127100D01*
X127278018Y-112254034D01*
X127385966Y-112361982D01*
X127437166Y-112396193D01*
X127335844Y-112478164D01*
X127238642Y-112594927D01*
X127166087Y-112728410D01*
X127120967Y-112873482D01*
X127118850Y-112884134D01*
X127174193Y-113005000D01*
X127855000Y-113005000D01*
X127855000Y-112985000D01*
X127905000Y-112985000D01*
X127905000Y-113005000D01*
X128585807Y-113005000D01*
X128641150Y-112884134D01*
X128639033Y-112873482D01*
X128593913Y-112728410D01*
X128544939Y-112638309D01*
X133364058Y-112638309D01*
X133364058Y-112751575D01*
X133386155Y-112862663D01*
X133429500Y-112967307D01*
X133492426Y-113061483D01*
X133572517Y-113141574D01*
X133666693Y-113204500D01*
X133771337Y-113247845D01*
X133882425Y-113269942D01*
X133995691Y-113269942D01*
X134106779Y-113247845D01*
X134211423Y-113204500D01*
X134305599Y-113141574D01*
X134385690Y-113061483D01*
X134448616Y-112967307D01*
X134491961Y-112862663D01*
X134514058Y-112751575D01*
X134514058Y-112685627D01*
X134730251Y-112469434D01*
X134782221Y-112490961D01*
X134893309Y-112513058D01*
X135006575Y-112513058D01*
X135117663Y-112490961D01*
X135222307Y-112447616D01*
X135316483Y-112384690D01*
X135396574Y-112304599D01*
X135459500Y-112210423D01*
X135502845Y-112105779D01*
X135524942Y-111994691D01*
X135524942Y-111881425D01*
X135502845Y-111770337D01*
X135459500Y-111665693D01*
X135396574Y-111571517D01*
X135316483Y-111491426D01*
X135222307Y-111428500D01*
X135117663Y-111385155D01*
X135006575Y-111363058D01*
X134893309Y-111363058D01*
X134782221Y-111385155D01*
X134677577Y-111428500D01*
X134583401Y-111491426D01*
X134503310Y-111571517D01*
X134486732Y-111596328D01*
X134472639Y-111603861D01*
X134411731Y-111653847D01*
X134399205Y-111669110D01*
X133948373Y-112119942D01*
X133882425Y-112119942D01*
X133771337Y-112142039D01*
X133666693Y-112185384D01*
X133572517Y-112248310D01*
X133492426Y-112328401D01*
X133429500Y-112422577D01*
X133386155Y-112527221D01*
X133364058Y-112638309D01*
X128544939Y-112638309D01*
X128521358Y-112594927D01*
X128424156Y-112478164D01*
X128322834Y-112396193D01*
X128374034Y-112361982D01*
X128481982Y-112254034D01*
X128566796Y-112127100D01*
X128625217Y-111986059D01*
X128655000Y-111836331D01*
X128655000Y-111683669D01*
X128625217Y-111533941D01*
X128566796Y-111392900D01*
X128481982Y-111265966D01*
X128374034Y-111158018D01*
X128324619Y-111125000D01*
X128374034Y-111091982D01*
X128481982Y-110984034D01*
X128544813Y-110890000D01*
X140950354Y-110890000D01*
X140970000Y-110891935D01*
X140989646Y-110890000D01*
X140989647Y-110890000D01*
X141048414Y-110884212D01*
X141123814Y-110861340D01*
X141193303Y-110824197D01*
X141254211Y-110774211D01*
X141266737Y-110758948D01*
X144318962Y-107706723D01*
X144451850Y-107761767D01*
X144669197Y-107805000D01*
X144890803Y-107805000D01*
X145108150Y-107761767D01*
X145312887Y-107676962D01*
X145497145Y-107553844D01*
X145653844Y-107397145D01*
X145776962Y-107212887D01*
X145800000Y-107157268D01*
X145800000Y-108742732D01*
X145776962Y-108687113D01*
X145653844Y-108502855D01*
X145497145Y-108346156D01*
X145312887Y-108223038D01*
X145108150Y-108138233D01*
X144890803Y-108095000D01*
X144669197Y-108095000D01*
X144451850Y-108138233D01*
X144247113Y-108223038D01*
X144062855Y-108346156D01*
X143906156Y-108502855D01*
X143783038Y-108687113D01*
X143698233Y-108891850D01*
X143655000Y-109109197D01*
X143655000Y-109330803D01*
X143698233Y-109548150D01*
X143783038Y-109752887D01*
X143906156Y-109937145D01*
X144062855Y-110093844D01*
X144247113Y-110216962D01*
X144451850Y-110301767D01*
X144669197Y-110345000D01*
X144890803Y-110345000D01*
X145108150Y-110301767D01*
X145312887Y-110216962D01*
X145497145Y-110093844D01*
X145653844Y-109937145D01*
X145776962Y-109752887D01*
X145800000Y-109697268D01*
X145800000Y-111282733D01*
X145776962Y-111227113D01*
X145653844Y-111042855D01*
X145497145Y-110886156D01*
X145312887Y-110763038D01*
X145108150Y-110678233D01*
X144890803Y-110635000D01*
X144669197Y-110635000D01*
X144451850Y-110678233D01*
X144247113Y-110763038D01*
X144062855Y-110886156D01*
X143906156Y-111042855D01*
X143783038Y-111227113D01*
X143698233Y-111431850D01*
X143655000Y-111649197D01*
X143655000Y-111870803D01*
X143698233Y-112088150D01*
X143783038Y-112292887D01*
X143906156Y-112477145D01*
X144062855Y-112633844D01*
X144247113Y-112756962D01*
X144451850Y-112841767D01*
X144669197Y-112885000D01*
X144890803Y-112885000D01*
X145108150Y-112841767D01*
X145312887Y-112756962D01*
X145497145Y-112633844D01*
X145653844Y-112477145D01*
X145776962Y-112292887D01*
X145800000Y-112237267D01*
X145800000Y-113822733D01*
X145776962Y-113767113D01*
X145653844Y-113582855D01*
X145497145Y-113426156D01*
X145312887Y-113303038D01*
X145108150Y-113218233D01*
X144890803Y-113175000D01*
X144669197Y-113175000D01*
X144451850Y-113218233D01*
X144247113Y-113303038D01*
X144062855Y-113426156D01*
X143906156Y-113582855D01*
X143783038Y-113767113D01*
X143698233Y-113971850D01*
X143655000Y-114189197D01*
X143655000Y-114410803D01*
X143698233Y-114628150D01*
X143783038Y-114832887D01*
X143906156Y-115017145D01*
X144062855Y-115173844D01*
X144247113Y-115296962D01*
X144451850Y-115381767D01*
X144669197Y-115425000D01*
X144890803Y-115425000D01*
X145108150Y-115381767D01*
X145312887Y-115296962D01*
X145497145Y-115173844D01*
X145653844Y-115017145D01*
X145776962Y-114832887D01*
X145800001Y-114777267D01*
X145800001Y-116362733D01*
X145776962Y-116307113D01*
X145653844Y-116122855D01*
X145497145Y-115966156D01*
X145312887Y-115843038D01*
X145108150Y-115758233D01*
X144890803Y-115715000D01*
X144669197Y-115715000D01*
X144451850Y-115758233D01*
X144247113Y-115843038D01*
X144062855Y-115966156D01*
X143906156Y-116122855D01*
X143783038Y-116307113D01*
X143698233Y-116511850D01*
X143655000Y-116729197D01*
X143655000Y-116950803D01*
X143698233Y-117168150D01*
X143783038Y-117372887D01*
X143906156Y-117557145D01*
X144062855Y-117713844D01*
X144247113Y-117836962D01*
X144451850Y-117921767D01*
X144669197Y-117965000D01*
X144890803Y-117965000D01*
X145108150Y-117921767D01*
X145312887Y-117836962D01*
X145497145Y-117713844D01*
X145653844Y-117557145D01*
X145776962Y-117372887D01*
X145800001Y-117317267D01*
X145800001Y-118902733D01*
X145776962Y-118847113D01*
X145653844Y-118662855D01*
X145497145Y-118506156D01*
X145312887Y-118383038D01*
X145108150Y-118298233D01*
X144890803Y-118255000D01*
X144669197Y-118255000D01*
X144451850Y-118298233D01*
X144247113Y-118383038D01*
X144062855Y-118506156D01*
X143906156Y-118662855D01*
X143783038Y-118847113D01*
X143698233Y-119051850D01*
X143655000Y-119269197D01*
X143655000Y-119490803D01*
X143698233Y-119708150D01*
X143783038Y-119912887D01*
X143906156Y-120097145D01*
X144062855Y-120253844D01*
X144247113Y-120376962D01*
X144451850Y-120461767D01*
X144669197Y-120505000D01*
X144890803Y-120505000D01*
X145108150Y-120461767D01*
X145312887Y-120376962D01*
X145497145Y-120253844D01*
X145653844Y-120097145D01*
X145776962Y-119912887D01*
X145800001Y-119857267D01*
X145800001Y-121450494D01*
X145704615Y-121279130D01*
X145561821Y-121111061D01*
X145388982Y-120974079D01*
X145192741Y-120873448D01*
X144980638Y-120813035D01*
X144805000Y-120864027D01*
X144805000Y-121895000D01*
X144825000Y-121895000D01*
X144825000Y-121945000D01*
X144805000Y-121945000D01*
X144805000Y-122975973D01*
X144980638Y-123026965D01*
X145192741Y-122966552D01*
X145388982Y-122865921D01*
X145561821Y-122728939D01*
X145704615Y-122560870D01*
X145800001Y-122389506D01*
X145800001Y-123982734D01*
X145776962Y-123927113D01*
X145653844Y-123742855D01*
X145497145Y-123586156D01*
X145312887Y-123463038D01*
X145108150Y-123378233D01*
X144890803Y-123335000D01*
X144669197Y-123335000D01*
X144451850Y-123378233D01*
X144247113Y-123463038D01*
X144062855Y-123586156D01*
X143906156Y-123742855D01*
X143783038Y-123927113D01*
X143698233Y-124131850D01*
X143655000Y-124349197D01*
X143655000Y-124570803D01*
X143698233Y-124788150D01*
X143783038Y-124992887D01*
X143906156Y-125177145D01*
X144062855Y-125333844D01*
X144247113Y-125456962D01*
X144451850Y-125541767D01*
X144669197Y-125585000D01*
X144890803Y-125585000D01*
X145108150Y-125541767D01*
X145312887Y-125456962D01*
X145497145Y-125333844D01*
X145653844Y-125177145D01*
X145776962Y-124992887D01*
X145800001Y-124937266D01*
X145800001Y-125933765D01*
X145783521Y-125920240D01*
X145735747Y-125894704D01*
X145683909Y-125878980D01*
X145630000Y-125873670D01*
X143930000Y-125873670D01*
X143876091Y-125878980D01*
X143824253Y-125894704D01*
X143776479Y-125920240D01*
X143734605Y-125954605D01*
X143700240Y-125996479D01*
X143674704Y-126044253D01*
X143658980Y-126096091D01*
X143653670Y-126150000D01*
X143653670Y-127850000D01*
X143658980Y-127903909D01*
X143674704Y-127955747D01*
X143700240Y-128003521D01*
X143734605Y-128045395D01*
X143776479Y-128079760D01*
X143824253Y-128105296D01*
X143876091Y-128121020D01*
X143930000Y-128126330D01*
X145630000Y-128126330D01*
X145683909Y-128121020D01*
X145735747Y-128105296D01*
X145783521Y-128079760D01*
X145800001Y-128066235D01*
X145800001Y-128655000D01*
X126996000Y-128655000D01*
X126996000Y-114223669D01*
X127105000Y-114223669D01*
X127105000Y-114376331D01*
X127134783Y-114526059D01*
X127193204Y-114667100D01*
X127278018Y-114794034D01*
X127385966Y-114901982D01*
X127435381Y-114935000D01*
X127385966Y-114968018D01*
X127278018Y-115075966D01*
X127193204Y-115202900D01*
X127134783Y-115343941D01*
X127105000Y-115493669D01*
X127105000Y-115646331D01*
X127134783Y-115796059D01*
X127193204Y-115937100D01*
X127278018Y-116064034D01*
X127385966Y-116171982D01*
X127435381Y-116205000D01*
X127385966Y-116238018D01*
X127278018Y-116345966D01*
X127193204Y-116472900D01*
X127134783Y-116613941D01*
X127105000Y-116763669D01*
X127105000Y-116916331D01*
X127134783Y-117066059D01*
X127193204Y-117207100D01*
X127278018Y-117334034D01*
X127385966Y-117441982D01*
X127435381Y-117475000D01*
X127385966Y-117508018D01*
X127278018Y-117615966D01*
X127193204Y-117742900D01*
X127134783Y-117883941D01*
X127105000Y-118033669D01*
X127105000Y-118186331D01*
X127134783Y-118336059D01*
X127193204Y-118477100D01*
X127278018Y-118604034D01*
X127385966Y-118711982D01*
X127435381Y-118745000D01*
X127385966Y-118778018D01*
X127278018Y-118885966D01*
X127193204Y-119012900D01*
X127134783Y-119153941D01*
X127105000Y-119303669D01*
X127105000Y-119456331D01*
X127134783Y-119606059D01*
X127193204Y-119747100D01*
X127278018Y-119874034D01*
X127385966Y-119981982D01*
X127435381Y-120015000D01*
X127385966Y-120048018D01*
X127278018Y-120155966D01*
X127193204Y-120282900D01*
X127134783Y-120423941D01*
X127105000Y-120573669D01*
X127105000Y-120726331D01*
X127134783Y-120876059D01*
X127193204Y-121017100D01*
X127278018Y-121144034D01*
X127385966Y-121251982D01*
X127435381Y-121285000D01*
X127385966Y-121318018D01*
X127278018Y-121425966D01*
X127193204Y-121552900D01*
X127134783Y-121693941D01*
X127105000Y-121843669D01*
X127105000Y-121996331D01*
X127134783Y-122146059D01*
X127193204Y-122287100D01*
X127278018Y-122414034D01*
X127385966Y-122521982D01*
X127435381Y-122555000D01*
X127385966Y-122588018D01*
X127278018Y-122695966D01*
X127193204Y-122822900D01*
X127134783Y-122963941D01*
X127105000Y-123113669D01*
X127105000Y-123266331D01*
X127134783Y-123416059D01*
X127193204Y-123557100D01*
X127278018Y-123684034D01*
X127385966Y-123791982D01*
X127512900Y-123876796D01*
X127653941Y-123935217D01*
X127803669Y-123965000D01*
X127956331Y-123965000D01*
X128106059Y-123935217D01*
X128247100Y-123876796D01*
X128374034Y-123791982D01*
X128481982Y-123684034D01*
X128566796Y-123557100D01*
X128625217Y-123416059D01*
X128655000Y-123266331D01*
X128655000Y-123113669D01*
X128625217Y-122963941D01*
X128566796Y-122822900D01*
X128481982Y-122695966D01*
X128374034Y-122588018D01*
X128324619Y-122555000D01*
X128374034Y-122521982D01*
X128481982Y-122414034D01*
X128566796Y-122287100D01*
X128625217Y-122146059D01*
X128630273Y-122120637D01*
X143673036Y-122120637D01*
X143680517Y-122158251D01*
X143748124Y-122368172D01*
X143855385Y-122560870D01*
X143998179Y-122728939D01*
X144171018Y-122865921D01*
X144367259Y-122966552D01*
X144579362Y-123026965D01*
X144755000Y-122975973D01*
X144755000Y-121945000D01*
X143724046Y-121945000D01*
X143673036Y-122120637D01*
X128630273Y-122120637D01*
X128655000Y-121996331D01*
X128655000Y-121843669D01*
X128632936Y-121732749D01*
X128646322Y-121719363D01*
X143673036Y-121719363D01*
X143724046Y-121895000D01*
X144755000Y-121895000D01*
X144755000Y-120864027D01*
X144579362Y-120813035D01*
X144367259Y-120873448D01*
X144171018Y-120974079D01*
X143998179Y-121111061D01*
X143855385Y-121279130D01*
X143748124Y-121471828D01*
X143680517Y-121681749D01*
X143673036Y-121719363D01*
X128646322Y-121719363D01*
X130697948Y-119667737D01*
X130713211Y-119655211D01*
X130763197Y-119594303D01*
X130800340Y-119524814D01*
X130823212Y-119449414D01*
X130829000Y-119390647D01*
X130829000Y-119390637D01*
X130830934Y-119371001D01*
X130829000Y-119351365D01*
X130829000Y-116859635D01*
X130830934Y-116839999D01*
X130829000Y-116820363D01*
X130829000Y-116820353D01*
X130823212Y-116761586D01*
X130800340Y-116686186D01*
X130763197Y-116616697D01*
X130713211Y-116555789D01*
X130697954Y-116543268D01*
X128685736Y-114531051D01*
X128673210Y-114515788D01*
X128633708Y-114483370D01*
X128655000Y-114376331D01*
X128655000Y-114223669D01*
X128625217Y-114073941D01*
X128566796Y-113932900D01*
X128481982Y-113805966D01*
X128374034Y-113698018D01*
X128322834Y-113663807D01*
X128424156Y-113581836D01*
X128521358Y-113465073D01*
X128593913Y-113331590D01*
X128639033Y-113186518D01*
X128641150Y-113175866D01*
X128585807Y-113055000D01*
X127905000Y-113055000D01*
X127905000Y-113075000D01*
X127855000Y-113075000D01*
X127855000Y-113055000D01*
X127174193Y-113055000D01*
X127118850Y-113175866D01*
X127120967Y-113186518D01*
X127166087Y-113331590D01*
X127238642Y-113465073D01*
X127335844Y-113581836D01*
X127437166Y-113663807D01*
X127385966Y-113698018D01*
X127278018Y-113805966D01*
X127193204Y-113932900D01*
X127134783Y-114073941D01*
X127105000Y-114223669D01*
X126996000Y-114223669D01*
X126996000Y-99310000D01*
X145800000Y-99310000D01*
X145800000Y-101122732D01*
G36*
X130029000Y-117005686D02*
G01*
X130029001Y-119205314D01*
X128655000Y-120579315D01*
X128655000Y-120573669D01*
X128632936Y-120462749D01*
X128676733Y-120418952D01*
X128973954Y-120121732D01*
X128989212Y-120109210D01*
X129039198Y-120048302D01*
X129076341Y-119978813D01*
X129099213Y-119903413D01*
X129105001Y-119844646D01*
X129105001Y-119844636D01*
X129106935Y-119825000D01*
X129105001Y-119805364D01*
X129105001Y-117684648D01*
X129106936Y-117665001D01*
X129099213Y-117586587D01*
X129076341Y-117511187D01*
X129039198Y-117441698D01*
X129001736Y-117396051D01*
X128989212Y-117380790D01*
X128973950Y-117368265D01*
X128632936Y-117027251D01*
X128655000Y-116916331D01*
X128655000Y-116763669D01*
X128625217Y-116613941D01*
X128566796Y-116472900D01*
X128481982Y-116345966D01*
X128374034Y-116238018D01*
X128324619Y-116205000D01*
X128374034Y-116171982D01*
X128481982Y-116064034D01*
X128566796Y-115937100D01*
X128625217Y-115796059D01*
X128655000Y-115646331D01*
X128655000Y-115631685D01*
X130029000Y-117005686D01*
G37*
X130029000Y-117005686D02*
X130029001Y-119205314D01*
X128655000Y-120579315D01*
X128655000Y-120573669D01*
X128632936Y-120462749D01*
X128676733Y-120418952D01*
X128973954Y-120121732D01*
X128989212Y-120109210D01*
X129039198Y-120048302D01*
X129076341Y-119978813D01*
X129099213Y-119903413D01*
X129105001Y-119844646D01*
X129105001Y-119844636D01*
X129106935Y-119825000D01*
X129105001Y-119805364D01*
X129105001Y-117684648D01*
X129106936Y-117665001D01*
X129099213Y-117586587D01*
X129076341Y-117511187D01*
X129039198Y-117441698D01*
X129001736Y-117396051D01*
X128989212Y-117380790D01*
X128973950Y-117368265D01*
X128632936Y-117027251D01*
X128655000Y-116916331D01*
X128655000Y-116763669D01*
X128625217Y-116613941D01*
X128566796Y-116472900D01*
X128481982Y-116345966D01*
X128374034Y-116238018D01*
X128324619Y-116205000D01*
X128374034Y-116171982D01*
X128481982Y-116064034D01*
X128566796Y-115937100D01*
X128625217Y-115796059D01*
X128655000Y-115646331D01*
X128655000Y-115631685D01*
X130029000Y-117005686D01*
M02*
