G04 #@! TF.GenerationSoftware,KiCad,Pcbnew,(5.1.6)-1*
G04 #@! TF.CreationDate,2020-08-10T17:12:12+03:00*
G04 #@! TF.ProjectId,g850_kiss,67383530-5f6b-4697-9373-2e6b69636164,rev?*
G04 #@! TF.SameCoordinates,Original*
G04 #@! TF.FileFunction,Soldermask,Top*
G04 #@! TF.FilePolarity,Negative*
%FSLAX46Y46*%
G04 Gerber Fmt 4.6, Leading zero omitted, Abs format (unit mm)*
G04 Created by KiCad (PCBNEW (5.1.6)-1) date 2020-08-10 17:12:12*
%MOMM*%
%LPD*%
G01*
G04 APERTURE LIST*
%ADD10C,0.100000*%
G04 APERTURE END LIST*
D10*
G36*
X113046000Y-90694000D02*
G01*
X115046000Y-90694000D01*
X115046000Y-92694000D01*
X113046000Y-92694000D01*
X113046000Y-92594000D01*
X113046000Y-90694000D01*
G37*
X113046000Y-90694000D02*
X115046000Y-90694000D01*
X115046000Y-92694000D01*
X113046000Y-92694000D01*
X113046000Y-92594000D01*
X113046000Y-90694000D01*
G36*
X118126000Y-90694000D02*
G01*
X120126000Y-90694000D01*
X120126000Y-92694000D01*
X118126000Y-92694000D01*
X118126000Y-92594000D01*
X118126000Y-90694000D01*
G37*
X118126000Y-90694000D02*
X120126000Y-90694000D01*
X120126000Y-92694000D01*
X118126000Y-92694000D01*
X118126000Y-92594000D01*
X118126000Y-90694000D01*
G36*
X107966000Y-90694000D02*
G01*
X109966000Y-90694000D01*
X109966000Y-92694000D01*
X107966000Y-92694000D01*
X107966000Y-92594000D01*
X107966000Y-90694000D01*
G37*
X107966000Y-90694000D02*
X109966000Y-90694000D01*
X109966000Y-92694000D01*
X107966000Y-92694000D01*
X107966000Y-92594000D01*
X107966000Y-90694000D01*
G36*
X141177674Y-92605465D02*
G01*
X141215367Y-92616899D01*
X141250103Y-92635466D01*
X141280548Y-92660452D01*
X141305534Y-92690897D01*
X141324101Y-92725633D01*
X141335535Y-92763326D01*
X141340000Y-92808661D01*
X141340000Y-93645339D01*
X141335535Y-93690674D01*
X141324101Y-93728367D01*
X141305534Y-93763103D01*
X141280548Y-93793548D01*
X141250103Y-93818534D01*
X141215367Y-93837101D01*
X141177674Y-93848535D01*
X141132339Y-93853000D01*
X140045661Y-93853000D01*
X140000326Y-93848535D01*
X139962633Y-93837101D01*
X139927897Y-93818534D01*
X139897452Y-93793548D01*
X139872466Y-93763103D01*
X139853899Y-93728367D01*
X139842465Y-93690674D01*
X139838000Y-93645339D01*
X139838000Y-92808661D01*
X139842465Y-92763326D01*
X139853899Y-92725633D01*
X139872466Y-92690897D01*
X139897452Y-92660452D01*
X139927897Y-92635466D01*
X139962633Y-92616899D01*
X140000326Y-92605465D01*
X140045661Y-92601000D01*
X141132339Y-92601000D01*
X141177674Y-92605465D01*
G37*
G36*
X137367674Y-92605465D02*
G01*
X137405367Y-92616899D01*
X137440103Y-92635466D01*
X137470548Y-92660452D01*
X137495534Y-92690897D01*
X137514101Y-92725633D01*
X137525535Y-92763326D01*
X137530000Y-92808661D01*
X137530000Y-93645339D01*
X137525535Y-93690674D01*
X137514101Y-93728367D01*
X137495534Y-93763103D01*
X137470548Y-93793548D01*
X137440103Y-93818534D01*
X137405367Y-93837101D01*
X137367674Y-93848535D01*
X137322339Y-93853000D01*
X136235661Y-93853000D01*
X136190326Y-93848535D01*
X136152633Y-93837101D01*
X136117897Y-93818534D01*
X136087452Y-93793548D01*
X136062466Y-93763103D01*
X136043899Y-93728367D01*
X136032465Y-93690674D01*
X136028000Y-93645339D01*
X136028000Y-92808661D01*
X136032465Y-92763326D01*
X136043899Y-92725633D01*
X136062466Y-92690897D01*
X136087452Y-92660452D01*
X136117897Y-92635466D01*
X136152633Y-92616899D01*
X136190326Y-92605465D01*
X136235661Y-92601000D01*
X137322339Y-92601000D01*
X137367674Y-92605465D01*
G37*
G36*
X158863512Y-90543927D02*
G01*
X159012812Y-90573624D01*
X159176784Y-90641544D01*
X159324354Y-90740147D01*
X159449853Y-90865646D01*
X159548456Y-91013216D01*
X159616376Y-91177188D01*
X159651000Y-91351259D01*
X159651000Y-91528741D01*
X159616376Y-91702812D01*
X159548456Y-91866784D01*
X159449853Y-92014354D01*
X159324354Y-92139853D01*
X159176784Y-92238456D01*
X159012812Y-92306376D01*
X158863512Y-92336073D01*
X158838742Y-92341000D01*
X158661258Y-92341000D01*
X158636488Y-92336073D01*
X158487188Y-92306376D01*
X158323216Y-92238456D01*
X158175646Y-92139853D01*
X158050147Y-92014354D01*
X157951544Y-91866784D01*
X157883624Y-91702812D01*
X157849000Y-91528741D01*
X157849000Y-91351259D01*
X157883624Y-91177188D01*
X157951544Y-91013216D01*
X158050147Y-90865646D01*
X158175646Y-90740147D01*
X158323216Y-90641544D01*
X158487188Y-90573624D01*
X158636488Y-90543927D01*
X158661258Y-90539000D01*
X158838742Y-90539000D01*
X158863512Y-90543927D01*
G37*
G36*
X162673512Y-90543927D02*
G01*
X162822812Y-90573624D01*
X162986784Y-90641544D01*
X163134354Y-90740147D01*
X163259853Y-90865646D01*
X163358456Y-91013216D01*
X163426376Y-91177188D01*
X163461000Y-91351259D01*
X163461000Y-91528741D01*
X163426376Y-91702812D01*
X163358456Y-91866784D01*
X163259853Y-92014354D01*
X163134354Y-92139853D01*
X162986784Y-92238456D01*
X162822812Y-92306376D01*
X162673512Y-92336073D01*
X162648742Y-92341000D01*
X162471258Y-92341000D01*
X162446488Y-92336073D01*
X162297188Y-92306376D01*
X162133216Y-92238456D01*
X161985646Y-92139853D01*
X161860147Y-92014354D01*
X161761544Y-91866784D01*
X161693624Y-91702812D01*
X161659000Y-91528741D01*
X161659000Y-91351259D01*
X161693624Y-91177188D01*
X161761544Y-91013216D01*
X161860147Y-90865646D01*
X161985646Y-90740147D01*
X162133216Y-90641544D01*
X162297188Y-90573624D01*
X162446488Y-90543927D01*
X162471258Y-90539000D01*
X162648742Y-90539000D01*
X162673512Y-90543927D01*
G37*
G36*
X141177674Y-90555465D02*
G01*
X141215367Y-90566899D01*
X141250103Y-90585466D01*
X141280548Y-90610452D01*
X141305534Y-90640897D01*
X141324101Y-90675633D01*
X141335535Y-90713326D01*
X141340000Y-90758661D01*
X141340000Y-91595339D01*
X141335535Y-91640674D01*
X141324101Y-91678367D01*
X141305534Y-91713103D01*
X141280548Y-91743548D01*
X141250103Y-91768534D01*
X141215367Y-91787101D01*
X141177674Y-91798535D01*
X141132339Y-91803000D01*
X140045661Y-91803000D01*
X140000326Y-91798535D01*
X139962633Y-91787101D01*
X139927897Y-91768534D01*
X139897452Y-91743548D01*
X139872466Y-91713103D01*
X139853899Y-91678367D01*
X139842465Y-91640674D01*
X139838000Y-91595339D01*
X139838000Y-90758661D01*
X139842465Y-90713326D01*
X139853899Y-90675633D01*
X139872466Y-90640897D01*
X139897452Y-90610452D01*
X139927897Y-90585466D01*
X139962633Y-90566899D01*
X140000326Y-90555465D01*
X140045661Y-90551000D01*
X141132339Y-90551000D01*
X141177674Y-90555465D01*
G37*
G36*
X137367674Y-90555465D02*
G01*
X137405367Y-90566899D01*
X137440103Y-90585466D01*
X137470548Y-90610452D01*
X137495534Y-90640897D01*
X137514101Y-90675633D01*
X137525535Y-90713326D01*
X137530000Y-90758661D01*
X137530000Y-91595339D01*
X137525535Y-91640674D01*
X137514101Y-91678367D01*
X137495534Y-91713103D01*
X137470548Y-91743548D01*
X137440103Y-91768534D01*
X137405367Y-91787101D01*
X137367674Y-91798535D01*
X137322339Y-91803000D01*
X136235661Y-91803000D01*
X136190326Y-91798535D01*
X136152633Y-91787101D01*
X136117897Y-91768534D01*
X136087452Y-91743548D01*
X136062466Y-91713103D01*
X136043899Y-91678367D01*
X136032465Y-91640674D01*
X136028000Y-91595339D01*
X136028000Y-90758661D01*
X136032465Y-90713326D01*
X136043899Y-90675633D01*
X136062466Y-90640897D01*
X136087452Y-90610452D01*
X136117897Y-90585466D01*
X136152633Y-90566899D01*
X136190326Y-90555465D01*
X136235661Y-90551000D01*
X137322339Y-90551000D01*
X137367674Y-90555465D01*
G37*
G36*
X158859228Y-88003075D02*
G01*
X159012812Y-88033624D01*
X159176784Y-88101544D01*
X159324354Y-88200147D01*
X159449853Y-88325646D01*
X159548456Y-88473216D01*
X159616376Y-88637188D01*
X159651000Y-88811259D01*
X159651000Y-88988741D01*
X159616376Y-89162812D01*
X159548456Y-89326784D01*
X159449853Y-89474354D01*
X159324354Y-89599853D01*
X159176784Y-89698456D01*
X159012812Y-89766376D01*
X158863512Y-89796073D01*
X158838742Y-89801000D01*
X158661258Y-89801000D01*
X158636488Y-89796073D01*
X158487188Y-89766376D01*
X158323216Y-89698456D01*
X158175646Y-89599853D01*
X158050147Y-89474354D01*
X157951544Y-89326784D01*
X157883624Y-89162812D01*
X157849000Y-88988741D01*
X157849000Y-88811259D01*
X157883624Y-88637188D01*
X157951544Y-88473216D01*
X158050147Y-88325646D01*
X158175646Y-88200147D01*
X158323216Y-88101544D01*
X158487188Y-88033624D01*
X158640772Y-88003075D01*
X158661258Y-87999000D01*
X158838742Y-87999000D01*
X158859228Y-88003075D01*
G37*
G36*
X162669228Y-88003075D02*
G01*
X162822812Y-88033624D01*
X162986784Y-88101544D01*
X163134354Y-88200147D01*
X163259853Y-88325646D01*
X163358456Y-88473216D01*
X163426376Y-88637188D01*
X163461000Y-88811259D01*
X163461000Y-88988741D01*
X163426376Y-89162812D01*
X163358456Y-89326784D01*
X163259853Y-89474354D01*
X163134354Y-89599853D01*
X162986784Y-89698456D01*
X162822812Y-89766376D01*
X162673512Y-89796073D01*
X162648742Y-89801000D01*
X162471258Y-89801000D01*
X162446488Y-89796073D01*
X162297188Y-89766376D01*
X162133216Y-89698456D01*
X161985646Y-89599853D01*
X161860147Y-89474354D01*
X161761544Y-89326784D01*
X161693624Y-89162812D01*
X161659000Y-88988741D01*
X161659000Y-88811259D01*
X161693624Y-88637188D01*
X161761544Y-88473216D01*
X161860147Y-88325646D01*
X161985646Y-88200147D01*
X162133216Y-88101544D01*
X162297188Y-88033624D01*
X162450772Y-88003075D01*
X162471258Y-87999000D01*
X162648742Y-87999000D01*
X162669228Y-88003075D01*
G37*
G36*
X151591674Y-87788465D02*
G01*
X151629367Y-87799899D01*
X151664103Y-87818466D01*
X151694548Y-87843452D01*
X151719534Y-87873897D01*
X151738101Y-87908633D01*
X151749535Y-87946326D01*
X151754000Y-87991661D01*
X151754000Y-88828339D01*
X151749535Y-88873674D01*
X151738101Y-88911367D01*
X151719534Y-88946103D01*
X151694548Y-88976548D01*
X151664103Y-89001534D01*
X151629367Y-89020101D01*
X151591674Y-89031535D01*
X151546339Y-89036000D01*
X150459661Y-89036000D01*
X150414326Y-89031535D01*
X150376633Y-89020101D01*
X150341897Y-89001534D01*
X150311452Y-88976548D01*
X150286466Y-88946103D01*
X150267899Y-88911367D01*
X150256465Y-88873674D01*
X150252000Y-88828339D01*
X150252000Y-87991661D01*
X150256465Y-87946326D01*
X150267899Y-87908633D01*
X150286466Y-87873897D01*
X150311452Y-87843452D01*
X150341897Y-87818466D01*
X150376633Y-87799899D01*
X150414326Y-87788465D01*
X150459661Y-87784000D01*
X151546339Y-87784000D01*
X151591674Y-87788465D01*
G37*
G36*
X137367674Y-87525465D02*
G01*
X137405367Y-87536899D01*
X137440103Y-87555466D01*
X137470548Y-87580452D01*
X137495534Y-87610897D01*
X137514101Y-87645633D01*
X137525535Y-87683326D01*
X137530000Y-87728661D01*
X137530000Y-88565339D01*
X137525535Y-88610674D01*
X137514101Y-88648367D01*
X137495534Y-88683103D01*
X137470548Y-88713548D01*
X137440103Y-88738534D01*
X137405367Y-88757101D01*
X137367674Y-88768535D01*
X137322339Y-88773000D01*
X136235661Y-88773000D01*
X136190326Y-88768535D01*
X136152633Y-88757101D01*
X136117897Y-88738534D01*
X136087452Y-88713548D01*
X136062466Y-88683103D01*
X136043899Y-88648367D01*
X136032465Y-88610674D01*
X136028000Y-88565339D01*
X136028000Y-87728661D01*
X136032465Y-87683326D01*
X136043899Y-87645633D01*
X136062466Y-87610897D01*
X136087452Y-87580452D01*
X136117897Y-87555466D01*
X136152633Y-87536899D01*
X136190326Y-87525465D01*
X136235661Y-87521000D01*
X137322339Y-87521000D01*
X137367674Y-87525465D01*
G37*
G36*
X141177674Y-87525465D02*
G01*
X141215367Y-87536899D01*
X141250103Y-87555466D01*
X141280548Y-87580452D01*
X141305534Y-87610897D01*
X141324101Y-87645633D01*
X141335535Y-87683326D01*
X141340000Y-87728661D01*
X141340000Y-88565339D01*
X141335535Y-88610674D01*
X141324101Y-88648367D01*
X141305534Y-88683103D01*
X141280548Y-88713548D01*
X141250103Y-88738534D01*
X141215367Y-88757101D01*
X141177674Y-88768535D01*
X141132339Y-88773000D01*
X140045661Y-88773000D01*
X140000326Y-88768535D01*
X139962633Y-88757101D01*
X139927897Y-88738534D01*
X139897452Y-88713548D01*
X139872466Y-88683103D01*
X139853899Y-88648367D01*
X139842465Y-88610674D01*
X139838000Y-88565339D01*
X139838000Y-87728661D01*
X139842465Y-87683326D01*
X139853899Y-87645633D01*
X139872466Y-87610897D01*
X139897452Y-87580452D01*
X139927897Y-87555466D01*
X139962633Y-87536899D01*
X140000326Y-87525465D01*
X140045661Y-87521000D01*
X141132339Y-87521000D01*
X141177674Y-87525465D01*
G37*
G36*
X112889999Y-86194737D02*
G01*
X112899608Y-86197652D01*
X112908472Y-86202390D01*
X112916237Y-86208763D01*
X112926448Y-86221206D01*
X112933378Y-86231575D01*
X112950705Y-86248902D01*
X112971080Y-86262515D01*
X112993720Y-86271891D01*
X113017753Y-86276671D01*
X113042257Y-86276670D01*
X113066290Y-86271888D01*
X113088929Y-86262510D01*
X113109302Y-86248895D01*
X113126629Y-86231568D01*
X113133558Y-86221198D01*
X113143763Y-86208763D01*
X113151528Y-86202390D01*
X113160392Y-86197652D01*
X113170001Y-86194737D01*
X113186140Y-86193148D01*
X113673861Y-86193148D01*
X113692199Y-86194954D01*
X113704450Y-86195556D01*
X113722869Y-86195556D01*
X113745149Y-86197750D01*
X113829233Y-86214476D01*
X113850660Y-86220976D01*
X113929858Y-86253780D01*
X113935303Y-86256691D01*
X113935309Y-86256693D01*
X113944169Y-86261429D01*
X113944173Y-86261432D01*
X113949614Y-86264340D01*
X114020899Y-86311971D01*
X114038204Y-86326172D01*
X114098828Y-86386796D01*
X114113029Y-86404101D01*
X114160660Y-86475386D01*
X114163568Y-86480827D01*
X114163571Y-86480831D01*
X114168307Y-86489691D01*
X114168309Y-86489697D01*
X114171220Y-86495142D01*
X114204024Y-86574340D01*
X114210524Y-86595767D01*
X114227250Y-86679851D01*
X114229444Y-86702131D01*
X114229444Y-86720550D01*
X114230046Y-86732801D01*
X114231852Y-86751139D01*
X114231852Y-87238862D01*
X114230046Y-87257199D01*
X114229444Y-87269450D01*
X114229444Y-87287869D01*
X114227250Y-87310149D01*
X114210524Y-87394233D01*
X114204024Y-87415660D01*
X114171220Y-87494858D01*
X114168309Y-87500303D01*
X114168307Y-87500309D01*
X114163571Y-87509169D01*
X114163568Y-87509173D01*
X114160660Y-87514614D01*
X114113029Y-87585899D01*
X114098828Y-87603204D01*
X114038204Y-87663828D01*
X114020899Y-87678029D01*
X113949614Y-87725660D01*
X113944173Y-87728568D01*
X113944169Y-87728571D01*
X113935309Y-87733307D01*
X113935303Y-87733309D01*
X113929858Y-87736220D01*
X113850660Y-87769024D01*
X113829233Y-87775524D01*
X113745149Y-87792250D01*
X113722869Y-87794444D01*
X113704450Y-87794444D01*
X113692199Y-87795046D01*
X113673862Y-87796852D01*
X113186140Y-87796852D01*
X113170001Y-87795263D01*
X113160392Y-87792348D01*
X113151528Y-87787610D01*
X113143763Y-87781237D01*
X113133552Y-87768794D01*
X113126622Y-87758425D01*
X113109295Y-87741098D01*
X113088920Y-87727485D01*
X113066280Y-87718109D01*
X113042247Y-87713329D01*
X113017743Y-87713330D01*
X112993710Y-87718112D01*
X112971071Y-87727490D01*
X112950698Y-87741105D01*
X112933371Y-87758432D01*
X112926442Y-87768802D01*
X112916237Y-87781237D01*
X112908472Y-87787610D01*
X112899608Y-87792348D01*
X112889999Y-87795263D01*
X112873860Y-87796852D01*
X112386138Y-87796852D01*
X112367801Y-87795046D01*
X112355550Y-87794444D01*
X112337131Y-87794444D01*
X112314851Y-87792250D01*
X112230767Y-87775524D01*
X112209340Y-87769024D01*
X112130142Y-87736220D01*
X112124697Y-87733309D01*
X112124691Y-87733307D01*
X112115831Y-87728571D01*
X112115827Y-87728568D01*
X112110386Y-87725660D01*
X112039101Y-87678029D01*
X112021796Y-87663828D01*
X111961172Y-87603204D01*
X111946971Y-87585899D01*
X111899340Y-87514614D01*
X111896432Y-87509173D01*
X111896429Y-87509169D01*
X111891693Y-87500309D01*
X111891691Y-87500303D01*
X111888780Y-87494858D01*
X111855976Y-87415660D01*
X111849476Y-87394233D01*
X111832750Y-87310149D01*
X111830556Y-87287869D01*
X111830556Y-87269450D01*
X111829954Y-87257199D01*
X111828148Y-87238862D01*
X111828148Y-86751139D01*
X111829954Y-86732801D01*
X111830556Y-86720550D01*
X111830556Y-86702131D01*
X111832750Y-86679851D01*
X111849476Y-86595767D01*
X111855976Y-86574340D01*
X111888780Y-86495142D01*
X111891691Y-86489697D01*
X111891693Y-86489691D01*
X111896429Y-86480831D01*
X111896432Y-86480827D01*
X111899340Y-86475386D01*
X111946971Y-86404101D01*
X111961172Y-86386796D01*
X112021796Y-86326172D01*
X112039101Y-86311971D01*
X112110386Y-86264340D01*
X112115827Y-86261432D01*
X112115831Y-86261429D01*
X112124691Y-86256693D01*
X112124697Y-86256691D01*
X112130142Y-86253780D01*
X112209340Y-86220976D01*
X112230767Y-86214476D01*
X112314851Y-86197750D01*
X112337131Y-86195556D01*
X112355550Y-86195556D01*
X112367801Y-86194954D01*
X112386139Y-86193148D01*
X112873860Y-86193148D01*
X112889999Y-86194737D01*
G37*
G36*
X119112999Y-86194737D02*
G01*
X119122608Y-86197652D01*
X119131472Y-86202390D01*
X119139237Y-86208763D01*
X119149448Y-86221206D01*
X119156378Y-86231575D01*
X119173705Y-86248902D01*
X119194080Y-86262515D01*
X119216720Y-86271891D01*
X119240753Y-86276671D01*
X119265257Y-86276670D01*
X119289290Y-86271888D01*
X119311929Y-86262510D01*
X119332302Y-86248895D01*
X119349629Y-86231568D01*
X119356558Y-86221198D01*
X119366763Y-86208763D01*
X119374528Y-86202390D01*
X119383392Y-86197652D01*
X119393001Y-86194737D01*
X119409140Y-86193148D01*
X119896861Y-86193148D01*
X119915199Y-86194954D01*
X119927450Y-86195556D01*
X119945869Y-86195556D01*
X119968149Y-86197750D01*
X120052233Y-86214476D01*
X120073660Y-86220976D01*
X120152858Y-86253780D01*
X120158303Y-86256691D01*
X120158309Y-86256693D01*
X120167169Y-86261429D01*
X120167173Y-86261432D01*
X120172614Y-86264340D01*
X120243899Y-86311971D01*
X120261204Y-86326172D01*
X120321828Y-86386796D01*
X120336029Y-86404101D01*
X120383660Y-86475386D01*
X120386568Y-86480827D01*
X120386571Y-86480831D01*
X120391307Y-86489691D01*
X120391309Y-86489697D01*
X120394220Y-86495142D01*
X120427024Y-86574340D01*
X120433524Y-86595767D01*
X120450250Y-86679851D01*
X120452444Y-86702131D01*
X120452444Y-86720550D01*
X120453046Y-86732801D01*
X120454852Y-86751139D01*
X120454852Y-87238862D01*
X120453046Y-87257199D01*
X120452444Y-87269450D01*
X120452444Y-87287869D01*
X120450250Y-87310149D01*
X120433524Y-87394233D01*
X120427024Y-87415660D01*
X120394220Y-87494858D01*
X120391309Y-87500303D01*
X120391307Y-87500309D01*
X120386571Y-87509169D01*
X120386568Y-87509173D01*
X120383660Y-87514614D01*
X120336029Y-87585899D01*
X120321828Y-87603204D01*
X120261204Y-87663828D01*
X120243899Y-87678029D01*
X120172614Y-87725660D01*
X120167173Y-87728568D01*
X120167169Y-87728571D01*
X120158309Y-87733307D01*
X120158303Y-87733309D01*
X120152858Y-87736220D01*
X120073660Y-87769024D01*
X120052233Y-87775524D01*
X119968149Y-87792250D01*
X119945869Y-87794444D01*
X119927450Y-87794444D01*
X119915199Y-87795046D01*
X119896862Y-87796852D01*
X119409140Y-87796852D01*
X119393001Y-87795263D01*
X119383392Y-87792348D01*
X119374528Y-87787610D01*
X119366763Y-87781237D01*
X119356552Y-87768794D01*
X119349622Y-87758425D01*
X119332295Y-87741098D01*
X119311920Y-87727485D01*
X119289280Y-87718109D01*
X119265247Y-87713329D01*
X119240743Y-87713330D01*
X119216710Y-87718112D01*
X119194071Y-87727490D01*
X119173698Y-87741105D01*
X119156371Y-87758432D01*
X119149442Y-87768802D01*
X119139237Y-87781237D01*
X119131472Y-87787610D01*
X119122608Y-87792348D01*
X119112999Y-87795263D01*
X119096860Y-87796852D01*
X118609138Y-87796852D01*
X118590801Y-87795046D01*
X118578550Y-87794444D01*
X118560131Y-87794444D01*
X118537851Y-87792250D01*
X118453767Y-87775524D01*
X118432340Y-87769024D01*
X118353142Y-87736220D01*
X118347697Y-87733309D01*
X118347691Y-87733307D01*
X118338831Y-87728571D01*
X118338827Y-87728568D01*
X118333386Y-87725660D01*
X118262101Y-87678029D01*
X118244796Y-87663828D01*
X118184172Y-87603204D01*
X118169971Y-87585899D01*
X118122340Y-87514614D01*
X118119432Y-87509173D01*
X118119429Y-87509169D01*
X118114693Y-87500309D01*
X118114691Y-87500303D01*
X118111780Y-87494858D01*
X118078976Y-87415660D01*
X118072476Y-87394233D01*
X118055750Y-87310149D01*
X118053556Y-87287869D01*
X118053556Y-87269450D01*
X118052954Y-87257199D01*
X118051148Y-87238862D01*
X118051148Y-86751139D01*
X118052954Y-86732801D01*
X118053556Y-86720550D01*
X118053556Y-86702131D01*
X118055750Y-86679851D01*
X118072476Y-86595767D01*
X118078976Y-86574340D01*
X118111780Y-86495142D01*
X118114691Y-86489697D01*
X118114693Y-86489691D01*
X118119429Y-86480831D01*
X118119432Y-86480827D01*
X118122340Y-86475386D01*
X118169971Y-86404101D01*
X118184172Y-86386796D01*
X118244796Y-86326172D01*
X118262101Y-86311971D01*
X118333386Y-86264340D01*
X118338827Y-86261432D01*
X118338831Y-86261429D01*
X118347691Y-86256693D01*
X118347697Y-86256691D01*
X118353142Y-86253780D01*
X118432340Y-86220976D01*
X118453767Y-86214476D01*
X118537851Y-86197750D01*
X118560131Y-86195556D01*
X118578550Y-86195556D01*
X118590801Y-86194954D01*
X118609139Y-86193148D01*
X119096860Y-86193148D01*
X119112999Y-86194737D01*
G37*
G36*
X162673512Y-85463927D02*
G01*
X162822812Y-85493624D01*
X162986784Y-85561544D01*
X163134354Y-85660147D01*
X163259853Y-85785646D01*
X163358456Y-85933216D01*
X163426376Y-86097188D01*
X163461000Y-86271259D01*
X163461000Y-86448741D01*
X163426376Y-86622812D01*
X163358456Y-86786784D01*
X163259853Y-86934354D01*
X163134354Y-87059853D01*
X162986784Y-87158456D01*
X162822812Y-87226376D01*
X162678916Y-87254998D01*
X162648742Y-87261000D01*
X162471258Y-87261000D01*
X162441084Y-87254998D01*
X162297188Y-87226376D01*
X162133216Y-87158456D01*
X161985646Y-87059853D01*
X161860147Y-86934354D01*
X161761544Y-86786784D01*
X161693624Y-86622812D01*
X161659000Y-86448741D01*
X161659000Y-86271259D01*
X161693624Y-86097188D01*
X161761544Y-85933216D01*
X161860147Y-85785646D01*
X161985646Y-85660147D01*
X162133216Y-85561544D01*
X162297188Y-85493624D01*
X162446488Y-85463927D01*
X162471258Y-85459000D01*
X162648742Y-85459000D01*
X162673512Y-85463927D01*
G37*
G36*
X158863512Y-85463927D02*
G01*
X159012812Y-85493624D01*
X159176784Y-85561544D01*
X159324354Y-85660147D01*
X159449853Y-85785646D01*
X159548456Y-85933216D01*
X159616376Y-86097188D01*
X159651000Y-86271259D01*
X159651000Y-86448741D01*
X159616376Y-86622812D01*
X159548456Y-86786784D01*
X159449853Y-86934354D01*
X159324354Y-87059853D01*
X159176784Y-87158456D01*
X159012812Y-87226376D01*
X158868916Y-87254998D01*
X158838742Y-87261000D01*
X158661258Y-87261000D01*
X158631084Y-87254998D01*
X158487188Y-87226376D01*
X158323216Y-87158456D01*
X158175646Y-87059853D01*
X158050147Y-86934354D01*
X157951544Y-86786784D01*
X157883624Y-86622812D01*
X157849000Y-86448741D01*
X157849000Y-86271259D01*
X157883624Y-86097188D01*
X157951544Y-85933216D01*
X158050147Y-85785646D01*
X158175646Y-85660147D01*
X158323216Y-85561544D01*
X158487188Y-85493624D01*
X158636488Y-85463927D01*
X158661258Y-85459000D01*
X158838742Y-85459000D01*
X158863512Y-85463927D01*
G37*
G36*
X147402674Y-85613465D02*
G01*
X147440367Y-85624899D01*
X147475103Y-85643466D01*
X147505548Y-85668452D01*
X147530534Y-85698897D01*
X147549101Y-85733633D01*
X147560535Y-85771326D01*
X147565000Y-85816661D01*
X147565000Y-86903339D01*
X147560535Y-86948674D01*
X147549101Y-86986367D01*
X147530534Y-87021103D01*
X147505548Y-87051548D01*
X147475103Y-87076534D01*
X147440367Y-87095101D01*
X147402674Y-87106535D01*
X147357339Y-87111000D01*
X146520661Y-87111000D01*
X146475326Y-87106535D01*
X146437633Y-87095101D01*
X146402897Y-87076534D01*
X146372452Y-87051548D01*
X146347466Y-87021103D01*
X146328899Y-86986367D01*
X146317465Y-86948674D01*
X146313000Y-86903339D01*
X146313000Y-85816661D01*
X146317465Y-85771326D01*
X146328899Y-85733633D01*
X146347466Y-85698897D01*
X146372452Y-85668452D01*
X146402897Y-85643466D01*
X146437633Y-85624899D01*
X146475326Y-85613465D01*
X146520661Y-85609000D01*
X147357339Y-85609000D01*
X147402674Y-85613465D01*
G37*
G36*
X145352674Y-85613465D02*
G01*
X145390367Y-85624899D01*
X145425103Y-85643466D01*
X145455548Y-85668452D01*
X145480534Y-85698897D01*
X145499101Y-85733633D01*
X145510535Y-85771326D01*
X145515000Y-85816661D01*
X145515000Y-86903339D01*
X145510535Y-86948674D01*
X145499101Y-86986367D01*
X145480534Y-87021103D01*
X145455548Y-87051548D01*
X145425103Y-87076534D01*
X145390367Y-87095101D01*
X145352674Y-87106535D01*
X145307339Y-87111000D01*
X144470661Y-87111000D01*
X144425326Y-87106535D01*
X144387633Y-87095101D01*
X144352897Y-87076534D01*
X144322452Y-87051548D01*
X144297466Y-87021103D01*
X144278899Y-86986367D01*
X144267465Y-86948674D01*
X144263000Y-86903339D01*
X144263000Y-85816661D01*
X144267465Y-85771326D01*
X144278899Y-85733633D01*
X144297466Y-85698897D01*
X144322452Y-85668452D01*
X144352897Y-85643466D01*
X144387633Y-85624899D01*
X144425326Y-85613465D01*
X144470661Y-85609000D01*
X145307339Y-85609000D01*
X145352674Y-85613465D01*
G37*
G36*
X151591674Y-85738465D02*
G01*
X151629367Y-85749899D01*
X151664103Y-85768466D01*
X151694548Y-85793452D01*
X151719534Y-85823897D01*
X151738101Y-85858633D01*
X151749535Y-85896326D01*
X151754000Y-85941661D01*
X151754000Y-86778339D01*
X151749535Y-86823674D01*
X151738101Y-86861367D01*
X151719534Y-86896103D01*
X151694548Y-86926548D01*
X151664103Y-86951534D01*
X151629367Y-86970101D01*
X151591674Y-86981535D01*
X151546339Y-86986000D01*
X150459661Y-86986000D01*
X150414326Y-86981535D01*
X150376633Y-86970101D01*
X150341897Y-86951534D01*
X150311452Y-86926548D01*
X150286466Y-86896103D01*
X150267899Y-86861367D01*
X150256465Y-86823674D01*
X150252000Y-86778339D01*
X150252000Y-85941661D01*
X150256465Y-85896326D01*
X150267899Y-85858633D01*
X150286466Y-85823897D01*
X150311452Y-85793452D01*
X150341897Y-85768466D01*
X150376633Y-85749899D01*
X150414326Y-85738465D01*
X150459661Y-85734000D01*
X151546339Y-85734000D01*
X151591674Y-85738465D01*
G37*
G36*
X141177674Y-85475465D02*
G01*
X141215367Y-85486899D01*
X141250103Y-85505466D01*
X141280548Y-85530452D01*
X141305534Y-85560897D01*
X141324101Y-85595633D01*
X141335535Y-85633326D01*
X141340000Y-85678661D01*
X141340000Y-86515339D01*
X141335535Y-86560674D01*
X141324101Y-86598367D01*
X141305534Y-86633103D01*
X141280548Y-86663548D01*
X141250103Y-86688534D01*
X141215367Y-86707101D01*
X141177674Y-86718535D01*
X141132339Y-86723000D01*
X140045661Y-86723000D01*
X140000326Y-86718535D01*
X139962633Y-86707101D01*
X139927897Y-86688534D01*
X139897452Y-86663548D01*
X139872466Y-86633103D01*
X139853899Y-86598367D01*
X139842465Y-86560674D01*
X139838000Y-86515339D01*
X139838000Y-85678661D01*
X139842465Y-85633326D01*
X139853899Y-85595633D01*
X139872466Y-85560897D01*
X139897452Y-85530452D01*
X139927897Y-85505466D01*
X139962633Y-85486899D01*
X140000326Y-85475465D01*
X140045661Y-85471000D01*
X141132339Y-85471000D01*
X141177674Y-85475465D01*
G37*
G36*
X137367674Y-85475465D02*
G01*
X137405367Y-85486899D01*
X137440103Y-85505466D01*
X137470548Y-85530452D01*
X137495534Y-85560897D01*
X137514101Y-85595633D01*
X137525535Y-85633326D01*
X137530000Y-85678661D01*
X137530000Y-86515339D01*
X137525535Y-86560674D01*
X137514101Y-86598367D01*
X137495534Y-86633103D01*
X137470548Y-86663548D01*
X137440103Y-86688534D01*
X137405367Y-86707101D01*
X137367674Y-86718535D01*
X137322339Y-86723000D01*
X136235661Y-86723000D01*
X136190326Y-86718535D01*
X136152633Y-86707101D01*
X136117897Y-86688534D01*
X136087452Y-86663548D01*
X136062466Y-86633103D01*
X136043899Y-86598367D01*
X136032465Y-86560674D01*
X136028000Y-86515339D01*
X136028000Y-85678661D01*
X136032465Y-85633326D01*
X136043899Y-85595633D01*
X136062466Y-85560897D01*
X136087452Y-85530452D01*
X136117897Y-85505466D01*
X136152633Y-85486899D01*
X136190326Y-85475465D01*
X136235661Y-85471000D01*
X137322339Y-85471000D01*
X137367674Y-85475465D01*
G37*
G36*
X162669228Y-82923075D02*
G01*
X162822812Y-82953624D01*
X162986784Y-83021544D01*
X163134354Y-83120147D01*
X163259853Y-83245646D01*
X163358456Y-83393216D01*
X163426376Y-83557188D01*
X163461000Y-83731259D01*
X163461000Y-83908741D01*
X163426376Y-84082812D01*
X163358456Y-84246784D01*
X163259853Y-84394354D01*
X163134354Y-84519853D01*
X162986784Y-84618456D01*
X162822812Y-84686376D01*
X162673512Y-84716073D01*
X162648742Y-84721000D01*
X162471258Y-84721000D01*
X162446488Y-84716073D01*
X162297188Y-84686376D01*
X162133216Y-84618456D01*
X161985646Y-84519853D01*
X161860147Y-84394354D01*
X161761544Y-84246784D01*
X161693624Y-84082812D01*
X161659000Y-83908741D01*
X161659000Y-83731259D01*
X161693624Y-83557188D01*
X161761544Y-83393216D01*
X161860147Y-83245646D01*
X161985646Y-83120147D01*
X162133216Y-83021544D01*
X162297188Y-82953624D01*
X162450772Y-82923075D01*
X162471258Y-82919000D01*
X162648742Y-82919000D01*
X162669228Y-82923075D01*
G37*
G36*
X158859228Y-82923075D02*
G01*
X159012812Y-82953624D01*
X159176784Y-83021544D01*
X159324354Y-83120147D01*
X159449853Y-83245646D01*
X159548456Y-83393216D01*
X159616376Y-83557188D01*
X159651000Y-83731259D01*
X159651000Y-83908741D01*
X159616376Y-84082812D01*
X159548456Y-84246784D01*
X159449853Y-84394354D01*
X159324354Y-84519853D01*
X159176784Y-84618456D01*
X159012812Y-84686376D01*
X158863512Y-84716073D01*
X158838742Y-84721000D01*
X158661258Y-84721000D01*
X158636488Y-84716073D01*
X158487188Y-84686376D01*
X158323216Y-84618456D01*
X158175646Y-84519853D01*
X158050147Y-84394354D01*
X157951544Y-84246784D01*
X157883624Y-84082812D01*
X157849000Y-83908741D01*
X157849000Y-83731259D01*
X157883624Y-83557188D01*
X157951544Y-83393216D01*
X158050147Y-83245646D01*
X158175646Y-83120147D01*
X158323216Y-83021544D01*
X158487188Y-82953624D01*
X158640772Y-82923075D01*
X158661258Y-82919000D01*
X158838742Y-82919000D01*
X158859228Y-82923075D01*
G37*
G36*
X151591674Y-82708465D02*
G01*
X151629367Y-82719899D01*
X151664103Y-82738466D01*
X151694548Y-82763452D01*
X151719534Y-82793897D01*
X151738101Y-82828633D01*
X151749535Y-82866326D01*
X151754000Y-82911661D01*
X151754000Y-83748339D01*
X151749535Y-83793674D01*
X151738101Y-83831367D01*
X151719534Y-83866103D01*
X151694548Y-83896548D01*
X151664103Y-83921534D01*
X151629367Y-83940101D01*
X151591674Y-83951535D01*
X151546339Y-83956000D01*
X150459661Y-83956000D01*
X150414326Y-83951535D01*
X150376633Y-83940101D01*
X150341897Y-83921534D01*
X150311452Y-83896548D01*
X150286466Y-83866103D01*
X150267899Y-83831367D01*
X150256465Y-83793674D01*
X150252000Y-83748339D01*
X150252000Y-82911661D01*
X150256465Y-82866326D01*
X150267899Y-82828633D01*
X150286466Y-82793897D01*
X150311452Y-82763452D01*
X150341897Y-82738466D01*
X150376633Y-82719899D01*
X150414326Y-82708465D01*
X150459661Y-82704000D01*
X151546339Y-82704000D01*
X151591674Y-82708465D01*
G37*
G36*
X162673512Y-80383927D02*
G01*
X162822812Y-80413624D01*
X162986784Y-80481544D01*
X163134354Y-80580147D01*
X163259853Y-80705646D01*
X163358456Y-80853216D01*
X163426376Y-81017188D01*
X163461000Y-81191259D01*
X163461000Y-81368741D01*
X163426376Y-81542812D01*
X163358456Y-81706784D01*
X163259853Y-81854354D01*
X163134354Y-81979853D01*
X162986784Y-82078456D01*
X162822812Y-82146376D01*
X162673512Y-82176073D01*
X162648742Y-82181000D01*
X162471258Y-82181000D01*
X162446488Y-82176073D01*
X162297188Y-82146376D01*
X162133216Y-82078456D01*
X161985646Y-81979853D01*
X161860147Y-81854354D01*
X161761544Y-81706784D01*
X161693624Y-81542812D01*
X161659000Y-81368741D01*
X161659000Y-81191259D01*
X161693624Y-81017188D01*
X161761544Y-80853216D01*
X161860147Y-80705646D01*
X161985646Y-80580147D01*
X162133216Y-80481544D01*
X162297188Y-80413624D01*
X162446488Y-80383927D01*
X162471258Y-80379000D01*
X162648742Y-80379000D01*
X162673512Y-80383927D01*
G37*
G36*
X158863512Y-80383927D02*
G01*
X159012812Y-80413624D01*
X159176784Y-80481544D01*
X159324354Y-80580147D01*
X159449853Y-80705646D01*
X159548456Y-80853216D01*
X159616376Y-81017188D01*
X159651000Y-81191259D01*
X159651000Y-81368741D01*
X159616376Y-81542812D01*
X159548456Y-81706784D01*
X159449853Y-81854354D01*
X159324354Y-81979853D01*
X159176784Y-82078456D01*
X159012812Y-82146376D01*
X158863512Y-82176073D01*
X158838742Y-82181000D01*
X158661258Y-82181000D01*
X158636488Y-82176073D01*
X158487188Y-82146376D01*
X158323216Y-82078456D01*
X158175646Y-81979853D01*
X158050147Y-81854354D01*
X157951544Y-81706784D01*
X157883624Y-81542812D01*
X157849000Y-81368741D01*
X157849000Y-81191259D01*
X157883624Y-81017188D01*
X157951544Y-80853216D01*
X158050147Y-80705646D01*
X158175646Y-80580147D01*
X158323216Y-80481544D01*
X158487188Y-80413624D01*
X158636488Y-80383927D01*
X158661258Y-80379000D01*
X158838742Y-80379000D01*
X158863512Y-80383927D01*
G37*
G36*
X147402674Y-80533465D02*
G01*
X147440367Y-80544899D01*
X147475103Y-80563466D01*
X147505548Y-80588452D01*
X147530534Y-80618897D01*
X147549101Y-80653633D01*
X147560535Y-80691326D01*
X147565000Y-80736661D01*
X147565000Y-81823339D01*
X147560535Y-81868674D01*
X147549101Y-81906367D01*
X147530534Y-81941103D01*
X147505548Y-81971548D01*
X147475103Y-81996534D01*
X147440367Y-82015101D01*
X147402674Y-82026535D01*
X147357339Y-82031000D01*
X146520661Y-82031000D01*
X146475326Y-82026535D01*
X146437633Y-82015101D01*
X146402897Y-81996534D01*
X146372452Y-81971548D01*
X146347466Y-81941103D01*
X146328899Y-81906367D01*
X146317465Y-81868674D01*
X146313000Y-81823339D01*
X146313000Y-80736661D01*
X146317465Y-80691326D01*
X146328899Y-80653633D01*
X146347466Y-80618897D01*
X146372452Y-80588452D01*
X146402897Y-80563466D01*
X146437633Y-80544899D01*
X146475326Y-80533465D01*
X146520661Y-80529000D01*
X147357339Y-80529000D01*
X147402674Y-80533465D01*
G37*
G36*
X145352674Y-80533465D02*
G01*
X145390367Y-80544899D01*
X145425103Y-80563466D01*
X145455548Y-80588452D01*
X145480534Y-80618897D01*
X145499101Y-80653633D01*
X145510535Y-80691326D01*
X145515000Y-80736661D01*
X145515000Y-81823339D01*
X145510535Y-81868674D01*
X145499101Y-81906367D01*
X145480534Y-81941103D01*
X145455548Y-81971548D01*
X145425103Y-81996534D01*
X145390367Y-82015101D01*
X145352674Y-82026535D01*
X145307339Y-82031000D01*
X144470661Y-82031000D01*
X144425326Y-82026535D01*
X144387633Y-82015101D01*
X144352897Y-81996534D01*
X144322452Y-81971548D01*
X144297466Y-81941103D01*
X144278899Y-81906367D01*
X144267465Y-81868674D01*
X144263000Y-81823339D01*
X144263000Y-80736661D01*
X144267465Y-80691326D01*
X144278899Y-80653633D01*
X144297466Y-80618897D01*
X144322452Y-80588452D01*
X144352897Y-80563466D01*
X144387633Y-80544899D01*
X144425326Y-80533465D01*
X144470661Y-80529000D01*
X145307339Y-80529000D01*
X145352674Y-80533465D01*
G37*
G36*
X151591674Y-80658465D02*
G01*
X151629367Y-80669899D01*
X151664103Y-80688466D01*
X151694548Y-80713452D01*
X151719534Y-80743897D01*
X151738101Y-80778633D01*
X151749535Y-80816326D01*
X151754000Y-80861661D01*
X151754000Y-81698339D01*
X151749535Y-81743674D01*
X151738101Y-81781367D01*
X151719534Y-81816103D01*
X151694548Y-81846548D01*
X151664103Y-81871534D01*
X151629367Y-81890101D01*
X151591674Y-81901535D01*
X151546339Y-81906000D01*
X150459661Y-81906000D01*
X150414326Y-81901535D01*
X150376633Y-81890101D01*
X150341897Y-81871534D01*
X150311452Y-81846548D01*
X150286466Y-81816103D01*
X150267899Y-81781367D01*
X150256465Y-81743674D01*
X150252000Y-81698339D01*
X150252000Y-80861661D01*
X150256465Y-80816326D01*
X150267899Y-80778633D01*
X150286466Y-80743897D01*
X150311452Y-80713452D01*
X150341897Y-80688466D01*
X150376633Y-80669899D01*
X150414326Y-80658465D01*
X150459661Y-80654000D01*
X151546339Y-80654000D01*
X151591674Y-80658465D01*
G37*
G36*
X108348500Y-80931886D02*
G01*
X108349102Y-80944138D01*
X108351649Y-80970000D01*
X108349102Y-80995862D01*
X108348500Y-81008114D01*
X108348500Y-81081406D01*
X108339543Y-81098164D01*
X108335415Y-81109701D01*
X108310675Y-81191258D01*
X108301854Y-81220336D01*
X108241406Y-81333425D01*
X108160054Y-81432554D01*
X108060925Y-81513906D01*
X107947836Y-81574354D01*
X107915904Y-81584040D01*
X107825118Y-81611580D01*
X107761355Y-81617860D01*
X107729474Y-81621000D01*
X106965526Y-81621000D01*
X106933645Y-81617860D01*
X106869882Y-81611580D01*
X106779096Y-81584040D01*
X106747164Y-81574354D01*
X106634075Y-81513906D01*
X106534946Y-81432554D01*
X106453594Y-81333425D01*
X106393146Y-81220336D01*
X106384325Y-81191258D01*
X106359587Y-81109708D01*
X106350213Y-81087075D01*
X106346500Y-81081518D01*
X106346500Y-81008114D01*
X106345898Y-80995862D01*
X106343351Y-80970000D01*
X106345898Y-80944138D01*
X106346500Y-80931886D01*
X106346500Y-79719000D01*
X108348500Y-79719000D01*
X108348500Y-80931886D01*
G37*
G36*
X141026000Y-81615000D02*
G01*
X132024000Y-81615000D01*
X132024000Y-79763000D01*
X141026000Y-79763000D01*
X141026000Y-81615000D01*
G37*
G36*
X110273848Y-74223820D02*
G01*
X110273850Y-74223821D01*
X110273851Y-74223821D01*
X110415074Y-74282317D01*
X110415077Y-74282319D01*
X110542169Y-74367239D01*
X110650261Y-74475331D01*
X110735181Y-74602423D01*
X110735183Y-74602426D01*
X110793679Y-74743649D01*
X110823500Y-74893571D01*
X110823500Y-75046429D01*
X110793679Y-75196351D01*
X110735183Y-75337574D01*
X110735181Y-75337577D01*
X110650261Y-75464669D01*
X110542169Y-75572761D01*
X110463019Y-75625647D01*
X110415074Y-75657683D01*
X110364772Y-75678519D01*
X110343164Y-75690068D01*
X110324222Y-75705614D01*
X110308677Y-75724556D01*
X110297126Y-75746166D01*
X110290013Y-75769615D01*
X110287611Y-75794001D01*
X110290013Y-75818387D01*
X110297126Y-75841836D01*
X110308677Y-75863447D01*
X110324223Y-75882389D01*
X110343165Y-75897934D01*
X110364775Y-75909485D01*
X110388224Y-75916598D01*
X110412610Y-75919000D01*
X110773500Y-75919000D01*
X110773500Y-79021000D01*
X110412610Y-79021000D01*
X110388224Y-79023402D01*
X110364775Y-79030515D01*
X110343164Y-79042066D01*
X110324222Y-79057611D01*
X110308677Y-79076553D01*
X110297126Y-79098164D01*
X110290013Y-79121613D01*
X110287611Y-79145999D01*
X110290013Y-79170385D01*
X110297126Y-79193834D01*
X110308677Y-79215445D01*
X110324222Y-79234387D01*
X110343164Y-79249932D01*
X110364772Y-79261481D01*
X110415074Y-79282317D01*
X110421008Y-79286282D01*
X110542169Y-79367239D01*
X110650261Y-79475331D01*
X110735181Y-79602423D01*
X110735183Y-79602426D01*
X110783469Y-79719000D01*
X110793680Y-79743652D01*
X110823500Y-79893569D01*
X110823500Y-80046429D01*
X110793679Y-80196351D01*
X110735183Y-80337574D01*
X110735181Y-80337577D01*
X110650261Y-80464669D01*
X110542169Y-80572761D01*
X110491564Y-80606574D01*
X110415074Y-80657683D01*
X110273851Y-80716179D01*
X110273850Y-80716179D01*
X110273848Y-80716180D01*
X110123931Y-80746000D01*
X109971069Y-80746000D01*
X109821152Y-80716180D01*
X109821150Y-80716179D01*
X109821149Y-80716179D01*
X109679926Y-80657683D01*
X109603436Y-80606574D01*
X109552831Y-80572761D01*
X109444739Y-80464669D01*
X109359819Y-80337577D01*
X109359817Y-80337574D01*
X109301321Y-80196351D01*
X109271500Y-80046429D01*
X109271500Y-79893569D01*
X109301320Y-79743652D01*
X109311531Y-79719000D01*
X109359817Y-79602426D01*
X109359819Y-79602423D01*
X109444739Y-79475331D01*
X109552831Y-79367239D01*
X109673992Y-79286282D01*
X109679926Y-79282317D01*
X109730228Y-79261481D01*
X109751836Y-79249932D01*
X109770778Y-79234386D01*
X109786323Y-79215444D01*
X109797874Y-79193834D01*
X109804987Y-79170385D01*
X109807389Y-79145999D01*
X109804987Y-79121613D01*
X109797874Y-79098164D01*
X109786323Y-79076553D01*
X109770777Y-79057611D01*
X109751835Y-79042066D01*
X109730225Y-79030515D01*
X109706776Y-79023402D01*
X109682390Y-79021000D01*
X109321500Y-79021000D01*
X109321500Y-75919000D01*
X109682390Y-75919000D01*
X109706776Y-75916598D01*
X109730225Y-75909485D01*
X109751836Y-75897934D01*
X109770778Y-75882389D01*
X109786323Y-75863447D01*
X109797874Y-75841836D01*
X109804987Y-75818387D01*
X109807389Y-75794001D01*
X109804987Y-75769615D01*
X109797874Y-75746166D01*
X109786323Y-75724555D01*
X109770778Y-75705613D01*
X109751836Y-75690068D01*
X109730228Y-75678519D01*
X109679926Y-75657683D01*
X109631981Y-75625647D01*
X109552831Y-75572761D01*
X109444739Y-75464669D01*
X109359819Y-75337577D01*
X109359817Y-75337574D01*
X109301321Y-75196351D01*
X109271500Y-75046429D01*
X109271500Y-74893571D01*
X109301321Y-74743649D01*
X109359817Y-74602426D01*
X109359819Y-74602423D01*
X109444739Y-74475331D01*
X109552831Y-74367239D01*
X109679923Y-74282319D01*
X109679926Y-74282317D01*
X109821149Y-74223821D01*
X109821150Y-74223821D01*
X109821152Y-74223820D01*
X109971069Y-74194000D01*
X110123931Y-74194000D01*
X110273848Y-74223820D01*
G37*
G36*
X162673512Y-77843927D02*
G01*
X162822812Y-77873624D01*
X162986784Y-77941544D01*
X163134354Y-78040147D01*
X163259853Y-78165646D01*
X163358456Y-78313216D01*
X163426376Y-78477188D01*
X163461000Y-78651259D01*
X163461000Y-78828741D01*
X163426376Y-79002812D01*
X163358456Y-79166784D01*
X163259853Y-79314354D01*
X163134354Y-79439853D01*
X162986784Y-79538456D01*
X162822812Y-79606376D01*
X162673512Y-79636073D01*
X162648742Y-79641000D01*
X162471258Y-79641000D01*
X162446488Y-79636073D01*
X162297188Y-79606376D01*
X162133216Y-79538456D01*
X161985646Y-79439853D01*
X161860147Y-79314354D01*
X161761544Y-79166784D01*
X161693624Y-79002812D01*
X161659000Y-78828741D01*
X161659000Y-78651259D01*
X161693624Y-78477188D01*
X161761544Y-78313216D01*
X161860147Y-78165646D01*
X161985646Y-78040147D01*
X162133216Y-77941544D01*
X162297188Y-77873624D01*
X162446488Y-77843927D01*
X162471258Y-77839000D01*
X162648742Y-77839000D01*
X162673512Y-77843927D01*
G37*
G36*
X158863512Y-77843927D02*
G01*
X159012812Y-77873624D01*
X159176784Y-77941544D01*
X159324354Y-78040147D01*
X159449853Y-78165646D01*
X159548456Y-78313216D01*
X159616376Y-78477188D01*
X159651000Y-78651259D01*
X159651000Y-78828741D01*
X159616376Y-79002812D01*
X159548456Y-79166784D01*
X159449853Y-79314354D01*
X159324354Y-79439853D01*
X159176784Y-79538456D01*
X159012812Y-79606376D01*
X158863512Y-79636073D01*
X158838742Y-79641000D01*
X158661258Y-79641000D01*
X158636488Y-79636073D01*
X158487188Y-79606376D01*
X158323216Y-79538456D01*
X158175646Y-79439853D01*
X158050147Y-79314354D01*
X157951544Y-79166784D01*
X157883624Y-79002812D01*
X157849000Y-78828741D01*
X157849000Y-78651259D01*
X157883624Y-78477188D01*
X157951544Y-78313216D01*
X158050147Y-78165646D01*
X158175646Y-78040147D01*
X158323216Y-77941544D01*
X158487188Y-77873624D01*
X158636488Y-77843927D01*
X158661258Y-77839000D01*
X158838742Y-77839000D01*
X158863512Y-77843927D01*
G37*
G36*
X147402674Y-77993465D02*
G01*
X147440367Y-78004899D01*
X147475103Y-78023466D01*
X147505548Y-78048452D01*
X147530534Y-78078897D01*
X147549101Y-78113633D01*
X147560535Y-78151326D01*
X147565000Y-78196661D01*
X147565000Y-79283339D01*
X147560535Y-79328674D01*
X147549101Y-79366367D01*
X147530534Y-79401103D01*
X147505548Y-79431548D01*
X147475103Y-79456534D01*
X147440367Y-79475101D01*
X147402674Y-79486535D01*
X147357339Y-79491000D01*
X146520661Y-79491000D01*
X146475326Y-79486535D01*
X146437633Y-79475101D01*
X146402897Y-79456534D01*
X146372452Y-79431548D01*
X146347466Y-79401103D01*
X146328899Y-79366367D01*
X146317465Y-79328674D01*
X146313000Y-79283339D01*
X146313000Y-78196661D01*
X146317465Y-78151326D01*
X146328899Y-78113633D01*
X146347466Y-78078897D01*
X146372452Y-78048452D01*
X146402897Y-78023466D01*
X146437633Y-78004899D01*
X146475326Y-77993465D01*
X146520661Y-77989000D01*
X147357339Y-77989000D01*
X147402674Y-77993465D01*
G37*
G36*
X145352674Y-77993465D02*
G01*
X145390367Y-78004899D01*
X145425103Y-78023466D01*
X145455548Y-78048452D01*
X145480534Y-78078897D01*
X145499101Y-78113633D01*
X145510535Y-78151326D01*
X145515000Y-78196661D01*
X145515000Y-79283339D01*
X145510535Y-79328674D01*
X145499101Y-79366367D01*
X145480534Y-79401103D01*
X145455548Y-79431548D01*
X145425103Y-79456534D01*
X145390367Y-79475101D01*
X145352674Y-79486535D01*
X145307339Y-79491000D01*
X144470661Y-79491000D01*
X144425326Y-79486535D01*
X144387633Y-79475101D01*
X144352897Y-79456534D01*
X144322452Y-79431548D01*
X144297466Y-79401103D01*
X144278899Y-79366367D01*
X144267465Y-79328674D01*
X144263000Y-79283339D01*
X144263000Y-78196661D01*
X144267465Y-78151326D01*
X144278899Y-78113633D01*
X144297466Y-78078897D01*
X144322452Y-78048452D01*
X144352897Y-78023466D01*
X144387633Y-78004899D01*
X144425326Y-77993465D01*
X144470661Y-77989000D01*
X145307339Y-77989000D01*
X145352674Y-77993465D01*
G37*
G36*
X151591674Y-78118465D02*
G01*
X151629367Y-78129899D01*
X151664103Y-78148466D01*
X151694548Y-78173452D01*
X151719534Y-78203897D01*
X151738101Y-78238633D01*
X151749535Y-78276326D01*
X151754000Y-78321661D01*
X151754000Y-79158339D01*
X151749535Y-79203674D01*
X151738101Y-79241367D01*
X151719534Y-79276103D01*
X151694548Y-79306548D01*
X151664103Y-79331534D01*
X151629367Y-79350101D01*
X151591674Y-79361535D01*
X151546339Y-79366000D01*
X150459661Y-79366000D01*
X150414326Y-79361535D01*
X150376633Y-79350101D01*
X150341897Y-79331534D01*
X150311452Y-79306548D01*
X150286466Y-79276103D01*
X150267899Y-79241367D01*
X150256465Y-79203674D01*
X150252000Y-79158339D01*
X150252000Y-78321661D01*
X150256465Y-78276326D01*
X150267899Y-78238633D01*
X150286466Y-78203897D01*
X150311452Y-78173452D01*
X150341897Y-78148466D01*
X150376633Y-78129899D01*
X150414326Y-78118465D01*
X150459661Y-78114000D01*
X151546339Y-78114000D01*
X151591674Y-78118465D01*
G37*
G36*
X117548674Y-77792805D02*
G01*
X117586367Y-77804239D01*
X117621103Y-77822806D01*
X117651548Y-77847792D01*
X117676534Y-77878237D01*
X117695101Y-77912973D01*
X117706535Y-77950666D01*
X117711000Y-77996001D01*
X117711000Y-79082679D01*
X117706535Y-79128014D01*
X117695101Y-79165707D01*
X117676534Y-79200443D01*
X117651548Y-79230888D01*
X117621103Y-79255874D01*
X117586367Y-79274441D01*
X117548674Y-79285875D01*
X117503339Y-79290340D01*
X116666661Y-79290340D01*
X116621326Y-79285875D01*
X116583633Y-79274441D01*
X116548897Y-79255874D01*
X116518452Y-79230888D01*
X116493466Y-79200443D01*
X116474899Y-79165707D01*
X116463465Y-79128014D01*
X116459000Y-79082679D01*
X116459000Y-77996001D01*
X116463465Y-77950666D01*
X116474899Y-77912973D01*
X116493466Y-77878237D01*
X116518452Y-77847792D01*
X116548897Y-77822806D01*
X116583633Y-77804239D01*
X116621326Y-77792805D01*
X116666661Y-77788340D01*
X117503339Y-77788340D01*
X117548674Y-77792805D01*
G37*
G36*
X119598674Y-77792805D02*
G01*
X119636367Y-77804239D01*
X119671103Y-77822806D01*
X119701548Y-77847792D01*
X119726534Y-77878237D01*
X119745101Y-77912973D01*
X119756535Y-77950666D01*
X119761000Y-77996001D01*
X119761000Y-79082679D01*
X119756535Y-79128014D01*
X119745101Y-79165707D01*
X119726534Y-79200443D01*
X119701548Y-79230888D01*
X119671103Y-79255874D01*
X119636367Y-79274441D01*
X119598674Y-79285875D01*
X119553339Y-79290340D01*
X118716661Y-79290340D01*
X118671326Y-79285875D01*
X118633633Y-79274441D01*
X118598897Y-79255874D01*
X118568452Y-79230888D01*
X118543466Y-79200443D01*
X118524899Y-79165707D01*
X118513465Y-79128014D01*
X118509000Y-79082679D01*
X118509000Y-77996001D01*
X118513465Y-77950666D01*
X118524899Y-77912973D01*
X118543466Y-77878237D01*
X118568452Y-77847792D01*
X118598897Y-77822806D01*
X118633633Y-77804239D01*
X118671326Y-77792805D01*
X118716661Y-77788340D01*
X119553339Y-77788340D01*
X119598674Y-77792805D01*
G37*
G36*
X108348500Y-79271000D02*
G01*
X106346500Y-79271000D01*
X106346500Y-77669000D01*
X108348500Y-77669000D01*
X108348500Y-79271000D01*
G37*
G36*
X151591674Y-76068465D02*
G01*
X151629367Y-76079899D01*
X151664103Y-76098466D01*
X151694548Y-76123452D01*
X151719534Y-76153897D01*
X151738101Y-76188633D01*
X151749535Y-76226326D01*
X151754000Y-76271661D01*
X151754000Y-77108339D01*
X151749535Y-77153674D01*
X151738101Y-77191367D01*
X151719534Y-77226103D01*
X151694548Y-77256548D01*
X151664103Y-77281534D01*
X151629367Y-77300101D01*
X151591674Y-77311535D01*
X151546339Y-77316000D01*
X150459661Y-77316000D01*
X150414326Y-77311535D01*
X150376633Y-77300101D01*
X150341897Y-77281534D01*
X150311452Y-77256548D01*
X150286466Y-77226103D01*
X150267899Y-77191367D01*
X150256465Y-77153674D01*
X150252000Y-77108339D01*
X150252000Y-76271661D01*
X150256465Y-76226326D01*
X150267899Y-76188633D01*
X150286466Y-76153897D01*
X150311452Y-76123452D01*
X150341897Y-76098466D01*
X150376633Y-76079899D01*
X150414326Y-76068465D01*
X150459661Y-76064000D01*
X151546339Y-76064000D01*
X151591674Y-76068465D01*
G37*
G36*
X108348500Y-77271000D02*
G01*
X106346500Y-77271000D01*
X106346500Y-75669000D01*
X108348500Y-75669000D01*
X108348500Y-77271000D01*
G37*
G36*
X162673512Y-75303927D02*
G01*
X162822812Y-75333624D01*
X162986784Y-75401544D01*
X163134354Y-75500147D01*
X163259853Y-75625646D01*
X163358456Y-75773216D01*
X163426376Y-75937188D01*
X163461000Y-76111259D01*
X163461000Y-76288741D01*
X163426376Y-76462812D01*
X163358456Y-76626784D01*
X163259853Y-76774354D01*
X163134354Y-76899853D01*
X162986784Y-76998456D01*
X162822812Y-77066376D01*
X162673512Y-77096073D01*
X162648742Y-77101000D01*
X162471258Y-77101000D01*
X162446488Y-77096073D01*
X162297188Y-77066376D01*
X162133216Y-76998456D01*
X161985646Y-76899853D01*
X161860147Y-76774354D01*
X161761544Y-76626784D01*
X161693624Y-76462812D01*
X161659000Y-76288741D01*
X161659000Y-76111259D01*
X161693624Y-75937188D01*
X161761544Y-75773216D01*
X161860147Y-75625646D01*
X161985646Y-75500147D01*
X162133216Y-75401544D01*
X162297188Y-75333624D01*
X162446488Y-75303927D01*
X162471258Y-75299000D01*
X162648742Y-75299000D01*
X162673512Y-75303927D01*
G37*
G36*
X158863512Y-75303927D02*
G01*
X159012812Y-75333624D01*
X159176784Y-75401544D01*
X159324354Y-75500147D01*
X159449853Y-75625646D01*
X159548456Y-75773216D01*
X159616376Y-75937188D01*
X159651000Y-76111259D01*
X159651000Y-76288741D01*
X159616376Y-76462812D01*
X159548456Y-76626784D01*
X159449853Y-76774354D01*
X159324354Y-76899853D01*
X159176784Y-76998456D01*
X159012812Y-77066376D01*
X158863512Y-77096073D01*
X158838742Y-77101000D01*
X158661258Y-77101000D01*
X158636488Y-77096073D01*
X158487188Y-77066376D01*
X158323216Y-76998456D01*
X158175646Y-76899853D01*
X158050147Y-76774354D01*
X157951544Y-76626784D01*
X157883624Y-76462812D01*
X157849000Y-76288741D01*
X157849000Y-76111259D01*
X157883624Y-75937188D01*
X157951544Y-75773216D01*
X158050147Y-75625646D01*
X158175646Y-75500147D01*
X158323216Y-75401544D01*
X158487188Y-75333624D01*
X158636488Y-75303927D01*
X158661258Y-75299000D01*
X158838742Y-75299000D01*
X158863512Y-75303927D01*
G37*
G36*
X119598674Y-75252805D02*
G01*
X119636367Y-75264239D01*
X119671103Y-75282806D01*
X119701548Y-75307792D01*
X119726534Y-75338237D01*
X119745101Y-75372973D01*
X119756535Y-75410666D01*
X119761000Y-75456001D01*
X119761000Y-76542679D01*
X119756535Y-76588014D01*
X119745101Y-76625707D01*
X119726534Y-76660443D01*
X119701548Y-76690888D01*
X119671103Y-76715874D01*
X119636367Y-76734441D01*
X119598674Y-76745875D01*
X119553339Y-76750340D01*
X118716661Y-76750340D01*
X118671326Y-76745875D01*
X118633633Y-76734441D01*
X118598897Y-76715874D01*
X118568452Y-76690888D01*
X118543466Y-76660443D01*
X118524899Y-76625707D01*
X118513465Y-76588014D01*
X118509000Y-76542679D01*
X118509000Y-75456001D01*
X118513465Y-75410666D01*
X118524899Y-75372973D01*
X118543466Y-75338237D01*
X118568452Y-75307792D01*
X118598897Y-75282806D01*
X118633633Y-75264239D01*
X118671326Y-75252805D01*
X118716661Y-75248340D01*
X119553339Y-75248340D01*
X119598674Y-75252805D01*
G37*
G36*
X117548674Y-75252805D02*
G01*
X117586367Y-75264239D01*
X117621103Y-75282806D01*
X117651548Y-75307792D01*
X117676534Y-75338237D01*
X117695101Y-75372973D01*
X117706535Y-75410666D01*
X117711000Y-75456001D01*
X117711000Y-76542679D01*
X117706535Y-76588014D01*
X117695101Y-76625707D01*
X117676534Y-76660443D01*
X117651548Y-76690888D01*
X117621103Y-76715874D01*
X117586367Y-76734441D01*
X117548674Y-76745875D01*
X117503339Y-76750340D01*
X116666661Y-76750340D01*
X116621326Y-76745875D01*
X116583633Y-76734441D01*
X116548897Y-76715874D01*
X116518452Y-76690888D01*
X116493466Y-76660443D01*
X116474899Y-76625707D01*
X116463465Y-76588014D01*
X116459000Y-76542679D01*
X116459000Y-75456001D01*
X116463465Y-75410666D01*
X116474899Y-75372973D01*
X116493466Y-75338237D01*
X116518452Y-75307792D01*
X116548897Y-75282806D01*
X116583633Y-75264239D01*
X116621326Y-75252805D01*
X116666661Y-75248340D01*
X117503339Y-75248340D01*
X117548674Y-75252805D01*
G37*
G36*
X129493674Y-75333465D02*
G01*
X129531367Y-75344899D01*
X129566103Y-75363466D01*
X129596548Y-75388452D01*
X129621534Y-75418897D01*
X129640101Y-75453633D01*
X129651535Y-75491326D01*
X129656000Y-75536661D01*
X129656000Y-76373339D01*
X129651535Y-76418674D01*
X129640101Y-76456367D01*
X129621534Y-76491103D01*
X129596548Y-76521548D01*
X129566103Y-76546534D01*
X129531367Y-76565101D01*
X129493674Y-76576535D01*
X129448339Y-76581000D01*
X128361661Y-76581000D01*
X128316326Y-76576535D01*
X128278633Y-76565101D01*
X128243897Y-76546534D01*
X128213452Y-76521548D01*
X128188466Y-76491103D01*
X128169899Y-76456367D01*
X128158465Y-76418674D01*
X128154000Y-76373339D01*
X128154000Y-75536661D01*
X128158465Y-75491326D01*
X128169899Y-75453633D01*
X128188466Y-75418897D01*
X128213452Y-75388452D01*
X128243897Y-75363466D01*
X128278633Y-75344899D01*
X128316326Y-75333465D01*
X128361661Y-75329000D01*
X129448339Y-75329000D01*
X129493674Y-75333465D01*
G37*
G36*
X107761355Y-73322140D02*
G01*
X107825118Y-73328420D01*
X107915904Y-73355960D01*
X107947836Y-73365646D01*
X108060925Y-73426094D01*
X108160054Y-73507446D01*
X108241406Y-73606575D01*
X108301854Y-73719664D01*
X108301855Y-73719668D01*
X108335413Y-73830292D01*
X108344787Y-73852925D01*
X108348500Y-73858482D01*
X108348500Y-73931886D01*
X108349102Y-73944138D01*
X108351649Y-73970000D01*
X108349102Y-73995862D01*
X108348500Y-74008114D01*
X108348500Y-75221000D01*
X106346500Y-75221000D01*
X106346500Y-74008114D01*
X106345898Y-73995862D01*
X106343351Y-73970000D01*
X106345898Y-73944138D01*
X106346500Y-73931886D01*
X106346500Y-73858594D01*
X106355457Y-73841836D01*
X106359585Y-73830299D01*
X106393145Y-73719668D01*
X106393146Y-73719664D01*
X106453594Y-73606575D01*
X106534946Y-73507446D01*
X106634075Y-73426094D01*
X106747164Y-73365646D01*
X106779096Y-73355960D01*
X106869882Y-73328420D01*
X106933645Y-73322140D01*
X106965526Y-73319000D01*
X107729474Y-73319000D01*
X107761355Y-73322140D01*
G37*
G36*
X158863512Y-72763927D02*
G01*
X159012812Y-72793624D01*
X159176784Y-72861544D01*
X159324354Y-72960147D01*
X159449853Y-73085646D01*
X159548456Y-73233216D01*
X159616376Y-73397188D01*
X159651000Y-73571259D01*
X159651000Y-73748741D01*
X159616376Y-73922812D01*
X159548456Y-74086784D01*
X159449853Y-74234354D01*
X159324354Y-74359853D01*
X159176784Y-74458456D01*
X159012812Y-74526376D01*
X158863512Y-74556073D01*
X158838742Y-74561000D01*
X158661258Y-74561000D01*
X158636488Y-74556073D01*
X158487188Y-74526376D01*
X158323216Y-74458456D01*
X158175646Y-74359853D01*
X158050147Y-74234354D01*
X157951544Y-74086784D01*
X157883624Y-73922812D01*
X157849000Y-73748741D01*
X157849000Y-73571259D01*
X157883624Y-73397188D01*
X157951544Y-73233216D01*
X158050147Y-73085646D01*
X158175646Y-72960147D01*
X158323216Y-72861544D01*
X158487188Y-72793624D01*
X158636488Y-72763927D01*
X158661258Y-72759000D01*
X158838742Y-72759000D01*
X158863512Y-72763927D01*
G37*
G36*
X162673512Y-72763927D02*
G01*
X162822812Y-72793624D01*
X162986784Y-72861544D01*
X163134354Y-72960147D01*
X163259853Y-73085646D01*
X163358456Y-73233216D01*
X163426376Y-73397188D01*
X163461000Y-73571259D01*
X163461000Y-73748741D01*
X163426376Y-73922812D01*
X163358456Y-74086784D01*
X163259853Y-74234354D01*
X163134354Y-74359853D01*
X162986784Y-74458456D01*
X162822812Y-74526376D01*
X162673512Y-74556073D01*
X162648742Y-74561000D01*
X162471258Y-74561000D01*
X162446488Y-74556073D01*
X162297188Y-74526376D01*
X162133216Y-74458456D01*
X161985646Y-74359853D01*
X161860147Y-74234354D01*
X161761544Y-74086784D01*
X161693624Y-73922812D01*
X161659000Y-73748741D01*
X161659000Y-73571259D01*
X161693624Y-73397188D01*
X161761544Y-73233216D01*
X161860147Y-73085646D01*
X161985646Y-72960147D01*
X162133216Y-72861544D01*
X162297188Y-72793624D01*
X162446488Y-72763927D01*
X162471258Y-72759000D01*
X162648742Y-72759000D01*
X162673512Y-72763927D01*
G37*
G36*
X129493674Y-73283465D02*
G01*
X129531367Y-73294899D01*
X129566103Y-73313466D01*
X129596548Y-73338452D01*
X129621534Y-73368897D01*
X129640101Y-73403633D01*
X129651535Y-73441326D01*
X129656000Y-73486661D01*
X129656000Y-74323339D01*
X129651535Y-74368674D01*
X129640101Y-74406367D01*
X129621534Y-74441103D01*
X129596548Y-74471548D01*
X129566103Y-74496534D01*
X129531367Y-74515101D01*
X129493674Y-74526535D01*
X129448339Y-74531000D01*
X128361661Y-74531000D01*
X128316326Y-74526535D01*
X128278633Y-74515101D01*
X128243897Y-74496534D01*
X128213452Y-74471548D01*
X128188466Y-74441103D01*
X128169899Y-74406367D01*
X128158465Y-74368674D01*
X128154000Y-74323339D01*
X128154000Y-73486661D01*
X128158465Y-73441326D01*
X128169899Y-73403633D01*
X128188466Y-73368897D01*
X128213452Y-73338452D01*
X128243897Y-73313466D01*
X128278633Y-73294899D01*
X128316326Y-73283465D01*
X128361661Y-73279000D01*
X129448339Y-73279000D01*
X129493674Y-73283465D01*
G37*
G36*
X141026000Y-74415000D02*
G01*
X132024000Y-74415000D01*
X132024000Y-72563000D01*
X141026000Y-72563000D01*
X141026000Y-74415000D01*
G37*
G36*
X147402674Y-72913465D02*
G01*
X147440367Y-72924899D01*
X147475103Y-72943466D01*
X147505548Y-72968452D01*
X147530534Y-72998897D01*
X147549101Y-73033633D01*
X147560535Y-73071326D01*
X147565000Y-73116661D01*
X147565000Y-74203339D01*
X147560535Y-74248674D01*
X147549101Y-74286367D01*
X147530534Y-74321103D01*
X147505548Y-74351548D01*
X147475103Y-74376534D01*
X147440367Y-74395101D01*
X147402674Y-74406535D01*
X147357339Y-74411000D01*
X146520661Y-74411000D01*
X146475326Y-74406535D01*
X146437633Y-74395101D01*
X146402897Y-74376534D01*
X146372452Y-74351548D01*
X146347466Y-74321103D01*
X146328899Y-74286367D01*
X146317465Y-74248674D01*
X146313000Y-74203339D01*
X146313000Y-73116661D01*
X146317465Y-73071326D01*
X146328899Y-73033633D01*
X146347466Y-72998897D01*
X146372452Y-72968452D01*
X146402897Y-72943466D01*
X146437633Y-72924899D01*
X146475326Y-72913465D01*
X146520661Y-72909000D01*
X147357339Y-72909000D01*
X147402674Y-72913465D01*
G37*
G36*
X145352674Y-72913465D02*
G01*
X145390367Y-72924899D01*
X145425103Y-72943466D01*
X145455548Y-72968452D01*
X145480534Y-72998897D01*
X145499101Y-73033633D01*
X145510535Y-73071326D01*
X145515000Y-73116661D01*
X145515000Y-74203339D01*
X145510535Y-74248674D01*
X145499101Y-74286367D01*
X145480534Y-74321103D01*
X145455548Y-74351548D01*
X145425103Y-74376534D01*
X145390367Y-74395101D01*
X145352674Y-74406535D01*
X145307339Y-74411000D01*
X144470661Y-74411000D01*
X144425326Y-74406535D01*
X144387633Y-74395101D01*
X144352897Y-74376534D01*
X144322452Y-74351548D01*
X144297466Y-74321103D01*
X144278899Y-74286367D01*
X144267465Y-74248674D01*
X144263000Y-74203339D01*
X144263000Y-73116661D01*
X144267465Y-73071326D01*
X144278899Y-73033633D01*
X144297466Y-72998897D01*
X144322452Y-72968452D01*
X144352897Y-72943466D01*
X144387633Y-72924899D01*
X144425326Y-72913465D01*
X144470661Y-72909000D01*
X145307339Y-72909000D01*
X145352674Y-72913465D01*
G37*
G36*
X151591674Y-73038465D02*
G01*
X151629367Y-73049899D01*
X151664103Y-73068466D01*
X151694548Y-73093452D01*
X151719534Y-73123897D01*
X151738101Y-73158633D01*
X151749535Y-73196326D01*
X151754000Y-73241661D01*
X151754000Y-74078339D01*
X151749535Y-74123674D01*
X151738101Y-74161367D01*
X151719534Y-74196103D01*
X151694548Y-74226548D01*
X151664103Y-74251534D01*
X151629367Y-74270101D01*
X151591674Y-74281535D01*
X151546339Y-74286000D01*
X150459661Y-74286000D01*
X150414326Y-74281535D01*
X150376633Y-74270101D01*
X150341897Y-74251534D01*
X150311452Y-74226548D01*
X150286466Y-74196103D01*
X150267899Y-74161367D01*
X150256465Y-74123674D01*
X150252000Y-74078339D01*
X150252000Y-73241661D01*
X150256465Y-73196326D01*
X150267899Y-73158633D01*
X150286466Y-73123897D01*
X150311452Y-73093452D01*
X150341897Y-73068466D01*
X150376633Y-73049899D01*
X150414326Y-73038465D01*
X150459661Y-73034000D01*
X151546339Y-73034000D01*
X151591674Y-73038465D01*
G37*
G36*
X151591674Y-70988465D02*
G01*
X151629367Y-70999899D01*
X151664103Y-71018466D01*
X151694548Y-71043452D01*
X151719534Y-71073897D01*
X151738101Y-71108633D01*
X151749535Y-71146326D01*
X151754000Y-71191661D01*
X151754000Y-72028339D01*
X151749535Y-72073674D01*
X151738101Y-72111367D01*
X151719534Y-72146103D01*
X151694548Y-72176548D01*
X151664103Y-72201534D01*
X151629367Y-72220101D01*
X151591674Y-72231535D01*
X151546339Y-72236000D01*
X150459661Y-72236000D01*
X150414326Y-72231535D01*
X150376633Y-72220101D01*
X150341897Y-72201534D01*
X150311452Y-72176548D01*
X150286466Y-72146103D01*
X150267899Y-72111367D01*
X150256465Y-72073674D01*
X150252000Y-72028339D01*
X150252000Y-71191661D01*
X150256465Y-71146326D01*
X150267899Y-71108633D01*
X150286466Y-71073897D01*
X150311452Y-71043452D01*
X150341897Y-71018466D01*
X150376633Y-70999899D01*
X150414326Y-70988465D01*
X150459661Y-70984000D01*
X151546339Y-70984000D01*
X151591674Y-70988465D01*
G37*
G36*
X158863512Y-70223927D02*
G01*
X159012812Y-70253624D01*
X159176784Y-70321544D01*
X159324354Y-70420147D01*
X159449853Y-70545646D01*
X159548456Y-70693216D01*
X159616376Y-70857188D01*
X159651000Y-71031259D01*
X159651000Y-71208741D01*
X159616376Y-71382812D01*
X159548456Y-71546784D01*
X159449853Y-71694354D01*
X159324354Y-71819853D01*
X159176784Y-71918456D01*
X159012812Y-71986376D01*
X158863512Y-72016073D01*
X158838742Y-72021000D01*
X158661258Y-72021000D01*
X158636488Y-72016073D01*
X158487188Y-71986376D01*
X158323216Y-71918456D01*
X158175646Y-71819853D01*
X158050147Y-71694354D01*
X157951544Y-71546784D01*
X157883624Y-71382812D01*
X157849000Y-71208741D01*
X157849000Y-71031259D01*
X157883624Y-70857188D01*
X157951544Y-70693216D01*
X158050147Y-70545646D01*
X158175646Y-70420147D01*
X158323216Y-70321544D01*
X158487188Y-70253624D01*
X158636488Y-70223927D01*
X158661258Y-70219000D01*
X158838742Y-70219000D01*
X158863512Y-70223927D01*
G37*
G36*
X162673512Y-70223927D02*
G01*
X162822812Y-70253624D01*
X162986784Y-70321544D01*
X163134354Y-70420147D01*
X163259853Y-70545646D01*
X163358456Y-70693216D01*
X163426376Y-70857188D01*
X163461000Y-71031259D01*
X163461000Y-71208741D01*
X163426376Y-71382812D01*
X163358456Y-71546784D01*
X163259853Y-71694354D01*
X163134354Y-71819853D01*
X162986784Y-71918456D01*
X162822812Y-71986376D01*
X162673512Y-72016073D01*
X162648742Y-72021000D01*
X162471258Y-72021000D01*
X162446488Y-72016073D01*
X162297188Y-71986376D01*
X162133216Y-71918456D01*
X161985646Y-71819853D01*
X161860147Y-71694354D01*
X161761544Y-71546784D01*
X161693624Y-71382812D01*
X161659000Y-71208741D01*
X161659000Y-71031259D01*
X161693624Y-70857188D01*
X161761544Y-70693216D01*
X161860147Y-70545646D01*
X161985646Y-70420147D01*
X162133216Y-70321544D01*
X162297188Y-70253624D01*
X162446488Y-70223927D01*
X162471258Y-70219000D01*
X162648742Y-70219000D01*
X162673512Y-70223927D01*
G37*
G36*
X119968674Y-69618465D02*
G01*
X120006367Y-69629899D01*
X120041103Y-69648466D01*
X120071548Y-69673452D01*
X120096534Y-69703897D01*
X120115101Y-69738633D01*
X120126535Y-69776326D01*
X120131000Y-69821661D01*
X120131000Y-70658339D01*
X120126535Y-70703674D01*
X120115101Y-70741367D01*
X120096534Y-70776103D01*
X120071548Y-70806548D01*
X120041103Y-70831534D01*
X120006367Y-70850101D01*
X119968674Y-70861535D01*
X119923339Y-70866000D01*
X118836661Y-70866000D01*
X118791326Y-70861535D01*
X118753633Y-70850101D01*
X118718897Y-70831534D01*
X118688452Y-70806548D01*
X118663466Y-70776103D01*
X118644899Y-70741367D01*
X118633465Y-70703674D01*
X118629000Y-70658339D01*
X118629000Y-69821661D01*
X118633465Y-69776326D01*
X118644899Y-69738633D01*
X118663466Y-69703897D01*
X118688452Y-69673452D01*
X118718897Y-69648466D01*
X118753633Y-69629899D01*
X118791326Y-69618465D01*
X118836661Y-69614000D01*
X119923339Y-69614000D01*
X119968674Y-69618465D01*
G37*
G36*
X123778674Y-69618465D02*
G01*
X123816367Y-69629899D01*
X123851103Y-69648466D01*
X123881548Y-69673452D01*
X123906534Y-69703897D01*
X123925101Y-69738633D01*
X123936535Y-69776326D01*
X123941000Y-69821661D01*
X123941000Y-70658339D01*
X123936535Y-70703674D01*
X123925101Y-70741367D01*
X123906534Y-70776103D01*
X123881548Y-70806548D01*
X123851103Y-70831534D01*
X123816367Y-70850101D01*
X123778674Y-70861535D01*
X123733339Y-70866000D01*
X122646661Y-70866000D01*
X122601326Y-70861535D01*
X122563633Y-70850101D01*
X122528897Y-70831534D01*
X122498452Y-70806548D01*
X122473466Y-70776103D01*
X122454899Y-70741367D01*
X122443465Y-70703674D01*
X122439000Y-70658339D01*
X122439000Y-69821661D01*
X122443465Y-69776326D01*
X122454899Y-69738633D01*
X122473466Y-69703897D01*
X122498452Y-69673452D01*
X122528897Y-69648466D01*
X122563633Y-69629899D01*
X122601326Y-69618465D01*
X122646661Y-69614000D01*
X123733339Y-69614000D01*
X123778674Y-69618465D01*
G37*
G36*
X116158674Y-69618465D02*
G01*
X116196367Y-69629899D01*
X116231103Y-69648466D01*
X116261548Y-69673452D01*
X116286534Y-69703897D01*
X116305101Y-69738633D01*
X116316535Y-69776326D01*
X116321000Y-69821661D01*
X116321000Y-70658339D01*
X116316535Y-70703674D01*
X116305101Y-70741367D01*
X116286534Y-70776103D01*
X116261548Y-70806548D01*
X116231103Y-70831534D01*
X116196367Y-70850101D01*
X116158674Y-70861535D01*
X116113339Y-70866000D01*
X115026661Y-70866000D01*
X114981326Y-70861535D01*
X114943633Y-70850101D01*
X114908897Y-70831534D01*
X114878452Y-70806548D01*
X114853466Y-70776103D01*
X114834899Y-70741367D01*
X114823465Y-70703674D01*
X114819000Y-70658339D01*
X114819000Y-69821661D01*
X114823465Y-69776326D01*
X114834899Y-69738633D01*
X114853466Y-69703897D01*
X114878452Y-69673452D01*
X114908897Y-69648466D01*
X114943633Y-69629899D01*
X114981326Y-69618465D01*
X115026661Y-69614000D01*
X116113339Y-69614000D01*
X116158674Y-69618465D01*
G37*
G36*
X109615562Y-66827181D02*
G01*
X109650481Y-66837774D01*
X109682663Y-66854976D01*
X109710873Y-66878127D01*
X109734024Y-66906337D01*
X109751226Y-66938519D01*
X109761819Y-66973438D01*
X109766000Y-67015895D01*
X109766000Y-69382105D01*
X109761819Y-69424562D01*
X109751226Y-69459481D01*
X109734024Y-69491663D01*
X109710873Y-69519873D01*
X109682663Y-69543024D01*
X109650481Y-69560226D01*
X109615562Y-69570819D01*
X109573105Y-69575000D01*
X108431895Y-69575000D01*
X108389438Y-69570819D01*
X108354519Y-69560226D01*
X108322337Y-69543024D01*
X108294127Y-69519873D01*
X108270976Y-69491663D01*
X108253774Y-69459481D01*
X108243181Y-69424562D01*
X108239000Y-69382105D01*
X108239000Y-67015895D01*
X108243181Y-66973438D01*
X108253774Y-66938519D01*
X108270976Y-66906337D01*
X108294127Y-66878127D01*
X108322337Y-66854976D01*
X108354519Y-66837774D01*
X108389438Y-66827181D01*
X108431895Y-66823000D01*
X109573105Y-66823000D01*
X109615562Y-66827181D01*
G37*
G36*
X112590562Y-66827181D02*
G01*
X112625481Y-66837774D01*
X112657663Y-66854976D01*
X112685873Y-66878127D01*
X112709024Y-66906337D01*
X112726226Y-66938519D01*
X112736819Y-66973438D01*
X112741000Y-67015895D01*
X112741000Y-69382105D01*
X112736819Y-69424562D01*
X112726226Y-69459481D01*
X112709024Y-69491663D01*
X112685873Y-69519873D01*
X112657663Y-69543024D01*
X112625481Y-69560226D01*
X112590562Y-69570819D01*
X112548105Y-69575000D01*
X111406895Y-69575000D01*
X111364438Y-69570819D01*
X111329519Y-69560226D01*
X111297337Y-69543024D01*
X111269127Y-69519873D01*
X111245976Y-69491663D01*
X111228774Y-69459481D01*
X111218181Y-69424562D01*
X111214000Y-69382105D01*
X111214000Y-67015895D01*
X111218181Y-66973438D01*
X111228774Y-66938519D01*
X111245976Y-66906337D01*
X111269127Y-66878127D01*
X111297337Y-66854976D01*
X111329519Y-66837774D01*
X111364438Y-66827181D01*
X111406895Y-66823000D01*
X112548105Y-66823000D01*
X112590562Y-66827181D01*
G37*
G36*
X158863512Y-67683927D02*
G01*
X159012812Y-67713624D01*
X159176784Y-67781544D01*
X159324354Y-67880147D01*
X159449853Y-68005646D01*
X159548456Y-68153216D01*
X159616376Y-68317188D01*
X159651000Y-68491259D01*
X159651000Y-68668741D01*
X159616376Y-68842812D01*
X159548456Y-69006784D01*
X159449853Y-69154354D01*
X159324354Y-69279853D01*
X159176784Y-69378456D01*
X159012812Y-69446376D01*
X158863512Y-69476073D01*
X158838742Y-69481000D01*
X158661258Y-69481000D01*
X158636488Y-69476073D01*
X158487188Y-69446376D01*
X158323216Y-69378456D01*
X158175646Y-69279853D01*
X158050147Y-69154354D01*
X157951544Y-69006784D01*
X157883624Y-68842812D01*
X157849000Y-68668741D01*
X157849000Y-68491259D01*
X157883624Y-68317188D01*
X157951544Y-68153216D01*
X158050147Y-68005646D01*
X158175646Y-67880147D01*
X158323216Y-67781544D01*
X158487188Y-67713624D01*
X158636488Y-67683927D01*
X158661258Y-67679000D01*
X158838742Y-67679000D01*
X158863512Y-67683927D01*
G37*
G36*
X162673512Y-67683927D02*
G01*
X162822812Y-67713624D01*
X162986784Y-67781544D01*
X163134354Y-67880147D01*
X163259853Y-68005646D01*
X163358456Y-68153216D01*
X163426376Y-68317188D01*
X163461000Y-68491259D01*
X163461000Y-68668741D01*
X163426376Y-68842812D01*
X163358456Y-69006784D01*
X163259853Y-69154354D01*
X163134354Y-69279853D01*
X162986784Y-69378456D01*
X162822812Y-69446376D01*
X162673512Y-69476073D01*
X162648742Y-69481000D01*
X162471258Y-69481000D01*
X162446488Y-69476073D01*
X162297188Y-69446376D01*
X162133216Y-69378456D01*
X161985646Y-69279853D01*
X161860147Y-69154354D01*
X161761544Y-69006784D01*
X161693624Y-68842812D01*
X161659000Y-68668741D01*
X161659000Y-68491259D01*
X161693624Y-68317188D01*
X161761544Y-68153216D01*
X161860147Y-68005646D01*
X161985646Y-67880147D01*
X162133216Y-67781544D01*
X162297188Y-67713624D01*
X162446488Y-67683927D01*
X162471258Y-67679000D01*
X162648742Y-67679000D01*
X162673512Y-67683927D01*
G37*
G36*
X150847999Y-67779737D02*
G01*
X150857608Y-67782652D01*
X150866472Y-67787390D01*
X150874237Y-67793763D01*
X150884448Y-67806206D01*
X150891378Y-67816575D01*
X150908705Y-67833902D01*
X150929080Y-67847515D01*
X150951720Y-67856891D01*
X150975753Y-67861671D01*
X151000257Y-67861670D01*
X151024290Y-67856888D01*
X151046929Y-67847510D01*
X151067302Y-67833895D01*
X151084629Y-67816568D01*
X151091558Y-67806198D01*
X151101763Y-67793763D01*
X151109528Y-67787390D01*
X151118392Y-67782652D01*
X151128001Y-67779737D01*
X151144140Y-67778148D01*
X151631861Y-67778148D01*
X151650199Y-67779954D01*
X151662450Y-67780556D01*
X151680869Y-67780556D01*
X151703149Y-67782750D01*
X151787233Y-67799476D01*
X151808660Y-67805976D01*
X151887858Y-67838780D01*
X151893303Y-67841691D01*
X151893309Y-67841693D01*
X151902169Y-67846429D01*
X151902173Y-67846432D01*
X151907614Y-67849340D01*
X151978899Y-67896971D01*
X151996204Y-67911172D01*
X152056828Y-67971796D01*
X152071029Y-67989101D01*
X152118660Y-68060386D01*
X152121568Y-68065827D01*
X152121571Y-68065831D01*
X152126307Y-68074691D01*
X152126309Y-68074697D01*
X152129220Y-68080142D01*
X152162024Y-68159340D01*
X152168524Y-68180767D01*
X152185250Y-68264851D01*
X152187444Y-68287131D01*
X152187444Y-68305550D01*
X152188046Y-68317801D01*
X152189852Y-68336139D01*
X152189852Y-68823862D01*
X152188046Y-68842199D01*
X152187444Y-68854450D01*
X152187444Y-68872869D01*
X152185250Y-68895149D01*
X152168524Y-68979233D01*
X152162024Y-69000660D01*
X152129220Y-69079858D01*
X152126309Y-69085303D01*
X152126307Y-69085309D01*
X152121571Y-69094169D01*
X152121568Y-69094173D01*
X152118660Y-69099614D01*
X152071029Y-69170899D01*
X152056828Y-69188204D01*
X151996204Y-69248828D01*
X151978899Y-69263029D01*
X151907614Y-69310660D01*
X151902173Y-69313568D01*
X151902169Y-69313571D01*
X151893309Y-69318307D01*
X151893303Y-69318309D01*
X151887858Y-69321220D01*
X151808660Y-69354024D01*
X151787233Y-69360524D01*
X151703149Y-69377250D01*
X151680869Y-69379444D01*
X151662450Y-69379444D01*
X151650199Y-69380046D01*
X151631862Y-69381852D01*
X151144140Y-69381852D01*
X151128001Y-69380263D01*
X151118392Y-69377348D01*
X151109528Y-69372610D01*
X151101763Y-69366237D01*
X151091552Y-69353794D01*
X151084622Y-69343425D01*
X151067295Y-69326098D01*
X151046920Y-69312485D01*
X151024280Y-69303109D01*
X151000247Y-69298329D01*
X150975743Y-69298330D01*
X150951710Y-69303112D01*
X150929071Y-69312490D01*
X150908698Y-69326105D01*
X150891371Y-69343432D01*
X150884442Y-69353802D01*
X150874237Y-69366237D01*
X150866472Y-69372610D01*
X150857608Y-69377348D01*
X150847999Y-69380263D01*
X150831860Y-69381852D01*
X150344138Y-69381852D01*
X150325801Y-69380046D01*
X150313550Y-69379444D01*
X150295131Y-69379444D01*
X150272851Y-69377250D01*
X150188767Y-69360524D01*
X150167340Y-69354024D01*
X150088142Y-69321220D01*
X150082697Y-69318309D01*
X150082691Y-69318307D01*
X150073831Y-69313571D01*
X150073827Y-69313568D01*
X150068386Y-69310660D01*
X149997101Y-69263029D01*
X149979796Y-69248828D01*
X149919172Y-69188204D01*
X149904971Y-69170899D01*
X149857340Y-69099614D01*
X149854432Y-69094173D01*
X149854429Y-69094169D01*
X149849693Y-69085309D01*
X149849691Y-69085303D01*
X149846780Y-69079858D01*
X149813976Y-69000660D01*
X149807476Y-68979233D01*
X149790750Y-68895149D01*
X149788556Y-68872869D01*
X149788556Y-68854450D01*
X149787954Y-68842199D01*
X149786148Y-68823862D01*
X149786148Y-68336139D01*
X149787954Y-68317801D01*
X149788556Y-68305550D01*
X149788556Y-68287131D01*
X149790750Y-68264851D01*
X149807476Y-68180767D01*
X149813976Y-68159340D01*
X149846780Y-68080142D01*
X149849691Y-68074697D01*
X149849693Y-68074691D01*
X149854429Y-68065831D01*
X149854432Y-68065827D01*
X149857340Y-68060386D01*
X149904971Y-67989101D01*
X149919172Y-67971796D01*
X149979796Y-67911172D01*
X149997101Y-67896971D01*
X150068386Y-67849340D01*
X150073827Y-67846432D01*
X150073831Y-67846429D01*
X150082691Y-67841693D01*
X150082697Y-67841691D01*
X150088142Y-67838780D01*
X150167340Y-67805976D01*
X150188767Y-67799476D01*
X150272851Y-67782750D01*
X150295131Y-67780556D01*
X150313550Y-67780556D01*
X150325801Y-67779954D01*
X150344139Y-67778148D01*
X150831860Y-67778148D01*
X150847999Y-67779737D01*
G37*
G36*
X119968674Y-67568465D02*
G01*
X120006367Y-67579899D01*
X120041103Y-67598466D01*
X120071548Y-67623452D01*
X120096534Y-67653897D01*
X120115101Y-67688633D01*
X120126535Y-67726326D01*
X120131000Y-67771661D01*
X120131000Y-68608339D01*
X120126535Y-68653674D01*
X120115101Y-68691367D01*
X120096534Y-68726103D01*
X120071548Y-68756548D01*
X120041103Y-68781534D01*
X120006367Y-68800101D01*
X119968674Y-68811535D01*
X119923339Y-68816000D01*
X118836661Y-68816000D01*
X118791326Y-68811535D01*
X118753633Y-68800101D01*
X118718897Y-68781534D01*
X118688452Y-68756548D01*
X118663466Y-68726103D01*
X118644899Y-68691367D01*
X118633465Y-68653674D01*
X118629000Y-68608339D01*
X118629000Y-67771661D01*
X118633465Y-67726326D01*
X118644899Y-67688633D01*
X118663466Y-67653897D01*
X118688452Y-67623452D01*
X118718897Y-67598466D01*
X118753633Y-67579899D01*
X118791326Y-67568465D01*
X118836661Y-67564000D01*
X119923339Y-67564000D01*
X119968674Y-67568465D01*
G37*
G36*
X123778674Y-67568465D02*
G01*
X123816367Y-67579899D01*
X123851103Y-67598466D01*
X123881548Y-67623452D01*
X123906534Y-67653897D01*
X123925101Y-67688633D01*
X123936535Y-67726326D01*
X123941000Y-67771661D01*
X123941000Y-68608339D01*
X123936535Y-68653674D01*
X123925101Y-68691367D01*
X123906534Y-68726103D01*
X123881548Y-68756548D01*
X123851103Y-68781534D01*
X123816367Y-68800101D01*
X123778674Y-68811535D01*
X123733339Y-68816000D01*
X122646661Y-68816000D01*
X122601326Y-68811535D01*
X122563633Y-68800101D01*
X122528897Y-68781534D01*
X122498452Y-68756548D01*
X122473466Y-68726103D01*
X122454899Y-68691367D01*
X122443465Y-68653674D01*
X122439000Y-68608339D01*
X122439000Y-67771661D01*
X122443465Y-67726326D01*
X122454899Y-67688633D01*
X122473466Y-67653897D01*
X122498452Y-67623452D01*
X122528897Y-67598466D01*
X122563633Y-67579899D01*
X122601326Y-67568465D01*
X122646661Y-67564000D01*
X123733339Y-67564000D01*
X123778674Y-67568465D01*
G37*
G36*
X116158674Y-67568465D02*
G01*
X116196367Y-67579899D01*
X116231103Y-67598466D01*
X116261548Y-67623452D01*
X116286534Y-67653897D01*
X116305101Y-67688633D01*
X116316535Y-67726326D01*
X116321000Y-67771661D01*
X116321000Y-68608339D01*
X116316535Y-68653674D01*
X116305101Y-68691367D01*
X116286534Y-68726103D01*
X116261548Y-68756548D01*
X116231103Y-68781534D01*
X116196367Y-68800101D01*
X116158674Y-68811535D01*
X116113339Y-68816000D01*
X115026661Y-68816000D01*
X114981326Y-68811535D01*
X114943633Y-68800101D01*
X114908897Y-68781534D01*
X114878452Y-68756548D01*
X114853466Y-68726103D01*
X114834899Y-68691367D01*
X114823465Y-68653674D01*
X114819000Y-68608339D01*
X114819000Y-67771661D01*
X114823465Y-67726326D01*
X114834899Y-67688633D01*
X114853466Y-67653897D01*
X114878452Y-67623452D01*
X114908897Y-67598466D01*
X114943633Y-67579899D01*
X114981326Y-67568465D01*
X115026661Y-67564000D01*
X116113339Y-67564000D01*
X116158674Y-67568465D01*
G37*
G36*
X163461000Y-66941000D02*
G01*
X161659000Y-66941000D01*
X161659000Y-65139000D01*
X163461000Y-65139000D01*
X163461000Y-66941000D01*
G37*
G36*
X159651000Y-66941000D02*
G01*
X157849000Y-66941000D01*
X157849000Y-65139000D01*
X159651000Y-65139000D01*
X159651000Y-66941000D01*
G37*
G36*
X116024674Y-64023465D02*
G01*
X116062367Y-64034899D01*
X116097103Y-64053466D01*
X116127548Y-64078452D01*
X116152534Y-64108897D01*
X116171101Y-64143633D01*
X116182535Y-64181326D01*
X116187000Y-64226661D01*
X116187000Y-65313339D01*
X116182535Y-65358674D01*
X116171101Y-65396367D01*
X116152534Y-65431103D01*
X116127548Y-65461548D01*
X116097103Y-65486534D01*
X116062367Y-65505101D01*
X116024674Y-65516535D01*
X115979339Y-65521000D01*
X115142661Y-65521000D01*
X115097326Y-65516535D01*
X115059633Y-65505101D01*
X115024897Y-65486534D01*
X114994452Y-65461548D01*
X114969466Y-65431103D01*
X114950899Y-65396367D01*
X114939465Y-65358674D01*
X114935000Y-65313339D01*
X114935000Y-64226661D01*
X114939465Y-64181326D01*
X114950899Y-64143633D01*
X114969466Y-64108897D01*
X114994452Y-64078452D01*
X115024897Y-64053466D01*
X115059633Y-64034899D01*
X115097326Y-64023465D01*
X115142661Y-64019000D01*
X115979339Y-64019000D01*
X116024674Y-64023465D01*
G37*
G36*
X118074674Y-64023465D02*
G01*
X118112367Y-64034899D01*
X118147103Y-64053466D01*
X118177548Y-64078452D01*
X118202534Y-64108897D01*
X118221101Y-64143633D01*
X118232535Y-64181326D01*
X118237000Y-64226661D01*
X118237000Y-65313339D01*
X118232535Y-65358674D01*
X118221101Y-65396367D01*
X118202534Y-65431103D01*
X118177548Y-65461548D01*
X118147103Y-65486534D01*
X118112367Y-65505101D01*
X118074674Y-65516535D01*
X118029339Y-65521000D01*
X117192661Y-65521000D01*
X117147326Y-65516535D01*
X117109633Y-65505101D01*
X117074897Y-65486534D01*
X117044452Y-65461548D01*
X117019466Y-65431103D01*
X117000899Y-65396367D01*
X116989465Y-65358674D01*
X116985000Y-65313339D01*
X116985000Y-64226661D01*
X116989465Y-64181326D01*
X117000899Y-64143633D01*
X117019466Y-64108897D01*
X117044452Y-64078452D01*
X117074897Y-64053466D01*
X117109633Y-64034899D01*
X117147326Y-64023465D01*
X117192661Y-64019000D01*
X118029339Y-64019000D01*
X118074674Y-64023465D01*
G37*
G36*
X123544674Y-64023465D02*
G01*
X123582367Y-64034899D01*
X123617103Y-64053466D01*
X123647548Y-64078452D01*
X123672534Y-64108897D01*
X123691101Y-64143633D01*
X123702535Y-64181326D01*
X123707000Y-64226661D01*
X123707000Y-65313339D01*
X123702535Y-65358674D01*
X123691101Y-65396367D01*
X123672534Y-65431103D01*
X123647548Y-65461548D01*
X123617103Y-65486534D01*
X123582367Y-65505101D01*
X123544674Y-65516535D01*
X123499339Y-65521000D01*
X122662661Y-65521000D01*
X122617326Y-65516535D01*
X122579633Y-65505101D01*
X122544897Y-65486534D01*
X122514452Y-65461548D01*
X122489466Y-65431103D01*
X122470899Y-65396367D01*
X122459465Y-65358674D01*
X122455000Y-65313339D01*
X122455000Y-64226661D01*
X122459465Y-64181326D01*
X122470899Y-64143633D01*
X122489466Y-64108897D01*
X122514452Y-64078452D01*
X122544897Y-64053466D01*
X122579633Y-64034899D01*
X122617326Y-64023465D01*
X122662661Y-64019000D01*
X123499339Y-64019000D01*
X123544674Y-64023465D01*
G37*
G36*
X121494674Y-64023465D02*
G01*
X121532367Y-64034899D01*
X121567103Y-64053466D01*
X121597548Y-64078452D01*
X121622534Y-64108897D01*
X121641101Y-64143633D01*
X121652535Y-64181326D01*
X121657000Y-64226661D01*
X121657000Y-65313339D01*
X121652535Y-65358674D01*
X121641101Y-65396367D01*
X121622534Y-65431103D01*
X121597548Y-65461548D01*
X121567103Y-65486534D01*
X121532367Y-65505101D01*
X121494674Y-65516535D01*
X121449339Y-65521000D01*
X120612661Y-65521000D01*
X120567326Y-65516535D01*
X120529633Y-65505101D01*
X120494897Y-65486534D01*
X120464452Y-65461548D01*
X120439466Y-65431103D01*
X120420899Y-65396367D01*
X120409465Y-65358674D01*
X120405000Y-65313339D01*
X120405000Y-64226661D01*
X120409465Y-64181326D01*
X120420899Y-64143633D01*
X120439466Y-64108897D01*
X120464452Y-64078452D01*
X120494897Y-64053466D01*
X120529633Y-64034899D01*
X120567326Y-64023465D01*
X120612661Y-64019000D01*
X121449339Y-64019000D01*
X121494674Y-64023465D01*
G37*
M02*
