M48
; DRILL file {KiCad (5.1.6)-1} date 08/10/20 17:12:16
; FORMAT={-:-/ absolute / metric / decimal}
; #@! TF.CreationDate,2020-08-10T17:12:16+03:00
; #@! TF.GenerationSoftware,Kicad,Pcbnew,(5.1.6)-1
; #@! TF.FileFunction,Plated,1,2,PTH
FMAT,2
METRIC
T1C0.300
T2C0.400
T3C0.600
T4C0.850
T5C1.000
%
G90
G05
T1
X107.315Y-90.043
X107.315Y-91.694
X107.315Y-93.345
X108.966Y-90.043
X108.966Y-93.345
X110.617Y-90.043
X110.617Y-91.694
X110.617Y-93.345
X112.395Y-90.043
X112.395Y-91.694
X112.395Y-93.345
X114.046Y-90.043
X114.046Y-93.345
X115.697Y-90.043
X115.697Y-91.694
X115.697Y-93.345
X117.475Y-90.043
X117.475Y-91.694
X117.475Y-93.345
X119.126Y-90.043
X119.126Y-93.345
X119.903Y-90.028
X120.777Y-90.043
X120.777Y-91.694
X120.777Y-93.345
X130.619Y-77.47
X157.099Y-73.66
X157.099Y-78.74
X157.099Y-81.28
X157.099Y-86.36
X161.163Y-66.04
X161.163Y-71.12
X161.163Y-73.66
X161.163Y-76.2
X161.163Y-78.74
X161.163Y-81.28
X161.163Y-83.82
X161.163Y-86.36
X161.163Y-88.9
X161.163Y-91.44
T2
X106.172Y-94.488
X106.68Y-63.5
X106.68Y-65.405
X106.68Y-67.31
X106.68Y-69.215
X106.68Y-71.755
X106.68Y-83.82
X106.68Y-87.884
X108.585Y-63.5
X109.728Y-83.82
X110.49Y-63.5
X112.395Y-63.5
X112.776Y-71.628
X112.776Y-81.788
X113.792Y-74.168
X114.3Y-63.5
X114.3Y-79.248
X116.205Y-85.344
X116.332Y-63.5
X116.332Y-72.644
X117.856Y-71.628
X118.872Y-63.5
X119.38Y-66.294
X119.38Y-83.82
X121.412Y-74.676
X121.92Y-79.756
X121.92Y-94.488
X123.444Y-90.932
X124.46Y-63.5
X124.46Y-72.644
X124.46Y-94.488
X125.476Y-87.376
X125.984Y-75.946
X125.984Y-81.407
X127.0Y-67.056
X127.0Y-79.756
X127.0Y-94.488
X127.508Y-71.12
X128.524Y-90.932
X129.54Y-94.488
X130.048Y-81.788
X130.556Y-71.12
X130.874Y-87.058
X131.572Y-90.932
X132.08Y-67.056
X132.514Y-63.487
X132.588Y-94.488
X133.731Y-89.916
X134.25Y-78.74
X134.366Y-71.92
X135.128Y-94.488
X136.2Y-78.74
X136.779Y-75.184
X137.668Y-67.056
X138.176Y-94.488
X139.108Y-64.96
X139.446Y-75.184
X140.716Y-83.312
X141.224Y-94.488
X141.732Y-70.612
X142.748Y-67.056
X143.256Y-89.408
X143.764Y-73.66
X144.272Y-94.488
X144.78Y-84.582
X145.009Y-63.5
X146.304Y-70.612
X146.304Y-92.456
X147.32Y-94.488
X149.352Y-92.456
X150.368Y-94.488
X151.892Y-92.456
X152.908Y-66.04
X152.908Y-94.488
X153.416Y-71.12
X153.416Y-76.2
X153.416Y-80.264
X153.416Y-83.82
X153.416Y-88.9
X154.432Y-92.456
X155.448Y-94.488
X155.956Y-63.5
X156.972Y-68.58
X157.988Y-94.488
X159.512Y-93.472
X161.036Y-63.5
X161.036Y-68.58
X161.036Y-94.488
X162.56Y-93.472
X164.084Y-63.5
X164.592Y-94.488
T4
X110.047Y-74.97
X110.047Y-79.97
T5
X158.75Y-66.04
X158.75Y-68.58
X158.75Y-71.12
X158.75Y-73.66
X158.75Y-76.2
X158.75Y-78.74
X158.75Y-81.28
X158.75Y-83.82
X158.75Y-86.36
X158.75Y-88.9
X158.75Y-91.44
X162.56Y-66.04
X162.56Y-68.58
X162.56Y-71.12
X162.56Y-73.66
X162.56Y-76.2
X162.56Y-78.74
X162.56Y-81.28
X162.56Y-83.82
X162.56Y-86.36
X162.56Y-88.9
X162.56Y-91.44
T3
G00X106.997Y-73.97
M15
G01X107.697Y-73.97
M16
G05
G00X107.697Y-80.97
M15
G01X106.997Y-80.97
M16
G05
T0
M30
