G04 #@! TF.GenerationSoftware,KiCad,Pcbnew,(5.1.6)-1*
G04 #@! TF.CreationDate,2020-08-10T17:12:12+03:00*
G04 #@! TF.ProjectId,g850_kiss,67383530-5f6b-4697-9373-2e6b69636164,rev?*
G04 #@! TF.SameCoordinates,Original*
G04 #@! TF.FileFunction,Paste,Top*
G04 #@! TF.FilePolarity,Positive*
%FSLAX46Y46*%
G04 Gerber Fmt 4.6, Leading zero omitted, Abs format (unit mm)*
G04 Created by KiCad (PCBNEW (5.1.6)-1) date 2020-08-10 17:12:12*
%MOMM*%
%LPD*%
G01*
G04 APERTURE LIST*
%ADD10R,0.450000X1.750000*%
%ADD11R,1.900000X1.500000*%
%ADD12R,1.350000X0.400000*%
G04 APERTURE END LIST*
D10*
X140750000Y-80689000D03*
X140100000Y-80689000D03*
X139450000Y-80689000D03*
X138800000Y-80689000D03*
X138150000Y-80689000D03*
X137500000Y-80689000D03*
X136850000Y-80689000D03*
X136200000Y-80689000D03*
X135550000Y-80689000D03*
X134900000Y-80689000D03*
X134250000Y-80689000D03*
X133600000Y-80689000D03*
X132950000Y-80689000D03*
X132300000Y-80689000D03*
X132300000Y-73489000D03*
X132950000Y-73489000D03*
X133600000Y-73489000D03*
X134250000Y-73489000D03*
X134900000Y-73489000D03*
X135550000Y-73489000D03*
X136200000Y-73489000D03*
X136850000Y-73489000D03*
X137500000Y-73489000D03*
X138150000Y-73489000D03*
X138800000Y-73489000D03*
X139450000Y-73489000D03*
X140100000Y-73489000D03*
X140750000Y-73489000D03*
G36*
G01*
X151453001Y-72185000D02*
X150552999Y-72185000D01*
G75*
G02*
X150303000Y-71935001I0J249999D01*
G01*
X150303000Y-71284999D01*
G75*
G02*
X150552999Y-71035000I249999J0D01*
G01*
X151453001Y-71035000D01*
G75*
G02*
X151703000Y-71284999I0J-249999D01*
G01*
X151703000Y-71935001D01*
G75*
G02*
X151453001Y-72185000I-249999J0D01*
G01*
G37*
G36*
G01*
X151453001Y-74235000D02*
X150552999Y-74235000D01*
G75*
G02*
X150303000Y-73985001I0J249999D01*
G01*
X150303000Y-73334999D01*
G75*
G02*
X150552999Y-73085000I249999J0D01*
G01*
X151453001Y-73085000D01*
G75*
G02*
X151703000Y-73334999I0J-249999D01*
G01*
X151703000Y-73985001D01*
G75*
G02*
X151453001Y-74235000I-249999J0D01*
G01*
G37*
G36*
G01*
X150552999Y-87835000D02*
X151453001Y-87835000D01*
G75*
G02*
X151703000Y-88084999I0J-249999D01*
G01*
X151703000Y-88735001D01*
G75*
G02*
X151453001Y-88985000I-249999J0D01*
G01*
X150552999Y-88985000D01*
G75*
G02*
X150303000Y-88735001I0J249999D01*
G01*
X150303000Y-88084999D01*
G75*
G02*
X150552999Y-87835000I249999J0D01*
G01*
G37*
G36*
G01*
X150552999Y-85785000D02*
X151453001Y-85785000D01*
G75*
G02*
X151703000Y-86034999I0J-249999D01*
G01*
X151703000Y-86685001D01*
G75*
G02*
X151453001Y-86935000I-249999J0D01*
G01*
X150552999Y-86935000D01*
G75*
G02*
X150303000Y-86685001I0J249999D01*
G01*
X150303000Y-86034999D01*
G75*
G02*
X150552999Y-85785000I249999J0D01*
G01*
G37*
G36*
G01*
X150552999Y-82755000D02*
X151453001Y-82755000D01*
G75*
G02*
X151703000Y-83004999I0J-249999D01*
G01*
X151703000Y-83655001D01*
G75*
G02*
X151453001Y-83905000I-249999J0D01*
G01*
X150552999Y-83905000D01*
G75*
G02*
X150303000Y-83655001I0J249999D01*
G01*
X150303000Y-83004999D01*
G75*
G02*
X150552999Y-82755000I249999J0D01*
G01*
G37*
G36*
G01*
X150552999Y-80705000D02*
X151453001Y-80705000D01*
G75*
G02*
X151703000Y-80954999I0J-249999D01*
G01*
X151703000Y-81605001D01*
G75*
G02*
X151453001Y-81855000I-249999J0D01*
G01*
X150552999Y-81855000D01*
G75*
G02*
X150303000Y-81605001I0J249999D01*
G01*
X150303000Y-80954999D01*
G75*
G02*
X150552999Y-80705000I249999J0D01*
G01*
G37*
G36*
G01*
X151453001Y-77265000D02*
X150552999Y-77265000D01*
G75*
G02*
X150303000Y-77015001I0J249999D01*
G01*
X150303000Y-76364999D01*
G75*
G02*
X150552999Y-76115000I249999J0D01*
G01*
X151453001Y-76115000D01*
G75*
G02*
X151703000Y-76364999I0J-249999D01*
G01*
X151703000Y-77015001D01*
G75*
G02*
X151453001Y-77265000I-249999J0D01*
G01*
G37*
G36*
G01*
X151453001Y-79315000D02*
X150552999Y-79315000D01*
G75*
G02*
X150303000Y-79065001I0J249999D01*
G01*
X150303000Y-78414999D01*
G75*
G02*
X150552999Y-78165000I249999J0D01*
G01*
X151453001Y-78165000D01*
G75*
G02*
X151703000Y-78414999I0J-249999D01*
G01*
X151703000Y-79065001D01*
G75*
G02*
X151453001Y-79315000I-249999J0D01*
G01*
G37*
G36*
G01*
X145464000Y-73209999D02*
X145464000Y-74110001D01*
G75*
G02*
X145214001Y-74360000I-249999J0D01*
G01*
X144563999Y-74360000D01*
G75*
G02*
X144314000Y-74110001I0J249999D01*
G01*
X144314000Y-73209999D01*
G75*
G02*
X144563999Y-72960000I249999J0D01*
G01*
X145214001Y-72960000D01*
G75*
G02*
X145464000Y-73209999I0J-249999D01*
G01*
G37*
G36*
G01*
X147514000Y-73209999D02*
X147514000Y-74110001D01*
G75*
G02*
X147264001Y-74360000I-249999J0D01*
G01*
X146613999Y-74360000D01*
G75*
G02*
X146364000Y-74110001I0J249999D01*
G01*
X146364000Y-73209999D01*
G75*
G02*
X146613999Y-72960000I249999J0D01*
G01*
X147264001Y-72960000D01*
G75*
G02*
X147514000Y-73209999I0J-249999D01*
G01*
G37*
G36*
G01*
X145464000Y-85909999D02*
X145464000Y-86810001D01*
G75*
G02*
X145214001Y-87060000I-249999J0D01*
G01*
X144563999Y-87060000D01*
G75*
G02*
X144314000Y-86810001I0J249999D01*
G01*
X144314000Y-85909999D01*
G75*
G02*
X144563999Y-85660000I249999J0D01*
G01*
X145214001Y-85660000D01*
G75*
G02*
X145464000Y-85909999I0J-249999D01*
G01*
G37*
G36*
G01*
X147514000Y-85909999D02*
X147514000Y-86810001D01*
G75*
G02*
X147264001Y-87060000I-249999J0D01*
G01*
X146613999Y-87060000D01*
G75*
G02*
X146364000Y-86810001I0J249999D01*
G01*
X146364000Y-85909999D01*
G75*
G02*
X146613999Y-85660000I249999J0D01*
G01*
X147264001Y-85660000D01*
G75*
G02*
X147514000Y-85909999I0J-249999D01*
G01*
G37*
G36*
G01*
X145464000Y-80829999D02*
X145464000Y-81730001D01*
G75*
G02*
X145214001Y-81980000I-249999J0D01*
G01*
X144563999Y-81980000D01*
G75*
G02*
X144314000Y-81730001I0J249999D01*
G01*
X144314000Y-80829999D01*
G75*
G02*
X144563999Y-80580000I249999J0D01*
G01*
X145214001Y-80580000D01*
G75*
G02*
X145464000Y-80829999I0J-249999D01*
G01*
G37*
G36*
G01*
X147514000Y-80829999D02*
X147514000Y-81730001D01*
G75*
G02*
X147264001Y-81980000I-249999J0D01*
G01*
X146613999Y-81980000D01*
G75*
G02*
X146364000Y-81730001I0J249999D01*
G01*
X146364000Y-80829999D01*
G75*
G02*
X146613999Y-80580000I249999J0D01*
G01*
X147264001Y-80580000D01*
G75*
G02*
X147514000Y-80829999I0J-249999D01*
G01*
G37*
G36*
G01*
X145464000Y-78289999D02*
X145464000Y-79190001D01*
G75*
G02*
X145214001Y-79440000I-249999J0D01*
G01*
X144563999Y-79440000D01*
G75*
G02*
X144314000Y-79190001I0J249999D01*
G01*
X144314000Y-78289999D01*
G75*
G02*
X144563999Y-78040000I249999J0D01*
G01*
X145214001Y-78040000D01*
G75*
G02*
X145464000Y-78289999I0J-249999D01*
G01*
G37*
G36*
G01*
X147514000Y-78289999D02*
X147514000Y-79190001D01*
G75*
G02*
X147264001Y-79440000I-249999J0D01*
G01*
X146613999Y-79440000D01*
G75*
G02*
X146364000Y-79190001I0J249999D01*
G01*
X146364000Y-78289999D01*
G75*
G02*
X146613999Y-78040000I249999J0D01*
G01*
X147264001Y-78040000D01*
G75*
G02*
X147514000Y-78289999I0J-249999D01*
G01*
G37*
G36*
G01*
X137229001Y-86672000D02*
X136328999Y-86672000D01*
G75*
G02*
X136079000Y-86422001I0J249999D01*
G01*
X136079000Y-85771999D01*
G75*
G02*
X136328999Y-85522000I249999J0D01*
G01*
X137229001Y-85522000D01*
G75*
G02*
X137479000Y-85771999I0J-249999D01*
G01*
X137479000Y-86422001D01*
G75*
G02*
X137229001Y-86672000I-249999J0D01*
G01*
G37*
G36*
G01*
X137229001Y-88722000D02*
X136328999Y-88722000D01*
G75*
G02*
X136079000Y-88472001I0J249999D01*
G01*
X136079000Y-87821999D01*
G75*
G02*
X136328999Y-87572000I249999J0D01*
G01*
X137229001Y-87572000D01*
G75*
G02*
X137479000Y-87821999I0J-249999D01*
G01*
X137479000Y-88472001D01*
G75*
G02*
X137229001Y-88722000I-249999J0D01*
G01*
G37*
G36*
G01*
X141039001Y-86672000D02*
X140138999Y-86672000D01*
G75*
G02*
X139889000Y-86422001I0J249999D01*
G01*
X139889000Y-85771999D01*
G75*
G02*
X140138999Y-85522000I249999J0D01*
G01*
X141039001Y-85522000D01*
G75*
G02*
X141289000Y-85771999I0J-249999D01*
G01*
X141289000Y-86422001D01*
G75*
G02*
X141039001Y-86672000I-249999J0D01*
G01*
G37*
G36*
G01*
X141039001Y-88722000D02*
X140138999Y-88722000D01*
G75*
G02*
X139889000Y-88472001I0J249999D01*
G01*
X139889000Y-87821999D01*
G75*
G02*
X140138999Y-87572000I249999J0D01*
G01*
X141039001Y-87572000D01*
G75*
G02*
X141289000Y-87821999I0J-249999D01*
G01*
X141289000Y-88472001D01*
G75*
G02*
X141039001Y-88722000I-249999J0D01*
G01*
G37*
G36*
G01*
X122506000Y-65220001D02*
X122506000Y-64319999D01*
G75*
G02*
X122755999Y-64070000I249999J0D01*
G01*
X123406001Y-64070000D01*
G75*
G02*
X123656000Y-64319999I0J-249999D01*
G01*
X123656000Y-65220001D01*
G75*
G02*
X123406001Y-65470000I-249999J0D01*
G01*
X122755999Y-65470000D01*
G75*
G02*
X122506000Y-65220001I0J249999D01*
G01*
G37*
G36*
G01*
X120456000Y-65220001D02*
X120456000Y-64319999D01*
G75*
G02*
X120705999Y-64070000I249999J0D01*
G01*
X121356001Y-64070000D01*
G75*
G02*
X121606000Y-64319999I0J-249999D01*
G01*
X121606000Y-65220001D01*
G75*
G02*
X121356001Y-65470000I-249999J0D01*
G01*
X120705999Y-65470000D01*
G75*
G02*
X120456000Y-65220001I0J249999D01*
G01*
G37*
G36*
G01*
X117660000Y-75549339D02*
X117660000Y-76449341D01*
G75*
G02*
X117410001Y-76699340I-249999J0D01*
G01*
X116759999Y-76699340D01*
G75*
G02*
X116510000Y-76449341I0J249999D01*
G01*
X116510000Y-75549339D01*
G75*
G02*
X116759999Y-75299340I249999J0D01*
G01*
X117410001Y-75299340D01*
G75*
G02*
X117660000Y-75549339I0J-249999D01*
G01*
G37*
G36*
G01*
X119710000Y-75549339D02*
X119710000Y-76449341D01*
G75*
G02*
X119460001Y-76699340I-249999J0D01*
G01*
X118809999Y-76699340D01*
G75*
G02*
X118560000Y-76449341I0J249999D01*
G01*
X118560000Y-75549339D01*
G75*
G02*
X118809999Y-75299340I249999J0D01*
G01*
X119460001Y-75299340D01*
G75*
G02*
X119710000Y-75549339I0J-249999D01*
G01*
G37*
G36*
G01*
X117660000Y-78089339D02*
X117660000Y-78989341D01*
G75*
G02*
X117410001Y-79239340I-249999J0D01*
G01*
X116759999Y-79239340D01*
G75*
G02*
X116510000Y-78989341I0J249999D01*
G01*
X116510000Y-78089339D01*
G75*
G02*
X116759999Y-77839340I249999J0D01*
G01*
X117410001Y-77839340D01*
G75*
G02*
X117660000Y-78089339I0J-249999D01*
G01*
G37*
G36*
G01*
X119710000Y-78089339D02*
X119710000Y-78989341D01*
G75*
G02*
X119460001Y-79239340I-249999J0D01*
G01*
X118809999Y-79239340D01*
G75*
G02*
X118560000Y-78989341I0J249999D01*
G01*
X118560000Y-78089339D01*
G75*
G02*
X118809999Y-77839340I249999J0D01*
G01*
X119460001Y-77839340D01*
G75*
G02*
X119710000Y-78089339I0J-249999D01*
G01*
G37*
D11*
X107347500Y-78470000D03*
D12*
X110047500Y-76820000D03*
X110047500Y-76170000D03*
X110047500Y-78770000D03*
X110047500Y-78120000D03*
X110047500Y-77470000D03*
D11*
X107347500Y-76470000D03*
G36*
G01*
X109715000Y-67124000D02*
X109715000Y-69274000D01*
G75*
G02*
X109465000Y-69524000I-250000J0D01*
G01*
X108540000Y-69524000D01*
G75*
G02*
X108290000Y-69274000I0J250000D01*
G01*
X108290000Y-67124000D01*
G75*
G02*
X108540000Y-66874000I250000J0D01*
G01*
X109465000Y-66874000D01*
G75*
G02*
X109715000Y-67124000I0J-250000D01*
G01*
G37*
G36*
G01*
X112690000Y-67124000D02*
X112690000Y-69274000D01*
G75*
G02*
X112440000Y-69524000I-250000J0D01*
G01*
X111515000Y-69524000D01*
G75*
G02*
X111265000Y-69274000I0J250000D01*
G01*
X111265000Y-67124000D01*
G75*
G02*
X111515000Y-66874000I250000J0D01*
G01*
X112440000Y-66874000D01*
G75*
G02*
X112690000Y-67124000I0J-250000D01*
G01*
G37*
G36*
G01*
X136328999Y-92652000D02*
X137229001Y-92652000D01*
G75*
G02*
X137479000Y-92901999I0J-249999D01*
G01*
X137479000Y-93552001D01*
G75*
G02*
X137229001Y-93802000I-249999J0D01*
G01*
X136328999Y-93802000D01*
G75*
G02*
X136079000Y-93552001I0J249999D01*
G01*
X136079000Y-92901999D01*
G75*
G02*
X136328999Y-92652000I249999J0D01*
G01*
G37*
G36*
G01*
X136328999Y-90602000D02*
X137229001Y-90602000D01*
G75*
G02*
X137479000Y-90851999I0J-249999D01*
G01*
X137479000Y-91502001D01*
G75*
G02*
X137229001Y-91752000I-249999J0D01*
G01*
X136328999Y-91752000D01*
G75*
G02*
X136079000Y-91502001I0J249999D01*
G01*
X136079000Y-90851999D01*
G75*
G02*
X136328999Y-90602000I249999J0D01*
G01*
G37*
G36*
G01*
X140138999Y-92652000D02*
X141039001Y-92652000D01*
G75*
G02*
X141289000Y-92901999I0J-249999D01*
G01*
X141289000Y-93552001D01*
G75*
G02*
X141039001Y-93802000I-249999J0D01*
G01*
X140138999Y-93802000D01*
G75*
G02*
X139889000Y-93552001I0J249999D01*
G01*
X139889000Y-92901999D01*
G75*
G02*
X140138999Y-92652000I249999J0D01*
G01*
G37*
G36*
G01*
X140138999Y-90602000D02*
X141039001Y-90602000D01*
G75*
G02*
X141289000Y-90851999I0J-249999D01*
G01*
X141289000Y-91502001D01*
G75*
G02*
X141039001Y-91752000I-249999J0D01*
G01*
X140138999Y-91752000D01*
G75*
G02*
X139889000Y-91502001I0J249999D01*
G01*
X139889000Y-90851999D01*
G75*
G02*
X140138999Y-90602000I249999J0D01*
G01*
G37*
G36*
G01*
X116136000Y-64319999D02*
X116136000Y-65220001D01*
G75*
G02*
X115886001Y-65470000I-249999J0D01*
G01*
X115235999Y-65470000D01*
G75*
G02*
X114986000Y-65220001I0J249999D01*
G01*
X114986000Y-64319999D01*
G75*
G02*
X115235999Y-64070000I249999J0D01*
G01*
X115886001Y-64070000D01*
G75*
G02*
X116136000Y-64319999I0J-249999D01*
G01*
G37*
G36*
G01*
X118186000Y-64319999D02*
X118186000Y-65220001D01*
G75*
G02*
X117936001Y-65470000I-249999J0D01*
G01*
X117285999Y-65470000D01*
G75*
G02*
X117036000Y-65220001I0J249999D01*
G01*
X117036000Y-64319999D01*
G75*
G02*
X117285999Y-64070000I249999J0D01*
G01*
X117936001Y-64070000D01*
G75*
G02*
X118186000Y-64319999I0J-249999D01*
G01*
G37*
G36*
G01*
X122739999Y-69665000D02*
X123640001Y-69665000D01*
G75*
G02*
X123890000Y-69914999I0J-249999D01*
G01*
X123890000Y-70565001D01*
G75*
G02*
X123640001Y-70815000I-249999J0D01*
G01*
X122739999Y-70815000D01*
G75*
G02*
X122490000Y-70565001I0J249999D01*
G01*
X122490000Y-69914999D01*
G75*
G02*
X122739999Y-69665000I249999J0D01*
G01*
G37*
G36*
G01*
X122739999Y-67615000D02*
X123640001Y-67615000D01*
G75*
G02*
X123890000Y-67864999I0J-249999D01*
G01*
X123890000Y-68515001D01*
G75*
G02*
X123640001Y-68765000I-249999J0D01*
G01*
X122739999Y-68765000D01*
G75*
G02*
X122490000Y-68515001I0J249999D01*
G01*
X122490000Y-67864999D01*
G75*
G02*
X122739999Y-67615000I249999J0D01*
G01*
G37*
G36*
G01*
X118929999Y-69665000D02*
X119830001Y-69665000D01*
G75*
G02*
X120080000Y-69914999I0J-249999D01*
G01*
X120080000Y-70565001D01*
G75*
G02*
X119830001Y-70815000I-249999J0D01*
G01*
X118929999Y-70815000D01*
G75*
G02*
X118680000Y-70565001I0J249999D01*
G01*
X118680000Y-69914999D01*
G75*
G02*
X118929999Y-69665000I249999J0D01*
G01*
G37*
G36*
G01*
X118929999Y-67615000D02*
X119830001Y-67615000D01*
G75*
G02*
X120080000Y-67864999I0J-249999D01*
G01*
X120080000Y-68515001D01*
G75*
G02*
X119830001Y-68765000I-249999J0D01*
G01*
X118929999Y-68765000D01*
G75*
G02*
X118680000Y-68515001I0J249999D01*
G01*
X118680000Y-67864999D01*
G75*
G02*
X118929999Y-67615000I249999J0D01*
G01*
G37*
G36*
G01*
X129355001Y-74480000D02*
X128454999Y-74480000D01*
G75*
G02*
X128205000Y-74230001I0J249999D01*
G01*
X128205000Y-73579999D01*
G75*
G02*
X128454999Y-73330000I249999J0D01*
G01*
X129355001Y-73330000D01*
G75*
G02*
X129605000Y-73579999I0J-249999D01*
G01*
X129605000Y-74230001D01*
G75*
G02*
X129355001Y-74480000I-249999J0D01*
G01*
G37*
G36*
G01*
X129355001Y-76530000D02*
X128454999Y-76530000D01*
G75*
G02*
X128205000Y-76280001I0J249999D01*
G01*
X128205000Y-75629999D01*
G75*
G02*
X128454999Y-75380000I249999J0D01*
G01*
X129355001Y-75380000D01*
G75*
G02*
X129605000Y-75629999I0J-249999D01*
G01*
X129605000Y-76280001D01*
G75*
G02*
X129355001Y-76530000I-249999J0D01*
G01*
G37*
G36*
G01*
X115119999Y-69665000D02*
X116020001Y-69665000D01*
G75*
G02*
X116270000Y-69914999I0J-249999D01*
G01*
X116270000Y-70565001D01*
G75*
G02*
X116020001Y-70815000I-249999J0D01*
G01*
X115119999Y-70815000D01*
G75*
G02*
X114870000Y-70565001I0J249999D01*
G01*
X114870000Y-69914999D01*
G75*
G02*
X115119999Y-69665000I249999J0D01*
G01*
G37*
G36*
G01*
X115119999Y-67615000D02*
X116020001Y-67615000D01*
G75*
G02*
X116270000Y-67864999I0J-249999D01*
G01*
X116270000Y-68515001D01*
G75*
G02*
X116020001Y-68765000I-249999J0D01*
G01*
X115119999Y-68765000D01*
G75*
G02*
X114870000Y-68515001I0J249999D01*
G01*
X114870000Y-67864999D01*
G75*
G02*
X115119999Y-67615000I249999J0D01*
G01*
G37*
M02*
