G04 #@! TF.GenerationSoftware,KiCad,Pcbnew,(5.1.6)-1*
G04 #@! TF.CreationDate,2020-08-10T17:12:12+03:00*
G04 #@! TF.ProjectId,g850_kiss,67383530-5f6b-4697-9373-2e6b69636164,rev?*
G04 #@! TF.SameCoordinates,Original*
G04 #@! TF.FileFunction,Copper,L2,Bot*
G04 #@! TF.FilePolarity,Positive*
%FSLAX46Y46*%
G04 Gerber Fmt 4.6, Leading zero omitted, Abs format (unit mm)*
G04 Created by KiCad (PCBNEW (5.1.6)-1) date 2020-08-10 17:12:12*
%MOMM*%
%LPD*%
G01*
G04 APERTURE LIST*
G04 #@! TA.AperFunction,ComponentPad*
%ADD10O,1.700000X1.700000*%
G04 #@! TD*
G04 #@! TA.AperFunction,ComponentPad*
%ADD11R,1.700000X1.700000*%
G04 #@! TD*
G04 #@! TA.AperFunction,ComponentPad*
%ADD12C,1.450000*%
G04 #@! TD*
G04 #@! TA.AperFunction,ComponentPad*
%ADD13O,1.900000X1.200000*%
G04 #@! TD*
G04 #@! TA.AperFunction,ViaPad*
%ADD14C,0.600000*%
G04 #@! TD*
G04 #@! TA.AperFunction,ViaPad*
%ADD15C,0.800000*%
G04 #@! TD*
G04 #@! TA.AperFunction,Conductor*
%ADD16C,0.250000*%
G04 #@! TD*
G04 #@! TA.AperFunction,Conductor*
%ADD17C,0.800000*%
G04 #@! TD*
G04 #@! TA.AperFunction,Conductor*
%ADD18C,0.400000*%
G04 #@! TD*
G04 #@! TA.AperFunction,Conductor*
%ADD19C,0.200000*%
G04 #@! TD*
G04 APERTURE END LIST*
D10*
X158750000Y-91440000D03*
X158750000Y-88900000D03*
X158750000Y-86360000D03*
X158750000Y-83820000D03*
X158750000Y-81280000D03*
X158750000Y-78740000D03*
X158750000Y-76200000D03*
X158750000Y-73660000D03*
X158750000Y-71120000D03*
X158750000Y-68580000D03*
D11*
X158750000Y-66040000D03*
D10*
X162560000Y-91440000D03*
X162560000Y-88900000D03*
X162560000Y-86360000D03*
X162560000Y-83820000D03*
X162560000Y-81280000D03*
X162560000Y-78740000D03*
X162560000Y-76200000D03*
X162560000Y-73660000D03*
X162560000Y-71120000D03*
X162560000Y-68580000D03*
D11*
X162560000Y-66040000D03*
D12*
X110047500Y-74970000D03*
X110047500Y-79970000D03*
D13*
X107347500Y-73970000D03*
X107347500Y-80970000D03*
D14*
X112395000Y-93345000D03*
X114046000Y-93345000D03*
X115697000Y-93345000D03*
X115697000Y-91694000D03*
X115697000Y-90043000D03*
X114046000Y-90043000D03*
X112395000Y-90043000D03*
X112395000Y-91694000D03*
X161163000Y-71120000D03*
D15*
X136779000Y-75184000D03*
X136200000Y-78740000D03*
X134250000Y-78740000D03*
D14*
X130619500Y-77470000D03*
D15*
X108585000Y-63500000D03*
X110490000Y-63500000D03*
X106680000Y-63500000D03*
X106680000Y-65405000D03*
X106680000Y-67310000D03*
X106680000Y-69215000D03*
X106680000Y-71755000D03*
X112395000Y-63500000D03*
X114300000Y-63500000D03*
X116332000Y-63500000D03*
X118872000Y-63500000D03*
X112776000Y-71628000D03*
X113792000Y-74168000D03*
X116332000Y-72644000D03*
X117856000Y-71628000D03*
X121412000Y-74676000D03*
X124460000Y-72644000D03*
X127508000Y-71120000D03*
X127000000Y-67056000D03*
X132080000Y-67056000D03*
X137668000Y-67056000D03*
X142748000Y-67056000D03*
X139108180Y-64960500D03*
X124460000Y-63500000D03*
X132514340Y-63487300D03*
X145008600Y-63500000D03*
X155956000Y-63500000D03*
X164084000Y-63500000D03*
X161036000Y-63500000D03*
X106680000Y-83820000D03*
X109728000Y-83820000D03*
X112776000Y-81788000D03*
X114300000Y-79248000D03*
X121920000Y-79756000D03*
X127000000Y-79756000D03*
X130048000Y-81788000D03*
X125476000Y-87376000D03*
X106680000Y-87884000D03*
X106172000Y-94488000D03*
X121920000Y-94488000D03*
X124460000Y-94488000D03*
X127000000Y-94488000D03*
X129540000Y-94488000D03*
X132588000Y-94488000D03*
X135128000Y-94488000D03*
X138176000Y-94488000D03*
X141224000Y-94488000D03*
X144272000Y-94488000D03*
X147320000Y-94488000D03*
X150368000Y-94488000D03*
X152908000Y-94488000D03*
X155448000Y-94488000D03*
X157988000Y-94488000D03*
X161036000Y-94488000D03*
X164592000Y-94488000D03*
X162560000Y-93472000D03*
X159512000Y-93472000D03*
X154432000Y-92456000D03*
X151892000Y-92456000D03*
X149352000Y-92456000D03*
X146304000Y-92456000D03*
X141732000Y-70612000D03*
X146304000Y-70612000D03*
X152908000Y-66040000D03*
X153416000Y-71120000D03*
X153416000Y-76200000D03*
X153416000Y-80264000D03*
X153416000Y-83820000D03*
X153416000Y-88900000D03*
X143256000Y-89408000D03*
X140716000Y-83312000D03*
X123444000Y-90932000D03*
X128524000Y-90932000D03*
X131572000Y-90932000D03*
D14*
X117475000Y-90043000D03*
X119126000Y-90043000D03*
X120777000Y-90043000D03*
X120777000Y-91694000D03*
X120777000Y-93345000D03*
X119126000Y-93345000D03*
X117475000Y-93345000D03*
X117475000Y-91694000D03*
D15*
X119380000Y-66294000D03*
X119380000Y-83820000D03*
D14*
X119903000Y-90028000D03*
X107315000Y-93345000D03*
X110617000Y-93345000D03*
X108966000Y-93345000D03*
X107315000Y-91694000D03*
X110617000Y-91694000D03*
X110617000Y-90043000D03*
X107315000Y-90043000D03*
D15*
X125984000Y-81407000D03*
X125984000Y-75946000D03*
D14*
X108966000Y-90043000D03*
D15*
X116205000Y-85344000D03*
X133731000Y-89916000D03*
X130556000Y-71120000D03*
X130873500Y-87058500D03*
D14*
X161163000Y-91440000D03*
X161163000Y-88900000D03*
X161163000Y-86360000D03*
X157099000Y-86360000D03*
X161163000Y-83820000D03*
X161163000Y-81280000D03*
X157099000Y-81280000D03*
X161163000Y-78740000D03*
X157099000Y-78740000D03*
X161163000Y-76200000D03*
X157099000Y-73660000D03*
X161163000Y-73660000D03*
D15*
X156972000Y-68580000D03*
X161036000Y-68580000D03*
D14*
X161163000Y-66040000D03*
D15*
X139446000Y-75184000D03*
X144780000Y-84582000D03*
X134366000Y-71920000D03*
X143764000Y-73660000D03*
D16*
X158750000Y-71120000D02*
X162234990Y-71120000D01*
D17*
X119380000Y-66859685D02*
X119380000Y-83820000D01*
X119380000Y-66294000D02*
X119380000Y-66859685D01*
D18*
X125984000Y-81407000D02*
X125984000Y-75946000D01*
X129159000Y-72517000D02*
X130556000Y-71120000D01*
X129159000Y-85344000D02*
X129159000Y-72517000D01*
X129159000Y-85344000D02*
X130873500Y-87058500D01*
X116770685Y-85344000D02*
X129159000Y-85344000D01*
X116205000Y-85344000D02*
X116770685Y-85344000D01*
X130873500Y-87058500D02*
X133731000Y-89916000D01*
D16*
X158750000Y-91440000D02*
X162234990Y-91440000D01*
X158750000Y-88900000D02*
X162234990Y-88900000D01*
X158750000Y-86360000D02*
X162234990Y-86360000D01*
X158750000Y-83820000D02*
X162234990Y-83820000D01*
X158750000Y-81280000D02*
X162234990Y-81280000D01*
X158750000Y-78740000D02*
X162234990Y-78740000D01*
X158750000Y-76200000D02*
X162234990Y-76200000D01*
X158750000Y-73660000D02*
X162234990Y-73660000D01*
X158750000Y-68580000D02*
X162234990Y-68580000D01*
X158750000Y-66040000D02*
X162234990Y-66040000D01*
D18*
X139446000Y-75184000D02*
X144780000Y-80518000D01*
X144780000Y-80518000D02*
X144780000Y-84582000D01*
X134366000Y-71920000D02*
X142024000Y-71920000D01*
X142024000Y-71920000D02*
X143764000Y-73660000D01*
D19*
G36*
X165035000Y-94855000D02*
G01*
X105785000Y-94855000D01*
X105785000Y-93280981D01*
X106665000Y-93280981D01*
X106665000Y-93409019D01*
X106689979Y-93534598D01*
X106738978Y-93652890D01*
X106810112Y-93759351D01*
X106900649Y-93849888D01*
X107007110Y-93921022D01*
X107125402Y-93970021D01*
X107250981Y-93995000D01*
X107379019Y-93995000D01*
X107504598Y-93970021D01*
X107622890Y-93921022D01*
X107729351Y-93849888D01*
X107819888Y-93759351D01*
X107891022Y-93652890D01*
X107940021Y-93534598D01*
X107965000Y-93409019D01*
X107965000Y-93280981D01*
X108316000Y-93280981D01*
X108316000Y-93409019D01*
X108340979Y-93534598D01*
X108389978Y-93652890D01*
X108461112Y-93759351D01*
X108551649Y-93849888D01*
X108658110Y-93921022D01*
X108776402Y-93970021D01*
X108901981Y-93995000D01*
X109030019Y-93995000D01*
X109155598Y-93970021D01*
X109273890Y-93921022D01*
X109380351Y-93849888D01*
X109470888Y-93759351D01*
X109542022Y-93652890D01*
X109591021Y-93534598D01*
X109616000Y-93409019D01*
X109616000Y-93280981D01*
X109967000Y-93280981D01*
X109967000Y-93409019D01*
X109991979Y-93534598D01*
X110040978Y-93652890D01*
X110112112Y-93759351D01*
X110202649Y-93849888D01*
X110309110Y-93921022D01*
X110427402Y-93970021D01*
X110552981Y-93995000D01*
X110681019Y-93995000D01*
X110806598Y-93970021D01*
X110924890Y-93921022D01*
X111031351Y-93849888D01*
X111121888Y-93759351D01*
X111193022Y-93652890D01*
X111242021Y-93534598D01*
X111267000Y-93409019D01*
X111267000Y-93280981D01*
X116825000Y-93280981D01*
X116825000Y-93409019D01*
X116849979Y-93534598D01*
X116898978Y-93652890D01*
X116970112Y-93759351D01*
X117060649Y-93849888D01*
X117167110Y-93921022D01*
X117285402Y-93970021D01*
X117410981Y-93995000D01*
X117539019Y-93995000D01*
X117664598Y-93970021D01*
X117782890Y-93921022D01*
X117889351Y-93849888D01*
X117979888Y-93759351D01*
X118051022Y-93652890D01*
X118100021Y-93534598D01*
X118125000Y-93409019D01*
X118125000Y-93280981D01*
X118476000Y-93280981D01*
X118476000Y-93409019D01*
X118500979Y-93534598D01*
X118549978Y-93652890D01*
X118621112Y-93759351D01*
X118711649Y-93849888D01*
X118818110Y-93921022D01*
X118936402Y-93970021D01*
X119061981Y-93995000D01*
X119190019Y-93995000D01*
X119315598Y-93970021D01*
X119433890Y-93921022D01*
X119540351Y-93849888D01*
X119630888Y-93759351D01*
X119702022Y-93652890D01*
X119751021Y-93534598D01*
X119776000Y-93409019D01*
X119776000Y-93280981D01*
X120127000Y-93280981D01*
X120127000Y-93409019D01*
X120151979Y-93534598D01*
X120200978Y-93652890D01*
X120272112Y-93759351D01*
X120362649Y-93849888D01*
X120469110Y-93921022D01*
X120587402Y-93970021D01*
X120712981Y-93995000D01*
X120841019Y-93995000D01*
X120966598Y-93970021D01*
X121084890Y-93921022D01*
X121191351Y-93849888D01*
X121281888Y-93759351D01*
X121353022Y-93652890D01*
X121402021Y-93534598D01*
X121427000Y-93409019D01*
X121427000Y-93280981D01*
X121402021Y-93155402D01*
X121353022Y-93037110D01*
X121281888Y-92930649D01*
X121191351Y-92840112D01*
X121084890Y-92768978D01*
X120966598Y-92719979D01*
X120841019Y-92695000D01*
X120712981Y-92695000D01*
X120587402Y-92719979D01*
X120469110Y-92768978D01*
X120362649Y-92840112D01*
X120272112Y-92930649D01*
X120200978Y-93037110D01*
X120151979Y-93155402D01*
X120127000Y-93280981D01*
X119776000Y-93280981D01*
X119751021Y-93155402D01*
X119702022Y-93037110D01*
X119630888Y-92930649D01*
X119540351Y-92840112D01*
X119433890Y-92768978D01*
X119315598Y-92719979D01*
X119190019Y-92695000D01*
X119061981Y-92695000D01*
X118936402Y-92719979D01*
X118818110Y-92768978D01*
X118711649Y-92840112D01*
X118621112Y-92930649D01*
X118549978Y-93037110D01*
X118500979Y-93155402D01*
X118476000Y-93280981D01*
X118125000Y-93280981D01*
X118100021Y-93155402D01*
X118051022Y-93037110D01*
X117979888Y-92930649D01*
X117889351Y-92840112D01*
X117782890Y-92768978D01*
X117664598Y-92719979D01*
X117539019Y-92695000D01*
X117410981Y-92695000D01*
X117285402Y-92719979D01*
X117167110Y-92768978D01*
X117060649Y-92840112D01*
X116970112Y-92930649D01*
X116898978Y-93037110D01*
X116849979Y-93155402D01*
X116825000Y-93280981D01*
X111267000Y-93280981D01*
X111242021Y-93155402D01*
X111193022Y-93037110D01*
X111121888Y-92930649D01*
X111031351Y-92840112D01*
X110924890Y-92768978D01*
X110806598Y-92719979D01*
X110681019Y-92695000D01*
X110552981Y-92695000D01*
X110427402Y-92719979D01*
X110309110Y-92768978D01*
X110202649Y-92840112D01*
X110112112Y-92930649D01*
X110040978Y-93037110D01*
X109991979Y-93155402D01*
X109967000Y-93280981D01*
X109616000Y-93280981D01*
X109591021Y-93155402D01*
X109542022Y-93037110D01*
X109470888Y-92930649D01*
X109380351Y-92840112D01*
X109273890Y-92768978D01*
X109155598Y-92719979D01*
X109030019Y-92695000D01*
X108901981Y-92695000D01*
X108776402Y-92719979D01*
X108658110Y-92768978D01*
X108551649Y-92840112D01*
X108461112Y-92930649D01*
X108389978Y-93037110D01*
X108340979Y-93155402D01*
X108316000Y-93280981D01*
X107965000Y-93280981D01*
X107940021Y-93155402D01*
X107891022Y-93037110D01*
X107819888Y-92930649D01*
X107729351Y-92840112D01*
X107622890Y-92768978D01*
X107504598Y-92719979D01*
X107379019Y-92695000D01*
X107250981Y-92695000D01*
X107125402Y-92719979D01*
X107007110Y-92768978D01*
X106900649Y-92840112D01*
X106810112Y-92930649D01*
X106738978Y-93037110D01*
X106689979Y-93155402D01*
X106665000Y-93280981D01*
X105785000Y-93280981D01*
X105785000Y-91629981D01*
X106665000Y-91629981D01*
X106665000Y-91758019D01*
X106689979Y-91883598D01*
X106738978Y-92001890D01*
X106810112Y-92108351D01*
X106900649Y-92198888D01*
X107007110Y-92270022D01*
X107125402Y-92319021D01*
X107250981Y-92344000D01*
X107379019Y-92344000D01*
X107504598Y-92319021D01*
X107622890Y-92270022D01*
X107729351Y-92198888D01*
X107819888Y-92108351D01*
X107891022Y-92001890D01*
X107940021Y-91883598D01*
X107965000Y-91758019D01*
X107965000Y-91629981D01*
X109967000Y-91629981D01*
X109967000Y-91758019D01*
X109991979Y-91883598D01*
X110040978Y-92001890D01*
X110112112Y-92108351D01*
X110202649Y-92198888D01*
X110309110Y-92270022D01*
X110427402Y-92319021D01*
X110552981Y-92344000D01*
X110681019Y-92344000D01*
X110806598Y-92319021D01*
X110924890Y-92270022D01*
X111031351Y-92198888D01*
X111121888Y-92108351D01*
X111193022Y-92001890D01*
X111242021Y-91883598D01*
X111267000Y-91758019D01*
X111267000Y-91629981D01*
X116825000Y-91629981D01*
X116825000Y-91758019D01*
X116849979Y-91883598D01*
X116898978Y-92001890D01*
X116970112Y-92108351D01*
X117060649Y-92198888D01*
X117167110Y-92270022D01*
X117285402Y-92319021D01*
X117410981Y-92344000D01*
X117539019Y-92344000D01*
X117664598Y-92319021D01*
X117782890Y-92270022D01*
X117889351Y-92198888D01*
X117979888Y-92108351D01*
X118051022Y-92001890D01*
X118100021Y-91883598D01*
X118125000Y-91758019D01*
X118125000Y-91629981D01*
X120127000Y-91629981D01*
X120127000Y-91758019D01*
X120151979Y-91883598D01*
X120200978Y-92001890D01*
X120272112Y-92108351D01*
X120362649Y-92198888D01*
X120469110Y-92270022D01*
X120587402Y-92319021D01*
X120712981Y-92344000D01*
X120841019Y-92344000D01*
X120966598Y-92319021D01*
X121084890Y-92270022D01*
X121191351Y-92198888D01*
X121281888Y-92108351D01*
X121353022Y-92001890D01*
X121402021Y-91883598D01*
X121427000Y-91758019D01*
X121427000Y-91629981D01*
X121402021Y-91504402D01*
X121353022Y-91386110D01*
X121310059Y-91321810D01*
X157550000Y-91321810D01*
X157550000Y-91558190D01*
X157596116Y-91790027D01*
X157686574Y-92008413D01*
X157817899Y-92204955D01*
X157985045Y-92372101D01*
X158181587Y-92503426D01*
X158399973Y-92593884D01*
X158631810Y-92640000D01*
X158868190Y-92640000D01*
X159100027Y-92593884D01*
X159318413Y-92503426D01*
X159514955Y-92372101D01*
X159682101Y-92204955D01*
X159813426Y-92008413D01*
X159852119Y-91915000D01*
X160718761Y-91915000D01*
X160748649Y-91944888D01*
X160855110Y-92016022D01*
X160973402Y-92065021D01*
X161098981Y-92090000D01*
X161227019Y-92090000D01*
X161352598Y-92065021D01*
X161470890Y-92016022D01*
X161493475Y-92000931D01*
X161496574Y-92008413D01*
X161627899Y-92204955D01*
X161795045Y-92372101D01*
X161991587Y-92503426D01*
X162209973Y-92593884D01*
X162441810Y-92640000D01*
X162678190Y-92640000D01*
X162910027Y-92593884D01*
X163128413Y-92503426D01*
X163324955Y-92372101D01*
X163492101Y-92204955D01*
X163623426Y-92008413D01*
X163713884Y-91790027D01*
X163760000Y-91558190D01*
X163760000Y-91321810D01*
X163713884Y-91089973D01*
X163623426Y-90871587D01*
X163492101Y-90675045D01*
X163324955Y-90507899D01*
X163128413Y-90376574D01*
X162910027Y-90286116D01*
X162678190Y-90240000D01*
X162441810Y-90240000D01*
X162209973Y-90286116D01*
X161991587Y-90376574D01*
X161795045Y-90507899D01*
X161627899Y-90675045D01*
X161496574Y-90871587D01*
X161493475Y-90879069D01*
X161470890Y-90863978D01*
X161352598Y-90814979D01*
X161227019Y-90790000D01*
X161098981Y-90790000D01*
X160973402Y-90814979D01*
X160855110Y-90863978D01*
X160748649Y-90935112D01*
X160718761Y-90965000D01*
X159852119Y-90965000D01*
X159813426Y-90871587D01*
X159682101Y-90675045D01*
X159514955Y-90507899D01*
X159318413Y-90376574D01*
X159100027Y-90286116D01*
X158868190Y-90240000D01*
X158631810Y-90240000D01*
X158399973Y-90286116D01*
X158181587Y-90376574D01*
X157985045Y-90507899D01*
X157817899Y-90675045D01*
X157686574Y-90871587D01*
X157596116Y-91089973D01*
X157550000Y-91321810D01*
X121310059Y-91321810D01*
X121281888Y-91279649D01*
X121191351Y-91189112D01*
X121084890Y-91117978D01*
X120966598Y-91068979D01*
X120841019Y-91044000D01*
X120712981Y-91044000D01*
X120587402Y-91068979D01*
X120469110Y-91117978D01*
X120362649Y-91189112D01*
X120272112Y-91279649D01*
X120200978Y-91386110D01*
X120151979Y-91504402D01*
X120127000Y-91629981D01*
X118125000Y-91629981D01*
X118100021Y-91504402D01*
X118051022Y-91386110D01*
X117979888Y-91279649D01*
X117889351Y-91189112D01*
X117782890Y-91117978D01*
X117664598Y-91068979D01*
X117539019Y-91044000D01*
X117410981Y-91044000D01*
X117285402Y-91068979D01*
X117167110Y-91117978D01*
X117060649Y-91189112D01*
X116970112Y-91279649D01*
X116898978Y-91386110D01*
X116849979Y-91504402D01*
X116825000Y-91629981D01*
X111267000Y-91629981D01*
X111242021Y-91504402D01*
X111193022Y-91386110D01*
X111121888Y-91279649D01*
X111031351Y-91189112D01*
X110924890Y-91117978D01*
X110806598Y-91068979D01*
X110681019Y-91044000D01*
X110552981Y-91044000D01*
X110427402Y-91068979D01*
X110309110Y-91117978D01*
X110202649Y-91189112D01*
X110112112Y-91279649D01*
X110040978Y-91386110D01*
X109991979Y-91504402D01*
X109967000Y-91629981D01*
X107965000Y-91629981D01*
X107940021Y-91504402D01*
X107891022Y-91386110D01*
X107819888Y-91279649D01*
X107729351Y-91189112D01*
X107622890Y-91117978D01*
X107504598Y-91068979D01*
X107379019Y-91044000D01*
X107250981Y-91044000D01*
X107125402Y-91068979D01*
X107007110Y-91117978D01*
X106900649Y-91189112D01*
X106810112Y-91279649D01*
X106738978Y-91386110D01*
X106689979Y-91504402D01*
X106665000Y-91629981D01*
X105785000Y-91629981D01*
X105785000Y-89978981D01*
X106665000Y-89978981D01*
X106665000Y-90107019D01*
X106689979Y-90232598D01*
X106738978Y-90350890D01*
X106810112Y-90457351D01*
X106900649Y-90547888D01*
X107007110Y-90619022D01*
X107125402Y-90668021D01*
X107250981Y-90693000D01*
X107379019Y-90693000D01*
X107504598Y-90668021D01*
X107622890Y-90619022D01*
X107729351Y-90547888D01*
X107819888Y-90457351D01*
X107891022Y-90350890D01*
X107940021Y-90232598D01*
X107965000Y-90107019D01*
X107965000Y-89978981D01*
X108316000Y-89978981D01*
X108316000Y-90107019D01*
X108340979Y-90232598D01*
X108389978Y-90350890D01*
X108461112Y-90457351D01*
X108551649Y-90547888D01*
X108658110Y-90619022D01*
X108776402Y-90668021D01*
X108901981Y-90693000D01*
X109030019Y-90693000D01*
X109155598Y-90668021D01*
X109273890Y-90619022D01*
X109380351Y-90547888D01*
X109470888Y-90457351D01*
X109542022Y-90350890D01*
X109591021Y-90232598D01*
X109616000Y-90107019D01*
X109616000Y-89978981D01*
X109967000Y-89978981D01*
X109967000Y-90107019D01*
X109991979Y-90232598D01*
X110040978Y-90350890D01*
X110112112Y-90457351D01*
X110202649Y-90547888D01*
X110309110Y-90619022D01*
X110427402Y-90668021D01*
X110552981Y-90693000D01*
X110681019Y-90693000D01*
X110806598Y-90668021D01*
X110924890Y-90619022D01*
X111031351Y-90547888D01*
X111121888Y-90457351D01*
X111193022Y-90350890D01*
X111242021Y-90232598D01*
X111267000Y-90107019D01*
X111267000Y-89978981D01*
X116825000Y-89978981D01*
X116825000Y-90107019D01*
X116849979Y-90232598D01*
X116898978Y-90350890D01*
X116970112Y-90457351D01*
X117060649Y-90547888D01*
X117167110Y-90619022D01*
X117285402Y-90668021D01*
X117410981Y-90693000D01*
X117539019Y-90693000D01*
X117664598Y-90668021D01*
X117782890Y-90619022D01*
X117889351Y-90547888D01*
X117979888Y-90457351D01*
X118051022Y-90350890D01*
X118100021Y-90232598D01*
X118125000Y-90107019D01*
X118125000Y-89978981D01*
X118476000Y-89978981D01*
X118476000Y-90107019D01*
X118500979Y-90232598D01*
X118549978Y-90350890D01*
X118621112Y-90457351D01*
X118711649Y-90547888D01*
X118818110Y-90619022D01*
X118936402Y-90668021D01*
X119061981Y-90693000D01*
X119190019Y-90693000D01*
X119315598Y-90668021D01*
X119433890Y-90619022D01*
X119525725Y-90557661D01*
X119595110Y-90604022D01*
X119713402Y-90653021D01*
X119838981Y-90678000D01*
X119967019Y-90678000D01*
X120092598Y-90653021D01*
X120210890Y-90604022D01*
X120317351Y-90532888D01*
X120332500Y-90517739D01*
X120362649Y-90547888D01*
X120469110Y-90619022D01*
X120587402Y-90668021D01*
X120712981Y-90693000D01*
X120841019Y-90693000D01*
X120966598Y-90668021D01*
X121084890Y-90619022D01*
X121191351Y-90547888D01*
X121281888Y-90457351D01*
X121353022Y-90350890D01*
X121402021Y-90232598D01*
X121427000Y-90107019D01*
X121427000Y-89978981D01*
X121402021Y-89853402D01*
X121353022Y-89735110D01*
X121281888Y-89628649D01*
X121191351Y-89538112D01*
X121084890Y-89466978D01*
X120966598Y-89417979D01*
X120841019Y-89393000D01*
X120712981Y-89393000D01*
X120587402Y-89417979D01*
X120469110Y-89466978D01*
X120362649Y-89538112D01*
X120347500Y-89553261D01*
X120317351Y-89523112D01*
X120210890Y-89451978D01*
X120092598Y-89402979D01*
X119967019Y-89378000D01*
X119838981Y-89378000D01*
X119713402Y-89402979D01*
X119595110Y-89451978D01*
X119503275Y-89513339D01*
X119433890Y-89466978D01*
X119315598Y-89417979D01*
X119190019Y-89393000D01*
X119061981Y-89393000D01*
X118936402Y-89417979D01*
X118818110Y-89466978D01*
X118711649Y-89538112D01*
X118621112Y-89628649D01*
X118549978Y-89735110D01*
X118500979Y-89853402D01*
X118476000Y-89978981D01*
X118125000Y-89978981D01*
X118100021Y-89853402D01*
X118051022Y-89735110D01*
X117979888Y-89628649D01*
X117889351Y-89538112D01*
X117782890Y-89466978D01*
X117664598Y-89417979D01*
X117539019Y-89393000D01*
X117410981Y-89393000D01*
X117285402Y-89417979D01*
X117167110Y-89466978D01*
X117060649Y-89538112D01*
X116970112Y-89628649D01*
X116898978Y-89735110D01*
X116849979Y-89853402D01*
X116825000Y-89978981D01*
X111267000Y-89978981D01*
X111242021Y-89853402D01*
X111193022Y-89735110D01*
X111121888Y-89628649D01*
X111031351Y-89538112D01*
X110924890Y-89466978D01*
X110806598Y-89417979D01*
X110681019Y-89393000D01*
X110552981Y-89393000D01*
X110427402Y-89417979D01*
X110309110Y-89466978D01*
X110202649Y-89538112D01*
X110112112Y-89628649D01*
X110040978Y-89735110D01*
X109991979Y-89853402D01*
X109967000Y-89978981D01*
X109616000Y-89978981D01*
X109591021Y-89853402D01*
X109542022Y-89735110D01*
X109470888Y-89628649D01*
X109380351Y-89538112D01*
X109273890Y-89466978D01*
X109155598Y-89417979D01*
X109030019Y-89393000D01*
X108901981Y-89393000D01*
X108776402Y-89417979D01*
X108658110Y-89466978D01*
X108551649Y-89538112D01*
X108461112Y-89628649D01*
X108389978Y-89735110D01*
X108340979Y-89853402D01*
X108316000Y-89978981D01*
X107965000Y-89978981D01*
X107940021Y-89853402D01*
X107891022Y-89735110D01*
X107819888Y-89628649D01*
X107729351Y-89538112D01*
X107622890Y-89466978D01*
X107504598Y-89417979D01*
X107379019Y-89393000D01*
X107250981Y-89393000D01*
X107125402Y-89417979D01*
X107007110Y-89466978D01*
X106900649Y-89538112D01*
X106810112Y-89628649D01*
X106738978Y-89735110D01*
X106689979Y-89853402D01*
X106665000Y-89978981D01*
X105785000Y-89978981D01*
X105785000Y-85270131D01*
X115455000Y-85270131D01*
X115455000Y-85417869D01*
X115483822Y-85562767D01*
X115540359Y-85699258D01*
X115622437Y-85822097D01*
X115726903Y-85926563D01*
X115849742Y-86008641D01*
X115986233Y-86065178D01*
X116131131Y-86094000D01*
X116278869Y-86094000D01*
X116423767Y-86065178D01*
X116560258Y-86008641D01*
X116683097Y-85926563D01*
X116715660Y-85894000D01*
X128931183Y-85894000D01*
X130123500Y-87086318D01*
X130123500Y-87132369D01*
X130152322Y-87277267D01*
X130208859Y-87413758D01*
X130290937Y-87536597D01*
X130395403Y-87641063D01*
X130518242Y-87723141D01*
X130654733Y-87779678D01*
X130799631Y-87808500D01*
X130845683Y-87808500D01*
X132981000Y-89943818D01*
X132981000Y-89989869D01*
X133009822Y-90134767D01*
X133066359Y-90271258D01*
X133148437Y-90394097D01*
X133252903Y-90498563D01*
X133375742Y-90580641D01*
X133512233Y-90637178D01*
X133657131Y-90666000D01*
X133804869Y-90666000D01*
X133949767Y-90637178D01*
X134086258Y-90580641D01*
X134209097Y-90498563D01*
X134313563Y-90394097D01*
X134395641Y-90271258D01*
X134452178Y-90134767D01*
X134481000Y-89989869D01*
X134481000Y-89842131D01*
X134452178Y-89697233D01*
X134395641Y-89560742D01*
X134313563Y-89437903D01*
X134209097Y-89333437D01*
X134086258Y-89251359D01*
X133949767Y-89194822D01*
X133804869Y-89166000D01*
X133758818Y-89166000D01*
X133374628Y-88781810D01*
X157550000Y-88781810D01*
X157550000Y-89018190D01*
X157596116Y-89250027D01*
X157686574Y-89468413D01*
X157817899Y-89664955D01*
X157985045Y-89832101D01*
X158181587Y-89963426D01*
X158399973Y-90053884D01*
X158631810Y-90100000D01*
X158868190Y-90100000D01*
X159100027Y-90053884D01*
X159318413Y-89963426D01*
X159514955Y-89832101D01*
X159682101Y-89664955D01*
X159813426Y-89468413D01*
X159852119Y-89375000D01*
X160718761Y-89375000D01*
X160748649Y-89404888D01*
X160855110Y-89476022D01*
X160973402Y-89525021D01*
X161098981Y-89550000D01*
X161227019Y-89550000D01*
X161352598Y-89525021D01*
X161470890Y-89476022D01*
X161493475Y-89460931D01*
X161496574Y-89468413D01*
X161627899Y-89664955D01*
X161795045Y-89832101D01*
X161991587Y-89963426D01*
X162209973Y-90053884D01*
X162441810Y-90100000D01*
X162678190Y-90100000D01*
X162910027Y-90053884D01*
X163128413Y-89963426D01*
X163324955Y-89832101D01*
X163492101Y-89664955D01*
X163623426Y-89468413D01*
X163713884Y-89250027D01*
X163760000Y-89018190D01*
X163760000Y-88781810D01*
X163713884Y-88549973D01*
X163623426Y-88331587D01*
X163492101Y-88135045D01*
X163324955Y-87967899D01*
X163128413Y-87836574D01*
X162910027Y-87746116D01*
X162678190Y-87700000D01*
X162441810Y-87700000D01*
X162209973Y-87746116D01*
X161991587Y-87836574D01*
X161795045Y-87967899D01*
X161627899Y-88135045D01*
X161496574Y-88331587D01*
X161493475Y-88339069D01*
X161470890Y-88323978D01*
X161352598Y-88274979D01*
X161227019Y-88250000D01*
X161098981Y-88250000D01*
X160973402Y-88274979D01*
X160855110Y-88323978D01*
X160748649Y-88395112D01*
X160718761Y-88425000D01*
X159852119Y-88425000D01*
X159813426Y-88331587D01*
X159682101Y-88135045D01*
X159514955Y-87967899D01*
X159318413Y-87836574D01*
X159100027Y-87746116D01*
X158868190Y-87700000D01*
X158631810Y-87700000D01*
X158399973Y-87746116D01*
X158181587Y-87836574D01*
X157985045Y-87967899D01*
X157817899Y-88135045D01*
X157686574Y-88331587D01*
X157596116Y-88549973D01*
X157550000Y-88781810D01*
X133374628Y-88781810D01*
X131623500Y-87030683D01*
X131623500Y-86984631D01*
X131594678Y-86839733D01*
X131538141Y-86703242D01*
X131456063Y-86580403D01*
X131351597Y-86475937D01*
X131228758Y-86393859D01*
X131092267Y-86337322D01*
X130947369Y-86308500D01*
X130901318Y-86308500D01*
X130888799Y-86295981D01*
X156449000Y-86295981D01*
X156449000Y-86424019D01*
X156473979Y-86549598D01*
X156522978Y-86667890D01*
X156594112Y-86774351D01*
X156684649Y-86864888D01*
X156791110Y-86936022D01*
X156909402Y-86985021D01*
X157034981Y-87010000D01*
X157163019Y-87010000D01*
X157288598Y-86985021D01*
X157406890Y-86936022D01*
X157513351Y-86864888D01*
X157603888Y-86774351D01*
X157615538Y-86756916D01*
X157686574Y-86928413D01*
X157817899Y-87124955D01*
X157985045Y-87292101D01*
X158181587Y-87423426D01*
X158399973Y-87513884D01*
X158631810Y-87560000D01*
X158868190Y-87560000D01*
X159100027Y-87513884D01*
X159318413Y-87423426D01*
X159514955Y-87292101D01*
X159682101Y-87124955D01*
X159813426Y-86928413D01*
X159852119Y-86835000D01*
X160718761Y-86835000D01*
X160748649Y-86864888D01*
X160855110Y-86936022D01*
X160973402Y-86985021D01*
X161098981Y-87010000D01*
X161227019Y-87010000D01*
X161352598Y-86985021D01*
X161470890Y-86936022D01*
X161493475Y-86920931D01*
X161496574Y-86928413D01*
X161627899Y-87124955D01*
X161795045Y-87292101D01*
X161991587Y-87423426D01*
X162209973Y-87513884D01*
X162441810Y-87560000D01*
X162678190Y-87560000D01*
X162910027Y-87513884D01*
X163128413Y-87423426D01*
X163324955Y-87292101D01*
X163492101Y-87124955D01*
X163623426Y-86928413D01*
X163713884Y-86710027D01*
X163760000Y-86478190D01*
X163760000Y-86241810D01*
X163713884Y-86009973D01*
X163623426Y-85791587D01*
X163492101Y-85595045D01*
X163324955Y-85427899D01*
X163128413Y-85296574D01*
X162910027Y-85206116D01*
X162678190Y-85160000D01*
X162441810Y-85160000D01*
X162209973Y-85206116D01*
X161991587Y-85296574D01*
X161795045Y-85427899D01*
X161627899Y-85595045D01*
X161496574Y-85791587D01*
X161493475Y-85799069D01*
X161470890Y-85783978D01*
X161352598Y-85734979D01*
X161227019Y-85710000D01*
X161098981Y-85710000D01*
X160973402Y-85734979D01*
X160855110Y-85783978D01*
X160748649Y-85855112D01*
X160718761Y-85885000D01*
X159852119Y-85885000D01*
X159813426Y-85791587D01*
X159682101Y-85595045D01*
X159514955Y-85427899D01*
X159318413Y-85296574D01*
X159100027Y-85206116D01*
X158868190Y-85160000D01*
X158631810Y-85160000D01*
X158399973Y-85206116D01*
X158181587Y-85296574D01*
X157985045Y-85427899D01*
X157817899Y-85595045D01*
X157686574Y-85791587D01*
X157615538Y-85963084D01*
X157603888Y-85945649D01*
X157513351Y-85855112D01*
X157406890Y-85783978D01*
X157288598Y-85734979D01*
X157163019Y-85710000D01*
X157034981Y-85710000D01*
X156909402Y-85734979D01*
X156791110Y-85783978D01*
X156684649Y-85855112D01*
X156594112Y-85945649D01*
X156522978Y-86052110D01*
X156473979Y-86170402D01*
X156449000Y-86295981D01*
X130888799Y-86295981D01*
X129709000Y-85116183D01*
X129709000Y-75110131D01*
X138696000Y-75110131D01*
X138696000Y-75257869D01*
X138724822Y-75402767D01*
X138781359Y-75539258D01*
X138863437Y-75662097D01*
X138967903Y-75766563D01*
X139090742Y-75848641D01*
X139227233Y-75905178D01*
X139372131Y-75934000D01*
X139418183Y-75934000D01*
X144230000Y-80745818D01*
X144230001Y-84071339D01*
X144197437Y-84103903D01*
X144115359Y-84226742D01*
X144058822Y-84363233D01*
X144030000Y-84508131D01*
X144030000Y-84655869D01*
X144058822Y-84800767D01*
X144115359Y-84937258D01*
X144197437Y-85060097D01*
X144301903Y-85164563D01*
X144424742Y-85246641D01*
X144561233Y-85303178D01*
X144706131Y-85332000D01*
X144853869Y-85332000D01*
X144998767Y-85303178D01*
X145135258Y-85246641D01*
X145258097Y-85164563D01*
X145362563Y-85060097D01*
X145444641Y-84937258D01*
X145501178Y-84800767D01*
X145530000Y-84655869D01*
X145530000Y-84508131D01*
X145501178Y-84363233D01*
X145444641Y-84226742D01*
X145362563Y-84103903D01*
X145330000Y-84071340D01*
X145330000Y-83701810D01*
X157550000Y-83701810D01*
X157550000Y-83938190D01*
X157596116Y-84170027D01*
X157686574Y-84388413D01*
X157817899Y-84584955D01*
X157985045Y-84752101D01*
X158181587Y-84883426D01*
X158399973Y-84973884D01*
X158631810Y-85020000D01*
X158868190Y-85020000D01*
X159100027Y-84973884D01*
X159318413Y-84883426D01*
X159514955Y-84752101D01*
X159682101Y-84584955D01*
X159813426Y-84388413D01*
X159852119Y-84295000D01*
X160718761Y-84295000D01*
X160748649Y-84324888D01*
X160855110Y-84396022D01*
X160973402Y-84445021D01*
X161098981Y-84470000D01*
X161227019Y-84470000D01*
X161352598Y-84445021D01*
X161470890Y-84396022D01*
X161493475Y-84380931D01*
X161496574Y-84388413D01*
X161627899Y-84584955D01*
X161795045Y-84752101D01*
X161991587Y-84883426D01*
X162209973Y-84973884D01*
X162441810Y-85020000D01*
X162678190Y-85020000D01*
X162910027Y-84973884D01*
X163128413Y-84883426D01*
X163324955Y-84752101D01*
X163492101Y-84584955D01*
X163623426Y-84388413D01*
X163713884Y-84170027D01*
X163760000Y-83938190D01*
X163760000Y-83701810D01*
X163713884Y-83469973D01*
X163623426Y-83251587D01*
X163492101Y-83055045D01*
X163324955Y-82887899D01*
X163128413Y-82756574D01*
X162910027Y-82666116D01*
X162678190Y-82620000D01*
X162441810Y-82620000D01*
X162209973Y-82666116D01*
X161991587Y-82756574D01*
X161795045Y-82887899D01*
X161627899Y-83055045D01*
X161496574Y-83251587D01*
X161493475Y-83259069D01*
X161470890Y-83243978D01*
X161352598Y-83194979D01*
X161227019Y-83170000D01*
X161098981Y-83170000D01*
X160973402Y-83194979D01*
X160855110Y-83243978D01*
X160748649Y-83315112D01*
X160718761Y-83345000D01*
X159852119Y-83345000D01*
X159813426Y-83251587D01*
X159682101Y-83055045D01*
X159514955Y-82887899D01*
X159318413Y-82756574D01*
X159100027Y-82666116D01*
X158868190Y-82620000D01*
X158631810Y-82620000D01*
X158399973Y-82666116D01*
X158181587Y-82756574D01*
X157985045Y-82887899D01*
X157817899Y-83055045D01*
X157686574Y-83251587D01*
X157596116Y-83469973D01*
X157550000Y-83701810D01*
X145330000Y-83701810D01*
X145330000Y-81215981D01*
X156449000Y-81215981D01*
X156449000Y-81344019D01*
X156473979Y-81469598D01*
X156522978Y-81587890D01*
X156594112Y-81694351D01*
X156684649Y-81784888D01*
X156791110Y-81856022D01*
X156909402Y-81905021D01*
X157034981Y-81930000D01*
X157163019Y-81930000D01*
X157288598Y-81905021D01*
X157406890Y-81856022D01*
X157513351Y-81784888D01*
X157603888Y-81694351D01*
X157615538Y-81676916D01*
X157686574Y-81848413D01*
X157817899Y-82044955D01*
X157985045Y-82212101D01*
X158181587Y-82343426D01*
X158399973Y-82433884D01*
X158631810Y-82480000D01*
X158868190Y-82480000D01*
X159100027Y-82433884D01*
X159318413Y-82343426D01*
X159514955Y-82212101D01*
X159682101Y-82044955D01*
X159813426Y-81848413D01*
X159852119Y-81755000D01*
X160718761Y-81755000D01*
X160748649Y-81784888D01*
X160855110Y-81856022D01*
X160973402Y-81905021D01*
X161098981Y-81930000D01*
X161227019Y-81930000D01*
X161352598Y-81905021D01*
X161470890Y-81856022D01*
X161493475Y-81840931D01*
X161496574Y-81848413D01*
X161627899Y-82044955D01*
X161795045Y-82212101D01*
X161991587Y-82343426D01*
X162209973Y-82433884D01*
X162441810Y-82480000D01*
X162678190Y-82480000D01*
X162910027Y-82433884D01*
X163128413Y-82343426D01*
X163324955Y-82212101D01*
X163492101Y-82044955D01*
X163623426Y-81848413D01*
X163713884Y-81630027D01*
X163760000Y-81398190D01*
X163760000Y-81161810D01*
X163713884Y-80929973D01*
X163623426Y-80711587D01*
X163492101Y-80515045D01*
X163324955Y-80347899D01*
X163128413Y-80216574D01*
X162910027Y-80126116D01*
X162678190Y-80080000D01*
X162441810Y-80080000D01*
X162209973Y-80126116D01*
X161991587Y-80216574D01*
X161795045Y-80347899D01*
X161627899Y-80515045D01*
X161496574Y-80711587D01*
X161493475Y-80719069D01*
X161470890Y-80703978D01*
X161352598Y-80654979D01*
X161227019Y-80630000D01*
X161098981Y-80630000D01*
X160973402Y-80654979D01*
X160855110Y-80703978D01*
X160748649Y-80775112D01*
X160718761Y-80805000D01*
X159852119Y-80805000D01*
X159813426Y-80711587D01*
X159682101Y-80515045D01*
X159514955Y-80347899D01*
X159318413Y-80216574D01*
X159100027Y-80126116D01*
X158868190Y-80080000D01*
X158631810Y-80080000D01*
X158399973Y-80126116D01*
X158181587Y-80216574D01*
X157985045Y-80347899D01*
X157817899Y-80515045D01*
X157686574Y-80711587D01*
X157615538Y-80883084D01*
X157603888Y-80865649D01*
X157513351Y-80775112D01*
X157406890Y-80703978D01*
X157288598Y-80654979D01*
X157163019Y-80630000D01*
X157034981Y-80630000D01*
X156909402Y-80654979D01*
X156791110Y-80703978D01*
X156684649Y-80775112D01*
X156594112Y-80865649D01*
X156522978Y-80972110D01*
X156473979Y-81090402D01*
X156449000Y-81215981D01*
X145330000Y-81215981D01*
X145330000Y-80545007D01*
X145332660Y-80517999D01*
X145330000Y-80490991D01*
X145330000Y-80490982D01*
X145322042Y-80410181D01*
X145290592Y-80306506D01*
X145242523Y-80216574D01*
X145239521Y-80210957D01*
X145188013Y-80148195D01*
X145188008Y-80148190D01*
X145170790Y-80127210D01*
X145149810Y-80109992D01*
X143715799Y-78675981D01*
X156449000Y-78675981D01*
X156449000Y-78804019D01*
X156473979Y-78929598D01*
X156522978Y-79047890D01*
X156594112Y-79154351D01*
X156684649Y-79244888D01*
X156791110Y-79316022D01*
X156909402Y-79365021D01*
X157034981Y-79390000D01*
X157163019Y-79390000D01*
X157288598Y-79365021D01*
X157406890Y-79316022D01*
X157513351Y-79244888D01*
X157603888Y-79154351D01*
X157615538Y-79136916D01*
X157686574Y-79308413D01*
X157817899Y-79504955D01*
X157985045Y-79672101D01*
X158181587Y-79803426D01*
X158399973Y-79893884D01*
X158631810Y-79940000D01*
X158868190Y-79940000D01*
X159100027Y-79893884D01*
X159318413Y-79803426D01*
X159514955Y-79672101D01*
X159682101Y-79504955D01*
X159813426Y-79308413D01*
X159852119Y-79215000D01*
X160718761Y-79215000D01*
X160748649Y-79244888D01*
X160855110Y-79316022D01*
X160973402Y-79365021D01*
X161098981Y-79390000D01*
X161227019Y-79390000D01*
X161352598Y-79365021D01*
X161470890Y-79316022D01*
X161493475Y-79300931D01*
X161496574Y-79308413D01*
X161627899Y-79504955D01*
X161795045Y-79672101D01*
X161991587Y-79803426D01*
X162209973Y-79893884D01*
X162441810Y-79940000D01*
X162678190Y-79940000D01*
X162910027Y-79893884D01*
X163128413Y-79803426D01*
X163324955Y-79672101D01*
X163492101Y-79504955D01*
X163623426Y-79308413D01*
X163713884Y-79090027D01*
X163760000Y-78858190D01*
X163760000Y-78621810D01*
X163713884Y-78389973D01*
X163623426Y-78171587D01*
X163492101Y-77975045D01*
X163324955Y-77807899D01*
X163128413Y-77676574D01*
X162910027Y-77586116D01*
X162678190Y-77540000D01*
X162441810Y-77540000D01*
X162209973Y-77586116D01*
X161991587Y-77676574D01*
X161795045Y-77807899D01*
X161627899Y-77975045D01*
X161496574Y-78171587D01*
X161493475Y-78179069D01*
X161470890Y-78163978D01*
X161352598Y-78114979D01*
X161227019Y-78090000D01*
X161098981Y-78090000D01*
X160973402Y-78114979D01*
X160855110Y-78163978D01*
X160748649Y-78235112D01*
X160718761Y-78265000D01*
X159852119Y-78265000D01*
X159813426Y-78171587D01*
X159682101Y-77975045D01*
X159514955Y-77807899D01*
X159318413Y-77676574D01*
X159100027Y-77586116D01*
X158868190Y-77540000D01*
X158631810Y-77540000D01*
X158399973Y-77586116D01*
X158181587Y-77676574D01*
X157985045Y-77807899D01*
X157817899Y-77975045D01*
X157686574Y-78171587D01*
X157615538Y-78343084D01*
X157603888Y-78325649D01*
X157513351Y-78235112D01*
X157406890Y-78163978D01*
X157288598Y-78114979D01*
X157163019Y-78090000D01*
X157034981Y-78090000D01*
X156909402Y-78114979D01*
X156791110Y-78163978D01*
X156684649Y-78235112D01*
X156594112Y-78325649D01*
X156522978Y-78432110D01*
X156473979Y-78550402D01*
X156449000Y-78675981D01*
X143715799Y-78675981D01*
X141121628Y-76081810D01*
X157550000Y-76081810D01*
X157550000Y-76318190D01*
X157596116Y-76550027D01*
X157686574Y-76768413D01*
X157817899Y-76964955D01*
X157985045Y-77132101D01*
X158181587Y-77263426D01*
X158399973Y-77353884D01*
X158631810Y-77400000D01*
X158868190Y-77400000D01*
X159100027Y-77353884D01*
X159318413Y-77263426D01*
X159514955Y-77132101D01*
X159682101Y-76964955D01*
X159813426Y-76768413D01*
X159852119Y-76675000D01*
X160718761Y-76675000D01*
X160748649Y-76704888D01*
X160855110Y-76776022D01*
X160973402Y-76825021D01*
X161098981Y-76850000D01*
X161227019Y-76850000D01*
X161352598Y-76825021D01*
X161470890Y-76776022D01*
X161493475Y-76760931D01*
X161496574Y-76768413D01*
X161627899Y-76964955D01*
X161795045Y-77132101D01*
X161991587Y-77263426D01*
X162209973Y-77353884D01*
X162441810Y-77400000D01*
X162678190Y-77400000D01*
X162910027Y-77353884D01*
X163128413Y-77263426D01*
X163324955Y-77132101D01*
X163492101Y-76964955D01*
X163623426Y-76768413D01*
X163713884Y-76550027D01*
X163760000Y-76318190D01*
X163760000Y-76081810D01*
X163713884Y-75849973D01*
X163623426Y-75631587D01*
X163492101Y-75435045D01*
X163324955Y-75267899D01*
X163128413Y-75136574D01*
X162910027Y-75046116D01*
X162678190Y-75000000D01*
X162441810Y-75000000D01*
X162209973Y-75046116D01*
X161991587Y-75136574D01*
X161795045Y-75267899D01*
X161627899Y-75435045D01*
X161496574Y-75631587D01*
X161493475Y-75639069D01*
X161470890Y-75623978D01*
X161352598Y-75574979D01*
X161227019Y-75550000D01*
X161098981Y-75550000D01*
X160973402Y-75574979D01*
X160855110Y-75623978D01*
X160748649Y-75695112D01*
X160718761Y-75725000D01*
X159852119Y-75725000D01*
X159813426Y-75631587D01*
X159682101Y-75435045D01*
X159514955Y-75267899D01*
X159318413Y-75136574D01*
X159100027Y-75046116D01*
X158868190Y-75000000D01*
X158631810Y-75000000D01*
X158399973Y-75046116D01*
X158181587Y-75136574D01*
X157985045Y-75267899D01*
X157817899Y-75435045D01*
X157686574Y-75631587D01*
X157596116Y-75849973D01*
X157550000Y-76081810D01*
X141121628Y-76081810D01*
X140196000Y-75156183D01*
X140196000Y-75110131D01*
X140167178Y-74965233D01*
X140110641Y-74828742D01*
X140028563Y-74705903D01*
X139924097Y-74601437D01*
X139801258Y-74519359D01*
X139664767Y-74462822D01*
X139519869Y-74434000D01*
X139372131Y-74434000D01*
X139227233Y-74462822D01*
X139090742Y-74519359D01*
X138967903Y-74601437D01*
X138863437Y-74705903D01*
X138781359Y-74828742D01*
X138724822Y-74965233D01*
X138696000Y-75110131D01*
X129709000Y-75110131D01*
X129709000Y-72744817D01*
X130583818Y-71870000D01*
X130629869Y-71870000D01*
X130749866Y-71846131D01*
X133616000Y-71846131D01*
X133616000Y-71993869D01*
X133644822Y-72138767D01*
X133701359Y-72275258D01*
X133783437Y-72398097D01*
X133887903Y-72502563D01*
X134010742Y-72584641D01*
X134147233Y-72641178D01*
X134292131Y-72670000D01*
X134439869Y-72670000D01*
X134584767Y-72641178D01*
X134721258Y-72584641D01*
X134844097Y-72502563D01*
X134876660Y-72470000D01*
X141796183Y-72470000D01*
X143014000Y-73687817D01*
X143014000Y-73733869D01*
X143042822Y-73878767D01*
X143099359Y-74015258D01*
X143181437Y-74138097D01*
X143285903Y-74242563D01*
X143408742Y-74324641D01*
X143545233Y-74381178D01*
X143690131Y-74410000D01*
X143837869Y-74410000D01*
X143982767Y-74381178D01*
X144119258Y-74324641D01*
X144242097Y-74242563D01*
X144346563Y-74138097D01*
X144428641Y-74015258D01*
X144485178Y-73878767D01*
X144514000Y-73733869D01*
X144514000Y-73595981D01*
X156449000Y-73595981D01*
X156449000Y-73724019D01*
X156473979Y-73849598D01*
X156522978Y-73967890D01*
X156594112Y-74074351D01*
X156684649Y-74164888D01*
X156791110Y-74236022D01*
X156909402Y-74285021D01*
X157034981Y-74310000D01*
X157163019Y-74310000D01*
X157288598Y-74285021D01*
X157406890Y-74236022D01*
X157513351Y-74164888D01*
X157603888Y-74074351D01*
X157615538Y-74056916D01*
X157686574Y-74228413D01*
X157817899Y-74424955D01*
X157985045Y-74592101D01*
X158181587Y-74723426D01*
X158399973Y-74813884D01*
X158631810Y-74860000D01*
X158868190Y-74860000D01*
X159100027Y-74813884D01*
X159318413Y-74723426D01*
X159514955Y-74592101D01*
X159682101Y-74424955D01*
X159813426Y-74228413D01*
X159852119Y-74135000D01*
X160718761Y-74135000D01*
X160748649Y-74164888D01*
X160855110Y-74236022D01*
X160973402Y-74285021D01*
X161098981Y-74310000D01*
X161227019Y-74310000D01*
X161352598Y-74285021D01*
X161470890Y-74236022D01*
X161493475Y-74220931D01*
X161496574Y-74228413D01*
X161627899Y-74424955D01*
X161795045Y-74592101D01*
X161991587Y-74723426D01*
X162209973Y-74813884D01*
X162441810Y-74860000D01*
X162678190Y-74860000D01*
X162910027Y-74813884D01*
X163128413Y-74723426D01*
X163324955Y-74592101D01*
X163492101Y-74424955D01*
X163623426Y-74228413D01*
X163713884Y-74010027D01*
X163760000Y-73778190D01*
X163760000Y-73541810D01*
X163713884Y-73309973D01*
X163623426Y-73091587D01*
X163492101Y-72895045D01*
X163324955Y-72727899D01*
X163128413Y-72596574D01*
X162910027Y-72506116D01*
X162678190Y-72460000D01*
X162441810Y-72460000D01*
X162209973Y-72506116D01*
X161991587Y-72596574D01*
X161795045Y-72727899D01*
X161627899Y-72895045D01*
X161496574Y-73091587D01*
X161493475Y-73099069D01*
X161470890Y-73083978D01*
X161352598Y-73034979D01*
X161227019Y-73010000D01*
X161098981Y-73010000D01*
X160973402Y-73034979D01*
X160855110Y-73083978D01*
X160748649Y-73155112D01*
X160718761Y-73185000D01*
X159852119Y-73185000D01*
X159813426Y-73091587D01*
X159682101Y-72895045D01*
X159514955Y-72727899D01*
X159318413Y-72596574D01*
X159100027Y-72506116D01*
X158868190Y-72460000D01*
X158631810Y-72460000D01*
X158399973Y-72506116D01*
X158181587Y-72596574D01*
X157985045Y-72727899D01*
X157817899Y-72895045D01*
X157686574Y-73091587D01*
X157615538Y-73263084D01*
X157603888Y-73245649D01*
X157513351Y-73155112D01*
X157406890Y-73083978D01*
X157288598Y-73034979D01*
X157163019Y-73010000D01*
X157034981Y-73010000D01*
X156909402Y-73034979D01*
X156791110Y-73083978D01*
X156684649Y-73155112D01*
X156594112Y-73245649D01*
X156522978Y-73352110D01*
X156473979Y-73470402D01*
X156449000Y-73595981D01*
X144514000Y-73595981D01*
X144514000Y-73586131D01*
X144485178Y-73441233D01*
X144428641Y-73304742D01*
X144346563Y-73181903D01*
X144242097Y-73077437D01*
X144119258Y-72995359D01*
X143982767Y-72938822D01*
X143837869Y-72910000D01*
X143791817Y-72910000D01*
X142432013Y-71550196D01*
X142414790Y-71529210D01*
X142331042Y-71460479D01*
X142235494Y-71409408D01*
X142131819Y-71377958D01*
X142051018Y-71370000D01*
X142051008Y-71370000D01*
X142024000Y-71367340D01*
X141996992Y-71370000D01*
X134876660Y-71370000D01*
X134844097Y-71337437D01*
X134840401Y-71334967D01*
X157565346Y-71334967D01*
X157573257Y-71374745D01*
X157645566Y-71599421D01*
X157760318Y-71805673D01*
X157913103Y-71985575D01*
X158098049Y-72132214D01*
X158308049Y-72239954D01*
X158535033Y-72304655D01*
X158723000Y-72235198D01*
X158723000Y-71147000D01*
X158777000Y-71147000D01*
X158777000Y-72235198D01*
X158964967Y-72304655D01*
X159191951Y-72239954D01*
X159401951Y-72132214D01*
X159586897Y-71985575D01*
X159739682Y-71805673D01*
X159854434Y-71599421D01*
X159926743Y-71374745D01*
X159934654Y-71334967D01*
X161375346Y-71334967D01*
X161383257Y-71374745D01*
X161455566Y-71599421D01*
X161570318Y-71805673D01*
X161723103Y-71985575D01*
X161908049Y-72132214D01*
X162118049Y-72239954D01*
X162345033Y-72304655D01*
X162533000Y-72235198D01*
X162533000Y-71147000D01*
X162587000Y-71147000D01*
X162587000Y-72235198D01*
X162774967Y-72304655D01*
X163001951Y-72239954D01*
X163211951Y-72132214D01*
X163396897Y-71985575D01*
X163549682Y-71805673D01*
X163664434Y-71599421D01*
X163736743Y-71374745D01*
X163744654Y-71334967D01*
X163675173Y-71147000D01*
X162587000Y-71147000D01*
X162533000Y-71147000D01*
X161444827Y-71147000D01*
X161375346Y-71334967D01*
X159934654Y-71334967D01*
X159865173Y-71147000D01*
X158777000Y-71147000D01*
X158723000Y-71147000D01*
X157634827Y-71147000D01*
X157565346Y-71334967D01*
X134840401Y-71334967D01*
X134721258Y-71255359D01*
X134584767Y-71198822D01*
X134439869Y-71170000D01*
X134292131Y-71170000D01*
X134147233Y-71198822D01*
X134010742Y-71255359D01*
X133887903Y-71337437D01*
X133783437Y-71441903D01*
X133701359Y-71564742D01*
X133644822Y-71701233D01*
X133616000Y-71846131D01*
X130749866Y-71846131D01*
X130774767Y-71841178D01*
X130911258Y-71784641D01*
X131034097Y-71702563D01*
X131138563Y-71598097D01*
X131220641Y-71475258D01*
X131277178Y-71338767D01*
X131306000Y-71193869D01*
X131306000Y-71046131D01*
X131277934Y-70905033D01*
X157565346Y-70905033D01*
X157634827Y-71093000D01*
X158723000Y-71093000D01*
X158723000Y-70004802D01*
X158777000Y-70004802D01*
X158777000Y-71093000D01*
X159865173Y-71093000D01*
X159934654Y-70905033D01*
X161375346Y-70905033D01*
X161444827Y-71093000D01*
X162533000Y-71093000D01*
X162533000Y-70004802D01*
X162587000Y-70004802D01*
X162587000Y-71093000D01*
X163675173Y-71093000D01*
X163744654Y-70905033D01*
X163736743Y-70865255D01*
X163664434Y-70640579D01*
X163549682Y-70434327D01*
X163396897Y-70254425D01*
X163211951Y-70107786D01*
X163001951Y-70000046D01*
X162774967Y-69935345D01*
X162587000Y-70004802D01*
X162533000Y-70004802D01*
X162345033Y-69935345D01*
X162118049Y-70000046D01*
X161908049Y-70107786D01*
X161723103Y-70254425D01*
X161570318Y-70434327D01*
X161455566Y-70640579D01*
X161383257Y-70865255D01*
X161375346Y-70905033D01*
X159934654Y-70905033D01*
X159926743Y-70865255D01*
X159854434Y-70640579D01*
X159739682Y-70434327D01*
X159586897Y-70254425D01*
X159401951Y-70107786D01*
X159191951Y-70000046D01*
X158964967Y-69935345D01*
X158777000Y-70004802D01*
X158723000Y-70004802D01*
X158535033Y-69935345D01*
X158308049Y-70000046D01*
X158098049Y-70107786D01*
X157913103Y-70254425D01*
X157760318Y-70434327D01*
X157645566Y-70640579D01*
X157573257Y-70865255D01*
X157565346Y-70905033D01*
X131277934Y-70905033D01*
X131277178Y-70901233D01*
X131220641Y-70764742D01*
X131138563Y-70641903D01*
X131034097Y-70537437D01*
X130911258Y-70455359D01*
X130774767Y-70398822D01*
X130629869Y-70370000D01*
X130482131Y-70370000D01*
X130337233Y-70398822D01*
X130200742Y-70455359D01*
X130077903Y-70537437D01*
X129973437Y-70641903D01*
X129891359Y-70764742D01*
X129834822Y-70901233D01*
X129806000Y-71046131D01*
X129806000Y-71092182D01*
X128789191Y-72108992D01*
X128768211Y-72126210D01*
X128750993Y-72147190D01*
X128750987Y-72147196D01*
X128699479Y-72209958D01*
X128656802Y-72289804D01*
X128648409Y-72305506D01*
X128620322Y-72398097D01*
X128616959Y-72409182D01*
X128606340Y-72517000D01*
X128609001Y-72544018D01*
X128609000Y-84794000D01*
X116715660Y-84794000D01*
X116683097Y-84761437D01*
X116560258Y-84679359D01*
X116423767Y-84622822D01*
X116278869Y-84594000D01*
X116131131Y-84594000D01*
X115986233Y-84622822D01*
X115849742Y-84679359D01*
X115726903Y-84761437D01*
X115622437Y-84865903D01*
X115540359Y-84988742D01*
X115483822Y-85125233D01*
X115455000Y-85270131D01*
X105785000Y-85270131D01*
X105785000Y-81145846D01*
X106059846Y-81145846D01*
X106105787Y-81310135D01*
X106189278Y-81477564D01*
X106303829Y-81625488D01*
X106445037Y-81748222D01*
X106607476Y-81841049D01*
X106784903Y-81900402D01*
X106970500Y-81924000D01*
X107320500Y-81924000D01*
X107320500Y-80997000D01*
X107374500Y-80997000D01*
X107374500Y-81924000D01*
X107724500Y-81924000D01*
X107910097Y-81900402D01*
X108087524Y-81841049D01*
X108249963Y-81748222D01*
X108391171Y-81625488D01*
X108505722Y-81477564D01*
X108589213Y-81310135D01*
X108635154Y-81145846D01*
X108562579Y-80997000D01*
X107374500Y-80997000D01*
X107320500Y-80997000D01*
X106132421Y-80997000D01*
X106059846Y-81145846D01*
X105785000Y-81145846D01*
X105785000Y-80794154D01*
X106059846Y-80794154D01*
X106132421Y-80943000D01*
X107320500Y-80943000D01*
X107320500Y-80016000D01*
X107374500Y-80016000D01*
X107374500Y-80943000D01*
X108562579Y-80943000D01*
X108635154Y-80794154D01*
X108606844Y-80692914D01*
X109362770Y-80692914D01*
X109432252Y-80862752D01*
X109618242Y-80965627D01*
X109820727Y-81030240D01*
X110031927Y-81054109D01*
X110243725Y-81036317D01*
X110447983Y-80977547D01*
X110636850Y-80880057D01*
X110662748Y-80862752D01*
X110732230Y-80692914D01*
X110047500Y-80008184D01*
X109362770Y-80692914D01*
X108606844Y-80692914D01*
X108589213Y-80629865D01*
X108505722Y-80462436D01*
X108391171Y-80314512D01*
X108249963Y-80191778D01*
X108087524Y-80098951D01*
X107910097Y-80039598D01*
X107724500Y-80016000D01*
X107374500Y-80016000D01*
X107320500Y-80016000D01*
X106970500Y-80016000D01*
X106784903Y-80039598D01*
X106607476Y-80098951D01*
X106445037Y-80191778D01*
X106303829Y-80314512D01*
X106189278Y-80462436D01*
X106105787Y-80629865D01*
X106059846Y-80794154D01*
X105785000Y-80794154D01*
X105785000Y-79954427D01*
X108963391Y-79954427D01*
X108981183Y-80166225D01*
X109039953Y-80370483D01*
X109137443Y-80559350D01*
X109154748Y-80585248D01*
X109324586Y-80654730D01*
X110009316Y-79970000D01*
X110085684Y-79970000D01*
X110770414Y-80654730D01*
X110940252Y-80585248D01*
X111043127Y-80399258D01*
X111107740Y-80196773D01*
X111131609Y-79985573D01*
X111113817Y-79773775D01*
X111055047Y-79569517D01*
X110957557Y-79380650D01*
X110940252Y-79354752D01*
X110770414Y-79285270D01*
X110085684Y-79970000D01*
X110009316Y-79970000D01*
X109324586Y-79285270D01*
X109154748Y-79354752D01*
X109051873Y-79540742D01*
X108987260Y-79743227D01*
X108963391Y-79954427D01*
X105785000Y-79954427D01*
X105785000Y-79247086D01*
X109362770Y-79247086D01*
X110047500Y-79931816D01*
X110732230Y-79247086D01*
X110662748Y-79077248D01*
X110476758Y-78974373D01*
X110274273Y-78909760D01*
X110063073Y-78885891D01*
X109851275Y-78903683D01*
X109647017Y-78962453D01*
X109458150Y-79059943D01*
X109432252Y-79077248D01*
X109362770Y-79247086D01*
X105785000Y-79247086D01*
X105785000Y-75692914D01*
X109362770Y-75692914D01*
X109432252Y-75862752D01*
X109618242Y-75965627D01*
X109820727Y-76030240D01*
X110031927Y-76054109D01*
X110243725Y-76036317D01*
X110447983Y-75977547D01*
X110636850Y-75880057D01*
X110662748Y-75862752D01*
X110732230Y-75692914D01*
X110047500Y-75008184D01*
X109362770Y-75692914D01*
X105785000Y-75692914D01*
X105785000Y-74954427D01*
X108963391Y-74954427D01*
X108981183Y-75166225D01*
X109039953Y-75370483D01*
X109137443Y-75559350D01*
X109154748Y-75585248D01*
X109324586Y-75654730D01*
X110009316Y-74970000D01*
X110085684Y-74970000D01*
X110770414Y-75654730D01*
X110940252Y-75585248D01*
X111043127Y-75399258D01*
X111107740Y-75196773D01*
X111131609Y-74985573D01*
X111113817Y-74773775D01*
X111055047Y-74569517D01*
X110957557Y-74380650D01*
X110940252Y-74354752D01*
X110770414Y-74285270D01*
X110085684Y-74970000D01*
X110009316Y-74970000D01*
X109324586Y-74285270D01*
X109154748Y-74354752D01*
X109051873Y-74540742D01*
X108987260Y-74743227D01*
X108963391Y-74954427D01*
X105785000Y-74954427D01*
X105785000Y-74145846D01*
X106059846Y-74145846D01*
X106105787Y-74310135D01*
X106189278Y-74477564D01*
X106303829Y-74625488D01*
X106445037Y-74748222D01*
X106607476Y-74841049D01*
X106784903Y-74900402D01*
X106970500Y-74924000D01*
X107320500Y-74924000D01*
X107320500Y-73997000D01*
X107374500Y-73997000D01*
X107374500Y-74924000D01*
X107724500Y-74924000D01*
X107910097Y-74900402D01*
X108087524Y-74841049D01*
X108249963Y-74748222D01*
X108391171Y-74625488D01*
X108505722Y-74477564D01*
X108589213Y-74310135D01*
X108606843Y-74247086D01*
X109362770Y-74247086D01*
X110047500Y-74931816D01*
X110732230Y-74247086D01*
X110662748Y-74077248D01*
X110476758Y-73974373D01*
X110274273Y-73909760D01*
X110063073Y-73885891D01*
X109851275Y-73903683D01*
X109647017Y-73962453D01*
X109458150Y-74059943D01*
X109432252Y-74077248D01*
X109362770Y-74247086D01*
X108606843Y-74247086D01*
X108635154Y-74145846D01*
X108562579Y-73997000D01*
X107374500Y-73997000D01*
X107320500Y-73997000D01*
X106132421Y-73997000D01*
X106059846Y-74145846D01*
X105785000Y-74145846D01*
X105785000Y-73794154D01*
X106059846Y-73794154D01*
X106132421Y-73943000D01*
X107320500Y-73943000D01*
X107320500Y-73016000D01*
X107374500Y-73016000D01*
X107374500Y-73943000D01*
X108562579Y-73943000D01*
X108635154Y-73794154D01*
X108589213Y-73629865D01*
X108505722Y-73462436D01*
X108391171Y-73314512D01*
X108249963Y-73191778D01*
X108087524Y-73098951D01*
X107910097Y-73039598D01*
X107724500Y-73016000D01*
X107374500Y-73016000D01*
X107320500Y-73016000D01*
X106970500Y-73016000D01*
X106784903Y-73039598D01*
X106607476Y-73098951D01*
X106445037Y-73191778D01*
X106303829Y-73314512D01*
X106189278Y-73462436D01*
X106105787Y-73629865D01*
X106059846Y-73794154D01*
X105785000Y-73794154D01*
X105785000Y-66220131D01*
X118630000Y-66220131D01*
X118630000Y-66822851D01*
X118630001Y-83746126D01*
X118630000Y-83746131D01*
X118630000Y-83893869D01*
X118637227Y-83930202D01*
X118640854Y-83967026D01*
X118651595Y-84002433D01*
X118658822Y-84038767D01*
X118672999Y-84072993D01*
X118683740Y-84108401D01*
X118701184Y-84141036D01*
X118715359Y-84175258D01*
X118735937Y-84206055D01*
X118753382Y-84238693D01*
X118776858Y-84267299D01*
X118797437Y-84298097D01*
X118823632Y-84324292D01*
X118847106Y-84352895D01*
X118875709Y-84376369D01*
X118901903Y-84402563D01*
X118932700Y-84423141D01*
X118961308Y-84446619D01*
X118993949Y-84464066D01*
X119024742Y-84484641D01*
X119058960Y-84498815D01*
X119091600Y-84516261D01*
X119127013Y-84527004D01*
X119161233Y-84541178D01*
X119197560Y-84548404D01*
X119232975Y-84559147D01*
X119269807Y-84562775D01*
X119306131Y-84570000D01*
X119343165Y-84570000D01*
X119380000Y-84573628D01*
X119416835Y-84570000D01*
X119453869Y-84570000D01*
X119490192Y-84562775D01*
X119527026Y-84559147D01*
X119562443Y-84548403D01*
X119598767Y-84541178D01*
X119632984Y-84527005D01*
X119668401Y-84516261D01*
X119701044Y-84498813D01*
X119735258Y-84484641D01*
X119766047Y-84464068D01*
X119798693Y-84446619D01*
X119827305Y-84423137D01*
X119858097Y-84402563D01*
X119884286Y-84376374D01*
X119912895Y-84352895D01*
X119936374Y-84324286D01*
X119962563Y-84298097D01*
X119983137Y-84267305D01*
X120006619Y-84238693D01*
X120024068Y-84206047D01*
X120044641Y-84175258D01*
X120058813Y-84141044D01*
X120076261Y-84108401D01*
X120087005Y-84072984D01*
X120101178Y-84038767D01*
X120108403Y-84002443D01*
X120119147Y-83967026D01*
X120122775Y-83930192D01*
X120130000Y-83893869D01*
X120130000Y-75872131D01*
X125234000Y-75872131D01*
X125234000Y-76019869D01*
X125262822Y-76164767D01*
X125319359Y-76301258D01*
X125401437Y-76424097D01*
X125434001Y-76456661D01*
X125434000Y-80896340D01*
X125401437Y-80928903D01*
X125319359Y-81051742D01*
X125262822Y-81188233D01*
X125234000Y-81333131D01*
X125234000Y-81480869D01*
X125262822Y-81625767D01*
X125319359Y-81762258D01*
X125401437Y-81885097D01*
X125505903Y-81989563D01*
X125628742Y-82071641D01*
X125765233Y-82128178D01*
X125910131Y-82157000D01*
X126057869Y-82157000D01*
X126202767Y-82128178D01*
X126339258Y-82071641D01*
X126462097Y-81989563D01*
X126566563Y-81885097D01*
X126648641Y-81762258D01*
X126705178Y-81625767D01*
X126734000Y-81480869D01*
X126734000Y-81333131D01*
X126705178Y-81188233D01*
X126648641Y-81051742D01*
X126566563Y-80928903D01*
X126534000Y-80896340D01*
X126534000Y-76456660D01*
X126566563Y-76424097D01*
X126648641Y-76301258D01*
X126705178Y-76164767D01*
X126734000Y-76019869D01*
X126734000Y-75872131D01*
X126705178Y-75727233D01*
X126648641Y-75590742D01*
X126566563Y-75467903D01*
X126462097Y-75363437D01*
X126339258Y-75281359D01*
X126202767Y-75224822D01*
X126057869Y-75196000D01*
X125910131Y-75196000D01*
X125765233Y-75224822D01*
X125628742Y-75281359D01*
X125505903Y-75363437D01*
X125401437Y-75467903D01*
X125319359Y-75590742D01*
X125262822Y-75727233D01*
X125234000Y-75872131D01*
X120130000Y-75872131D01*
X120130000Y-68506131D01*
X156222000Y-68506131D01*
X156222000Y-68653869D01*
X156250822Y-68798767D01*
X156307359Y-68935258D01*
X156389437Y-69058097D01*
X156493903Y-69162563D01*
X156616742Y-69244641D01*
X156753233Y-69301178D01*
X156898131Y-69330000D01*
X157045869Y-69330000D01*
X157190767Y-69301178D01*
X157327258Y-69244641D01*
X157450097Y-69162563D01*
X157554563Y-69058097D01*
X157612962Y-68970697D01*
X157686574Y-69148413D01*
X157817899Y-69344955D01*
X157985045Y-69512101D01*
X158181587Y-69643426D01*
X158399973Y-69733884D01*
X158631810Y-69780000D01*
X158868190Y-69780000D01*
X159100027Y-69733884D01*
X159318413Y-69643426D01*
X159514955Y-69512101D01*
X159682101Y-69344955D01*
X159813426Y-69148413D01*
X159852119Y-69055000D01*
X160451368Y-69055000D01*
X160453437Y-69058097D01*
X160557903Y-69162563D01*
X160680742Y-69244641D01*
X160817233Y-69301178D01*
X160962131Y-69330000D01*
X161109869Y-69330000D01*
X161254767Y-69301178D01*
X161391258Y-69244641D01*
X161508519Y-69166290D01*
X161627899Y-69344955D01*
X161795045Y-69512101D01*
X161991587Y-69643426D01*
X162209973Y-69733884D01*
X162441810Y-69780000D01*
X162678190Y-69780000D01*
X162910027Y-69733884D01*
X163128413Y-69643426D01*
X163324955Y-69512101D01*
X163492101Y-69344955D01*
X163623426Y-69148413D01*
X163713884Y-68930027D01*
X163760000Y-68698190D01*
X163760000Y-68461810D01*
X163713884Y-68229973D01*
X163623426Y-68011587D01*
X163492101Y-67815045D01*
X163324955Y-67647899D01*
X163128413Y-67516574D01*
X162910027Y-67426116D01*
X162678190Y-67380000D01*
X162441810Y-67380000D01*
X162209973Y-67426116D01*
X161991587Y-67516574D01*
X161795045Y-67647899D01*
X161627899Y-67815045D01*
X161508519Y-67993710D01*
X161391258Y-67915359D01*
X161254767Y-67858822D01*
X161109869Y-67830000D01*
X160962131Y-67830000D01*
X160817233Y-67858822D01*
X160680742Y-67915359D01*
X160557903Y-67997437D01*
X160453437Y-68101903D01*
X160451368Y-68105000D01*
X159852119Y-68105000D01*
X159813426Y-68011587D01*
X159682101Y-67815045D01*
X159514955Y-67647899D01*
X159318413Y-67516574D01*
X159100027Y-67426116D01*
X158868190Y-67380000D01*
X158631810Y-67380000D01*
X158399973Y-67426116D01*
X158181587Y-67516574D01*
X157985045Y-67647899D01*
X157817899Y-67815045D01*
X157686574Y-68011587D01*
X157612962Y-68189303D01*
X157554563Y-68101903D01*
X157450097Y-67997437D01*
X157327258Y-67915359D01*
X157190767Y-67858822D01*
X157045869Y-67830000D01*
X156898131Y-67830000D01*
X156753233Y-67858822D01*
X156616742Y-67915359D01*
X156493903Y-67997437D01*
X156389437Y-68101903D01*
X156307359Y-68224742D01*
X156250822Y-68361233D01*
X156222000Y-68506131D01*
X120130000Y-68506131D01*
X120130000Y-66220131D01*
X120122775Y-66183808D01*
X120119147Y-66146974D01*
X120108403Y-66111557D01*
X120101178Y-66075233D01*
X120087005Y-66041016D01*
X120076261Y-66005599D01*
X120058813Y-65972956D01*
X120044641Y-65938742D01*
X120024068Y-65907953D01*
X120006619Y-65875307D01*
X119983137Y-65846695D01*
X119962563Y-65815903D01*
X119936374Y-65789714D01*
X119912895Y-65761105D01*
X119884287Y-65737627D01*
X119858097Y-65711437D01*
X119827301Y-65690860D01*
X119798692Y-65667381D01*
X119766051Y-65649934D01*
X119735258Y-65629359D01*
X119701040Y-65615185D01*
X119668400Y-65597739D01*
X119632987Y-65586996D01*
X119598767Y-65572822D01*
X119562440Y-65565596D01*
X119527025Y-65554853D01*
X119490193Y-65551225D01*
X119453869Y-65544000D01*
X119416835Y-65544000D01*
X119380000Y-65540372D01*
X119343165Y-65544000D01*
X119306131Y-65544000D01*
X119269808Y-65551225D01*
X119232974Y-65554853D01*
X119197557Y-65565597D01*
X119161233Y-65572822D01*
X119127016Y-65586995D01*
X119091599Y-65597739D01*
X119058956Y-65615187D01*
X119024742Y-65629359D01*
X118993953Y-65649932D01*
X118961307Y-65667381D01*
X118932695Y-65690863D01*
X118901903Y-65711437D01*
X118875714Y-65737626D01*
X118847105Y-65761105D01*
X118823627Y-65789713D01*
X118797437Y-65815903D01*
X118776860Y-65846699D01*
X118753381Y-65875308D01*
X118735934Y-65907949D01*
X118715359Y-65938742D01*
X118701185Y-65972960D01*
X118683739Y-66005600D01*
X118672996Y-66041013D01*
X118658822Y-66075233D01*
X118651596Y-66111560D01*
X118640853Y-66146975D01*
X118637225Y-66183807D01*
X118630000Y-66220131D01*
X105785000Y-66220131D01*
X105785000Y-65190000D01*
X157548307Y-65190000D01*
X157548307Y-66890000D01*
X157555065Y-66958612D01*
X157575078Y-67024587D01*
X157607578Y-67085390D01*
X157651315Y-67138685D01*
X157704610Y-67182422D01*
X157765413Y-67214922D01*
X157831388Y-67234935D01*
X157900000Y-67241693D01*
X159600000Y-67241693D01*
X159668612Y-67234935D01*
X159734587Y-67214922D01*
X159795390Y-67182422D01*
X159848685Y-67138685D01*
X159892422Y-67085390D01*
X159924922Y-67024587D01*
X159944935Y-66958612D01*
X159951693Y-66890000D01*
X159951693Y-66515000D01*
X160718761Y-66515000D01*
X160748649Y-66544888D01*
X160855110Y-66616022D01*
X160973402Y-66665021D01*
X161098981Y-66690000D01*
X161227019Y-66690000D01*
X161352598Y-66665021D01*
X161358307Y-66662656D01*
X161358307Y-66890000D01*
X161365065Y-66958612D01*
X161385078Y-67024587D01*
X161417578Y-67085390D01*
X161461315Y-67138685D01*
X161514610Y-67182422D01*
X161575413Y-67214922D01*
X161641388Y-67234935D01*
X161710000Y-67241693D01*
X163410000Y-67241693D01*
X163478612Y-67234935D01*
X163544587Y-67214922D01*
X163605390Y-67182422D01*
X163658685Y-67138685D01*
X163702422Y-67085390D01*
X163734922Y-67024587D01*
X163754935Y-66958612D01*
X163761693Y-66890000D01*
X163761693Y-65190000D01*
X163754935Y-65121388D01*
X163734922Y-65055413D01*
X163702422Y-64994610D01*
X163658685Y-64941315D01*
X163605390Y-64897578D01*
X163544587Y-64865078D01*
X163478612Y-64845065D01*
X163410000Y-64838307D01*
X161710000Y-64838307D01*
X161641388Y-64845065D01*
X161575413Y-64865078D01*
X161514610Y-64897578D01*
X161461315Y-64941315D01*
X161417578Y-64994610D01*
X161385078Y-65055413D01*
X161365065Y-65121388D01*
X161358307Y-65190000D01*
X161358307Y-65417344D01*
X161352598Y-65414979D01*
X161227019Y-65390000D01*
X161098981Y-65390000D01*
X160973402Y-65414979D01*
X160855110Y-65463978D01*
X160748649Y-65535112D01*
X160718761Y-65565000D01*
X159951693Y-65565000D01*
X159951693Y-65190000D01*
X159944935Y-65121388D01*
X159924922Y-65055413D01*
X159892422Y-64994610D01*
X159848685Y-64941315D01*
X159795390Y-64897578D01*
X159734587Y-64865078D01*
X159668612Y-64845065D01*
X159600000Y-64838307D01*
X157900000Y-64838307D01*
X157831388Y-64845065D01*
X157765413Y-64865078D01*
X157704610Y-64897578D01*
X157651315Y-64941315D01*
X157607578Y-64994610D01*
X157575078Y-65055413D01*
X157555065Y-65121388D01*
X157548307Y-65190000D01*
X105785000Y-65190000D01*
X105785000Y-62605000D01*
X165035001Y-62605000D01*
X165035000Y-94855000D01*
G37*
X165035000Y-94855000D02*
X105785000Y-94855000D01*
X105785000Y-93280981D01*
X106665000Y-93280981D01*
X106665000Y-93409019D01*
X106689979Y-93534598D01*
X106738978Y-93652890D01*
X106810112Y-93759351D01*
X106900649Y-93849888D01*
X107007110Y-93921022D01*
X107125402Y-93970021D01*
X107250981Y-93995000D01*
X107379019Y-93995000D01*
X107504598Y-93970021D01*
X107622890Y-93921022D01*
X107729351Y-93849888D01*
X107819888Y-93759351D01*
X107891022Y-93652890D01*
X107940021Y-93534598D01*
X107965000Y-93409019D01*
X107965000Y-93280981D01*
X108316000Y-93280981D01*
X108316000Y-93409019D01*
X108340979Y-93534598D01*
X108389978Y-93652890D01*
X108461112Y-93759351D01*
X108551649Y-93849888D01*
X108658110Y-93921022D01*
X108776402Y-93970021D01*
X108901981Y-93995000D01*
X109030019Y-93995000D01*
X109155598Y-93970021D01*
X109273890Y-93921022D01*
X109380351Y-93849888D01*
X109470888Y-93759351D01*
X109542022Y-93652890D01*
X109591021Y-93534598D01*
X109616000Y-93409019D01*
X109616000Y-93280981D01*
X109967000Y-93280981D01*
X109967000Y-93409019D01*
X109991979Y-93534598D01*
X110040978Y-93652890D01*
X110112112Y-93759351D01*
X110202649Y-93849888D01*
X110309110Y-93921022D01*
X110427402Y-93970021D01*
X110552981Y-93995000D01*
X110681019Y-93995000D01*
X110806598Y-93970021D01*
X110924890Y-93921022D01*
X111031351Y-93849888D01*
X111121888Y-93759351D01*
X111193022Y-93652890D01*
X111242021Y-93534598D01*
X111267000Y-93409019D01*
X111267000Y-93280981D01*
X116825000Y-93280981D01*
X116825000Y-93409019D01*
X116849979Y-93534598D01*
X116898978Y-93652890D01*
X116970112Y-93759351D01*
X117060649Y-93849888D01*
X117167110Y-93921022D01*
X117285402Y-93970021D01*
X117410981Y-93995000D01*
X117539019Y-93995000D01*
X117664598Y-93970021D01*
X117782890Y-93921022D01*
X117889351Y-93849888D01*
X117979888Y-93759351D01*
X118051022Y-93652890D01*
X118100021Y-93534598D01*
X118125000Y-93409019D01*
X118125000Y-93280981D01*
X118476000Y-93280981D01*
X118476000Y-93409019D01*
X118500979Y-93534598D01*
X118549978Y-93652890D01*
X118621112Y-93759351D01*
X118711649Y-93849888D01*
X118818110Y-93921022D01*
X118936402Y-93970021D01*
X119061981Y-93995000D01*
X119190019Y-93995000D01*
X119315598Y-93970021D01*
X119433890Y-93921022D01*
X119540351Y-93849888D01*
X119630888Y-93759351D01*
X119702022Y-93652890D01*
X119751021Y-93534598D01*
X119776000Y-93409019D01*
X119776000Y-93280981D01*
X120127000Y-93280981D01*
X120127000Y-93409019D01*
X120151979Y-93534598D01*
X120200978Y-93652890D01*
X120272112Y-93759351D01*
X120362649Y-93849888D01*
X120469110Y-93921022D01*
X120587402Y-93970021D01*
X120712981Y-93995000D01*
X120841019Y-93995000D01*
X120966598Y-93970021D01*
X121084890Y-93921022D01*
X121191351Y-93849888D01*
X121281888Y-93759351D01*
X121353022Y-93652890D01*
X121402021Y-93534598D01*
X121427000Y-93409019D01*
X121427000Y-93280981D01*
X121402021Y-93155402D01*
X121353022Y-93037110D01*
X121281888Y-92930649D01*
X121191351Y-92840112D01*
X121084890Y-92768978D01*
X120966598Y-92719979D01*
X120841019Y-92695000D01*
X120712981Y-92695000D01*
X120587402Y-92719979D01*
X120469110Y-92768978D01*
X120362649Y-92840112D01*
X120272112Y-92930649D01*
X120200978Y-93037110D01*
X120151979Y-93155402D01*
X120127000Y-93280981D01*
X119776000Y-93280981D01*
X119751021Y-93155402D01*
X119702022Y-93037110D01*
X119630888Y-92930649D01*
X119540351Y-92840112D01*
X119433890Y-92768978D01*
X119315598Y-92719979D01*
X119190019Y-92695000D01*
X119061981Y-92695000D01*
X118936402Y-92719979D01*
X118818110Y-92768978D01*
X118711649Y-92840112D01*
X118621112Y-92930649D01*
X118549978Y-93037110D01*
X118500979Y-93155402D01*
X118476000Y-93280981D01*
X118125000Y-93280981D01*
X118100021Y-93155402D01*
X118051022Y-93037110D01*
X117979888Y-92930649D01*
X117889351Y-92840112D01*
X117782890Y-92768978D01*
X117664598Y-92719979D01*
X117539019Y-92695000D01*
X117410981Y-92695000D01*
X117285402Y-92719979D01*
X117167110Y-92768978D01*
X117060649Y-92840112D01*
X116970112Y-92930649D01*
X116898978Y-93037110D01*
X116849979Y-93155402D01*
X116825000Y-93280981D01*
X111267000Y-93280981D01*
X111242021Y-93155402D01*
X111193022Y-93037110D01*
X111121888Y-92930649D01*
X111031351Y-92840112D01*
X110924890Y-92768978D01*
X110806598Y-92719979D01*
X110681019Y-92695000D01*
X110552981Y-92695000D01*
X110427402Y-92719979D01*
X110309110Y-92768978D01*
X110202649Y-92840112D01*
X110112112Y-92930649D01*
X110040978Y-93037110D01*
X109991979Y-93155402D01*
X109967000Y-93280981D01*
X109616000Y-93280981D01*
X109591021Y-93155402D01*
X109542022Y-93037110D01*
X109470888Y-92930649D01*
X109380351Y-92840112D01*
X109273890Y-92768978D01*
X109155598Y-92719979D01*
X109030019Y-92695000D01*
X108901981Y-92695000D01*
X108776402Y-92719979D01*
X108658110Y-92768978D01*
X108551649Y-92840112D01*
X108461112Y-92930649D01*
X108389978Y-93037110D01*
X108340979Y-93155402D01*
X108316000Y-93280981D01*
X107965000Y-93280981D01*
X107940021Y-93155402D01*
X107891022Y-93037110D01*
X107819888Y-92930649D01*
X107729351Y-92840112D01*
X107622890Y-92768978D01*
X107504598Y-92719979D01*
X107379019Y-92695000D01*
X107250981Y-92695000D01*
X107125402Y-92719979D01*
X107007110Y-92768978D01*
X106900649Y-92840112D01*
X106810112Y-92930649D01*
X106738978Y-93037110D01*
X106689979Y-93155402D01*
X106665000Y-93280981D01*
X105785000Y-93280981D01*
X105785000Y-91629981D01*
X106665000Y-91629981D01*
X106665000Y-91758019D01*
X106689979Y-91883598D01*
X106738978Y-92001890D01*
X106810112Y-92108351D01*
X106900649Y-92198888D01*
X107007110Y-92270022D01*
X107125402Y-92319021D01*
X107250981Y-92344000D01*
X107379019Y-92344000D01*
X107504598Y-92319021D01*
X107622890Y-92270022D01*
X107729351Y-92198888D01*
X107819888Y-92108351D01*
X107891022Y-92001890D01*
X107940021Y-91883598D01*
X107965000Y-91758019D01*
X107965000Y-91629981D01*
X109967000Y-91629981D01*
X109967000Y-91758019D01*
X109991979Y-91883598D01*
X110040978Y-92001890D01*
X110112112Y-92108351D01*
X110202649Y-92198888D01*
X110309110Y-92270022D01*
X110427402Y-92319021D01*
X110552981Y-92344000D01*
X110681019Y-92344000D01*
X110806598Y-92319021D01*
X110924890Y-92270022D01*
X111031351Y-92198888D01*
X111121888Y-92108351D01*
X111193022Y-92001890D01*
X111242021Y-91883598D01*
X111267000Y-91758019D01*
X111267000Y-91629981D01*
X116825000Y-91629981D01*
X116825000Y-91758019D01*
X116849979Y-91883598D01*
X116898978Y-92001890D01*
X116970112Y-92108351D01*
X117060649Y-92198888D01*
X117167110Y-92270022D01*
X117285402Y-92319021D01*
X117410981Y-92344000D01*
X117539019Y-92344000D01*
X117664598Y-92319021D01*
X117782890Y-92270022D01*
X117889351Y-92198888D01*
X117979888Y-92108351D01*
X118051022Y-92001890D01*
X118100021Y-91883598D01*
X118125000Y-91758019D01*
X118125000Y-91629981D01*
X120127000Y-91629981D01*
X120127000Y-91758019D01*
X120151979Y-91883598D01*
X120200978Y-92001890D01*
X120272112Y-92108351D01*
X120362649Y-92198888D01*
X120469110Y-92270022D01*
X120587402Y-92319021D01*
X120712981Y-92344000D01*
X120841019Y-92344000D01*
X120966598Y-92319021D01*
X121084890Y-92270022D01*
X121191351Y-92198888D01*
X121281888Y-92108351D01*
X121353022Y-92001890D01*
X121402021Y-91883598D01*
X121427000Y-91758019D01*
X121427000Y-91629981D01*
X121402021Y-91504402D01*
X121353022Y-91386110D01*
X121310059Y-91321810D01*
X157550000Y-91321810D01*
X157550000Y-91558190D01*
X157596116Y-91790027D01*
X157686574Y-92008413D01*
X157817899Y-92204955D01*
X157985045Y-92372101D01*
X158181587Y-92503426D01*
X158399973Y-92593884D01*
X158631810Y-92640000D01*
X158868190Y-92640000D01*
X159100027Y-92593884D01*
X159318413Y-92503426D01*
X159514955Y-92372101D01*
X159682101Y-92204955D01*
X159813426Y-92008413D01*
X159852119Y-91915000D01*
X160718761Y-91915000D01*
X160748649Y-91944888D01*
X160855110Y-92016022D01*
X160973402Y-92065021D01*
X161098981Y-92090000D01*
X161227019Y-92090000D01*
X161352598Y-92065021D01*
X161470890Y-92016022D01*
X161493475Y-92000931D01*
X161496574Y-92008413D01*
X161627899Y-92204955D01*
X161795045Y-92372101D01*
X161991587Y-92503426D01*
X162209973Y-92593884D01*
X162441810Y-92640000D01*
X162678190Y-92640000D01*
X162910027Y-92593884D01*
X163128413Y-92503426D01*
X163324955Y-92372101D01*
X163492101Y-92204955D01*
X163623426Y-92008413D01*
X163713884Y-91790027D01*
X163760000Y-91558190D01*
X163760000Y-91321810D01*
X163713884Y-91089973D01*
X163623426Y-90871587D01*
X163492101Y-90675045D01*
X163324955Y-90507899D01*
X163128413Y-90376574D01*
X162910027Y-90286116D01*
X162678190Y-90240000D01*
X162441810Y-90240000D01*
X162209973Y-90286116D01*
X161991587Y-90376574D01*
X161795045Y-90507899D01*
X161627899Y-90675045D01*
X161496574Y-90871587D01*
X161493475Y-90879069D01*
X161470890Y-90863978D01*
X161352598Y-90814979D01*
X161227019Y-90790000D01*
X161098981Y-90790000D01*
X160973402Y-90814979D01*
X160855110Y-90863978D01*
X160748649Y-90935112D01*
X160718761Y-90965000D01*
X159852119Y-90965000D01*
X159813426Y-90871587D01*
X159682101Y-90675045D01*
X159514955Y-90507899D01*
X159318413Y-90376574D01*
X159100027Y-90286116D01*
X158868190Y-90240000D01*
X158631810Y-90240000D01*
X158399973Y-90286116D01*
X158181587Y-90376574D01*
X157985045Y-90507899D01*
X157817899Y-90675045D01*
X157686574Y-90871587D01*
X157596116Y-91089973D01*
X157550000Y-91321810D01*
X121310059Y-91321810D01*
X121281888Y-91279649D01*
X121191351Y-91189112D01*
X121084890Y-91117978D01*
X120966598Y-91068979D01*
X120841019Y-91044000D01*
X120712981Y-91044000D01*
X120587402Y-91068979D01*
X120469110Y-91117978D01*
X120362649Y-91189112D01*
X120272112Y-91279649D01*
X120200978Y-91386110D01*
X120151979Y-91504402D01*
X120127000Y-91629981D01*
X118125000Y-91629981D01*
X118100021Y-91504402D01*
X118051022Y-91386110D01*
X117979888Y-91279649D01*
X117889351Y-91189112D01*
X117782890Y-91117978D01*
X117664598Y-91068979D01*
X117539019Y-91044000D01*
X117410981Y-91044000D01*
X117285402Y-91068979D01*
X117167110Y-91117978D01*
X117060649Y-91189112D01*
X116970112Y-91279649D01*
X116898978Y-91386110D01*
X116849979Y-91504402D01*
X116825000Y-91629981D01*
X111267000Y-91629981D01*
X111242021Y-91504402D01*
X111193022Y-91386110D01*
X111121888Y-91279649D01*
X111031351Y-91189112D01*
X110924890Y-91117978D01*
X110806598Y-91068979D01*
X110681019Y-91044000D01*
X110552981Y-91044000D01*
X110427402Y-91068979D01*
X110309110Y-91117978D01*
X110202649Y-91189112D01*
X110112112Y-91279649D01*
X110040978Y-91386110D01*
X109991979Y-91504402D01*
X109967000Y-91629981D01*
X107965000Y-91629981D01*
X107940021Y-91504402D01*
X107891022Y-91386110D01*
X107819888Y-91279649D01*
X107729351Y-91189112D01*
X107622890Y-91117978D01*
X107504598Y-91068979D01*
X107379019Y-91044000D01*
X107250981Y-91044000D01*
X107125402Y-91068979D01*
X107007110Y-91117978D01*
X106900649Y-91189112D01*
X106810112Y-91279649D01*
X106738978Y-91386110D01*
X106689979Y-91504402D01*
X106665000Y-91629981D01*
X105785000Y-91629981D01*
X105785000Y-89978981D01*
X106665000Y-89978981D01*
X106665000Y-90107019D01*
X106689979Y-90232598D01*
X106738978Y-90350890D01*
X106810112Y-90457351D01*
X106900649Y-90547888D01*
X107007110Y-90619022D01*
X107125402Y-90668021D01*
X107250981Y-90693000D01*
X107379019Y-90693000D01*
X107504598Y-90668021D01*
X107622890Y-90619022D01*
X107729351Y-90547888D01*
X107819888Y-90457351D01*
X107891022Y-90350890D01*
X107940021Y-90232598D01*
X107965000Y-90107019D01*
X107965000Y-89978981D01*
X108316000Y-89978981D01*
X108316000Y-90107019D01*
X108340979Y-90232598D01*
X108389978Y-90350890D01*
X108461112Y-90457351D01*
X108551649Y-90547888D01*
X108658110Y-90619022D01*
X108776402Y-90668021D01*
X108901981Y-90693000D01*
X109030019Y-90693000D01*
X109155598Y-90668021D01*
X109273890Y-90619022D01*
X109380351Y-90547888D01*
X109470888Y-90457351D01*
X109542022Y-90350890D01*
X109591021Y-90232598D01*
X109616000Y-90107019D01*
X109616000Y-89978981D01*
X109967000Y-89978981D01*
X109967000Y-90107019D01*
X109991979Y-90232598D01*
X110040978Y-90350890D01*
X110112112Y-90457351D01*
X110202649Y-90547888D01*
X110309110Y-90619022D01*
X110427402Y-90668021D01*
X110552981Y-90693000D01*
X110681019Y-90693000D01*
X110806598Y-90668021D01*
X110924890Y-90619022D01*
X111031351Y-90547888D01*
X111121888Y-90457351D01*
X111193022Y-90350890D01*
X111242021Y-90232598D01*
X111267000Y-90107019D01*
X111267000Y-89978981D01*
X116825000Y-89978981D01*
X116825000Y-90107019D01*
X116849979Y-90232598D01*
X116898978Y-90350890D01*
X116970112Y-90457351D01*
X117060649Y-90547888D01*
X117167110Y-90619022D01*
X117285402Y-90668021D01*
X117410981Y-90693000D01*
X117539019Y-90693000D01*
X117664598Y-90668021D01*
X117782890Y-90619022D01*
X117889351Y-90547888D01*
X117979888Y-90457351D01*
X118051022Y-90350890D01*
X118100021Y-90232598D01*
X118125000Y-90107019D01*
X118125000Y-89978981D01*
X118476000Y-89978981D01*
X118476000Y-90107019D01*
X118500979Y-90232598D01*
X118549978Y-90350890D01*
X118621112Y-90457351D01*
X118711649Y-90547888D01*
X118818110Y-90619022D01*
X118936402Y-90668021D01*
X119061981Y-90693000D01*
X119190019Y-90693000D01*
X119315598Y-90668021D01*
X119433890Y-90619022D01*
X119525725Y-90557661D01*
X119595110Y-90604022D01*
X119713402Y-90653021D01*
X119838981Y-90678000D01*
X119967019Y-90678000D01*
X120092598Y-90653021D01*
X120210890Y-90604022D01*
X120317351Y-90532888D01*
X120332500Y-90517739D01*
X120362649Y-90547888D01*
X120469110Y-90619022D01*
X120587402Y-90668021D01*
X120712981Y-90693000D01*
X120841019Y-90693000D01*
X120966598Y-90668021D01*
X121084890Y-90619022D01*
X121191351Y-90547888D01*
X121281888Y-90457351D01*
X121353022Y-90350890D01*
X121402021Y-90232598D01*
X121427000Y-90107019D01*
X121427000Y-89978981D01*
X121402021Y-89853402D01*
X121353022Y-89735110D01*
X121281888Y-89628649D01*
X121191351Y-89538112D01*
X121084890Y-89466978D01*
X120966598Y-89417979D01*
X120841019Y-89393000D01*
X120712981Y-89393000D01*
X120587402Y-89417979D01*
X120469110Y-89466978D01*
X120362649Y-89538112D01*
X120347500Y-89553261D01*
X120317351Y-89523112D01*
X120210890Y-89451978D01*
X120092598Y-89402979D01*
X119967019Y-89378000D01*
X119838981Y-89378000D01*
X119713402Y-89402979D01*
X119595110Y-89451978D01*
X119503275Y-89513339D01*
X119433890Y-89466978D01*
X119315598Y-89417979D01*
X119190019Y-89393000D01*
X119061981Y-89393000D01*
X118936402Y-89417979D01*
X118818110Y-89466978D01*
X118711649Y-89538112D01*
X118621112Y-89628649D01*
X118549978Y-89735110D01*
X118500979Y-89853402D01*
X118476000Y-89978981D01*
X118125000Y-89978981D01*
X118100021Y-89853402D01*
X118051022Y-89735110D01*
X117979888Y-89628649D01*
X117889351Y-89538112D01*
X117782890Y-89466978D01*
X117664598Y-89417979D01*
X117539019Y-89393000D01*
X117410981Y-89393000D01*
X117285402Y-89417979D01*
X117167110Y-89466978D01*
X117060649Y-89538112D01*
X116970112Y-89628649D01*
X116898978Y-89735110D01*
X116849979Y-89853402D01*
X116825000Y-89978981D01*
X111267000Y-89978981D01*
X111242021Y-89853402D01*
X111193022Y-89735110D01*
X111121888Y-89628649D01*
X111031351Y-89538112D01*
X110924890Y-89466978D01*
X110806598Y-89417979D01*
X110681019Y-89393000D01*
X110552981Y-89393000D01*
X110427402Y-89417979D01*
X110309110Y-89466978D01*
X110202649Y-89538112D01*
X110112112Y-89628649D01*
X110040978Y-89735110D01*
X109991979Y-89853402D01*
X109967000Y-89978981D01*
X109616000Y-89978981D01*
X109591021Y-89853402D01*
X109542022Y-89735110D01*
X109470888Y-89628649D01*
X109380351Y-89538112D01*
X109273890Y-89466978D01*
X109155598Y-89417979D01*
X109030019Y-89393000D01*
X108901981Y-89393000D01*
X108776402Y-89417979D01*
X108658110Y-89466978D01*
X108551649Y-89538112D01*
X108461112Y-89628649D01*
X108389978Y-89735110D01*
X108340979Y-89853402D01*
X108316000Y-89978981D01*
X107965000Y-89978981D01*
X107940021Y-89853402D01*
X107891022Y-89735110D01*
X107819888Y-89628649D01*
X107729351Y-89538112D01*
X107622890Y-89466978D01*
X107504598Y-89417979D01*
X107379019Y-89393000D01*
X107250981Y-89393000D01*
X107125402Y-89417979D01*
X107007110Y-89466978D01*
X106900649Y-89538112D01*
X106810112Y-89628649D01*
X106738978Y-89735110D01*
X106689979Y-89853402D01*
X106665000Y-89978981D01*
X105785000Y-89978981D01*
X105785000Y-85270131D01*
X115455000Y-85270131D01*
X115455000Y-85417869D01*
X115483822Y-85562767D01*
X115540359Y-85699258D01*
X115622437Y-85822097D01*
X115726903Y-85926563D01*
X115849742Y-86008641D01*
X115986233Y-86065178D01*
X116131131Y-86094000D01*
X116278869Y-86094000D01*
X116423767Y-86065178D01*
X116560258Y-86008641D01*
X116683097Y-85926563D01*
X116715660Y-85894000D01*
X128931183Y-85894000D01*
X130123500Y-87086318D01*
X130123500Y-87132369D01*
X130152322Y-87277267D01*
X130208859Y-87413758D01*
X130290937Y-87536597D01*
X130395403Y-87641063D01*
X130518242Y-87723141D01*
X130654733Y-87779678D01*
X130799631Y-87808500D01*
X130845683Y-87808500D01*
X132981000Y-89943818D01*
X132981000Y-89989869D01*
X133009822Y-90134767D01*
X133066359Y-90271258D01*
X133148437Y-90394097D01*
X133252903Y-90498563D01*
X133375742Y-90580641D01*
X133512233Y-90637178D01*
X133657131Y-90666000D01*
X133804869Y-90666000D01*
X133949767Y-90637178D01*
X134086258Y-90580641D01*
X134209097Y-90498563D01*
X134313563Y-90394097D01*
X134395641Y-90271258D01*
X134452178Y-90134767D01*
X134481000Y-89989869D01*
X134481000Y-89842131D01*
X134452178Y-89697233D01*
X134395641Y-89560742D01*
X134313563Y-89437903D01*
X134209097Y-89333437D01*
X134086258Y-89251359D01*
X133949767Y-89194822D01*
X133804869Y-89166000D01*
X133758818Y-89166000D01*
X133374628Y-88781810D01*
X157550000Y-88781810D01*
X157550000Y-89018190D01*
X157596116Y-89250027D01*
X157686574Y-89468413D01*
X157817899Y-89664955D01*
X157985045Y-89832101D01*
X158181587Y-89963426D01*
X158399973Y-90053884D01*
X158631810Y-90100000D01*
X158868190Y-90100000D01*
X159100027Y-90053884D01*
X159318413Y-89963426D01*
X159514955Y-89832101D01*
X159682101Y-89664955D01*
X159813426Y-89468413D01*
X159852119Y-89375000D01*
X160718761Y-89375000D01*
X160748649Y-89404888D01*
X160855110Y-89476022D01*
X160973402Y-89525021D01*
X161098981Y-89550000D01*
X161227019Y-89550000D01*
X161352598Y-89525021D01*
X161470890Y-89476022D01*
X161493475Y-89460931D01*
X161496574Y-89468413D01*
X161627899Y-89664955D01*
X161795045Y-89832101D01*
X161991587Y-89963426D01*
X162209973Y-90053884D01*
X162441810Y-90100000D01*
X162678190Y-90100000D01*
X162910027Y-90053884D01*
X163128413Y-89963426D01*
X163324955Y-89832101D01*
X163492101Y-89664955D01*
X163623426Y-89468413D01*
X163713884Y-89250027D01*
X163760000Y-89018190D01*
X163760000Y-88781810D01*
X163713884Y-88549973D01*
X163623426Y-88331587D01*
X163492101Y-88135045D01*
X163324955Y-87967899D01*
X163128413Y-87836574D01*
X162910027Y-87746116D01*
X162678190Y-87700000D01*
X162441810Y-87700000D01*
X162209973Y-87746116D01*
X161991587Y-87836574D01*
X161795045Y-87967899D01*
X161627899Y-88135045D01*
X161496574Y-88331587D01*
X161493475Y-88339069D01*
X161470890Y-88323978D01*
X161352598Y-88274979D01*
X161227019Y-88250000D01*
X161098981Y-88250000D01*
X160973402Y-88274979D01*
X160855110Y-88323978D01*
X160748649Y-88395112D01*
X160718761Y-88425000D01*
X159852119Y-88425000D01*
X159813426Y-88331587D01*
X159682101Y-88135045D01*
X159514955Y-87967899D01*
X159318413Y-87836574D01*
X159100027Y-87746116D01*
X158868190Y-87700000D01*
X158631810Y-87700000D01*
X158399973Y-87746116D01*
X158181587Y-87836574D01*
X157985045Y-87967899D01*
X157817899Y-88135045D01*
X157686574Y-88331587D01*
X157596116Y-88549973D01*
X157550000Y-88781810D01*
X133374628Y-88781810D01*
X131623500Y-87030683D01*
X131623500Y-86984631D01*
X131594678Y-86839733D01*
X131538141Y-86703242D01*
X131456063Y-86580403D01*
X131351597Y-86475937D01*
X131228758Y-86393859D01*
X131092267Y-86337322D01*
X130947369Y-86308500D01*
X130901318Y-86308500D01*
X130888799Y-86295981D01*
X156449000Y-86295981D01*
X156449000Y-86424019D01*
X156473979Y-86549598D01*
X156522978Y-86667890D01*
X156594112Y-86774351D01*
X156684649Y-86864888D01*
X156791110Y-86936022D01*
X156909402Y-86985021D01*
X157034981Y-87010000D01*
X157163019Y-87010000D01*
X157288598Y-86985021D01*
X157406890Y-86936022D01*
X157513351Y-86864888D01*
X157603888Y-86774351D01*
X157615538Y-86756916D01*
X157686574Y-86928413D01*
X157817899Y-87124955D01*
X157985045Y-87292101D01*
X158181587Y-87423426D01*
X158399973Y-87513884D01*
X158631810Y-87560000D01*
X158868190Y-87560000D01*
X159100027Y-87513884D01*
X159318413Y-87423426D01*
X159514955Y-87292101D01*
X159682101Y-87124955D01*
X159813426Y-86928413D01*
X159852119Y-86835000D01*
X160718761Y-86835000D01*
X160748649Y-86864888D01*
X160855110Y-86936022D01*
X160973402Y-86985021D01*
X161098981Y-87010000D01*
X161227019Y-87010000D01*
X161352598Y-86985021D01*
X161470890Y-86936022D01*
X161493475Y-86920931D01*
X161496574Y-86928413D01*
X161627899Y-87124955D01*
X161795045Y-87292101D01*
X161991587Y-87423426D01*
X162209973Y-87513884D01*
X162441810Y-87560000D01*
X162678190Y-87560000D01*
X162910027Y-87513884D01*
X163128413Y-87423426D01*
X163324955Y-87292101D01*
X163492101Y-87124955D01*
X163623426Y-86928413D01*
X163713884Y-86710027D01*
X163760000Y-86478190D01*
X163760000Y-86241810D01*
X163713884Y-86009973D01*
X163623426Y-85791587D01*
X163492101Y-85595045D01*
X163324955Y-85427899D01*
X163128413Y-85296574D01*
X162910027Y-85206116D01*
X162678190Y-85160000D01*
X162441810Y-85160000D01*
X162209973Y-85206116D01*
X161991587Y-85296574D01*
X161795045Y-85427899D01*
X161627899Y-85595045D01*
X161496574Y-85791587D01*
X161493475Y-85799069D01*
X161470890Y-85783978D01*
X161352598Y-85734979D01*
X161227019Y-85710000D01*
X161098981Y-85710000D01*
X160973402Y-85734979D01*
X160855110Y-85783978D01*
X160748649Y-85855112D01*
X160718761Y-85885000D01*
X159852119Y-85885000D01*
X159813426Y-85791587D01*
X159682101Y-85595045D01*
X159514955Y-85427899D01*
X159318413Y-85296574D01*
X159100027Y-85206116D01*
X158868190Y-85160000D01*
X158631810Y-85160000D01*
X158399973Y-85206116D01*
X158181587Y-85296574D01*
X157985045Y-85427899D01*
X157817899Y-85595045D01*
X157686574Y-85791587D01*
X157615538Y-85963084D01*
X157603888Y-85945649D01*
X157513351Y-85855112D01*
X157406890Y-85783978D01*
X157288598Y-85734979D01*
X157163019Y-85710000D01*
X157034981Y-85710000D01*
X156909402Y-85734979D01*
X156791110Y-85783978D01*
X156684649Y-85855112D01*
X156594112Y-85945649D01*
X156522978Y-86052110D01*
X156473979Y-86170402D01*
X156449000Y-86295981D01*
X130888799Y-86295981D01*
X129709000Y-85116183D01*
X129709000Y-75110131D01*
X138696000Y-75110131D01*
X138696000Y-75257869D01*
X138724822Y-75402767D01*
X138781359Y-75539258D01*
X138863437Y-75662097D01*
X138967903Y-75766563D01*
X139090742Y-75848641D01*
X139227233Y-75905178D01*
X139372131Y-75934000D01*
X139418183Y-75934000D01*
X144230000Y-80745818D01*
X144230001Y-84071339D01*
X144197437Y-84103903D01*
X144115359Y-84226742D01*
X144058822Y-84363233D01*
X144030000Y-84508131D01*
X144030000Y-84655869D01*
X144058822Y-84800767D01*
X144115359Y-84937258D01*
X144197437Y-85060097D01*
X144301903Y-85164563D01*
X144424742Y-85246641D01*
X144561233Y-85303178D01*
X144706131Y-85332000D01*
X144853869Y-85332000D01*
X144998767Y-85303178D01*
X145135258Y-85246641D01*
X145258097Y-85164563D01*
X145362563Y-85060097D01*
X145444641Y-84937258D01*
X145501178Y-84800767D01*
X145530000Y-84655869D01*
X145530000Y-84508131D01*
X145501178Y-84363233D01*
X145444641Y-84226742D01*
X145362563Y-84103903D01*
X145330000Y-84071340D01*
X145330000Y-83701810D01*
X157550000Y-83701810D01*
X157550000Y-83938190D01*
X157596116Y-84170027D01*
X157686574Y-84388413D01*
X157817899Y-84584955D01*
X157985045Y-84752101D01*
X158181587Y-84883426D01*
X158399973Y-84973884D01*
X158631810Y-85020000D01*
X158868190Y-85020000D01*
X159100027Y-84973884D01*
X159318413Y-84883426D01*
X159514955Y-84752101D01*
X159682101Y-84584955D01*
X159813426Y-84388413D01*
X159852119Y-84295000D01*
X160718761Y-84295000D01*
X160748649Y-84324888D01*
X160855110Y-84396022D01*
X160973402Y-84445021D01*
X161098981Y-84470000D01*
X161227019Y-84470000D01*
X161352598Y-84445021D01*
X161470890Y-84396022D01*
X161493475Y-84380931D01*
X161496574Y-84388413D01*
X161627899Y-84584955D01*
X161795045Y-84752101D01*
X161991587Y-84883426D01*
X162209973Y-84973884D01*
X162441810Y-85020000D01*
X162678190Y-85020000D01*
X162910027Y-84973884D01*
X163128413Y-84883426D01*
X163324955Y-84752101D01*
X163492101Y-84584955D01*
X163623426Y-84388413D01*
X163713884Y-84170027D01*
X163760000Y-83938190D01*
X163760000Y-83701810D01*
X163713884Y-83469973D01*
X163623426Y-83251587D01*
X163492101Y-83055045D01*
X163324955Y-82887899D01*
X163128413Y-82756574D01*
X162910027Y-82666116D01*
X162678190Y-82620000D01*
X162441810Y-82620000D01*
X162209973Y-82666116D01*
X161991587Y-82756574D01*
X161795045Y-82887899D01*
X161627899Y-83055045D01*
X161496574Y-83251587D01*
X161493475Y-83259069D01*
X161470890Y-83243978D01*
X161352598Y-83194979D01*
X161227019Y-83170000D01*
X161098981Y-83170000D01*
X160973402Y-83194979D01*
X160855110Y-83243978D01*
X160748649Y-83315112D01*
X160718761Y-83345000D01*
X159852119Y-83345000D01*
X159813426Y-83251587D01*
X159682101Y-83055045D01*
X159514955Y-82887899D01*
X159318413Y-82756574D01*
X159100027Y-82666116D01*
X158868190Y-82620000D01*
X158631810Y-82620000D01*
X158399973Y-82666116D01*
X158181587Y-82756574D01*
X157985045Y-82887899D01*
X157817899Y-83055045D01*
X157686574Y-83251587D01*
X157596116Y-83469973D01*
X157550000Y-83701810D01*
X145330000Y-83701810D01*
X145330000Y-81215981D01*
X156449000Y-81215981D01*
X156449000Y-81344019D01*
X156473979Y-81469598D01*
X156522978Y-81587890D01*
X156594112Y-81694351D01*
X156684649Y-81784888D01*
X156791110Y-81856022D01*
X156909402Y-81905021D01*
X157034981Y-81930000D01*
X157163019Y-81930000D01*
X157288598Y-81905021D01*
X157406890Y-81856022D01*
X157513351Y-81784888D01*
X157603888Y-81694351D01*
X157615538Y-81676916D01*
X157686574Y-81848413D01*
X157817899Y-82044955D01*
X157985045Y-82212101D01*
X158181587Y-82343426D01*
X158399973Y-82433884D01*
X158631810Y-82480000D01*
X158868190Y-82480000D01*
X159100027Y-82433884D01*
X159318413Y-82343426D01*
X159514955Y-82212101D01*
X159682101Y-82044955D01*
X159813426Y-81848413D01*
X159852119Y-81755000D01*
X160718761Y-81755000D01*
X160748649Y-81784888D01*
X160855110Y-81856022D01*
X160973402Y-81905021D01*
X161098981Y-81930000D01*
X161227019Y-81930000D01*
X161352598Y-81905021D01*
X161470890Y-81856022D01*
X161493475Y-81840931D01*
X161496574Y-81848413D01*
X161627899Y-82044955D01*
X161795045Y-82212101D01*
X161991587Y-82343426D01*
X162209973Y-82433884D01*
X162441810Y-82480000D01*
X162678190Y-82480000D01*
X162910027Y-82433884D01*
X163128413Y-82343426D01*
X163324955Y-82212101D01*
X163492101Y-82044955D01*
X163623426Y-81848413D01*
X163713884Y-81630027D01*
X163760000Y-81398190D01*
X163760000Y-81161810D01*
X163713884Y-80929973D01*
X163623426Y-80711587D01*
X163492101Y-80515045D01*
X163324955Y-80347899D01*
X163128413Y-80216574D01*
X162910027Y-80126116D01*
X162678190Y-80080000D01*
X162441810Y-80080000D01*
X162209973Y-80126116D01*
X161991587Y-80216574D01*
X161795045Y-80347899D01*
X161627899Y-80515045D01*
X161496574Y-80711587D01*
X161493475Y-80719069D01*
X161470890Y-80703978D01*
X161352598Y-80654979D01*
X161227019Y-80630000D01*
X161098981Y-80630000D01*
X160973402Y-80654979D01*
X160855110Y-80703978D01*
X160748649Y-80775112D01*
X160718761Y-80805000D01*
X159852119Y-80805000D01*
X159813426Y-80711587D01*
X159682101Y-80515045D01*
X159514955Y-80347899D01*
X159318413Y-80216574D01*
X159100027Y-80126116D01*
X158868190Y-80080000D01*
X158631810Y-80080000D01*
X158399973Y-80126116D01*
X158181587Y-80216574D01*
X157985045Y-80347899D01*
X157817899Y-80515045D01*
X157686574Y-80711587D01*
X157615538Y-80883084D01*
X157603888Y-80865649D01*
X157513351Y-80775112D01*
X157406890Y-80703978D01*
X157288598Y-80654979D01*
X157163019Y-80630000D01*
X157034981Y-80630000D01*
X156909402Y-80654979D01*
X156791110Y-80703978D01*
X156684649Y-80775112D01*
X156594112Y-80865649D01*
X156522978Y-80972110D01*
X156473979Y-81090402D01*
X156449000Y-81215981D01*
X145330000Y-81215981D01*
X145330000Y-80545007D01*
X145332660Y-80517999D01*
X145330000Y-80490991D01*
X145330000Y-80490982D01*
X145322042Y-80410181D01*
X145290592Y-80306506D01*
X145242523Y-80216574D01*
X145239521Y-80210957D01*
X145188013Y-80148195D01*
X145188008Y-80148190D01*
X145170790Y-80127210D01*
X145149810Y-80109992D01*
X143715799Y-78675981D01*
X156449000Y-78675981D01*
X156449000Y-78804019D01*
X156473979Y-78929598D01*
X156522978Y-79047890D01*
X156594112Y-79154351D01*
X156684649Y-79244888D01*
X156791110Y-79316022D01*
X156909402Y-79365021D01*
X157034981Y-79390000D01*
X157163019Y-79390000D01*
X157288598Y-79365021D01*
X157406890Y-79316022D01*
X157513351Y-79244888D01*
X157603888Y-79154351D01*
X157615538Y-79136916D01*
X157686574Y-79308413D01*
X157817899Y-79504955D01*
X157985045Y-79672101D01*
X158181587Y-79803426D01*
X158399973Y-79893884D01*
X158631810Y-79940000D01*
X158868190Y-79940000D01*
X159100027Y-79893884D01*
X159318413Y-79803426D01*
X159514955Y-79672101D01*
X159682101Y-79504955D01*
X159813426Y-79308413D01*
X159852119Y-79215000D01*
X160718761Y-79215000D01*
X160748649Y-79244888D01*
X160855110Y-79316022D01*
X160973402Y-79365021D01*
X161098981Y-79390000D01*
X161227019Y-79390000D01*
X161352598Y-79365021D01*
X161470890Y-79316022D01*
X161493475Y-79300931D01*
X161496574Y-79308413D01*
X161627899Y-79504955D01*
X161795045Y-79672101D01*
X161991587Y-79803426D01*
X162209973Y-79893884D01*
X162441810Y-79940000D01*
X162678190Y-79940000D01*
X162910027Y-79893884D01*
X163128413Y-79803426D01*
X163324955Y-79672101D01*
X163492101Y-79504955D01*
X163623426Y-79308413D01*
X163713884Y-79090027D01*
X163760000Y-78858190D01*
X163760000Y-78621810D01*
X163713884Y-78389973D01*
X163623426Y-78171587D01*
X163492101Y-77975045D01*
X163324955Y-77807899D01*
X163128413Y-77676574D01*
X162910027Y-77586116D01*
X162678190Y-77540000D01*
X162441810Y-77540000D01*
X162209973Y-77586116D01*
X161991587Y-77676574D01*
X161795045Y-77807899D01*
X161627899Y-77975045D01*
X161496574Y-78171587D01*
X161493475Y-78179069D01*
X161470890Y-78163978D01*
X161352598Y-78114979D01*
X161227019Y-78090000D01*
X161098981Y-78090000D01*
X160973402Y-78114979D01*
X160855110Y-78163978D01*
X160748649Y-78235112D01*
X160718761Y-78265000D01*
X159852119Y-78265000D01*
X159813426Y-78171587D01*
X159682101Y-77975045D01*
X159514955Y-77807899D01*
X159318413Y-77676574D01*
X159100027Y-77586116D01*
X158868190Y-77540000D01*
X158631810Y-77540000D01*
X158399973Y-77586116D01*
X158181587Y-77676574D01*
X157985045Y-77807899D01*
X157817899Y-77975045D01*
X157686574Y-78171587D01*
X157615538Y-78343084D01*
X157603888Y-78325649D01*
X157513351Y-78235112D01*
X157406890Y-78163978D01*
X157288598Y-78114979D01*
X157163019Y-78090000D01*
X157034981Y-78090000D01*
X156909402Y-78114979D01*
X156791110Y-78163978D01*
X156684649Y-78235112D01*
X156594112Y-78325649D01*
X156522978Y-78432110D01*
X156473979Y-78550402D01*
X156449000Y-78675981D01*
X143715799Y-78675981D01*
X141121628Y-76081810D01*
X157550000Y-76081810D01*
X157550000Y-76318190D01*
X157596116Y-76550027D01*
X157686574Y-76768413D01*
X157817899Y-76964955D01*
X157985045Y-77132101D01*
X158181587Y-77263426D01*
X158399973Y-77353884D01*
X158631810Y-77400000D01*
X158868190Y-77400000D01*
X159100027Y-77353884D01*
X159318413Y-77263426D01*
X159514955Y-77132101D01*
X159682101Y-76964955D01*
X159813426Y-76768413D01*
X159852119Y-76675000D01*
X160718761Y-76675000D01*
X160748649Y-76704888D01*
X160855110Y-76776022D01*
X160973402Y-76825021D01*
X161098981Y-76850000D01*
X161227019Y-76850000D01*
X161352598Y-76825021D01*
X161470890Y-76776022D01*
X161493475Y-76760931D01*
X161496574Y-76768413D01*
X161627899Y-76964955D01*
X161795045Y-77132101D01*
X161991587Y-77263426D01*
X162209973Y-77353884D01*
X162441810Y-77400000D01*
X162678190Y-77400000D01*
X162910027Y-77353884D01*
X163128413Y-77263426D01*
X163324955Y-77132101D01*
X163492101Y-76964955D01*
X163623426Y-76768413D01*
X163713884Y-76550027D01*
X163760000Y-76318190D01*
X163760000Y-76081810D01*
X163713884Y-75849973D01*
X163623426Y-75631587D01*
X163492101Y-75435045D01*
X163324955Y-75267899D01*
X163128413Y-75136574D01*
X162910027Y-75046116D01*
X162678190Y-75000000D01*
X162441810Y-75000000D01*
X162209973Y-75046116D01*
X161991587Y-75136574D01*
X161795045Y-75267899D01*
X161627899Y-75435045D01*
X161496574Y-75631587D01*
X161493475Y-75639069D01*
X161470890Y-75623978D01*
X161352598Y-75574979D01*
X161227019Y-75550000D01*
X161098981Y-75550000D01*
X160973402Y-75574979D01*
X160855110Y-75623978D01*
X160748649Y-75695112D01*
X160718761Y-75725000D01*
X159852119Y-75725000D01*
X159813426Y-75631587D01*
X159682101Y-75435045D01*
X159514955Y-75267899D01*
X159318413Y-75136574D01*
X159100027Y-75046116D01*
X158868190Y-75000000D01*
X158631810Y-75000000D01*
X158399973Y-75046116D01*
X158181587Y-75136574D01*
X157985045Y-75267899D01*
X157817899Y-75435045D01*
X157686574Y-75631587D01*
X157596116Y-75849973D01*
X157550000Y-76081810D01*
X141121628Y-76081810D01*
X140196000Y-75156183D01*
X140196000Y-75110131D01*
X140167178Y-74965233D01*
X140110641Y-74828742D01*
X140028563Y-74705903D01*
X139924097Y-74601437D01*
X139801258Y-74519359D01*
X139664767Y-74462822D01*
X139519869Y-74434000D01*
X139372131Y-74434000D01*
X139227233Y-74462822D01*
X139090742Y-74519359D01*
X138967903Y-74601437D01*
X138863437Y-74705903D01*
X138781359Y-74828742D01*
X138724822Y-74965233D01*
X138696000Y-75110131D01*
X129709000Y-75110131D01*
X129709000Y-72744817D01*
X130583818Y-71870000D01*
X130629869Y-71870000D01*
X130749866Y-71846131D01*
X133616000Y-71846131D01*
X133616000Y-71993869D01*
X133644822Y-72138767D01*
X133701359Y-72275258D01*
X133783437Y-72398097D01*
X133887903Y-72502563D01*
X134010742Y-72584641D01*
X134147233Y-72641178D01*
X134292131Y-72670000D01*
X134439869Y-72670000D01*
X134584767Y-72641178D01*
X134721258Y-72584641D01*
X134844097Y-72502563D01*
X134876660Y-72470000D01*
X141796183Y-72470000D01*
X143014000Y-73687817D01*
X143014000Y-73733869D01*
X143042822Y-73878767D01*
X143099359Y-74015258D01*
X143181437Y-74138097D01*
X143285903Y-74242563D01*
X143408742Y-74324641D01*
X143545233Y-74381178D01*
X143690131Y-74410000D01*
X143837869Y-74410000D01*
X143982767Y-74381178D01*
X144119258Y-74324641D01*
X144242097Y-74242563D01*
X144346563Y-74138097D01*
X144428641Y-74015258D01*
X144485178Y-73878767D01*
X144514000Y-73733869D01*
X144514000Y-73595981D01*
X156449000Y-73595981D01*
X156449000Y-73724019D01*
X156473979Y-73849598D01*
X156522978Y-73967890D01*
X156594112Y-74074351D01*
X156684649Y-74164888D01*
X156791110Y-74236022D01*
X156909402Y-74285021D01*
X157034981Y-74310000D01*
X157163019Y-74310000D01*
X157288598Y-74285021D01*
X157406890Y-74236022D01*
X157513351Y-74164888D01*
X157603888Y-74074351D01*
X157615538Y-74056916D01*
X157686574Y-74228413D01*
X157817899Y-74424955D01*
X157985045Y-74592101D01*
X158181587Y-74723426D01*
X158399973Y-74813884D01*
X158631810Y-74860000D01*
X158868190Y-74860000D01*
X159100027Y-74813884D01*
X159318413Y-74723426D01*
X159514955Y-74592101D01*
X159682101Y-74424955D01*
X159813426Y-74228413D01*
X159852119Y-74135000D01*
X160718761Y-74135000D01*
X160748649Y-74164888D01*
X160855110Y-74236022D01*
X160973402Y-74285021D01*
X161098981Y-74310000D01*
X161227019Y-74310000D01*
X161352598Y-74285021D01*
X161470890Y-74236022D01*
X161493475Y-74220931D01*
X161496574Y-74228413D01*
X161627899Y-74424955D01*
X161795045Y-74592101D01*
X161991587Y-74723426D01*
X162209973Y-74813884D01*
X162441810Y-74860000D01*
X162678190Y-74860000D01*
X162910027Y-74813884D01*
X163128413Y-74723426D01*
X163324955Y-74592101D01*
X163492101Y-74424955D01*
X163623426Y-74228413D01*
X163713884Y-74010027D01*
X163760000Y-73778190D01*
X163760000Y-73541810D01*
X163713884Y-73309973D01*
X163623426Y-73091587D01*
X163492101Y-72895045D01*
X163324955Y-72727899D01*
X163128413Y-72596574D01*
X162910027Y-72506116D01*
X162678190Y-72460000D01*
X162441810Y-72460000D01*
X162209973Y-72506116D01*
X161991587Y-72596574D01*
X161795045Y-72727899D01*
X161627899Y-72895045D01*
X161496574Y-73091587D01*
X161493475Y-73099069D01*
X161470890Y-73083978D01*
X161352598Y-73034979D01*
X161227019Y-73010000D01*
X161098981Y-73010000D01*
X160973402Y-73034979D01*
X160855110Y-73083978D01*
X160748649Y-73155112D01*
X160718761Y-73185000D01*
X159852119Y-73185000D01*
X159813426Y-73091587D01*
X159682101Y-72895045D01*
X159514955Y-72727899D01*
X159318413Y-72596574D01*
X159100027Y-72506116D01*
X158868190Y-72460000D01*
X158631810Y-72460000D01*
X158399973Y-72506116D01*
X158181587Y-72596574D01*
X157985045Y-72727899D01*
X157817899Y-72895045D01*
X157686574Y-73091587D01*
X157615538Y-73263084D01*
X157603888Y-73245649D01*
X157513351Y-73155112D01*
X157406890Y-73083978D01*
X157288598Y-73034979D01*
X157163019Y-73010000D01*
X157034981Y-73010000D01*
X156909402Y-73034979D01*
X156791110Y-73083978D01*
X156684649Y-73155112D01*
X156594112Y-73245649D01*
X156522978Y-73352110D01*
X156473979Y-73470402D01*
X156449000Y-73595981D01*
X144514000Y-73595981D01*
X144514000Y-73586131D01*
X144485178Y-73441233D01*
X144428641Y-73304742D01*
X144346563Y-73181903D01*
X144242097Y-73077437D01*
X144119258Y-72995359D01*
X143982767Y-72938822D01*
X143837869Y-72910000D01*
X143791817Y-72910000D01*
X142432013Y-71550196D01*
X142414790Y-71529210D01*
X142331042Y-71460479D01*
X142235494Y-71409408D01*
X142131819Y-71377958D01*
X142051018Y-71370000D01*
X142051008Y-71370000D01*
X142024000Y-71367340D01*
X141996992Y-71370000D01*
X134876660Y-71370000D01*
X134844097Y-71337437D01*
X134840401Y-71334967D01*
X157565346Y-71334967D01*
X157573257Y-71374745D01*
X157645566Y-71599421D01*
X157760318Y-71805673D01*
X157913103Y-71985575D01*
X158098049Y-72132214D01*
X158308049Y-72239954D01*
X158535033Y-72304655D01*
X158723000Y-72235198D01*
X158723000Y-71147000D01*
X158777000Y-71147000D01*
X158777000Y-72235198D01*
X158964967Y-72304655D01*
X159191951Y-72239954D01*
X159401951Y-72132214D01*
X159586897Y-71985575D01*
X159739682Y-71805673D01*
X159854434Y-71599421D01*
X159926743Y-71374745D01*
X159934654Y-71334967D01*
X161375346Y-71334967D01*
X161383257Y-71374745D01*
X161455566Y-71599421D01*
X161570318Y-71805673D01*
X161723103Y-71985575D01*
X161908049Y-72132214D01*
X162118049Y-72239954D01*
X162345033Y-72304655D01*
X162533000Y-72235198D01*
X162533000Y-71147000D01*
X162587000Y-71147000D01*
X162587000Y-72235198D01*
X162774967Y-72304655D01*
X163001951Y-72239954D01*
X163211951Y-72132214D01*
X163396897Y-71985575D01*
X163549682Y-71805673D01*
X163664434Y-71599421D01*
X163736743Y-71374745D01*
X163744654Y-71334967D01*
X163675173Y-71147000D01*
X162587000Y-71147000D01*
X162533000Y-71147000D01*
X161444827Y-71147000D01*
X161375346Y-71334967D01*
X159934654Y-71334967D01*
X159865173Y-71147000D01*
X158777000Y-71147000D01*
X158723000Y-71147000D01*
X157634827Y-71147000D01*
X157565346Y-71334967D01*
X134840401Y-71334967D01*
X134721258Y-71255359D01*
X134584767Y-71198822D01*
X134439869Y-71170000D01*
X134292131Y-71170000D01*
X134147233Y-71198822D01*
X134010742Y-71255359D01*
X133887903Y-71337437D01*
X133783437Y-71441903D01*
X133701359Y-71564742D01*
X133644822Y-71701233D01*
X133616000Y-71846131D01*
X130749866Y-71846131D01*
X130774767Y-71841178D01*
X130911258Y-71784641D01*
X131034097Y-71702563D01*
X131138563Y-71598097D01*
X131220641Y-71475258D01*
X131277178Y-71338767D01*
X131306000Y-71193869D01*
X131306000Y-71046131D01*
X131277934Y-70905033D01*
X157565346Y-70905033D01*
X157634827Y-71093000D01*
X158723000Y-71093000D01*
X158723000Y-70004802D01*
X158777000Y-70004802D01*
X158777000Y-71093000D01*
X159865173Y-71093000D01*
X159934654Y-70905033D01*
X161375346Y-70905033D01*
X161444827Y-71093000D01*
X162533000Y-71093000D01*
X162533000Y-70004802D01*
X162587000Y-70004802D01*
X162587000Y-71093000D01*
X163675173Y-71093000D01*
X163744654Y-70905033D01*
X163736743Y-70865255D01*
X163664434Y-70640579D01*
X163549682Y-70434327D01*
X163396897Y-70254425D01*
X163211951Y-70107786D01*
X163001951Y-70000046D01*
X162774967Y-69935345D01*
X162587000Y-70004802D01*
X162533000Y-70004802D01*
X162345033Y-69935345D01*
X162118049Y-70000046D01*
X161908049Y-70107786D01*
X161723103Y-70254425D01*
X161570318Y-70434327D01*
X161455566Y-70640579D01*
X161383257Y-70865255D01*
X161375346Y-70905033D01*
X159934654Y-70905033D01*
X159926743Y-70865255D01*
X159854434Y-70640579D01*
X159739682Y-70434327D01*
X159586897Y-70254425D01*
X159401951Y-70107786D01*
X159191951Y-70000046D01*
X158964967Y-69935345D01*
X158777000Y-70004802D01*
X158723000Y-70004802D01*
X158535033Y-69935345D01*
X158308049Y-70000046D01*
X158098049Y-70107786D01*
X157913103Y-70254425D01*
X157760318Y-70434327D01*
X157645566Y-70640579D01*
X157573257Y-70865255D01*
X157565346Y-70905033D01*
X131277934Y-70905033D01*
X131277178Y-70901233D01*
X131220641Y-70764742D01*
X131138563Y-70641903D01*
X131034097Y-70537437D01*
X130911258Y-70455359D01*
X130774767Y-70398822D01*
X130629869Y-70370000D01*
X130482131Y-70370000D01*
X130337233Y-70398822D01*
X130200742Y-70455359D01*
X130077903Y-70537437D01*
X129973437Y-70641903D01*
X129891359Y-70764742D01*
X129834822Y-70901233D01*
X129806000Y-71046131D01*
X129806000Y-71092182D01*
X128789191Y-72108992D01*
X128768211Y-72126210D01*
X128750993Y-72147190D01*
X128750987Y-72147196D01*
X128699479Y-72209958D01*
X128656802Y-72289804D01*
X128648409Y-72305506D01*
X128620322Y-72398097D01*
X128616959Y-72409182D01*
X128606340Y-72517000D01*
X128609001Y-72544018D01*
X128609000Y-84794000D01*
X116715660Y-84794000D01*
X116683097Y-84761437D01*
X116560258Y-84679359D01*
X116423767Y-84622822D01*
X116278869Y-84594000D01*
X116131131Y-84594000D01*
X115986233Y-84622822D01*
X115849742Y-84679359D01*
X115726903Y-84761437D01*
X115622437Y-84865903D01*
X115540359Y-84988742D01*
X115483822Y-85125233D01*
X115455000Y-85270131D01*
X105785000Y-85270131D01*
X105785000Y-81145846D01*
X106059846Y-81145846D01*
X106105787Y-81310135D01*
X106189278Y-81477564D01*
X106303829Y-81625488D01*
X106445037Y-81748222D01*
X106607476Y-81841049D01*
X106784903Y-81900402D01*
X106970500Y-81924000D01*
X107320500Y-81924000D01*
X107320500Y-80997000D01*
X107374500Y-80997000D01*
X107374500Y-81924000D01*
X107724500Y-81924000D01*
X107910097Y-81900402D01*
X108087524Y-81841049D01*
X108249963Y-81748222D01*
X108391171Y-81625488D01*
X108505722Y-81477564D01*
X108589213Y-81310135D01*
X108635154Y-81145846D01*
X108562579Y-80997000D01*
X107374500Y-80997000D01*
X107320500Y-80997000D01*
X106132421Y-80997000D01*
X106059846Y-81145846D01*
X105785000Y-81145846D01*
X105785000Y-80794154D01*
X106059846Y-80794154D01*
X106132421Y-80943000D01*
X107320500Y-80943000D01*
X107320500Y-80016000D01*
X107374500Y-80016000D01*
X107374500Y-80943000D01*
X108562579Y-80943000D01*
X108635154Y-80794154D01*
X108606844Y-80692914D01*
X109362770Y-80692914D01*
X109432252Y-80862752D01*
X109618242Y-80965627D01*
X109820727Y-81030240D01*
X110031927Y-81054109D01*
X110243725Y-81036317D01*
X110447983Y-80977547D01*
X110636850Y-80880057D01*
X110662748Y-80862752D01*
X110732230Y-80692914D01*
X110047500Y-80008184D01*
X109362770Y-80692914D01*
X108606844Y-80692914D01*
X108589213Y-80629865D01*
X108505722Y-80462436D01*
X108391171Y-80314512D01*
X108249963Y-80191778D01*
X108087524Y-80098951D01*
X107910097Y-80039598D01*
X107724500Y-80016000D01*
X107374500Y-80016000D01*
X107320500Y-80016000D01*
X106970500Y-80016000D01*
X106784903Y-80039598D01*
X106607476Y-80098951D01*
X106445037Y-80191778D01*
X106303829Y-80314512D01*
X106189278Y-80462436D01*
X106105787Y-80629865D01*
X106059846Y-80794154D01*
X105785000Y-80794154D01*
X105785000Y-79954427D01*
X108963391Y-79954427D01*
X108981183Y-80166225D01*
X109039953Y-80370483D01*
X109137443Y-80559350D01*
X109154748Y-80585248D01*
X109324586Y-80654730D01*
X110009316Y-79970000D01*
X110085684Y-79970000D01*
X110770414Y-80654730D01*
X110940252Y-80585248D01*
X111043127Y-80399258D01*
X111107740Y-80196773D01*
X111131609Y-79985573D01*
X111113817Y-79773775D01*
X111055047Y-79569517D01*
X110957557Y-79380650D01*
X110940252Y-79354752D01*
X110770414Y-79285270D01*
X110085684Y-79970000D01*
X110009316Y-79970000D01*
X109324586Y-79285270D01*
X109154748Y-79354752D01*
X109051873Y-79540742D01*
X108987260Y-79743227D01*
X108963391Y-79954427D01*
X105785000Y-79954427D01*
X105785000Y-79247086D01*
X109362770Y-79247086D01*
X110047500Y-79931816D01*
X110732230Y-79247086D01*
X110662748Y-79077248D01*
X110476758Y-78974373D01*
X110274273Y-78909760D01*
X110063073Y-78885891D01*
X109851275Y-78903683D01*
X109647017Y-78962453D01*
X109458150Y-79059943D01*
X109432252Y-79077248D01*
X109362770Y-79247086D01*
X105785000Y-79247086D01*
X105785000Y-75692914D01*
X109362770Y-75692914D01*
X109432252Y-75862752D01*
X109618242Y-75965627D01*
X109820727Y-76030240D01*
X110031927Y-76054109D01*
X110243725Y-76036317D01*
X110447983Y-75977547D01*
X110636850Y-75880057D01*
X110662748Y-75862752D01*
X110732230Y-75692914D01*
X110047500Y-75008184D01*
X109362770Y-75692914D01*
X105785000Y-75692914D01*
X105785000Y-74954427D01*
X108963391Y-74954427D01*
X108981183Y-75166225D01*
X109039953Y-75370483D01*
X109137443Y-75559350D01*
X109154748Y-75585248D01*
X109324586Y-75654730D01*
X110009316Y-74970000D01*
X110085684Y-74970000D01*
X110770414Y-75654730D01*
X110940252Y-75585248D01*
X111043127Y-75399258D01*
X111107740Y-75196773D01*
X111131609Y-74985573D01*
X111113817Y-74773775D01*
X111055047Y-74569517D01*
X110957557Y-74380650D01*
X110940252Y-74354752D01*
X110770414Y-74285270D01*
X110085684Y-74970000D01*
X110009316Y-74970000D01*
X109324586Y-74285270D01*
X109154748Y-74354752D01*
X109051873Y-74540742D01*
X108987260Y-74743227D01*
X108963391Y-74954427D01*
X105785000Y-74954427D01*
X105785000Y-74145846D01*
X106059846Y-74145846D01*
X106105787Y-74310135D01*
X106189278Y-74477564D01*
X106303829Y-74625488D01*
X106445037Y-74748222D01*
X106607476Y-74841049D01*
X106784903Y-74900402D01*
X106970500Y-74924000D01*
X107320500Y-74924000D01*
X107320500Y-73997000D01*
X107374500Y-73997000D01*
X107374500Y-74924000D01*
X107724500Y-74924000D01*
X107910097Y-74900402D01*
X108087524Y-74841049D01*
X108249963Y-74748222D01*
X108391171Y-74625488D01*
X108505722Y-74477564D01*
X108589213Y-74310135D01*
X108606843Y-74247086D01*
X109362770Y-74247086D01*
X110047500Y-74931816D01*
X110732230Y-74247086D01*
X110662748Y-74077248D01*
X110476758Y-73974373D01*
X110274273Y-73909760D01*
X110063073Y-73885891D01*
X109851275Y-73903683D01*
X109647017Y-73962453D01*
X109458150Y-74059943D01*
X109432252Y-74077248D01*
X109362770Y-74247086D01*
X108606843Y-74247086D01*
X108635154Y-74145846D01*
X108562579Y-73997000D01*
X107374500Y-73997000D01*
X107320500Y-73997000D01*
X106132421Y-73997000D01*
X106059846Y-74145846D01*
X105785000Y-74145846D01*
X105785000Y-73794154D01*
X106059846Y-73794154D01*
X106132421Y-73943000D01*
X107320500Y-73943000D01*
X107320500Y-73016000D01*
X107374500Y-73016000D01*
X107374500Y-73943000D01*
X108562579Y-73943000D01*
X108635154Y-73794154D01*
X108589213Y-73629865D01*
X108505722Y-73462436D01*
X108391171Y-73314512D01*
X108249963Y-73191778D01*
X108087524Y-73098951D01*
X107910097Y-73039598D01*
X107724500Y-73016000D01*
X107374500Y-73016000D01*
X107320500Y-73016000D01*
X106970500Y-73016000D01*
X106784903Y-73039598D01*
X106607476Y-73098951D01*
X106445037Y-73191778D01*
X106303829Y-73314512D01*
X106189278Y-73462436D01*
X106105787Y-73629865D01*
X106059846Y-73794154D01*
X105785000Y-73794154D01*
X105785000Y-66220131D01*
X118630000Y-66220131D01*
X118630000Y-66822851D01*
X118630001Y-83746126D01*
X118630000Y-83746131D01*
X118630000Y-83893869D01*
X118637227Y-83930202D01*
X118640854Y-83967026D01*
X118651595Y-84002433D01*
X118658822Y-84038767D01*
X118672999Y-84072993D01*
X118683740Y-84108401D01*
X118701184Y-84141036D01*
X118715359Y-84175258D01*
X118735937Y-84206055D01*
X118753382Y-84238693D01*
X118776858Y-84267299D01*
X118797437Y-84298097D01*
X118823632Y-84324292D01*
X118847106Y-84352895D01*
X118875709Y-84376369D01*
X118901903Y-84402563D01*
X118932700Y-84423141D01*
X118961308Y-84446619D01*
X118993949Y-84464066D01*
X119024742Y-84484641D01*
X119058960Y-84498815D01*
X119091600Y-84516261D01*
X119127013Y-84527004D01*
X119161233Y-84541178D01*
X119197560Y-84548404D01*
X119232975Y-84559147D01*
X119269807Y-84562775D01*
X119306131Y-84570000D01*
X119343165Y-84570000D01*
X119380000Y-84573628D01*
X119416835Y-84570000D01*
X119453869Y-84570000D01*
X119490192Y-84562775D01*
X119527026Y-84559147D01*
X119562443Y-84548403D01*
X119598767Y-84541178D01*
X119632984Y-84527005D01*
X119668401Y-84516261D01*
X119701044Y-84498813D01*
X119735258Y-84484641D01*
X119766047Y-84464068D01*
X119798693Y-84446619D01*
X119827305Y-84423137D01*
X119858097Y-84402563D01*
X119884286Y-84376374D01*
X119912895Y-84352895D01*
X119936374Y-84324286D01*
X119962563Y-84298097D01*
X119983137Y-84267305D01*
X120006619Y-84238693D01*
X120024068Y-84206047D01*
X120044641Y-84175258D01*
X120058813Y-84141044D01*
X120076261Y-84108401D01*
X120087005Y-84072984D01*
X120101178Y-84038767D01*
X120108403Y-84002443D01*
X120119147Y-83967026D01*
X120122775Y-83930192D01*
X120130000Y-83893869D01*
X120130000Y-75872131D01*
X125234000Y-75872131D01*
X125234000Y-76019869D01*
X125262822Y-76164767D01*
X125319359Y-76301258D01*
X125401437Y-76424097D01*
X125434001Y-76456661D01*
X125434000Y-80896340D01*
X125401437Y-80928903D01*
X125319359Y-81051742D01*
X125262822Y-81188233D01*
X125234000Y-81333131D01*
X125234000Y-81480869D01*
X125262822Y-81625767D01*
X125319359Y-81762258D01*
X125401437Y-81885097D01*
X125505903Y-81989563D01*
X125628742Y-82071641D01*
X125765233Y-82128178D01*
X125910131Y-82157000D01*
X126057869Y-82157000D01*
X126202767Y-82128178D01*
X126339258Y-82071641D01*
X126462097Y-81989563D01*
X126566563Y-81885097D01*
X126648641Y-81762258D01*
X126705178Y-81625767D01*
X126734000Y-81480869D01*
X126734000Y-81333131D01*
X126705178Y-81188233D01*
X126648641Y-81051742D01*
X126566563Y-80928903D01*
X126534000Y-80896340D01*
X126534000Y-76456660D01*
X126566563Y-76424097D01*
X126648641Y-76301258D01*
X126705178Y-76164767D01*
X126734000Y-76019869D01*
X126734000Y-75872131D01*
X126705178Y-75727233D01*
X126648641Y-75590742D01*
X126566563Y-75467903D01*
X126462097Y-75363437D01*
X126339258Y-75281359D01*
X126202767Y-75224822D01*
X126057869Y-75196000D01*
X125910131Y-75196000D01*
X125765233Y-75224822D01*
X125628742Y-75281359D01*
X125505903Y-75363437D01*
X125401437Y-75467903D01*
X125319359Y-75590742D01*
X125262822Y-75727233D01*
X125234000Y-75872131D01*
X120130000Y-75872131D01*
X120130000Y-68506131D01*
X156222000Y-68506131D01*
X156222000Y-68653869D01*
X156250822Y-68798767D01*
X156307359Y-68935258D01*
X156389437Y-69058097D01*
X156493903Y-69162563D01*
X156616742Y-69244641D01*
X156753233Y-69301178D01*
X156898131Y-69330000D01*
X157045869Y-69330000D01*
X157190767Y-69301178D01*
X157327258Y-69244641D01*
X157450097Y-69162563D01*
X157554563Y-69058097D01*
X157612962Y-68970697D01*
X157686574Y-69148413D01*
X157817899Y-69344955D01*
X157985045Y-69512101D01*
X158181587Y-69643426D01*
X158399973Y-69733884D01*
X158631810Y-69780000D01*
X158868190Y-69780000D01*
X159100027Y-69733884D01*
X159318413Y-69643426D01*
X159514955Y-69512101D01*
X159682101Y-69344955D01*
X159813426Y-69148413D01*
X159852119Y-69055000D01*
X160451368Y-69055000D01*
X160453437Y-69058097D01*
X160557903Y-69162563D01*
X160680742Y-69244641D01*
X160817233Y-69301178D01*
X160962131Y-69330000D01*
X161109869Y-69330000D01*
X161254767Y-69301178D01*
X161391258Y-69244641D01*
X161508519Y-69166290D01*
X161627899Y-69344955D01*
X161795045Y-69512101D01*
X161991587Y-69643426D01*
X162209973Y-69733884D01*
X162441810Y-69780000D01*
X162678190Y-69780000D01*
X162910027Y-69733884D01*
X163128413Y-69643426D01*
X163324955Y-69512101D01*
X163492101Y-69344955D01*
X163623426Y-69148413D01*
X163713884Y-68930027D01*
X163760000Y-68698190D01*
X163760000Y-68461810D01*
X163713884Y-68229973D01*
X163623426Y-68011587D01*
X163492101Y-67815045D01*
X163324955Y-67647899D01*
X163128413Y-67516574D01*
X162910027Y-67426116D01*
X162678190Y-67380000D01*
X162441810Y-67380000D01*
X162209973Y-67426116D01*
X161991587Y-67516574D01*
X161795045Y-67647899D01*
X161627899Y-67815045D01*
X161508519Y-67993710D01*
X161391258Y-67915359D01*
X161254767Y-67858822D01*
X161109869Y-67830000D01*
X160962131Y-67830000D01*
X160817233Y-67858822D01*
X160680742Y-67915359D01*
X160557903Y-67997437D01*
X160453437Y-68101903D01*
X160451368Y-68105000D01*
X159852119Y-68105000D01*
X159813426Y-68011587D01*
X159682101Y-67815045D01*
X159514955Y-67647899D01*
X159318413Y-67516574D01*
X159100027Y-67426116D01*
X158868190Y-67380000D01*
X158631810Y-67380000D01*
X158399973Y-67426116D01*
X158181587Y-67516574D01*
X157985045Y-67647899D01*
X157817899Y-67815045D01*
X157686574Y-68011587D01*
X157612962Y-68189303D01*
X157554563Y-68101903D01*
X157450097Y-67997437D01*
X157327258Y-67915359D01*
X157190767Y-67858822D01*
X157045869Y-67830000D01*
X156898131Y-67830000D01*
X156753233Y-67858822D01*
X156616742Y-67915359D01*
X156493903Y-67997437D01*
X156389437Y-68101903D01*
X156307359Y-68224742D01*
X156250822Y-68361233D01*
X156222000Y-68506131D01*
X120130000Y-68506131D01*
X120130000Y-66220131D01*
X120122775Y-66183808D01*
X120119147Y-66146974D01*
X120108403Y-66111557D01*
X120101178Y-66075233D01*
X120087005Y-66041016D01*
X120076261Y-66005599D01*
X120058813Y-65972956D01*
X120044641Y-65938742D01*
X120024068Y-65907953D01*
X120006619Y-65875307D01*
X119983137Y-65846695D01*
X119962563Y-65815903D01*
X119936374Y-65789714D01*
X119912895Y-65761105D01*
X119884287Y-65737627D01*
X119858097Y-65711437D01*
X119827301Y-65690860D01*
X119798692Y-65667381D01*
X119766051Y-65649934D01*
X119735258Y-65629359D01*
X119701040Y-65615185D01*
X119668400Y-65597739D01*
X119632987Y-65586996D01*
X119598767Y-65572822D01*
X119562440Y-65565596D01*
X119527025Y-65554853D01*
X119490193Y-65551225D01*
X119453869Y-65544000D01*
X119416835Y-65544000D01*
X119380000Y-65540372D01*
X119343165Y-65544000D01*
X119306131Y-65544000D01*
X119269808Y-65551225D01*
X119232974Y-65554853D01*
X119197557Y-65565597D01*
X119161233Y-65572822D01*
X119127016Y-65586995D01*
X119091599Y-65597739D01*
X119058956Y-65615187D01*
X119024742Y-65629359D01*
X118993953Y-65649932D01*
X118961307Y-65667381D01*
X118932695Y-65690863D01*
X118901903Y-65711437D01*
X118875714Y-65737626D01*
X118847105Y-65761105D01*
X118823627Y-65789713D01*
X118797437Y-65815903D01*
X118776860Y-65846699D01*
X118753381Y-65875308D01*
X118735934Y-65907949D01*
X118715359Y-65938742D01*
X118701185Y-65972960D01*
X118683739Y-66005600D01*
X118672996Y-66041013D01*
X118658822Y-66075233D01*
X118651596Y-66111560D01*
X118640853Y-66146975D01*
X118637225Y-66183807D01*
X118630000Y-66220131D01*
X105785000Y-66220131D01*
X105785000Y-65190000D01*
X157548307Y-65190000D01*
X157548307Y-66890000D01*
X157555065Y-66958612D01*
X157575078Y-67024587D01*
X157607578Y-67085390D01*
X157651315Y-67138685D01*
X157704610Y-67182422D01*
X157765413Y-67214922D01*
X157831388Y-67234935D01*
X157900000Y-67241693D01*
X159600000Y-67241693D01*
X159668612Y-67234935D01*
X159734587Y-67214922D01*
X159795390Y-67182422D01*
X159848685Y-67138685D01*
X159892422Y-67085390D01*
X159924922Y-67024587D01*
X159944935Y-66958612D01*
X159951693Y-66890000D01*
X159951693Y-66515000D01*
X160718761Y-66515000D01*
X160748649Y-66544888D01*
X160855110Y-66616022D01*
X160973402Y-66665021D01*
X161098981Y-66690000D01*
X161227019Y-66690000D01*
X161352598Y-66665021D01*
X161358307Y-66662656D01*
X161358307Y-66890000D01*
X161365065Y-66958612D01*
X161385078Y-67024587D01*
X161417578Y-67085390D01*
X161461315Y-67138685D01*
X161514610Y-67182422D01*
X161575413Y-67214922D01*
X161641388Y-67234935D01*
X161710000Y-67241693D01*
X163410000Y-67241693D01*
X163478612Y-67234935D01*
X163544587Y-67214922D01*
X163605390Y-67182422D01*
X163658685Y-67138685D01*
X163702422Y-67085390D01*
X163734922Y-67024587D01*
X163754935Y-66958612D01*
X163761693Y-66890000D01*
X163761693Y-65190000D01*
X163754935Y-65121388D01*
X163734922Y-65055413D01*
X163702422Y-64994610D01*
X163658685Y-64941315D01*
X163605390Y-64897578D01*
X163544587Y-64865078D01*
X163478612Y-64845065D01*
X163410000Y-64838307D01*
X161710000Y-64838307D01*
X161641388Y-64845065D01*
X161575413Y-64865078D01*
X161514610Y-64897578D01*
X161461315Y-64941315D01*
X161417578Y-64994610D01*
X161385078Y-65055413D01*
X161365065Y-65121388D01*
X161358307Y-65190000D01*
X161358307Y-65417344D01*
X161352598Y-65414979D01*
X161227019Y-65390000D01*
X161098981Y-65390000D01*
X160973402Y-65414979D01*
X160855110Y-65463978D01*
X160748649Y-65535112D01*
X160718761Y-65565000D01*
X159951693Y-65565000D01*
X159951693Y-65190000D01*
X159944935Y-65121388D01*
X159924922Y-65055413D01*
X159892422Y-64994610D01*
X159848685Y-64941315D01*
X159795390Y-64897578D01*
X159734587Y-64865078D01*
X159668612Y-64845065D01*
X159600000Y-64838307D01*
X157900000Y-64838307D01*
X157831388Y-64845065D01*
X157765413Y-64865078D01*
X157704610Y-64897578D01*
X157651315Y-64941315D01*
X157607578Y-64994610D01*
X157575078Y-65055413D01*
X157555065Y-65121388D01*
X157548307Y-65190000D01*
X105785000Y-65190000D01*
X105785000Y-62605000D01*
X165035001Y-62605000D01*
X165035000Y-94855000D01*
M02*
